<svg xmlns="http://www.w3.org/2000/svg" fill="none" viewBox="95.49 13.74 93.07 272.57">
<path d="M102.433 277.294C102.73 277.078 103.284 276.737 104.095 276.272C104.906 275.808 106.439 274.803 108.693 273.259C110.948 271.715 112.826 270.396 114.326 269.301C115.826 268.207 117.006 267.327 117.865 266.661C118.724 265.996 120.879 264.124 124.329 261.046C127.779 257.968 130.652 255.171 132.949 252.656C135.245 250.141 137.037 248.032 138.325 246.33C139.612 244.628 140.829 242.974 141.974 241.366C143.119 239.758 144.299 237.946 145.514 235.928C146.73 233.91 148.895 228.896 152.009 220.885C155.124 212.874 156.85 208.157 157.186 206.734C157.522 205.311 157.952 203.047 158.476 199.943C159 196.838 159.399 193.541 159.672 190.053C159.946 186.565 160.103 184.003 160.145 182.366C160.187 180.728 160.209 179.245 160.211 177.914C160.212 176.584 160.136 174.583 159.982 171.914C159.829 169.244 159.592 166.582 159.273 163.925C158.954 161.269 158.121 156.353 156.774 149.178C155.426 142.003 154.513 137.299 154.034 135.066C153.554 132.834 153.028 130.424 152.454 127.837C151.88 125.25 151.28 122.274 150.654 118.91C150.027 115.546 149.563 112.766 149.262 110.57C148.96 108.374 148.645 105.34 148.317 101.466C147.989 97.5915 147.838 93.8763 147.864 90.3203C147.89 86.7641 147.957 84.4342 148.065 83.3305C148.172 82.227 148.237 81.5444 148.26 81.2825C148.282 81.0205 148.472 79.7882 148.83 77.5858C149.188 75.3831 149.532 73.5245 149.861 72.0099C150.19 70.4955 150.468 69.3227 150.693 68.4915C150.918 67.6603 151.181 66.7342 151.483 65.7131C151.784 64.6924 152.176 63.4284 152.659 61.9209C153.142 60.4134 153.495 59.3227 153.719 58.649C153.943 57.975 154.267 57.1286 154.69 56.1099C155.113 55.0911 155.42 54.3476 155.613 53.8792C155.807 53.4111 156.034 52.8783 156.296 52.2808C156.558 51.6833 156.871 50.973 157.233 50.1499C157.597 49.3265 158.061 48.2415 158.624 46.8947L159.067 45.6262" stroke="#333333" stroke-linecap="round" stroke-linejoin="round"/>
<path d="M103.648 269.993L104.245 269.273C104.71 268.629 105.113 268.056 105.456 267.554C105.798 267.053 106.122 266.549 106.429 266.044C106.736 265.539 107.112 264.844 107.558 263.959C108.004 263.074 108.337 262.352 108.558 261.792C108.778 261.233 108.95 260.755 109.075 260.359C109.199 259.964 109.316 259.533 109.426 259.066C109.536 258.599 109.619 258.216 109.673 257.917C109.728 257.618 109.792 257.091 109.867 256.335C109.941 255.58 109.986 255.065 110.001 254.79C110.015 254.515 109.989 253.723 109.924 252.415C109.859 251.107 109.756 250.034 109.617 249.197C109.478 248.359 109.2 247.24 108.782 245.839C108.365 244.438 107.958 243.241 107.562 242.248C107.166 241.255 106.867 240.533 106.664 240.082C106.461 239.631 106.068 238.826 105.485 237.667L104.617 236.118" fill="#B8E5BE"/>
<path d="M103.648 269.993C103.602 269.911 103.336 269.895 103.09 269.559C102.939 269.333 102.736 269.036 102.481 268.666C102.226 268.296 102.001 267.97 101.808 267.686C101.614 267.402 101.419 267.111 101.221 266.813C101.023 266.515 100.777 266.133 100.483 265.668C100.188 265.204 100.035 264.961 100.025 264.941C100.014 264.921 99.9557 264.817 99.8481 264.631C99.7408 264.444 99.5831 264.171 99.3751 263.812C99.1671 263.453 98.9867 263.135 98.8339 262.859C98.6812 262.583 98.5316 262.301 98.385 262.012C98.2381 261.723 98.0499 261.309 97.8207 260.771C97.5916 260.232 97.4318 259.843 97.3414 259.604C97.2514 259.365 97.1876 259.189 97.1498 259.076C97.1118 258.962 97.0762 258.863 97.0432 258.778C97.0099 258.693 96.8963 258.284 96.7024 257.552C96.5084 256.82 96.3812 256.279 96.3212 255.929C96.2613 255.579 96.2008 255.188 96.1395 254.755C96.0778 254.323 96.0371 253.948 96.0176 253.63C95.998 253.311 95.989 252.847 95.9907 252.235C95.9924 251.624 96.0118 251.127 96.0487 250.743C96.0857 250.359 96.14 249.978 96.2118 249.601C96.2838 249.224 96.3795 248.786 96.4988 248.288C96.618 247.79 96.7174 247.387 96.797 247.078C96.8768 246.769 96.947 246.525 97.0077 246.346C97.0682 246.168 97.1887 245.868 97.369 245.447C97.5494 245.027 97.7055 244.689 97.837 244.434C97.9685 244.179 98.1483 243.856 98.3763 243.466C98.6045 243.075 98.9039 242.577 99.2748 241.97C99.6452 241.364 99.9877 240.834 100.302 240.381C100.617 239.927 100.903 239.549 101.16 239.247C101.418 238.945 101.65 238.687 101.855 238.474C102.059 238.26 102.273 238.053 102.496 237.854C102.719 237.654 103.335 237.154 104.343 236.352L104.617 236.118" fill="#B8E5BE"/>
<path d="M103.648 269.993L104.245 269.273C104.71 268.629 105.113 268.056 105.456 267.554C105.798 267.053 106.122 266.549 106.429 266.044C106.736 265.539 107.112 264.844 107.558 263.959C108.004 263.074 108.337 262.352 108.558 261.792C108.778 261.233 108.95 260.755 109.075 260.359C109.199 259.964 109.316 259.533 109.426 259.066C109.536 258.599 109.619 258.216 109.673 257.917C109.728 257.618 109.792 257.091 109.867 256.335C109.941 255.58 109.986 255.065 110.001 254.79C110.015 254.515 109.989 253.723 109.924 252.415C109.859 251.107 109.756 250.034 109.617 249.197C109.478 248.359 109.2 247.24 108.782 245.839C108.365 244.438 107.958 243.241 107.562 242.248C107.166 241.255 106.867 240.533 106.664 240.082C106.461 239.631 106.068 238.826 105.485 237.667L104.617 236.118L104.343 236.352C103.335 237.154 102.719 237.654 102.496 237.854C102.273 238.053 102.059 238.26 101.855 238.474C101.65 238.687 101.418 238.945 101.16 239.247C100.903 239.549 100.617 239.927 100.302 240.381C99.9877 240.834 99.6452 241.364 99.2748 241.97C98.9039 242.577 98.6045 243.075 98.3763 243.466C98.1483 243.856 97.9685 244.179 97.837 244.434C97.7055 244.689 97.5494 245.027 97.369 245.447C97.1887 245.868 97.0682 246.168 97.0077 246.346C96.947 246.525 96.8768 246.769 96.797 247.078C96.7174 247.387 96.618 247.79 96.4988 248.288C96.3795 248.786 96.2838 249.224 96.2118 249.601C96.14 249.978 96.0857 250.359 96.0487 250.743C96.0118 251.127 95.9924 251.624 95.9907 252.235C95.989 252.847 95.998 253.311 96.0176 253.63C96.0371 253.948 96.0778 254.323 96.1395 254.755C96.2008 255.188 96.2613 255.579 96.3212 255.929C96.3812 256.279 96.5084 256.82 96.7024 257.552C96.8963 258.284 97.0099 258.693 97.0432 258.778C97.0762 258.863 97.1118 258.962 97.1498 259.076C97.1876 259.189 97.2514 259.365 97.3414 259.604C97.4318 259.843 97.5916 260.232 97.8206 260.771C98.0499 261.309 98.2381 261.723 98.385 262.012C98.5316 262.301 98.6812 262.583 98.8339 262.859C98.9867 263.135 99.1671 263.453 99.3751 263.812C99.5831 264.171 99.7408 264.444 99.8481 264.631C99.9557 264.817 100.014 264.921 100.025 264.941C100.035 264.961 100.188 265.204 100.483 265.668C100.777 266.133 101.023 266.515 101.221 266.813C101.419 267.111 101.614 267.402 101.808 267.686C102.001 267.97 102.226 268.296 102.481 268.666C102.736 269.036 102.939 269.333 103.09 269.559C103.336 269.895 103.602 269.911 103.648 269.993Z" stroke="#333333" stroke-linecap="round" stroke-linejoin="round"/>
<path d="M123.291 253.496C123.291 253.496 123.624 253.347 123.931 252.911C124.239 252.474 125.759 250.464 126.096 249.985C126.432 249.507 126.711 249.104 126.933 248.777C127.155 248.449 127.558 247.742 128.144 246.657C128.731 245.572 129.052 244.962 129.109 244.826C129.166 244.69 129.23 244.54 129.3 244.377C129.37 244.214 129.478 243.914 129.624 243.477C129.769 243.039 129.945 242.322 130.15 241.325C130.356 240.329 130.48 239.638 130.522 239.253C130.564 238.868 130.59 238.591 130.602 238.422C130.613 238.253 130.559 237.496 130.438 236.152C130.318 234.808 130.211 233.947 130.117 233.57C130.022 233.192 129.904 232.782 129.762 232.337C129.62 231.893 129.451 231.418 129.257 230.914C129.062 230.41 128.825 229.856 128.546 229.25C128.266 228.645 128.019 228.146 127.804 227.753C127.589 227.36 127.337 226.933 127.047 226.473C126.757 226.012 126.528 225.65 126.359 225.386C126.191 225.122 125.897 224.699 125.479 224.115C125.061 223.53 124.791 223.164 124.67 223.017C124.548 222.87 124.174 222.372 123.547 221.525L122.85 220.69" fill="#B8E5BE"/>
<path d="M123.291 253.496L122.892 252.996C122.823 252.895 122.621 252.566 122.284 252.009C121.948 251.452 121.609 250.896 121.268 250.342C120.927 249.788 120.651 249.338 120.44 248.992C120.229 248.645 120.026 248.31 119.831 247.986C119.636 247.662 119.447 247.335 119.262 247.007C119.077 246.678 118.874 246.296 118.653 245.86C118.433 245.424 118.273 245.091 118.173 244.86C118.073 244.63 117.928 244.247 117.739 243.713C117.55 243.178 117.429 242.815 117.377 242.624C117.324 242.433 117.24 242.087 117.122 241.586C117.005 241.084 116.901 240.539 116.809 239.949C116.717 239.359 116.66 238.914 116.637 238.613C116.613 238.313 116.597 238.121 116.587 238.037C116.577 237.953 116.581 237.54 116.596 236.797C116.611 236.055 116.65 235.383 116.712 234.783C116.774 234.184 116.835 233.714 116.895 233.375C116.956 233.036 117.05 232.587 117.179 232.029C117.308 231.47 117.389 231.119 117.424 230.974C117.458 230.83 117.571 230.447 117.761 229.826C117.95 229.205 118.069 228.825 118.117 228.687C118.165 228.548 118.264 228.296 118.413 227.93C118.561 227.565 118.683 227.277 118.777 227.067C118.87 226.856 119.048 226.472 119.311 225.913C119.574 225.355 119.853 224.832 120.149 224.347C120.444 223.861 120.775 223.351 121.14 222.816L122.85 220.69" fill="#B8E5BE"/>
<path d="M123.291 253.496C123.291 253.496 123.624 253.347 123.931 252.911C124.239 252.474 125.759 250.464 126.096 249.985C126.432 249.507 126.711 249.104 126.933 248.777C127.155 248.449 127.558 247.742 128.144 246.657C128.731 245.572 129.052 244.962 129.109 244.826C129.166 244.69 129.23 244.54 129.3 244.377C129.37 244.214 129.478 243.914 129.624 243.477C129.769 243.039 129.945 242.322 130.15 241.325C130.356 240.329 130.48 239.638 130.522 239.253C130.564 238.868 130.59 238.591 130.602 238.422C130.613 238.253 130.559 237.496 130.438 236.152C130.318 234.808 130.211 233.947 130.117 233.57C130.022 233.192 129.904 232.782 129.762 232.337C129.62 231.893 129.451 231.418 129.257 230.914C129.062 230.41 128.825 229.856 128.546 229.25C128.266 228.645 128.019 228.146 127.804 227.753C127.589 227.36 127.337 226.933 127.047 226.473C126.757 226.012 126.528 225.65 126.359 225.386C126.191 225.122 125.897 224.699 125.479 224.115C125.061 223.53 124.791 223.164 124.67 223.017C124.548 222.87 124.174 222.372 123.547 221.525L122.85 220.69L121.14 222.816C120.775 223.351 120.444 223.861 120.149 224.347C119.853 224.832 119.574 225.355 119.311 225.913C119.048 226.472 118.87 226.856 118.777 227.067C118.683 227.277 118.561 227.565 118.413 227.93C118.264 228.296 118.165 228.548 118.117 228.687C118.069 228.825 117.95 229.205 117.761 229.826C117.571 230.447 117.458 230.83 117.424 230.974C117.389 231.119 117.308 231.47 117.179 232.029C117.05 232.587 116.956 233.036 116.895 233.375C116.835 233.714 116.774 234.184 116.712 234.783C116.65 235.383 116.611 236.055 116.596 236.797C116.581 237.54 116.577 237.953 116.587 238.037C116.597 238.121 116.613 238.313 116.637 238.613C116.66 238.914 116.717 239.359 116.809 239.949C116.901 240.539 117.005 241.084 117.122 241.586C117.24 242.087 117.324 242.433 117.377 242.624C117.429 242.815 117.55 243.178 117.739 243.713C117.928 244.247 118.073 244.63 118.173 244.86C118.273 245.091 118.433 245.424 118.653 245.86C118.874 246.296 119.077 246.678 119.262 247.007C119.447 247.335 119.636 247.662 119.831 247.986C120.026 248.31 120.229 248.645 120.44 248.992C120.651 249.338 120.927 249.788 121.268 250.342C121.609 250.896 121.948 251.452 122.284 252.009C122.621 252.566 122.823 252.895 122.892 252.996L123.291 253.496Z" stroke="#333333" stroke-linecap="round" stroke-linejoin="round"/>
<path d="M147.35 219.859L147.446 219.222C147.461 219.115 147.49 218.805 147.534 218.293C147.578 217.781 147.611 217.409 147.633 217.176C147.656 216.943 147.676 216.741 147.693 216.568C147.711 216.396 147.748 215.986 147.804 215.336C147.861 214.687 147.906 214.011 147.941 213.308C147.975 212.604 147.991 212.032 147.989 211.592C147.986 211.152 147.974 210.687 147.953 210.197C147.932 209.707 147.922 209.448 147.922 209.42C147.921 209.392 147.896 209.157 147.845 208.715C147.795 208.274 147.741 207.877 147.683 207.525C147.625 207.173 147.554 206.793 147.471 206.383C147.388 205.974 147.311 205.615 147.239 205.307C147.167 204.998 147.085 204.689 146.993 204.377C146.902 204.066 146.818 203.794 146.741 203.561C146.665 203.327 146.556 203.038 146.415 202.692C146.274 202.346 146.134 202.026 145.994 201.734C145.854 201.442 145.691 201.118 145.505 200.764C145.319 200.41 145.116 200.05 144.895 199.683C144.674 199.317 144.436 198.944 144.18 198.566C143.682 198.024 143.214 197.526 142.775 197.073C142.337 196.621 141.927 196.213 141.547 195.849C141.166 195.486 140.815 195.167 140.492 194.893C140.17 194.618 139.811 194.343 139.415 194.066C139.02 193.788 138.636 193.528 138.265 193.284C137.893 193.04 137.547 192.829 137.225 192.652C136.903 192.475 136.586 192.319 136.275 192.182C135.964 192.045 135.622 191.907 135.248 191.768C134.875 191.628 134.419 191.465 133.879 191.277C133.339 191.09 132.896 190.937 132.548 190.819C132.2 190.701 131.909 190.604 131.676 190.531C131.442 190.457 131.067 190.347 130.55 190.202C130.034 190.056 128.777 189.807 128.236 189.624" fill="#B8E5BE"/>
<path d="M147.35 219.859C146.896 219.695 146.472 219.605 146.239 219.509C146.005 219.413 145.755 219.307 145.49 219.19C145.224 219.074 144.904 218.932 144.53 218.764C144.155 218.596 143.848 218.457 143.607 218.348C143.366 218.24 143.165 218.148 143.005 218.074C142.845 218.001 142.537 217.846 142.082 217.608C141.627 217.37 141.154 217.111 140.662 216.831C140.171 216.551 139.758 216.3 139.423 216.078C139.089 215.856 138.726 215.604 138.334 215.321C137.943 215.038 137.464 214.653 136.898 214.168C136.333 213.681 135.954 213.345 135.761 213.16C135.568 212.975 135.306 212.7 134.977 212.337C134.647 211.973 134.216 211.489 133.685 210.886C133.633 210.812 133.516 210.642 133.335 210.376C133.153 210.11 132.907 209.748 132.596 209.29C132.285 208.832 132.013 208.42 131.782 208.053C131.55 207.685 131.32 207.295 131.091 206.88C130.863 206.465 130.622 205.977 130.369 205.413C130.115 204.85 129.955 204.479 129.888 204.3C129.82 204.122 129.731 203.887 129.621 203.596C129.51 203.305 129.396 202.987 129.28 202.642C129.163 202.298 129.051 201.947 128.943 201.591C128.834 201.234 128.684 200.687 128.492 199.947C128.299 199.209 128.137 198.528 128.005 197.904C127.872 197.281 127.775 196.702 127.713 196.169C127.652 195.637 127.618 195.102 127.612 194.566C127.605 194.03 127.612 193.621 127.631 193.34C127.651 193.058 127.671 192.832 127.69 192.659C127.71 192.487 127.759 192.157 127.838 191.668C127.917 191.179 128.05 190.498 128.236 189.624" fill="#B8E5BE"/>
<path d="M147.35 219.859L147.446 219.222C147.461 219.115 147.49 218.805 147.534 218.293C147.578 217.781 147.611 217.409 147.633 217.176C147.656 216.943 147.676 216.741 147.693 216.568C147.711 216.396 147.748 215.986 147.804 215.336C147.861 214.687 147.906 214.011 147.941 213.308C147.975 212.604 147.991 212.032 147.989 211.592C147.986 211.152 147.974 210.687 147.953 210.197C147.932 209.707 147.922 209.448 147.922 209.42C147.921 209.392 147.896 209.157 147.845 208.715C147.795 208.274 147.741 207.877 147.683 207.525C147.625 207.173 147.554 206.793 147.471 206.383C147.388 205.974 147.311 205.615 147.239 205.307C147.167 204.998 147.085 204.689 146.993 204.377C146.902 204.066 146.818 203.794 146.741 203.561C146.665 203.327 146.556 203.038 146.415 202.692C146.274 202.346 146.134 202.026 145.994 201.734C145.854 201.442 145.691 201.118 145.505 200.764C145.319 200.41 145.116 200.05 144.895 199.683C144.674 199.317 144.436 198.944 144.18 198.566C143.682 198.024 143.214 197.526 142.775 197.073C142.337 196.621 141.927 196.213 141.547 195.849C141.166 195.486 140.815 195.167 140.492 194.893C140.17 194.618 139.811 194.343 139.415 194.066C139.02 193.788 138.636 193.528 138.265 193.284C137.893 193.04 137.547 192.829 137.225 192.652C136.903 192.475 136.586 192.319 136.275 192.182C135.964 192.045 135.622 191.907 135.248 191.768C134.875 191.628 134.419 191.465 133.879 191.277C133.339 191.09 132.896 190.937 132.548 190.819C132.2 190.701 131.909 190.604 131.676 190.531C131.442 190.457 131.067 190.347 130.55 190.202C130.034 190.056 128.777 189.807 128.236 189.624C128.05 190.498 127.917 191.179 127.838 191.668C127.759 192.157 127.71 192.487 127.69 192.659C127.671 192.832 127.651 193.058 127.631 193.34C127.612 193.621 127.605 194.03 127.612 194.566C127.618 195.102 127.652 195.637 127.713 196.169C127.775 196.702 127.872 197.281 128.005 197.904C128.137 198.528 128.299 199.209 128.492 199.947C128.684 200.687 128.834 201.234 128.943 201.591C129.051 201.947 129.163 202.298 129.28 202.642C129.396 202.987 129.51 203.305 129.621 203.596C129.731 203.887 129.82 204.122 129.888 204.3C129.955 204.479 130.115 204.85 130.369 205.413C130.622 205.977 130.863 206.465 131.091 206.88C131.32 207.295 131.55 207.685 131.782 208.053C132.013 208.42 132.285 208.832 132.596 209.29C132.907 209.748 133.153 210.11 133.335 210.376C133.516 210.642 133.633 210.812 133.685 210.886C134.216 211.489 134.647 211.973 134.977 212.337C135.306 212.7 135.568 212.975 135.761 213.16C135.954 213.345 136.333 213.681 136.898 214.168C137.464 214.653 137.943 215.038 138.334 215.321C138.726 215.604 139.089 215.856 139.423 216.078C139.758 216.3 140.171 216.551 140.662 216.831C141.154 217.111 141.627 217.37 142.082 217.608C142.537 217.846 142.845 218.001 143.005 218.074C143.165 218.148 143.366 218.24 143.607 218.348C143.848 218.457 144.155 218.596 144.53 218.764C144.904 218.932 145.224 219.074 145.49 219.19C145.755 219.307 146.005 219.413 146.239 219.509C146.472 219.605 146.896 219.695 147.35 219.859Z" stroke="#333333" stroke-linecap="round" stroke-linejoin="round"/>
<path d="M155.542 181.726C155.516 181.252 155.482 180.836 155.44 180.479C155.398 180.123 155.345 179.698 155.28 179.205C155.215 178.712 155.149 178.258 155.082 177.843C155.015 177.427 154.936 176.968 154.844 176.465C154.754 175.962 154.644 175.44 154.516 174.898C154.387 174.356 154.24 173.795 154.075 173.214C153.909 172.634 153.776 172.172 153.674 171.83C153.571 171.488 153.491 171.239 153.434 171.083C153.376 170.927 153.244 170.598 153.037 170.096C152.829 169.594 152.601 169.097 152.352 168.604C152.102 168.111 151.93 167.782 151.834 167.617C151.738 167.451 151.613 167.254 151.459 167.026C151.306 166.797 151.106 166.51 150.862 166.163C150.618 165.817 150.401 165.517 150.211 165.264C150.022 165.01 149.827 164.764 149.625 164.523C149.423 164.283 149.19 164.025 148.923 163.749C148.657 163.474 148.252 163.088 147.708 162.59C147.163 162.093 146.683 161.692 146.268 161.388C145.852 161.084 145.437 160.807 145.022 160.555C144.608 160.303 144.124 160.027 143.572 159.727C143.02 159.426 142.497 159.158 142.004 158.923C141.511 158.688 141.047 158.485 140.612 158.315C140.178 158.145 139.784 157.998 139.43 157.874C139.076 157.75 138.695 157.628 138.285 157.509C137.874 157.391 137.426 157.28 136.939 157.177C136.452 157.074 136.021 156.99 135.646 156.925C135.271 156.86 134.831 156.783 134.326 156.696C133.821 156.609 133 156.46 131.861 156.248C131.614 156.213 131.358 156.17 131.096 156.119C130.832 156.068 130.585 156.012 130.353 155.951L129 155.718" fill="#B8E5BE"/>
<path d="M155.542 181.726L154.96 181.629C154.294 181.503 153.9 181.427 153.777 181.399C153.655 181.373 153.45 181.328 153.163 181.264C152.877 181.202 152.544 181.121 152.164 181.021C151.784 180.921 151.317 180.798 150.763 180.649C150.209 180.501 149.766 180.382 149.435 180.293C149.104 180.204 148.878 180.14 148.755 180.101C148.634 180.063 148.419 179.988 148.112 179.877C147.804 179.766 147.406 179.619 146.917 179.437C146.428 179.254 146.015 179.098 145.678 178.968C145.341 178.837 145.032 178.711 144.752 178.591C144.471 178.47 144.216 178.353 143.987 178.24C143.757 178.126 143.489 177.986 143.183 177.819C142.876 177.653 142.421 177.384 141.815 177.013C141.209 176.642 140.71 176.311 140.315 176.021C139.922 175.73 139.562 175.448 139.237 175.173C138.913 174.898 138.557 174.583 138.17 174.227C137.783 173.871 137.469 173.579 137.229 173.351C136.989 173.123 136.798 172.935 136.658 172.785C136.517 172.635 136.232 172.313 135.802 171.817C135.371 171.321 134.991 170.848 134.662 170.398C134.332 169.947 133.974 169.411 133.586 168.79C133.198 168.168 132.972 167.798 132.908 167.679C132.844 167.56 132.758 167.39 132.651 167.171C132.543 166.951 132.403 166.662 132.231 166.302C132.058 165.942 131.907 165.618 131.777 165.331C131.648 165.044 131.519 164.739 131.389 164.417C131.259 164.094 131.105 163.694 130.928 163.217C130.751 162.74 130.609 162.321 130.505 161.962C130.399 161.602 130.247 161.06 130.049 160.335C129.85 159.61 129.712 159.099 129.637 158.803C129.56 158.507 129.437 158.045 129.268 157.417C129.228 157.234 129.13 156.531 129 155.718" fill="#B8E5BE"/>
<path d="M155.542 181.726C155.516 181.252 155.482 180.836 155.44 180.479C155.398 180.123 155.345 179.698 155.28 179.205C155.215 178.712 155.149 178.258 155.082 177.843C155.015 177.427 154.936 176.968 154.844 176.465C154.754 175.962 154.644 175.44 154.516 174.898C154.387 174.356 154.24 173.795 154.075 173.214C153.909 172.634 153.776 172.172 153.674 171.83C153.571 171.488 153.491 171.239 153.434 171.083C153.376 170.927 153.244 170.598 153.037 170.096C152.83 169.594 152.601 169.097 152.352 168.604C152.102 168.111 151.93 167.782 151.834 167.617C151.738 167.451 151.613 167.254 151.459 167.026C151.306 166.797 151.106 166.51 150.862 166.163C150.618 165.817 150.401 165.517 150.211 165.264C150.022 165.01 149.827 164.764 149.625 164.523C149.423 164.283 149.19 164.025 148.923 163.749C148.657 163.474 148.252 163.088 147.708 162.59C147.163 162.093 146.683 161.692 146.268 161.388C145.852 161.084 145.437 160.807 145.022 160.555C144.608 160.303 144.124 160.027 143.572 159.727C143.02 159.426 142.497 159.158 142.004 158.923C141.511 158.688 141.047 158.485 140.612 158.315C140.178 158.145 139.784 157.998 139.43 157.874C139.076 157.75 138.695 157.628 138.285 157.509C137.874 157.391 137.426 157.28 136.939 157.177C136.452 157.074 136.021 156.99 135.646 156.925C135.271 156.86 134.831 156.783 134.326 156.696C133.821 156.609 133 156.46 131.861 156.248C131.614 156.213 131.358 156.17 131.096 156.119C130.832 156.068 130.585 156.012 130.353 155.951L129 155.718C129.13 156.531 129.228 157.234 129.268 157.417C129.437 158.045 129.56 158.507 129.637 158.803C129.712 159.099 129.85 159.61 130.049 160.335C130.247 161.06 130.399 161.602 130.505 161.962C130.609 162.321 130.751 162.74 130.928 163.217C131.105 163.694 131.259 164.094 131.389 164.417C131.519 164.739 131.648 165.044 131.777 165.331C131.907 165.618 132.058 165.942 132.231 166.302C132.403 166.662 132.543 166.951 132.651 167.171C132.758 167.39 132.844 167.56 132.908 167.679C132.972 167.798 133.198 168.168 133.586 168.79C133.974 169.411 134.332 169.947 134.662 170.398C134.991 170.848 135.371 171.321 135.802 171.817C136.232 172.313 136.517 172.635 136.658 172.785C136.798 172.935 136.989 173.123 137.229 173.351C137.469 173.579 137.783 173.871 138.17 174.227C138.557 174.583 138.913 174.898 139.237 175.173C139.562 175.448 139.922 175.73 140.315 176.021C140.71 176.311 141.209 176.642 141.815 177.013C142.421 177.384 142.876 177.653 143.183 177.819C143.489 177.986 143.757 178.126 143.987 178.24C144.216 178.353 144.471 178.47 144.752 178.591C145.032 178.711 145.341 178.837 145.678 178.968C146.015 179.098 146.428 179.254 146.917 179.437C147.406 179.619 147.804 179.766 148.112 179.877C148.419 179.988 148.634 180.063 148.755 180.101C148.878 180.14 149.104 180.204 149.435 180.293C149.766 180.382 150.209 180.501 150.763 180.649C151.317 180.798 151.784 180.921 152.164 181.021C152.544 181.121 152.877 181.202 153.163 181.264C153.45 181.328 153.655 181.373 153.777 181.399C153.9 181.427 154.294 181.503 154.96 181.629L155.542 181.726Z" stroke="#333333" stroke-linecap="round" stroke-linejoin="round"/>
<path d="M150.259 138.268L149.905 137.537C149.592 137.003 149.218 136.393 148.782 135.706C148.347 135.018 148.008 134.493 147.767 134.131C147.525 133.768 147.279 133.409 147.027 133.053C146.776 132.697 146.517 132.333 146.251 131.963C145.985 131.592 145.796 131.334 145.683 131.187C145.571 131.041 145.383 130.819 145.118 130.521C144.852 130.224 144.552 129.925 144.219 129.623C143.885 129.321 143.474 128.968 142.984 128.562C142.494 128.157 142.079 127.824 141.738 127.565C141.397 127.305 141.082 127.089 140.793 126.917C140.504 126.746 140.206 126.586 139.897 126.437C139.588 126.289 139.253 126.141 138.891 125.995C138.529 125.848 138.135 125.706 137.709 125.569C137.284 125.432 136.938 125.327 136.674 125.253C136.41 125.179 135.953 125.091 135.303 124.988C134.652 124.885 134.136 124.814 133.753 124.775C133.371 124.736 133.008 124.709 132.665 124.695C132.323 124.68 131.927 124.672 131.48 124.671C131.031 124.671 130.608 124.676 130.211 124.687C129.814 124.699 129.359 124.722 128.847 124.757C128.336 124.792 127.909 124.827 127.567 124.863C127.225 124.899 126.897 124.932 126.582 124.963C126.267 124.994 125.958 125.023 125.657 125.051C125.356 125.079 125.05 125.108 124.741 125.138C124.431 125.168 124.067 125.204 123.649 125.245C123.231 125.286 122.759 125.333 122.232 125.385C121.706 125.437 121.125 125.495 120.49 125.559" fill="#B8E5BE"/>
<path d="M150.259 138.268C149.965 138.321 149.667 138.368 149.364 138.411C149.062 138.453 148.61 138.506 148.01 138.569C147.41 138.633 146.916 138.679 146.529 138.709C146.142 138.738 145.745 138.767 145.338 138.796C144.931 138.825 144.42 138.846 143.806 138.859C143.191 138.872 142.626 138.871 142.109 138.854C141.592 138.838 141.024 138.812 140.404 138.778C139.784 138.743 139.286 138.706 138.91 138.666C138.534 138.626 138.273 138.597 138.127 138.579C137.98 138.56 137.572 138.483 136.902 138.347C136.232 138.211 135.591 138.048 134.98 137.857C134.369 137.667 133.866 137.494 133.472 137.338C133.078 137.182 132.654 137.001 132.199 136.795C131.744 136.588 131.393 136.419 131.148 136.289C130.902 136.158 130.769 136.087 130.748 136.074C130.726 136.062 130.375 135.836 129.694 135.397C129.014 134.958 128.322 134.453 127.619 133.882C126.916 133.311 126.389 132.853 126.039 132.509C125.689 132.164 125.489 131.965 125.438 131.912C125.386 131.859 125.108 131.546 124.601 130.974C124.095 130.402 123.664 129.883 123.308 129.418C122.951 128.952 122.692 128.611 122.529 128.395C122.366 128.18 122.203 127.953 122.041 127.714C121.879 127.475 121.209 126.496 120.49 125.559" fill="#B8E5BE"/>
<path d="M150.259 138.268L149.905 137.537C149.592 137.003 149.218 136.393 148.782 135.706C148.347 135.018 148.008 134.493 147.767 134.131C147.525 133.768 147.279 133.409 147.027 133.053C146.776 132.697 146.517 132.333 146.251 131.963C145.985 131.592 145.796 131.334 145.683 131.187C145.571 131.041 145.383 130.819 145.118 130.521C144.852 130.224 144.552 129.925 144.219 129.623C143.885 129.321 143.474 128.968 142.984 128.562C142.494 128.157 142.079 127.824 141.738 127.565C141.397 127.305 141.082 127.089 140.793 126.917C140.504 126.746 140.206 126.586 139.897 126.437C139.588 126.289 139.253 126.141 138.891 125.995C138.529 125.848 138.135 125.706 137.709 125.569C137.284 125.432 136.938 125.327 136.674 125.253C136.41 125.179 135.953 125.091 135.303 124.988C134.652 124.885 134.136 124.814 133.753 124.775C133.371 124.736 133.008 124.709 132.665 124.695C132.323 124.68 131.927 124.672 131.48 124.671C131.031 124.671 130.608 124.676 130.211 124.687C129.814 124.699 129.359 124.722 128.847 124.757C128.336 124.792 127.909 124.827 127.567 124.863C127.225 124.899 126.897 124.932 126.582 124.963C126.267 124.994 125.958 125.023 125.657 125.051C125.356 125.079 125.05 125.108 124.741 125.138C124.431 125.168 124.067 125.204 123.649 125.245C123.231 125.286 122.759 125.333 122.232 125.385C121.706 125.437 121.125 125.495 120.49 125.559C121.209 126.496 121.879 127.475 122.041 127.714C122.203 127.953 122.366 128.18 122.529 128.395C122.692 128.611 122.951 128.952 123.308 129.418C123.664 129.883 124.095 130.402 124.601 130.974C125.108 131.546 125.386 131.859 125.438 131.912C125.489 131.965 125.689 132.164 126.039 132.509C126.389 132.853 126.916 133.311 127.619 133.882C128.322 134.453 129.014 134.958 129.694 135.397C130.375 135.836 130.726 136.062 130.748 136.074C130.769 136.087 130.902 136.158 131.148 136.289C131.393 136.419 131.744 136.588 132.199 136.795C132.654 137.001 133.078 137.182 133.472 137.338C133.866 137.494 134.369 137.667 134.98 137.857C135.591 138.048 136.232 138.211 136.902 138.347C137.572 138.483 137.98 138.56 138.127 138.579C138.273 138.597 138.534 138.626 138.91 138.666C139.286 138.706 139.784 138.743 140.404 138.778C141.024 138.812 141.592 138.838 142.109 138.854C142.626 138.871 143.191 138.872 143.806 138.859C144.42 138.846 144.931 138.825 145.338 138.796C145.745 138.767 146.142 138.738 146.529 138.709C146.916 138.679 147.41 138.633 148.01 138.569C148.61 138.506 149.062 138.453 149.364 138.411C149.667 138.368 149.965 138.321 150.259 138.268Z" stroke="#333333" stroke-linecap="round" stroke-linejoin="round"/>
<path d="M145.244 110.731C145.17 110.409 145.178 109.638 145.084 109.235C144.747 108.152 144.457 107.249 144.212 106.525C143.966 105.802 143.779 105.255 143.648 104.886C143.517 104.516 143.389 104.181 143.265 103.881C143.141 103.581 143.009 103.28 142.87 102.98C142.731 102.68 142.564 102.329 142.368 101.928C142.172 101.528 141.993 101.17 141.829 100.854C141.664 100.539 141.483 100.208 141.284 99.863C141.085 99.5173 140.887 99.191 140.691 98.8839C140.495 98.5767 140.159 98.1253 139.684 97.5292C139.209 96.9334 138.801 96.4624 138.46 96.1161C138.119 95.7696 137.742 95.4326 137.327 95.105C136.913 94.7774 136.406 94.4015 135.804 93.9773C135.202 93.5527 134.658 93.1915 134.17 92.8941C133.681 92.5962 133.249 92.3617 132.873 92.1905C132.497 92.0191 132.141 91.8659 131.805 91.7308C131.47 91.5958 131.08 91.4533 130.632 91.3032C130.185 91.1536 129.81 91.0387 129.508 90.9583C129.205 90.8784 128.87 90.7986 128.504 90.7189C128.137 90.6391 127.666 90.5417 127.089 90.4267C126.513 90.3115 125.99 90.2095 125.522 90.1209C125.053 90.0322 124.582 89.9483 124.108 89.8691C123.633 89.7899 123.194 89.7156 122.789 89.6464C122.384 89.5771 122.049 89.5153 121.783 89.461C121.517 89.4068 120.933 89.346 120.45 89.2328" fill="#B8E5BE"/>
<path d="M145.244 110.731C145.081 110.719 144.907 110.716 144.722 110.722C144.537 110.728 144.435 110.73 144.415 110.728C144.396 110.726 144.039 110.724 143.344 110.722C142.648 110.719 142.018 110.709 141.454 110.691C140.889 110.674 140.409 110.653 140.015 110.628C139.621 110.603 139.165 110.558 138.649 110.493C138.132 110.429 137.605 110.339 137.067 110.224C136.53 110.109 136.029 109.981 135.566 109.842C135.104 109.703 134.677 109.559 134.285 109.411C133.895 109.262 133.576 109.133 133.33 109.022C133.083 108.912 132.819 108.777 132.538 108.618C132.256 108.458 131.985 108.287 131.722 108.105C131.46 107.923 131.161 107.702 130.824 107.444C130.488 107.186 130.134 106.893 129.762 106.564C129.39 106.236 129.001 105.872 128.594 105.474C128.568 105.442 128.47 105.316 128.3 105.097C128.13 104.878 127.888 104.565 127.574 104.158C127.26 103.751 126.983 103.377 126.742 103.033C126.501 102.69 126.255 102.309 126.003 101.89C125.752 101.471 125.494 100.997 125.228 100.469C124.962 99.9401 124.737 99.4783 124.553 99.0831C124.369 98.6876 124.206 98.3269 124.063 98.0009C123.921 97.675 123.789 97.3504 123.668 97.0271C123.547 96.7036 123.416 96.3674 123.276 96.0187C123.137 95.67 123.027 95.3961 122.949 95.197C122.87 94.998 122.758 94.6989 122.613 94.2995C122.468 93.9002 122.323 93.5119 122.177 93.1349C122.031 92.758 121.826 92.258 121.563 91.6349C121.3 91.012 120.929 90.2114 120.45 89.2328" fill="#B8E5BE"/>
<path d="M145.244 110.731C145.17 110.409 145.178 109.638 145.084 109.235C144.747 108.152 144.457 107.249 144.212 106.525C143.966 105.802 143.779 105.255 143.648 104.886C143.517 104.516 143.389 104.181 143.265 103.881C143.141 103.581 143.009 103.28 142.87 102.98C142.731 102.68 142.564 102.329 142.368 101.928C142.172 101.528 141.993 101.17 141.829 100.854C141.664 100.539 141.483 100.208 141.284 99.863C141.085 99.5173 140.887 99.191 140.691 98.8839C140.495 98.5767 140.159 98.1253 139.684 97.5292C139.209 96.9334 138.801 96.4624 138.46 96.1161C138.119 95.7696 137.742 95.4326 137.327 95.105C136.913 94.7774 136.406 94.4015 135.804 93.9773C135.202 93.5527 134.658 93.1915 134.17 92.8941C133.681 92.5962 133.249 92.3617 132.873 92.1905C132.497 92.0191 132.141 91.8659 131.805 91.7308C131.47 91.5958 131.08 91.4533 130.632 91.3032C130.185 91.1536 129.81 91.0387 129.508 90.9583C129.205 90.8784 128.87 90.7986 128.504 90.7189C128.137 90.6391 127.666 90.5417 127.089 90.4267C126.513 90.3115 125.99 90.2095 125.522 90.1209C125.053 90.0322 124.582 89.9483 124.108 89.8691C123.633 89.7899 123.194 89.7156 122.789 89.6464C122.384 89.5771 122.049 89.5153 121.783 89.461C121.517 89.4068 120.933 89.346 120.45 89.2328C120.929 90.2114 121.3 91.012 121.563 91.6349C121.826 92.258 122.031 92.758 122.177 93.1349C122.323 93.5119 122.468 93.9002 122.613 94.2995C122.758 94.6989 122.87 94.998 122.949 95.197C123.027 95.3961 123.137 95.67 123.276 96.0187C123.416 96.3674 123.547 96.7036 123.668 97.0271C123.789 97.3504 123.921 97.675 124.063 98.0009C124.206 98.3269 124.369 98.6876 124.553 99.0831C124.737 99.4783 124.962 99.9401 125.228 100.469C125.494 100.997 125.752 101.471 126.003 101.89C126.255 102.309 126.501 102.69 126.742 103.033C126.983 103.377 127.26 103.751 127.574 104.158C127.888 104.565 128.13 104.878 128.3 105.097C128.47 105.316 128.568 105.442 128.594 105.474C129.001 105.872 129.39 106.236 129.762 106.564C130.134 106.893 130.488 107.186 130.824 107.444C131.161 107.702 131.46 107.923 131.722 108.105C131.985 108.287 132.256 108.458 132.538 108.618C132.819 108.777 133.083 108.912 133.33 109.022C133.576 109.133 133.895 109.262 134.285 109.411C134.677 109.559 135.104 109.703 135.566 109.842C136.029 109.981 136.53 110.109 137.067 110.224C137.605 110.339 138.132 110.429 138.649 110.493C139.165 110.558 139.621 110.603 140.015 110.628C140.409 110.653 140.889 110.674 141.454 110.691C142.018 110.709 142.648 110.719 143.344 110.722C144.039 110.724 144.396 110.726 144.415 110.728C144.435 110.73 144.537 110.728 144.722 110.722C144.907 110.716 145.081 110.719 145.244 110.731Z" stroke="#333333" stroke-linecap="round" stroke-linejoin="round"/>
<path d="M144.594 81.6924C144.568 81.2165 144.511 80.4705 144.419 79.8999C144.326 79.3294 144.243 78.824 144.168 78.3833C144.093 77.942 144.004 77.4521 143.899 76.9137C143.793 76.3753 143.718 76.0025 143.672 75.7953C143.625 75.5882 143.547 75.2983 143.436 74.9257C143.326 74.5532 143.187 74.1111 143.02 73.5993C142.853 73.0878 142.674 72.6004 142.483 72.1371C142.291 71.6737 142.143 71.3359 142.038 71.1237C141.932 70.9119 141.759 70.588 141.519 70.1519C141.279 69.7158 141.008 69.283 140.707 68.8535C140.406 68.424 140.096 68.0201 139.779 67.6415C139.461 67.263 139.166 66.9355 138.893 66.659C138.62 66.3827 138.362 66.1316 138.12 65.9061C137.877 65.6809 137.599 65.4438 137.285 65.195C136.971 64.9459 136.548 64.6502 136.016 64.3075C135.484 63.9647 134.922 63.6409 134.33 63.3361C133.737 63.0313 133.201 62.7867 132.721 62.6021C132.241 62.4178 131.85 62.2787 131.547 62.1851C131.244 62.0915 131.006 62.0177 130.832 61.9633C130.657 61.9092 130.283 61.8056 129.71 61.6527C129.138 61.4993 128.62 61.375 128.156 61.2795C127.692 61.1837 127.441 61.1326 127.404 61.1263C127.366 61.1202 126.907 61.028 126.028 60.8501C125.149 60.6721 124.058 60.4486 122.754 60.1796" fill="#B8E5BE"/>
<path d="M144.594 81.6924C144.254 81.6144 143.507 81.4233 142.353 81.1193C141.762 80.9821 141.127 80.8185 140.45 80.6286C139.773 80.4386 139.195 80.2656 138.716 80.1092C138.237 79.9526 137.961 79.8632 137.887 79.8409C137.814 79.8183 137.604 79.7413 137.258 79.6098C136.911 79.4787 136.44 79.2799 135.842 79.0132C135.245 78.7463 134.55 78.3791 133.756 77.9118C132.962 77.4442 132.501 77.1651 132.374 77.0744C132.246 76.9836 131.974 76.7823 131.557 76.4704C131.14 76.1584 130.364 75.3871 129.227 74.1565C128.091 72.9263 127.339 72.042 126.971 71.5036C126.603 70.9652 126.322 70.5293 126.128 70.1959C125.934 69.863 125.719 69.4476 125.484 68.9497C125.249 68.4518 125.066 68.0307 124.936 67.6864C124.806 67.3419 124.652 66.9022 124.475 66.3671C124.298 65.832 124.182 65.4716 124.127 65.2857C124.072 65.0998 123.987 64.7877 123.87 64.3495C123.637 63.4425 123.232 61.8449 122.754 60.1796" fill="#B8E5BE"/>
<path d="M144.594 81.6924C144.568 81.2165 144.511 80.4705 144.419 79.8999C144.326 79.3294 144.243 78.824 144.168 78.3833C144.093 77.942 144.004 77.4521 143.899 76.9137C143.793 76.3753 143.718 76.0025 143.672 75.7953C143.625 75.5882 143.547 75.2983 143.436 74.9257C143.326 74.5532 143.187 74.1111 143.02 73.5993C142.853 73.0878 142.674 72.6004 142.483 72.1371C142.291 71.6737 142.143 71.3359 142.038 71.1237C141.932 70.9119 141.759 70.588 141.519 70.1519C141.279 69.7158 141.008 69.283 140.707 68.8535C140.406 68.424 140.096 68.0201 139.779 67.6415C139.461 67.263 139.166 66.9355 138.893 66.659C138.62 66.3827 138.362 66.1316 138.12 65.9061C137.877 65.6809 137.599 65.4438 137.285 65.195C136.971 64.9459 136.548 64.6502 136.016 64.3075C135.484 63.9647 134.922 63.6409 134.33 63.3361C133.737 63.0313 133.201 62.7867 132.721 62.6021C132.241 62.4178 131.85 62.2787 131.547 62.1851C131.244 62.0915 131.006 62.0177 130.832 61.9633C130.657 61.9092 130.283 61.8056 129.71 61.6527C129.138 61.4993 128.62 61.375 128.156 61.2795C127.692 61.1837 127.441 61.1326 127.404 61.1263C127.366 61.1202 126.907 61.028 126.028 60.8501C125.149 60.6721 124.058 60.4486 122.754 60.1796C123.232 61.8449 123.637 63.4425 123.87 64.3495C123.987 64.7877 124.072 65.0998 124.127 65.2857C124.182 65.4716 124.298 65.832 124.475 66.3671C124.652 66.9022 124.806 67.3419 124.936 67.6864C125.066 68.0307 125.249 68.4518 125.484 68.9497C125.719 69.4476 125.934 69.863 126.128 70.1959C126.322 70.5293 126.603 70.9652 126.971 71.5036C127.339 72.042 128.091 72.9263 129.227 74.1565C130.364 75.3871 131.14 76.1584 131.557 76.4704C131.974 76.7823 132.246 76.9836 132.374 77.0744C132.501 77.1651 132.962 77.4442 133.756 77.9118C134.55 78.3791 135.245 78.7463 135.842 79.0132C136.44 79.2799 136.911 79.4787 137.258 79.6098C137.604 79.7413 137.814 79.8183 137.887 79.8409C137.961 79.8632 138.237 79.9526 138.716 80.1092C139.195 80.2656 139.773 80.4386 140.45 80.6286C141.127 80.8185 141.762 80.9821 142.353 81.1193C143.507 81.4233 144.254 81.6144 144.594 81.6924Z" stroke="#333333" stroke-linecap="round" stroke-linejoin="round"/>
<path d="M149.631 56.3361L149.603 55.8337C149.563 55.2441 149.519 54.7534 149.474 54.3621C149.428 53.9709 149.386 53.6439 149.349 53.3808C149.313 53.118 149.276 52.8666 149.24 52.6266C149.204 52.3866 149.129 51.9704 149.014 51.3777C148.899 50.7845 148.814 50.3682 148.757 50.1288C148.7 49.8895 148.571 49.3992 148.371 48.658C148.17 47.9166 148.015 47.3841 147.906 47.0606C147.797 46.7371 147.684 46.424 147.565 46.1215C147.447 45.8188 147.305 45.473 147.14 45.0838C146.976 44.6945 146.805 44.3139 146.628 43.9421C146.451 43.5701 146.268 43.2066 146.079 42.852C145.89 42.4977 145.718 42.1857 145.563 41.9159C145.409 41.6459 145.271 41.4185 145.151 41.2336C145.03 41.0485 144.865 40.8158 144.656 40.5354C144.446 40.2549 144.191 39.9265 143.891 39.5505C143.591 39.1747 143.318 38.8444 143.07 38.5593C142.822 38.2741 142.552 37.9859 142.258 37.6945C141.965 37.4029 141.615 37.0786 141.208 36.7218C140.801 36.3654 140.432 36.0638 140.101 35.8169C139.769 35.57 139.501 35.3833 139.296 35.2566C139.091 35.1296 138.88 35.0054 138.663 34.8843C138.447 34.7632 138.253 34.6608 138.083 34.5774C137.913 34.4939 137.596 34.3518 137.132 34.1512C136.668 33.9505 136.135 33.7537 135.535 33.5608C134.934 33.3675 134.008 33.1343 132.757 32.8611L131.61 32.5892" fill="#B8E5BE"/>
<path d="M149.631 56.3361C149.405 56.1368 148.905 55.6686 148.252 55.1411C148.12 55.0143 147.882 54.8149 147.54 54.5429C147.197 54.2711 146.841 53.9914 146.471 53.7037C146.102 53.4165 145.788 53.1799 145.531 52.994C145.272 52.808 144.982 52.5997 144.659 52.3689C144.336 52.1379 143.944 51.8737 143.485 51.5767C143.025 51.2799 142.608 51.0154 142.235 50.7831C141.861 50.5505 141.452 50.2883 141.008 49.9966C140.563 49.7046 140.227 49.4761 140.002 49.3112C139.777 49.1458 139.474 48.9031 139.094 48.5832C138.714 48.2632 138.461 48.0425 138.335 47.9212C138.209 47.7996 137.904 47.4346 137.419 46.8261C136.934 46.2177 136.248 45.3459 135.361 44.2106C135.331 44.1556 135.259 44.0232 135.145 43.8133C135.03 43.6033 134.874 43.3159 134.676 42.9512C134.477 42.5863 134.295 42.2284 134.128 41.8775C133.961 41.5267 133.777 41.0985 133.575 40.5929C133.373 40.0872 133.17 39.5014 132.963 38.8357C132.757 38.1699 132.589 37.5838 132.457 37.0772C132.326 36.5708 132.193 35.9965 132.058 35.3544C131.922 34.7125 131.809 34.1256 131.716 33.5938L131.61 32.5892" fill="#B8E5BE"/>
<path d="M149.631 56.3361L149.603 55.8337C149.563 55.2441 149.519 54.7534 149.474 54.3621C149.428 53.9709 149.386 53.6439 149.349 53.3808C149.313 53.118 149.276 52.8666 149.24 52.6266C149.204 52.3866 149.129 51.9704 149.014 51.3777C148.899 50.7845 148.814 50.3682 148.757 50.1288C148.7 49.8895 148.571 49.3992 148.371 48.658C148.17 47.9166 148.015 47.3841 147.906 47.0606C147.797 46.7371 147.684 46.424 147.565 46.1215C147.447 45.8188 147.305 45.473 147.14 45.0838C146.976 44.6945 146.805 44.3139 146.628 43.9421C146.451 43.5701 146.268 43.2066 146.079 42.852C145.89 42.4977 145.718 42.1857 145.563 41.9159C145.409 41.6459 145.271 41.4185 145.151 41.2336C145.03 41.0485 144.865 40.8158 144.656 40.5354C144.446 40.2549 144.191 39.9265 143.891 39.5505C143.591 39.1747 143.318 38.8444 143.07 38.5593C142.822 38.2741 142.552 37.9859 142.258 37.6945C141.965 37.4029 141.615 37.0786 141.208 36.7218C140.801 36.3654 140.432 36.0638 140.101 35.8169C139.769 35.57 139.501 35.3833 139.296 35.2566C139.091 35.1296 138.88 35.0054 138.663 34.8843C138.447 34.7632 138.253 34.6608 138.083 34.5774C137.913 34.4939 137.596 34.3518 137.132 34.1512C136.668 33.9505 136.135 33.7537 135.535 33.5608C134.934 33.3675 134.008 33.1343 132.757 32.8611L131.61 32.5892L131.716 33.5938C131.809 34.1256 131.922 34.7125 132.058 35.3544C132.193 35.9965 132.326 36.5708 132.457 37.0772C132.589 37.5838 132.757 38.1699 132.963 38.8357C133.17 39.5014 133.373 40.0872 133.575 40.5929C133.777 41.0985 133.961 41.5267 134.128 41.8775C134.295 42.2284 134.477 42.5863 134.676 42.9512C134.874 43.3159 135.03 43.6033 135.145 43.8133C135.259 44.0232 135.331 44.1556 135.361 44.2106C136.248 45.3459 136.934 46.2177 137.419 46.8261C137.904 47.4346 138.209 47.7996 138.335 47.9212C138.461 48.0425 138.714 48.2632 139.094 48.5832C139.474 48.9031 139.777 49.1458 140.002 49.3112C140.227 49.4761 140.563 49.7046 141.008 49.9966C141.452 50.2883 141.861 50.5505 142.235 50.7831C142.608 51.0154 143.025 51.2799 143.485 51.5767C143.944 51.8737 144.336 52.1379 144.659 52.3689C144.982 52.5997 145.272 52.808 145.531 52.994C145.788 53.1799 146.102 53.4165 146.471 53.7037C146.841 53.9914 147.197 54.2711 147.54 54.5429C147.882 54.8149 148.12 55.0143 148.252 55.1411C148.905 55.6686 149.405 56.1368 149.631 56.3361Z" stroke="#333333" stroke-linecap="round" stroke-linejoin="round"/>
<path d="M160.856 41.3555C161.218 41.2374 161.435 41.18 161.48 41.1607C161.524 41.1411 161.69 41.074 161.976 40.9594C162.263 40.8452 162.678 40.6802 163.222 40.4642C163.765 40.2483 164.23 40.0622 164.614 39.9059C164.999 39.7499 165.361 39.5996 165.699 39.455C166.038 39.3106 166.389 39.1582 166.752 38.9977C167.116 38.8366 167.545 38.6338 168.039 38.3896C168.533 38.1454 168.914 37.9474 169.183 37.7956C169.452 37.6441 169.709 37.492 169.953 37.3393C170.198 37.187 170.619 36.8947 171.216 36.4624C171.814 36.0301 172.254 35.6894 172.538 35.4402C172.822 35.1911 173.184 34.823 173.622 34.3358C174.06 33.8482 174.622 33.2002 175.309 32.3917C175.363 32.3182 175.509 32.0833 175.747 31.6872C175.986 31.2913 176.228 30.7668 176.474 30.1137C176.72 29.4609 176.888 28.9271 176.979 28.5124C177.069 28.0979 177.133 27.7136 177.17 27.3593C177.207 27.0049 177.233 26.6109 177.246 26.1773C177.26 25.7436 177.265 25.3467 177.262 24.9868C177.259 24.6268 177.243 24.231 177.215 23.7993C177.186 23.3675 177.121 22.7678 177.021 22.0004C176.921 21.2334 176.804 20.4809 176.671 19.7426C176.538 19.0045 176.405 18.29 176.273 17.5989C176.142 16.9077 175.975 16.0282 175.775 14.9604L175.679 14.2444" fill="#B8E5BE"/>
<path d="M160.856 41.3555C160.452 40.3103 160.209 39.668 160.126 39.4283C160.043 39.1887 159.887 38.7256 159.657 38.0391C159.427 37.3531 159.273 36.8669 159.196 36.5805C159.118 36.2939 159.042 35.9586 158.967 35.5745C158.892 35.1905 158.838 34.6098 158.806 33.8327C158.775 33.0555 158.787 32.3209 158.845 31.6287C158.902 30.9364 158.974 30.3885 159.061 29.9848C159.148 29.5814 159.24 29.2158 159.337 28.8882C159.433 28.5606 159.543 28.2374 159.665 27.9188C159.788 27.6006 159.879 27.3734 159.938 27.2372C159.997 27.1012 160.11 26.8708 160.277 26.5456C160.444 26.2208 160.627 25.8977 160.826 25.5761C161.025 25.2544 161.222 24.9482 161.418 24.6577C161.614 24.3672 161.84 24.0549 162.096 23.7206C162.353 23.386 162.721 22.9588 163.2 22.4389C163.351 22.2712 163.493 22.1157 163.629 21.9722C163.765 21.8285 163.953 21.6508 164.194 21.439C164.435 21.2274 164.75 20.9579 165.142 20.6305C165.533 20.3029 165.886 20.0154 166.201 19.7681C166.517 19.5207 166.855 19.2714 167.215 19.0202C167.576 18.769 167.941 18.5267 168.311 18.2935C168.681 18.0603 168.986 17.8793 169.225 17.7506C169.465 17.622 169.759 17.4629 170.108 17.2737C170.456 17.0848 170.859 16.8662 171.317 16.6179C171.774 16.3693 172.201 16.1502 172.599 15.9604C172.997 15.7705 173.313 15.621 173.548 15.5122C174.25 15.1876 174.982 14.6305 175.679 14.2444" fill="#B8E5BE"/>
<path d="M160.856 41.3555C161.218 41.2374 161.435 41.18 161.48 41.1607C161.524 41.1411 161.69 41.074 161.976 40.9594C162.263 40.8452 162.678 40.6802 163.222 40.4642C163.765 40.2483 164.23 40.0622 164.614 39.9059C164.999 39.7499 165.361 39.5996 165.699 39.455C166.038 39.3106 166.389 39.1582 166.752 38.9977C167.116 38.8366 167.545 38.6338 168.039 38.3896C168.533 38.1454 168.914 37.9474 169.183 37.7956C169.452 37.6441 169.709 37.492 169.953 37.3393C170.198 37.187 170.619 36.8947 171.216 36.4624C171.814 36.0301 172.254 35.6894 172.538 35.4402C172.822 35.1911 173.184 34.823 173.622 34.3358C174.06 33.8482 174.622 33.2002 175.309 32.3917C175.363 32.3182 175.509 32.0833 175.747 31.6872C175.986 31.2913 176.228 30.7668 176.474 30.1137C176.72 29.4609 176.888 28.9271 176.979 28.5124C177.069 28.0979 177.133 27.7136 177.17 27.3593C177.207 27.0049 177.233 26.6109 177.246 26.1773C177.26 25.7436 177.265 25.3467 177.262 24.9868C177.259 24.6268 177.243 24.231 177.215 23.7993C177.186 23.3675 177.121 22.7678 177.021 22.0004C176.921 21.2334 176.804 20.4809 176.671 19.7426C176.538 19.0045 176.405 18.29 176.273 17.5989C176.142 16.9077 175.975 16.0282 175.775 14.9604L175.679 14.2444C174.982 14.6305 174.25 15.1876 173.548 15.5122C173.313 15.621 172.997 15.7705 172.599 15.9604C172.201 16.1502 171.774 16.3693 171.317 16.6179C170.859 16.8662 170.456 17.0848 170.108 17.2737C169.759 17.4629 169.465 17.622 169.225 17.7506C168.986 17.8793 168.681 18.0603 168.311 18.2935C167.941 18.5267 167.576 18.769 167.215 19.0202C166.855 19.2714 166.517 19.5207 166.201 19.7681C165.886 20.0154 165.533 20.3029 165.142 20.6305C164.75 20.9579 164.435 21.2274 164.194 21.439C163.953 21.6508 163.765 21.8285 163.629 21.9722C163.493 22.1157 163.351 22.2712 163.2 22.4389C162.721 22.9588 162.353 23.386 162.096 23.7206C161.84 24.0549 161.614 24.3672 161.418 24.6577C161.222 24.9482 161.025 25.2544 160.826 25.5761C160.627 25.8977 160.444 26.2208 160.277 26.5456C160.11 26.8708 159.997 27.1012 159.938 27.2372C159.879 27.3734 159.788 27.6006 159.665 27.9188C159.543 28.2374 159.433 28.5606 159.337 28.8882C159.24 29.2158 159.148 29.5814 159.061 29.9848C158.974 30.3885 158.902 30.9364 158.845 31.6287C158.787 32.3209 158.775 33.0555 158.806 33.8327C158.838 34.6098 158.892 35.1905 158.967 35.5745C159.042 35.9586 159.118 36.2939 159.196 36.5805C159.273 36.8669 159.427 37.3531 159.657 38.0391C159.887 38.7256 160.043 39.1887 160.126 39.4283C160.209 39.668 160.452 40.3103 160.856 41.3555Z" stroke="#333333" stroke-linecap="round" stroke-linejoin="round"/>
<path d="M113.44 277.516C113.767 277.916 113.984 278.184 114.092 278.318C114.2 278.453 114.273 278.538 114.31 278.573C114.346 278.607 114.506 278.775 114.788 279.075C115.071 279.374 115.291 279.601 115.448 279.755C115.605 279.908 115.895 280.197 116.319 280.62C116.742 281.044 117.149 281.425 117.539 281.765C117.929 282.105 118.369 282.448 118.86 282.797C119.351 283.145 119.722 283.401 119.972 283.563C120.222 283.726 120.634 283.95 121.206 284.233C121.778 284.517 122.199 284.711 122.469 284.814C122.739 284.917 123.195 285.045 123.837 285.198C124.479 285.351 125.353 285.546 126.458 285.784C126.577 285.78 126.885 285.785 127.38 285.801C127.876 285.817 128.312 285.814 128.688 285.792C129.064 285.769 129.463 285.73 129.885 285.674C130.307 285.618 130.76 285.534 131.244 285.421C131.727 285.308 132.241 285.167 132.786 284.998C133.331 284.828 133.817 284.667 134.243 284.514C134.67 284.362 135.038 284.217 135.347 284.081C135.655 283.945 135.994 283.779 136.362 283.583C136.729 283.387 137.127 283.16 137.555 282.903C137.982 282.647 138.383 282.396 138.757 282.15C139.131 281.905 139.479 281.665 139.801 281.431C140.122 281.198 140.412 280.984 140.669 280.79C140.927 280.597 141.202 280.385 141.493 280.156C141.784 279.926 142.005 279.756 142.156 279.644C142.307 279.532 142.586 279.316 142.991 278.995C143.396 278.674 143.732 278.406 143.999 278.191C144.265 277.976 144.523 277.785 144.773 277.619C145.023 277.453 145.496 276.965 146.161 276.49" fill="#B8E5BE"/>
<path d="M113.44 277.516C113.616 277.424 113.939 277.253 114.256 277.082C114.572 276.911 114.952 276.704 115.394 276.461C115.837 276.218 116.238 276.004 116.597 275.817C116.955 275.63 117.344 275.435 117.764 275.234C118.184 275.032 118.406 274.925 118.429 274.913C118.452 274.9 118.587 274.844 118.833 274.745C119.08 274.647 119.433 274.507 119.894 274.327C120.355 274.147 120.751 273.996 121.082 273.874C121.413 273.753 121.737 273.641 122.054 273.538C122.372 273.436 122.686 273.343 122.998 273.261C123.31 273.179 123.748 273.079 124.314 272.96C124.88 272.841 125.276 272.762 125.502 272.725C125.729 272.688 125.988 272.646 126.28 272.599C126.572 272.553 127.048 272.507 127.708 272.462C128.369 272.417 128.842 272.393 129.127 272.39C129.413 272.386 129.713 272.393 130.026 272.408C130.34 272.425 130.715 272.449 131.152 272.483C131.589 272.517 132.033 272.562 132.482 272.617C132.932 272.673 133.387 272.739 133.85 272.817C134.312 272.894 134.737 272.969 135.126 273.043C135.514 273.117 135.944 273.207 136.415 273.313C136.887 273.419 137.281 273.512 137.598 273.591C137.916 273.671 138.175 273.741 138.376 273.801C138.577 273.861 138.807 273.933 139.067 274.017C139.327 274.1 139.649 274.205 140.035 274.332C140.42 274.458 140.795 274.584 141.159 274.709C141.522 274.833 141.959 274.988 142.471 275.172C142.984 275.356 143.412 275.515 143.756 275.65C144.101 275.784 144.902 276.064 146.161 276.49" fill="#B8E5BE"/>
<path d="M113.44 277.516C113.767 277.916 113.984 278.184 114.092 278.318C114.2 278.453 114.273 278.538 114.31 278.573C114.346 278.607 114.506 278.775 114.788 279.075C115.071 279.374 115.291 279.601 115.448 279.755C115.605 279.908 115.895 280.197 116.319 280.62C116.742 281.044 117.149 281.425 117.539 281.765C117.929 282.105 118.369 282.448 118.86 282.797C119.351 283.145 119.722 283.401 119.972 283.563C120.222 283.726 120.634 283.95 121.206 284.233C121.778 284.517 122.199 284.711 122.469 284.814C122.739 284.917 123.195 285.045 123.837 285.198C124.479 285.351 125.353 285.546 126.458 285.784C126.577 285.78 126.885 285.785 127.38 285.801C127.876 285.817 128.312 285.814 128.688 285.792C129.064 285.769 129.463 285.73 129.885 285.674C130.307 285.618 130.76 285.534 131.244 285.421C131.727 285.308 132.241 285.167 132.786 284.998C133.331 284.828 133.817 284.667 134.243 284.514C134.67 284.362 135.038 284.217 135.347 284.081C135.655 283.945 135.994 283.779 136.362 283.583C136.729 283.387 137.127 283.16 137.555 282.903C137.982 282.647 138.383 282.396 138.757 282.15C139.131 281.905 139.479 281.665 139.801 281.431C140.122 281.198 140.412 280.984 140.669 280.79C140.927 280.597 141.202 280.385 141.493 280.156C141.784 279.926 142.005 279.756 142.156 279.644C142.307 279.532 142.586 279.316 142.991 278.995C143.396 278.674 143.732 278.406 143.999 278.191C144.265 277.976 144.523 277.785 144.773 277.619C145.023 277.453 145.496 276.965 146.161 276.49C144.902 276.064 144.101 275.784 143.756 275.65C143.412 275.515 142.984 275.356 142.471 275.172C141.959 274.988 141.522 274.833 141.159 274.709C140.795 274.584 140.42 274.458 140.035 274.332C139.649 274.205 139.327 274.1 139.067 274.017C138.807 273.933 138.577 273.861 138.376 273.801C138.175 273.741 137.916 273.671 137.598 273.591C137.281 273.512 136.887 273.419 136.415 273.313C135.944 273.207 135.514 273.117 135.126 273.043C134.737 272.969 134.312 272.894 133.85 272.817C133.387 272.739 132.932 272.673 132.482 272.617C132.033 272.562 131.589 272.517 131.152 272.483C130.715 272.449 130.34 272.425 130.026 272.408C129.713 272.393 129.413 272.386 129.127 272.39C128.842 272.393 128.369 272.417 127.708 272.462C127.048 272.507 126.572 272.553 126.28 272.599C125.988 272.646 125.729 272.688 125.502 272.725C125.276 272.762 124.88 272.841 124.314 272.96C123.748 273.079 123.31 273.179 122.998 273.261C122.686 273.343 122.372 273.436 122.054 273.538C121.737 273.641 121.413 273.753 121.082 273.874C120.751 273.996 120.355 274.147 119.894 274.327C119.433 274.507 119.08 274.647 118.833 274.745C118.587 274.844 118.452 274.9 118.429 274.913C118.406 274.925 118.184 275.032 117.764 275.234C117.344 275.435 116.955 275.63 116.597 275.817C116.238 276.004 115.837 276.218 115.394 276.461C114.952 276.704 114.572 276.911 114.256 277.082C113.939 277.253 113.616 277.424 113.44 277.516Z" stroke="#333333" stroke-linecap="round" stroke-linejoin="round"/>
<path d="M135.525 255.805C135.882 256.199 136.33 256.777 136.417 256.873C136.503 256.969 136.633 257.099 136.805 257.263C136.977 257.427 137.143 257.585 137.304 257.736C137.465 257.888 137.725 258.115 138.082 258.417C138.44 258.719 138.943 259.094 139.59 259.544C140.238 259.994 140.789 260.34 141.243 260.584C141.698 260.827 142.125 261.034 142.527 261.204C142.928 261.374 143.27 261.503 143.554 261.591C143.837 261.679 144.076 261.745 144.27 261.788C144.464 261.831 144.733 261.874 145.077 261.918C145.422 261.962 145.873 261.989 146.431 261.999C146.989 262.009 147.908 261.916 149.187 261.721C149.273 261.703 149.658 261.573 150.342 261.33C151.026 261.087 151.546 260.879 151.902 260.704C152.257 260.53 152.568 260.359 152.833 260.193C153.099 260.028 153.425 259.812 153.812 259.547C154.198 259.282 154.63 258.966 155.11 258.6C155.59 258.233 156.151 257.768 156.795 257.204C157.439 256.64 157.967 256.169 158.381 255.79C158.796 255.411 159.73 254.453 160.244 253.988" fill="#B8E5BE"/>
<path d="M135.525 255.805C135.699 255.685 135.934 255.521 136.229 255.315C136.524 255.109 136.876 254.865 137.286 254.584C137.697 254.304 138.069 254.057 138.405 253.843C138.74 253.63 139.106 253.408 139.502 253.179C139.897 252.949 140.235 252.763 140.514 252.619C140.794 252.475 140.988 252.382 141.097 252.341C141.205 252.299 141.31 252.254 141.413 252.205C141.515 252.156 141.741 252.061 142.091 251.919C142.44 251.778 142.733 251.667 142.969 251.585C143.205 251.505 143.385 251.447 143.508 251.412C143.63 251.377 143.83 251.33 144.108 251.272C144.386 251.214 144.762 251.14 145.236 251.049C145.709 250.958 146.119 250.887 146.464 250.835C146.81 250.784 147.146 250.749 147.473 250.731C147.799 250.713 148.106 250.703 148.392 250.701C148.679 250.7 149.208 250.737 149.978 250.813C150.749 250.889 151.398 250.977 151.925 251.076C152.453 251.175 152.822 251.249 153.032 251.296C153.242 251.343 153.505 251.411 153.82 251.501C154.136 251.59 154.546 251.714 155.051 251.873C155.557 252.031 156.029 252.188 156.469 252.344C156.909 252.5 157.322 252.663 157.709 252.834C158.097 253.005 158.475 253.173 158.845 253.337C159.215 253.502 159.682 253.719 160.244 253.988" fill="#B8E5BE"/>
<path d="M135.525 255.805C135.882 256.199 136.33 256.777 136.417 256.873C136.503 256.969 136.633 257.099 136.805 257.263C136.977 257.427 137.143 257.585 137.304 257.736C137.465 257.888 137.725 258.115 138.082 258.417C138.44 258.719 138.943 259.094 139.59 259.544C140.238 259.994 140.789 260.34 141.243 260.584C141.698 260.827 142.125 261.034 142.527 261.204C142.928 261.374 143.27 261.503 143.554 261.591C143.837 261.679 144.076 261.745 144.27 261.788C144.464 261.831 144.733 261.874 145.077 261.918C145.422 261.962 145.873 261.989 146.431 261.999C146.989 262.009 147.908 261.916 149.187 261.721C149.273 261.703 149.658 261.573 150.342 261.33C151.026 261.087 151.546 260.879 151.902 260.704C152.257 260.53 152.568 260.359 152.833 260.193C153.099 260.028 153.425 259.812 153.812 259.547C154.198 259.282 154.63 258.966 155.11 258.6C155.59 258.233 156.151 257.768 156.795 257.204C157.439 256.64 157.967 256.169 158.381 255.79C158.796 255.411 159.73 254.453 160.244 253.988C159.682 253.719 159.215 253.502 158.845 253.337C158.475 253.173 158.097 253.005 157.709 252.834C157.322 252.663 156.909 252.5 156.469 252.344C156.029 252.188 155.557 252.031 155.051 251.873C154.546 251.714 154.136 251.59 153.82 251.501C153.505 251.411 153.242 251.343 153.032 251.296C152.822 251.249 152.453 251.175 151.925 251.076C151.398 250.977 150.749 250.889 149.978 250.813C149.208 250.737 148.679 250.7 148.392 250.701C148.106 250.703 147.799 250.713 147.473 250.731C147.146 250.749 146.81 250.784 146.464 250.835C146.119 250.887 145.709 250.958 145.236 251.049C144.762 251.14 144.386 251.214 144.108 251.272C143.83 251.33 143.63 251.377 143.508 251.412C143.385 251.447 143.205 251.505 142.969 251.585C142.733 251.667 142.44 251.778 142.091 251.919C141.741 252.061 141.515 252.156 141.413 252.205C141.31 252.254 141.205 252.299 141.097 252.341C140.988 252.382 140.794 252.475 140.514 252.619C140.235 252.763 139.897 252.949 139.502 253.179C139.106 253.408 138.74 253.63 138.405 253.843C138.069 254.057 137.697 254.304 137.286 254.584C136.876 254.865 136.524 255.109 136.229 255.315C135.934 255.521 135.699 255.685 135.525 255.805Z" stroke="#333333" stroke-linecap="round" stroke-linejoin="round"/>
<path d="M151.495 234.225L152.01 234.481C152.443 234.673 152.78 234.814 153.02 234.904C153.261 234.994 153.641 235.142 154.16 235.35C154.679 235.558 155.164 235.739 155.614 235.894C156.065 236.048 156.473 236.178 156.84 236.283C157.207 236.388 157.607 236.494 158.04 236.601C158.474 236.708 158.868 236.798 159.223 236.87C159.578 236.943 159.963 237.008 160.378 237.065C160.793 237.122 161.111 237.158 161.332 237.174C161.553 237.19 161.908 237.196 162.398 237.192C162.887 237.188 163.454 237.145 164.099 237.062C164.744 236.979 165.186 236.913 165.424 236.864C165.663 236.815 166.055 236.689 166.6 236.485C167.144 236.282 167.882 235.993 168.812 235.618C169.049 235.52 169.489 235.266 170.133 234.855C170.777 234.444 171.257 234.12 171.573 233.884C171.889 233.647 172.153 233.431 172.367 233.235C172.581 233.04 172.94 232.692 173.443 232.191C173.947 231.69 174.292 231.339 174.478 231.136C174.664 230.933 174.771 230.814 174.8 230.778C174.828 230.742 175.077 230.442 175.545 229.877C176.013 229.312 176.352 228.895 176.56 228.627C176.768 228.358 177.017 228.031 177.307 227.644C177.598 227.258 178.536 226.156 179.742 224.497" fill="#B8E5BE"/>
<path d="M151.495 234.225C151.67 233.8 151.678 233.321 152.266 232.602C152.656 232.164 153.011 231.786 153.331 231.467C153.652 231.148 154.002 230.819 154.383 230.482C154.764 230.144 155.079 229.872 155.326 229.666C155.573 229.459 155.783 229.288 155.954 229.151C156.125 229.014 156.419 228.8 156.836 228.51C157.253 228.22 157.648 227.954 158.021 227.713C158.394 227.471 158.592 227.341 158.616 227.325C158.639 227.309 158.835 227.193 159.203 226.979C159.571 226.764 159.965 226.548 160.386 226.33C160.807 226.112 161.041 225.992 161.088 225.972C161.136 225.952 161.257 225.897 161.451 225.808C161.646 225.719 161.928 225.599 162.298 225.449C162.667 225.298 163.168 225.113 163.801 224.895C164.434 224.677 164.943 224.512 165.328 224.4C165.713 224.287 166.107 224.184 166.51 224.09C166.913 223.996 167.215 223.931 167.417 223.895C167.618 223.86 168.051 223.802 168.716 223.721C169.381 223.641 169.921 223.586 170.335 223.556C170.75 223.526 171.287 223.524 171.944 223.55C172.602 223.575 173.256 223.624 173.906 223.696C174.556 223.768 175.14 223.841 175.656 223.915C176.173 223.989 176.727 224.068 177.318 224.152C177.465 224.187 178.273 224.302 179.742 224.497" fill="#B8E5BE"/>
<path d="M151.495 234.225L152.01 234.481C152.443 234.673 152.78 234.814 153.02 234.904C153.261 234.994 153.641 235.142 154.16 235.35C154.679 235.558 155.164 235.739 155.614 235.894C156.065 236.048 156.473 236.178 156.84 236.283C157.207 236.388 157.607 236.494 158.04 236.601C158.474 236.708 158.868 236.798 159.223 236.87C159.578 236.943 159.963 237.008 160.378 237.065C160.793 237.122 161.111 237.158 161.332 237.174C161.553 237.19 161.908 237.196 162.398 237.192C162.887 237.188 163.454 237.145 164.099 237.062C164.744 236.979 165.186 236.913 165.424 236.864C165.663 236.815 166.055 236.689 166.6 236.485C167.144 236.282 167.882 235.993 168.812 235.618C169.049 235.52 169.489 235.266 170.133 234.855C170.777 234.444 171.257 234.12 171.573 233.884C171.889 233.647 172.153 233.431 172.367 233.235C172.581 233.04 172.94 232.692 173.443 232.191C173.947 231.69 174.292 231.339 174.478 231.136C174.664 230.933 174.771 230.814 174.8 230.778C174.828 230.742 175.077 230.442 175.545 229.877C176.013 229.312 176.352 228.895 176.56 228.627C176.768 228.358 177.017 228.031 177.307 227.644C177.598 227.258 178.536 226.156 179.742 224.497C178.273 224.302 177.465 224.187 177.318 224.152C176.727 224.068 176.173 223.989 175.656 223.915C175.14 223.841 174.556 223.768 173.906 223.696C173.256 223.624 172.602 223.575 171.944 223.55C171.287 223.524 170.75 223.526 170.335 223.556C169.921 223.586 169.381 223.641 168.716 223.721C168.051 223.802 167.618 223.86 167.417 223.895C167.215 223.931 166.913 223.996 166.51 224.09C166.107 224.184 165.713 224.287 165.328 224.4C164.943 224.512 164.434 224.677 163.801 224.895C163.168 225.113 162.667 225.298 162.298 225.449C161.928 225.599 161.646 225.719 161.451 225.808C161.257 225.897 161.136 225.952 161.088 225.972C161.041 225.992 160.807 226.112 160.386 226.33C159.965 226.548 159.571 226.764 159.203 226.979C158.835 227.193 158.639 227.309 158.616 227.325C158.592 227.341 158.394 227.471 158.021 227.713C157.648 227.954 157.253 228.22 156.836 228.51C156.419 228.8 156.125 229.014 155.954 229.151C155.783 229.288 155.573 229.459 155.326 229.666C155.079 229.872 154.764 230.144 154.383 230.482C154.002 230.819 153.652 231.148 153.331 231.467C153.011 231.786 152.656 232.164 152.266 232.602C151.678 233.321 151.67 233.8 151.495 234.225Z" stroke="#333333" stroke-linecap="round" stroke-linejoin="round"/>
<path d="M161.847 208.867C162.13 208.964 162.525 209.083 163.034 209.225C163.542 209.366 163.968 209.482 164.312 209.572C164.656 209.663 165.166 209.783 165.841 209.932C166.516 210.081 167.058 210.195 167.465 210.275C167.872 210.355 168.271 210.429 168.662 210.495C169.053 210.561 169.413 210.619 169.743 210.669C170.073 210.718 170.437 210.77 170.837 210.825C171.236 210.879 171.592 210.924 171.904 210.959C172.216 210.994 172.541 211.024 172.879 211.047C173.216 211.07 173.622 211.075 174.097 211.063C174.571 211.05 175.108 211.011 175.707 210.948C176.306 210.884 176.786 210.81 177.145 210.725C177.504 210.641 177.857 210.539 178.206 210.422C178.554 210.305 178.746 210.239 178.782 210.225C178.818 210.21 179.106 210.063 179.644 209.786C180.183 209.508 180.712 209.175 181.234 208.787C181.755 208.399 182.189 208.035 182.536 207.694C182.883 207.354 183.126 207.103 183.264 206.94C183.403 206.777 183.578 206.545 183.79 206.244C184.001 205.944 184.202 205.623 184.394 205.281C184.585 204.938 184.804 204.518 185.051 204.019C185.298 203.519 185.513 203.066 185.697 202.658C185.88 202.25 186.059 201.819 186.234 201.362C186.409 200.906 186.598 200.402 186.802 199.849C187.007 199.296 187.406 197.74 188.062 195.952" fill="#B8E5BE"/>
<path d="M161.847 208.867C162.322 208.022 162.661 207.584 162.81 207.323C162.959 207.062 163.086 206.844 163.189 206.67C163.292 206.496 163.55 206.104 163.963 205.494C164.376 204.883 164.596 204.558 164.623 204.518C164.65 204.479 164.746 204.359 164.91 204.157C165.074 203.956 165.31 203.672 165.618 203.308C165.926 202.943 166.241 202.596 166.565 202.266C166.888 201.936 167.22 201.621 167.561 201.32C167.902 201.019 168.177 200.779 168.388 200.599C168.599 200.42 168.765 200.285 168.886 200.196C169.008 200.107 169.207 199.973 169.481 199.794C169.756 199.616 169.999 199.466 170.208 199.345C170.418 199.224 170.697 199.077 171.044 198.905C171.39 198.734 171.795 198.557 172.256 198.373C172.717 198.191 173.112 198.045 173.441 197.936C173.77 197.828 174.141 197.726 174.551 197.63C174.962 197.534 175.473 197.425 176.083 197.303C176.694 197.18 177.24 197.078 177.722 196.996C178.204 196.914 178.705 196.842 179.226 196.782C179.746 196.721 180.221 196.674 180.651 196.64C181.08 196.607 181.521 196.571 181.975 196.532C182.429 196.493 182.869 196.452 183.295 196.41C183.721 196.368 184.143 196.321 184.56 196.27C184.978 196.219 185.257 196.182 185.397 196.16C185.537 196.139 185.851 196.101 186.338 196.048C186.825 195.994 187.4 195.962 188.062 195.952" fill="#B8E5BE"/>
<path d="M161.847 208.867C162.13 208.964 162.525 209.083 163.034 209.225C163.542 209.366 163.968 209.482 164.312 209.572C164.656 209.663 165.166 209.783 165.841 209.932C166.516 210.081 167.058 210.195 167.465 210.275C167.872 210.355 168.271 210.429 168.662 210.495C169.053 210.561 169.413 210.619 169.743 210.669C170.073 210.718 170.437 210.77 170.837 210.825C171.236 210.879 171.592 210.924 171.904 210.959C172.216 210.994 172.541 211.024 172.879 211.047C173.216 211.07 173.622 211.075 174.097 211.063C174.571 211.05 175.108 211.011 175.707 210.948C176.306 210.884 176.786 210.81 177.145 210.725C177.504 210.641 177.857 210.539 178.206 210.422C178.554 210.305 178.746 210.239 178.782 210.225C178.818 210.21 179.106 210.063 179.644 209.786C180.183 209.508 180.712 209.175 181.234 208.787C181.755 208.399 182.189 208.035 182.536 207.694C182.883 207.354 183.126 207.103 183.264 206.94C183.403 206.777 183.578 206.545 183.79 206.244C184.001 205.944 184.202 205.623 184.394 205.281C184.585 204.938 184.804 204.518 185.051 204.019C185.298 203.519 185.513 203.066 185.697 202.658C185.88 202.25 186.059 201.819 186.234 201.362C186.409 200.906 186.598 200.402 186.802 199.849C187.007 199.296 187.406 197.74 188.062 195.952C187.4 195.962 186.825 195.994 186.338 196.048C185.851 196.101 185.537 196.139 185.397 196.16C185.257 196.182 184.978 196.219 184.56 196.27C184.143 196.321 183.721 196.368 183.295 196.41C182.869 196.452 182.429 196.493 181.975 196.532C181.521 196.571 181.08 196.607 180.651 196.64C180.221 196.674 179.746 196.721 179.226 196.782C178.705 196.842 178.204 196.914 177.722 196.996C177.24 197.078 176.694 197.18 176.083 197.303C175.473 197.425 174.962 197.534 174.551 197.63C174.141 197.726 173.77 197.828 173.441 197.936C173.112 198.045 172.717 198.191 172.256 198.373C171.795 198.557 171.39 198.734 171.044 198.905C170.697 199.077 170.418 199.224 170.208 199.345C169.999 199.466 169.756 199.616 169.481 199.794C169.207 199.973 169.008 200.107 168.886 200.196C168.765 200.285 168.599 200.42 168.388 200.599C168.177 200.779 167.902 201.019 167.561 201.32C167.22 201.621 166.888 201.936 166.565 202.266C166.241 202.596 165.926 202.943 165.618 203.308C165.31 203.672 165.074 203.956 164.91 204.157C164.746 204.359 164.65 204.479 164.623 204.518C164.596 204.558 164.376 204.883 163.963 205.494C163.55 206.104 163.292 206.496 163.189 206.67C163.086 206.844 162.959 207.062 162.81 207.323C162.661 207.584 162.322 208.022 161.847 208.867Z" stroke="#333333" stroke-linecap="round" stroke-linejoin="round"/>
<path d="M164.686 184.13C164.852 184.137 165.126 184.158 165.507 184.192L166.26 184.192C166.611 184.191 166.984 184.184 167.379 184.172C167.774 184.16 168.192 184.142 168.631 184.118C169.07 184.095 169.448 184.071 169.764 184.048C170.08 184.024 170.382 183.995 170.671 183.96C170.96 183.925 171.205 183.887 171.406 183.845C171.607 183.804 171.788 183.762 171.949 183.718C172.111 183.674 172.349 183.589 172.665 183.465C172.981 183.341 173.401 183.169 173.926 182.949C174.45 182.73 174.88 182.543 175.217 182.387C175.554 182.232 175.835 182.086 176.059 181.948C176.283 181.811 176.411 181.734 176.441 181.717C176.47 181.701 176.653 181.568 176.988 181.32C177.323 181.071 177.581 180.873 177.761 180.724C177.941 180.575 178.181 180.353 178.48 180.059C178.779 179.764 178.941 179.603 178.967 179.574C178.993 179.546 179.169 179.33 179.495 178.928C179.82 178.525 180.299 177.931 180.933 177.144C180.987 177.073 181.101 176.885 181.272 176.582C181.444 176.278 181.674 175.858 181.964 175.32C182.253 174.783 182.505 174.301 182.72 173.876C182.935 173.45 183.148 173.001 183.359 172.528C183.57 172.055 183.78 171.575 183.989 171.087C184.198 170.599 184.376 170.187 184.523 169.85C184.669 169.514 184.869 169.051 185.121 168.461C185.374 167.871 185.833 166.762 186.681 164.912" fill="#B8E5BE"/>
<path d="M164.686 184.13L164.885 182.686C164.956 182.381 165.042 182.04 165.145 181.663C165.248 181.286 165.373 180.881 165.519 180.448C165.667 180.016 165.806 179.643 165.936 179.329C166.067 179.016 166.211 178.703 166.368 178.391C166.526 178.079 166.805 177.608 167.206 176.98C167.608 176.351 167.952 175.845 168.237 175.463C168.523 175.082 168.843 174.685 169.199 174.273C169.554 173.861 169.76 173.626 169.818 173.568C169.877 173.509 170 173.382 170.189 173.186C170.378 172.99 170.578 172.794 170.79 172.598C171.001 172.402 171.254 172.174 171.551 171.912C171.847 171.651 172.096 171.435 172.296 171.266C172.497 171.096 172.677 170.952 172.835 170.834C172.992 170.716 173.12 170.624 173.219 170.558C173.318 170.492 173.443 170.402 173.597 170.287C173.75 170.172 174.096 169.946 174.634 169.608C175.172 169.27 175.707 168.961 176.238 168.682C176.769 168.402 177.256 168.16 177.697 167.954C178.139 167.749 178.494 167.591 178.763 167.479C179.031 167.366 179.372 167.236 179.786 167.088C180.2 166.94 180.624 166.794 181.059 166.648C181.494 166.503 181.991 166.35 182.551 166.191C183.11 166.031 183.632 165.877 184.116 165.729C184.6 165.582 184.907 165.484 185.038 165.436C185.167 165.389 185.715 165.214 186.681 164.912" fill="#B8E5BE"/>
<path d="M164.686 184.13C164.852 184.137 165.126 184.158 165.507 184.192L166.26 184.192C166.611 184.191 166.984 184.184 167.379 184.172C167.774 184.16 168.192 184.142 168.631 184.118C169.07 184.095 169.448 184.071 169.764 184.048C170.08 184.024 170.382 183.995 170.671 183.96C170.96 183.925 171.205 183.887 171.406 183.845C171.607 183.804 171.788 183.762 171.949 183.718C172.111 183.674 172.349 183.589 172.665 183.465C172.981 183.341 173.401 183.169 173.926 182.949C174.45 182.73 174.88 182.543 175.217 182.387C175.554 182.232 175.835 182.086 176.059 181.948C176.283 181.811 176.411 181.734 176.441 181.717C176.47 181.701 176.653 181.568 176.988 181.32C177.323 181.071 177.581 180.873 177.761 180.724C177.941 180.575 178.181 180.353 178.48 180.059C178.779 179.764 178.941 179.603 178.967 179.574C178.993 179.546 179.169 179.33 179.495 178.928C179.82 178.525 180.299 177.931 180.933 177.144C180.987 177.073 181.101 176.885 181.272 176.582C181.444 176.278 181.674 175.858 181.964 175.32C182.253 174.783 182.505 174.301 182.72 173.876C182.935 173.45 183.148 173.001 183.359 172.528C183.57 172.055 183.78 171.575 183.989 171.087C184.198 170.599 184.376 170.187 184.523 169.85C184.669 169.514 184.869 169.051 185.121 168.461C185.374 167.871 185.833 166.762 186.681 164.912C185.715 165.214 185.167 165.389 185.038 165.436C184.907 165.484 184.6 165.582 184.116 165.729C183.632 165.877 183.11 166.031 182.551 166.191C181.991 166.35 181.494 166.503 181.059 166.648C180.624 166.794 180.2 166.94 179.786 167.088C179.372 167.236 179.031 167.366 178.763 167.479C178.494 167.591 178.139 167.749 177.697 167.954C177.256 168.16 176.769 168.402 176.238 168.682C175.707 168.961 175.172 169.27 174.634 169.608C174.096 169.946 173.75 170.172 173.597 170.287C173.443 170.402 173.318 170.492 173.219 170.558C173.12 170.624 172.992 170.716 172.835 170.834C172.677 170.952 172.497 171.096 172.296 171.266C172.096 171.435 171.847 171.651 171.551 171.912C171.254 172.174 171.001 172.402 170.79 172.598C170.578 172.794 170.378 172.99 170.189 173.186C170 173.382 169.877 173.509 169.818 173.568C169.76 173.626 169.554 173.861 169.199 174.273C168.843 174.685 168.523 175.082 168.237 175.463C167.952 175.845 167.608 176.351 167.206 176.98C166.805 177.608 166.526 178.079 166.368 178.391C166.211 178.703 166.067 179.016 165.936 179.329C165.806 179.643 165.667 180.016 165.519 180.448C165.373 180.881 165.248 181.286 165.145 181.663C165.042 182.04 164.956 182.381 164.885 182.686L164.686 184.13Z" stroke="#333333" stroke-linecap="round" stroke-linejoin="round"/>
<path d="M161.384 152.576C161.816 152.74 161.972 152.892 162.264 152.979C163.041 153.201 163.714 153.365 164.282 153.469C164.851 153.574 165.307 153.639 165.648 153.665C165.989 153.691 166.4 153.691 166.881 153.664C167.362 153.638 167.802 153.606 168.2 153.567C168.598 153.529 169.035 153.481 169.511 153.424C169.986 153.367 170.408 153.314 170.778 153.266C171.147 153.218 171.528 153.167 171.922 153.111C172.315 153.056 172.584 153.007 172.729 152.966C172.873 152.924 173.247 152.803 173.85 152.602C174.454 152.402 175.016 152.181 175.536 151.94C176.055 151.7 176.52 151.452 176.931 151.196C177.341 150.94 177.725 150.669 178.083 150.382C178.442 150.095 178.806 149.76 179.174 149.377C179.543 148.993 179.857 148.639 180.115 148.314C180.319 148.073 180.512 147.807 180.696 147.517C180.88 147.227 181.155 146.737 181.52 146.049C181.885 145.36 182.171 144.743 182.377 144.198C182.583 143.653 182.725 143.254 182.804 143.001C182.882 142.747 183.003 142.268 183.168 141.562C183.332 140.856 183.44 140.365 183.49 140.088C183.54 139.811 183.622 139.313 183.734 138.594C183.886 137.802 183.821 137.004 183.912 136.376" fill="#B8E5BE"/>
<path d="M161.384 152.576C161.604 152.234 161.774 151.954 161.895 151.736C162.015 151.518 162.191 151.2 162.422 150.78C162.912 149.896 163.286 149.238 163.544 148.807C163.802 148.376 164.053 147.971 164.299 147.59C164.544 147.21 164.865 146.728 165.263 146.144C165.661 145.56 166.031 145.065 166.372 144.658C166.713 144.251 167.007 143.918 167.254 143.66C167.5 143.402 167.749 143.155 168.001 142.919C168.253 142.682 168.579 142.402 168.978 142.079C169.377 141.756 169.786 141.445 170.204 141.148C170.622 140.85 171.01 140.603 171.369 140.404C171.727 140.206 172.074 140.019 172.408 139.841C172.742 139.665 173.084 139.494 173.432 139.329C173.78 139.165 174.005 139.062 174.107 139.021C174.21 138.979 174.416 138.899 174.725 138.781C175.034 138.662 175.462 138.504 176.011 138.309C176.559 138.114 177.054 137.951 177.495 137.822C177.936 137.692 178.402 137.569 178.895 137.452C179.387 137.336 179.843 137.237 180.262 137.156C180.682 137.075 180.975 137.017 181.142 136.983C181.309 136.948 181.597 136.882 182.008 136.786C182.418 136.689 183.053 136.553 183.912 136.376" fill="#B8E5BE"/>
<path d="M161.384 152.576C161.816 152.74 161.972 152.892 162.264 152.979C163.041 153.201 163.714 153.365 164.282 153.469C164.851 153.574 165.307 153.639 165.648 153.665C165.989 153.691 166.4 153.691 166.881 153.664C167.362 153.638 167.802 153.606 168.2 153.567C168.598 153.529 169.035 153.481 169.511 153.424C169.986 153.367 170.408 153.314 170.778 153.266C171.147 153.218 171.528 153.167 171.922 153.111C172.315 153.056 172.584 153.007 172.729 152.966C172.873 152.924 173.247 152.803 173.85 152.602C174.454 152.402 175.016 152.181 175.536 151.94C176.055 151.7 176.52 151.452 176.931 151.196C177.341 150.94 177.725 150.669 178.083 150.382C178.442 150.095 178.806 149.76 179.174 149.377C179.543 148.993 179.857 148.639 180.115 148.314C180.319 148.073 180.512 147.807 180.696 147.517C180.88 147.227 181.155 146.737 181.52 146.049C181.885 145.36 182.171 144.743 182.377 144.198C182.583 143.653 182.725 143.254 182.804 143.001C182.882 142.747 183.003 142.268 183.168 141.562C183.332 140.856 183.44 140.365 183.49 140.088C183.54 139.811 183.622 139.313 183.734 138.594C183.886 137.802 183.821 137.004 183.912 136.376C183.053 136.553 182.418 136.689 182.008 136.786C181.597 136.882 181.309 136.948 181.142 136.983C180.975 137.017 180.682 137.075 180.262 137.156C179.843 137.237 179.387 137.336 178.895 137.452C178.402 137.569 177.936 137.692 177.495 137.822C177.054 137.951 176.559 138.114 176.011 138.309C175.462 138.504 175.034 138.662 174.725 138.781C174.416 138.899 174.21 138.979 174.107 139.021C174.005 139.062 173.78 139.165 173.432 139.329C173.084 139.494 172.742 139.665 172.408 139.841C172.074 140.019 171.727 140.206 171.369 140.404C171.01 140.603 170.622 140.85 170.204 141.148C169.786 141.445 169.377 141.756 168.978 142.079C168.579 142.402 168.253 142.682 168.001 142.919C167.749 143.155 167.5 143.402 167.254 143.66C167.007 143.918 166.713 144.251 166.372 144.658C166.031 145.065 165.661 145.56 165.263 146.144C164.865 146.728 164.544 147.21 164.299 147.59C164.053 147.971 163.802 148.376 163.544 148.807C163.286 149.238 162.912 149.896 162.422 150.78C162.191 151.2 162.015 151.518 161.895 151.736C161.774 151.954 161.604 152.234 161.384 152.576Z" stroke="#333333" stroke-linecap="round" stroke-linejoin="round"/>
<path d="M155.901 126.317C156.505 126.281 157.166 126.313 157.455 126.279C157.744 126.244 158.123 126.193 158.593 126.125C159.063 126.057 159.395 126.008 159.587 125.977C159.779 125.946 160.263 125.841 161.038 125.663C161.814 125.485 162.346 125.353 162.636 125.267C162.926 125.18 163.421 124.994 164.12 124.707C164.82 124.42 165.489 124.077 166.128 123.677C166.767 123.278 167.414 122.785 168.068 122.197C168.721 121.609 169.253 121.054 169.662 120.534C170.071 120.013 170.381 119.59 170.591 119.264C170.802 118.938 171.114 118.395 171.53 117.634C171.945 116.873 172.36 115.949 172.775 114.864C173.19 113.779 173.454 113.053 173.568 112.687C173.681 112.32 173.856 111.723 174.091 110.896C174.327 110.068 174.498 109.436 174.605 108.999C174.713 108.562 174.798 108.21 174.86 107.945C174.923 107.68 174.926 107.239 174.747 106.548" fill="#B8E5BE"/>
<path d="M155.901 126.317L155.959 125.872C156.014 124.801 156.067 124.063 156.117 123.659C156.167 123.255 156.254 122.742 156.379 122.122C156.504 121.502 156.638 120.962 156.779 120.502C156.921 120.043 157.056 119.646 157.183 119.311C157.31 118.977 157.453 118.628 157.612 118.265C157.772 117.902 157.905 117.603 158.013 117.367C158.121 117.131 158.218 116.932 158.303 116.769C158.389 116.607 158.55 116.337 158.786 115.961C159.023 115.584 159.254 115.246 159.48 114.947C159.706 114.648 159.901 114.402 160.066 114.208C160.23 114.015 160.534 113.714 160.978 113.304C161.422 112.895 161.893 112.505 162.392 112.135C162.891 111.764 163.289 111.486 163.587 111.299C163.886 111.112 164.175 110.943 164.454 110.791C164.733 110.639 165.051 110.474 165.41 110.295C165.769 110.116 166.092 109.959 166.379 109.824C166.667 109.689 166.973 109.554 167.298 109.418C167.622 109.282 168.123 109.095 168.798 108.857C169.474 108.619 170.08 108.42 170.615 108.261C171.15 108.103 171.583 107.968 171.913 107.858C172.243 107.748 172.549 107.638 172.83 107.526C173.111 107.414 173.309 107.333 173.424 107.281C173.539 107.229 173.706 107.147 173.925 107.035C174.144 106.924 174.297 106.844 174.385 106.797C174.473 106.749 174.594 106.666 174.747 106.548" fill="#B8E5BE"/>
<path d="M155.901 126.317C156.505 126.281 157.166 126.313 157.455 126.279C157.744 126.244 158.123 126.193 158.593 126.125C159.063 126.057 159.395 126.008 159.587 125.977C159.779 125.946 160.263 125.841 161.038 125.663C161.814 125.485 162.346 125.353 162.636 125.267C162.926 125.18 163.421 124.994 164.12 124.707C164.82 124.42 165.489 124.077 166.128 123.677C166.767 123.278 167.414 122.785 168.068 122.197C168.721 121.609 169.253 121.054 169.662 120.534C170.071 120.013 170.381 119.59 170.591 119.264C170.802 118.938 171.114 118.395 171.53 117.634C171.945 116.873 172.36 115.949 172.775 114.864C173.19 113.779 173.454 113.053 173.568 112.687C173.681 112.32 173.856 111.723 174.091 110.896C174.327 110.068 174.498 109.436 174.605 108.999C174.713 108.562 174.798 108.21 174.86 107.945C174.923 107.68 174.926 107.239 174.747 106.548C174.594 106.666 174.473 106.749 174.385 106.797C174.297 106.844 174.144 106.924 173.925 107.035C173.706 107.147 173.539 107.229 173.424 107.281C173.309 107.333 173.111 107.414 172.83 107.526C172.549 107.638 172.243 107.748 171.913 107.858C171.583 107.968 171.15 108.103 170.615 108.261C170.08 108.42 169.474 108.619 168.798 108.857C168.123 109.095 167.622 109.282 167.298 109.418C166.973 109.554 166.667 109.689 166.379 109.824C166.092 109.959 165.769 110.116 165.41 110.295C165.051 110.474 164.733 110.639 164.454 110.791C164.175 110.943 163.886 111.112 163.587 111.299C163.289 111.486 162.891 111.764 162.392 112.135C161.893 112.505 161.422 112.895 160.978 113.304C160.534 113.714 160.23 114.015 160.066 114.208C159.901 114.402 159.706 114.648 159.48 114.947C159.254 115.246 159.023 115.584 158.786 115.961C158.55 116.337 158.389 116.607 158.303 116.769C158.218 116.932 158.121 117.131 158.013 117.367C157.905 117.603 157.772 117.902 157.612 118.265C157.453 118.628 157.31 118.977 157.183 119.311C157.056 119.646 156.921 120.043 156.779 120.502C156.638 120.962 156.504 121.502 156.379 122.122C156.254 122.742 156.167 123.255 156.117 123.659C156.067 124.063 156.014 124.801 155.959 125.872L155.901 126.317Z" stroke="#333333" stroke-linecap="round" stroke-linejoin="round"/>
<path d="M151.105 98.1163L152.104 98.0941C153.462 98.0185 154.555 97.9517 155.382 97.8938C156.209 97.8356 156.874 97.7806 157.377 97.7287C157.88 97.677 158.255 97.6341 158.502 97.5998C158.75 97.5657 159.201 97.4801 159.856 97.343C160.511 97.2057 161.158 97.0279 161.797 96.8094C162.436 96.5909 162.991 96.3677 163.463 96.1402C163.934 95.9129 164.405 95.6314 164.873 95.2954C165.342 94.9592 165.724 94.6646 166.02 94.4116C166.317 94.1585 166.605 93.8912 166.885 93.6096C167.166 93.3277 167.492 92.9498 167.863 92.4759C168.235 92.0021 168.653 91.4323 169.116 90.7665C169.151 90.7147 169.237 90.5513 169.374 90.2762C169.51 90.0014 169.697 89.6149 169.935 89.1166C170.173 88.6186 170.399 88.1085 170.614 87.5863C170.829 87.0644 171.032 86.5303 171.225 85.9839C171.417 85.4381 171.577 84.9774 171.706 84.6015C171.834 84.2255 171.947 83.8834 172.045 83.5755C172.142 83.2673 172.362 82.7568 172.601 82.1111" fill="#B8E5BE"/>
<path d="M151.105 98.1163C151.438 97.5359 151.762 96.813 152.011 96.3537C152.26 95.8944 152.538 95.3978 152.844 94.864C153.15 94.3302 153.496 93.7514 153.882 93.1274C154.268 92.5037 154.519 92.1089 154.636 91.943C154.752 91.7769 154.904 91.5741 155.09 91.3347C155.278 91.0952 155.52 90.7915 155.816 90.4232C156.113 90.0551 156.406 89.7087 156.697 89.3842C156.987 89.0592 157.275 88.7561 157.558 88.475C157.843 88.1938 158.1 87.9467 158.329 87.7337C158.559 87.5208 158.805 87.3063 159.068 87.0898C159.331 86.8729 159.647 86.641 160.016 86.3941C160.385 86.1472 160.708 85.9408 160.985 85.7753C161.263 85.6098 161.427 85.5108 161.478 85.4778C161.529 85.4448 161.632 85.3871 161.788 85.305C161.944 85.2231 162.208 85.1096 162.578 84.9645C162.949 84.8193 163.453 84.6284 164.089 84.3917C164.725 84.1547 165.243 83.966 165.644 83.8257C166.045 83.6851 166.373 83.5831 166.627 83.5198C166.881 83.4568 167.115 83.4015 167.33 83.3538C167.544 83.3061 167.904 83.238 168.409 83.1495C168.915 83.0612 169.369 82.9817 169.771 82.9111C170.172 82.8403 170.523 82.772 170.822 82.7061C171.122 82.6404 171.351 82.5811 171.51 82.5286C171.669 82.4765 171.96 82.3661 172.384 82.1971L172.601 82.1111" fill="#B8E5BE"/>
<path d="M151.105 98.1163L152.104 98.0941C153.462 98.0185 154.555 97.9517 155.382 97.8938C156.209 97.8356 156.874 97.7806 157.377 97.7287C157.88 97.677 158.255 97.6341 158.502 97.5998C158.75 97.5657 159.201 97.4801 159.856 97.343C160.511 97.2057 161.158 97.0279 161.797 96.8094C162.436 96.5909 162.991 96.3677 163.463 96.1402C163.934 95.9129 164.405 95.6314 164.873 95.2954C165.342 94.9592 165.724 94.6646 166.02 94.4116C166.317 94.1585 166.605 93.8912 166.885 93.6096C167.166 93.3277 167.492 92.9498 167.863 92.4759C168.235 92.002 168.653 91.4323 169.116 90.7665C169.151 90.7147 169.237 90.5513 169.374 90.2762C169.51 90.0014 169.697 89.6149 169.935 89.1166C170.173 88.6186 170.399 88.1085 170.614 87.5863C170.829 87.0644 171.032 86.5303 171.225 85.9839C171.417 85.4381 171.577 84.9774 171.706 84.6015C171.834 84.2255 171.947 83.8834 172.045 83.5755C172.142 83.2673 172.362 82.7568 172.601 82.1111L172.384 82.1971C171.96 82.3661 171.669 82.4765 171.51 82.5286C171.351 82.5811 171.122 82.6404 170.822 82.7061C170.523 82.772 170.172 82.8403 169.771 82.9111C169.369 82.9817 168.915 83.0612 168.409 83.1495C167.904 83.238 167.544 83.3061 167.33 83.3538C167.115 83.4015 166.881 83.4568 166.627 83.5198C166.373 83.5831 166.045 83.6851 165.644 83.8257C165.243 83.966 164.725 84.1547 164.089 84.3917C163.453 84.6284 162.949 84.8193 162.578 84.9645C162.208 85.1096 161.944 85.2231 161.788 85.305C161.632 85.3871 161.529 85.4448 161.478 85.4778C161.427 85.5108 161.263 85.6098 160.985 85.7753C160.708 85.9408 160.385 86.1472 160.016 86.3941C159.647 86.641 159.331 86.8729 159.068 87.0898C158.805 87.3063 158.559 87.5208 158.329 87.7337C158.1 87.9467 157.843 88.1938 157.558 88.475C157.275 88.7561 156.987 89.0592 156.697 89.3842C156.406 89.7087 156.113 90.0551 155.816 90.4232C155.52 90.7915 155.278 91.0952 155.09 91.3347C154.904 91.5741 154.752 91.7769 154.636 91.943C154.519 92.1089 154.268 92.5037 153.882 93.1274C153.496 93.7514 153.15 94.3302 152.844 94.864C152.538 95.3978 152.26 95.8944 152.011 96.3537C151.762 96.813 151.438 97.5359 151.105 98.1163Z" stroke="#333333" stroke-linecap="round" stroke-linejoin="round"/>
<path d="M152.396 75.9924C152.715 76.0084 153.014 76.0226 153.292 76.0354C153.57 76.0483 153.914 76.0567 154.323 76.0605C154.732 76.0641 155.273 76.0666 155.947 76.0678C156.62 76.069 157.353 76.0395 158.143 75.9795C158.934 75.9194 159.874 75.793 160.963 75.6004C162.052 75.4082 162.683 75.2877 162.856 75.239C163.029 75.1903 163.372 75.0826 163.886 74.9154C164.4 74.7483 165.005 74.4996 165.702 74.1694C166.399 73.8396 167.163 73.4018 167.992 72.856C168.822 72.3104 169.535 71.7776 170.132 71.2579C170.728 70.7383 171.177 70.3198 171.477 70.0023C171.778 69.685 172.012 69.4258 172.18 69.2247C172.347 69.0234 172.601 68.7083 172.942 68.2796C173.283 67.8513 173.656 67.3535 174.062 66.786C174.467 66.2185 175.024 65.3035 175.622 63.9258" fill="#B8E5BE"/>
<path d="M152.396 75.9924L152.661 75.4614C152.951 74.8512 153.188 74.3654 153.37 74.004C153.553 73.6422 153.721 73.3246 153.874 73.0509C154.028 72.7771 154.196 72.5042 154.379 72.2324C154.561 71.9606 154.787 71.6511 155.057 71.3037C155.326 70.9561 155.596 70.6289 155.864 70.3222C156.133 70.0155 156.465 69.6573 156.861 69.2479C157.257 68.8385 157.575 68.5236 157.816 68.3029C158.057 68.0824 158.298 67.8727 158.539 67.6737C158.78 67.4749 159.061 67.2498 159.382 66.9986C159.703 66.7478 159.993 66.5289 160.253 66.3419C160.512 66.1546 160.741 65.9993 160.938 65.8757C161.136 65.752 161.464 65.5645 161.924 65.3132C162.384 65.0617 162.975 64.7461 163.698 64.3667C164.054 64.233 164.457 64.1042 164.907 63.9804C165.358 63.8568 165.855 63.7379 166.399 63.6237C166.943 63.5093 167.438 63.4182 167.883 63.3505C168.328 63.2825 168.809 63.2319 169.325 63.1989C169.842 63.1659 170.293 63.1497 170.678 63.1501C171.063 63.1507 171.491 63.1712 171.962 63.2116C172.432 63.252 172.772 63.2897 172.981 63.3248C173.191 63.3599 173.494 63.4221 173.89 63.5112C174.286 63.6003 174.735 63.7112 175.236 63.8443L175.622 63.9258" fill="#B8E5BE"/>
<path d="M152.396 75.9924C152.715 76.0084 153.014 76.0226 153.292 76.0354C153.57 76.0483 153.914 76.0567 154.323 76.0605C154.732 76.0641 155.273 76.0666 155.947 76.0678C156.62 76.069 157.353 76.0395 158.143 75.9795C158.934 75.9194 159.874 75.793 160.963 75.6004C162.052 75.4082 162.683 75.2877 162.856 75.239C163.029 75.1903 163.372 75.0826 163.886 74.9154C164.4 74.7483 165.005 74.4996 165.702 74.1694C166.399 73.8396 167.163 73.4018 167.992 72.856C168.822 72.3104 169.535 71.7776 170.132 71.2579C170.728 70.7383 171.177 70.3198 171.477 70.0023C171.778 69.685 172.012 69.4258 172.18 69.2247C172.347 69.0234 172.601 68.7083 172.942 68.2796C173.283 67.8513 173.656 67.3535 174.062 66.786C174.467 66.2185 175.024 65.3035 175.622 63.9258L175.236 63.8443C174.735 63.7112 174.286 63.6003 173.89 63.5112C173.494 63.4221 173.191 63.3599 172.981 63.3248C172.772 63.2897 172.432 63.252 171.962 63.2116C171.491 63.1712 171.063 63.1507 170.678 63.1501C170.293 63.1497 169.842 63.1659 169.325 63.1989C168.809 63.2319 168.328 63.2825 167.883 63.3505C167.438 63.4182 166.943 63.5093 166.399 63.6237C165.855 63.7379 165.358 63.8568 164.907 63.9804C164.457 64.1042 164.054 64.233 163.698 64.3667C162.975 64.7461 162.384 65.0617 161.924 65.3132C161.464 65.5645 161.136 65.752 160.938 65.8757C160.741 65.9993 160.512 66.1546 160.253 66.3419C159.993 66.5289 159.703 66.7478 159.382 66.9986C159.061 67.2498 158.78 67.4749 158.539 67.6737C158.298 67.8727 158.057 68.0824 157.816 68.3029C157.575 68.5236 157.257 68.8385 156.861 69.2479C156.465 69.6573 156.133 70.0155 155.864 70.3222C155.596 70.6289 155.326 70.9561 155.057 71.3037C154.787 71.6511 154.561 71.9606 154.379 72.2324C154.196 72.5042 154.028 72.7771 153.874 73.0509C153.721 73.3246 153.553 73.6422 153.37 74.004C153.188 74.3654 152.951 74.8512 152.661 75.4614L152.396 75.9924Z" stroke="#333333" stroke-linecap="round" stroke-linejoin="round"/>
<path d="M158.576 55.9915L159.091 56.0417C159.193 56.0509 159.342 56.0657 159.538 56.0861C159.734 56.1063 159.977 56.132 160.267 56.1635C160.557 56.1948 160.841 56.2209 161.118 56.2419C161.395 56.2626 161.732 56.2809 162.128 56.2965C162.524 56.3118 162.9 56.3118 163.256 56.2966C163.612 56.2814 164.033 56.236 164.519 56.1601C165.006 56.0843 165.274 56.0409 165.323 56.03C165.373 56.019 165.511 55.9788 165.737 55.9092C165.963 55.8388 166.287 55.7372 166.707 55.6044C167.126 55.4719 167.485 55.3516 167.783 55.2433C168.08 55.135 168.359 55.0183 168.621 54.8929C168.883 54.7678 169.166 54.617 169.471 54.4405C169.775 54.2639 170.169 54.0082 170.653 53.6738C170.702 53.6437 170.834 53.54 171.047 53.3627C171.261 53.1854 171.566 52.9224 171.964 52.5735C172.361 52.2251 172.727 51.8876 173.062 51.5611C173.396 51.2344 173.762 50.8515 174.157 50.4122C174.553 49.9725 174.792 49.7041 174.874 49.6073C174.956 49.5105 175.469 48.8132 176.447 47.6877" fill="#B8E5BE"/>
<path d="M158.576 55.9915L159.012 55.2343C159.442 54.4698 159.757 53.9247 159.955 53.5987C160.153 53.2725 160.301 53.032 160.398 52.8774C160.495 52.7227 160.678 52.4677 160.945 52.1122C161.212 51.757 161.459 51.4492 161.685 51.1889C161.911 50.9286 162.032 50.7905 162.047 50.7747C162.062 50.759 162.243 50.5852 162.59 50.2535C162.936 49.9217 163.216 49.6677 163.428 49.4914C163.642 49.3152 163.871 49.1389 164.115 48.9629C164.36 48.7868 164.716 48.5577 165.181 48.2757C165.471 48.1108 165.745 47.9682 166.002 47.8481C166.259 47.7279 166.52 47.6182 166.785 47.519C167.05 47.42 167.358 47.3203 167.708 47.2199C168.059 47.1197 168.405 47.0384 168.747 46.9756C169.089 46.9129 169.332 46.8746 169.475 46.8606C169.62 46.8463 169.881 46.8359 170.259 46.8298C170.636 46.8239 171.042 46.8323 171.474 46.8546C171.906 46.8763 172.192 46.8951 172.331 46.9111C172.47 46.9267 172.669 46.9533 172.928 46.9912C173.186 47.0286 173.448 47.0683 173.715 47.1102C173.981 47.152 174.197 47.1903 174.363 47.2251C174.529 47.26 174.709 47.2998 174.902 47.3446C175.095 47.3897 175.205 47.417 175.232 47.4264C175.26 47.4358 175.317 47.4507 175.401 47.4712C175.486 47.4918 175.834 47.564 176.447 47.6877" fill="#B8E5BE"/>
<path d="M158.576 55.9915L159.091 56.0417C159.193 56.0509 159.342 56.0657 159.538 56.0861C159.734 56.1063 159.977 56.132 160.267 56.1635C160.557 56.1948 160.841 56.2209 161.118 56.2419C161.395 56.2626 161.732 56.2809 162.128 56.2965C162.524 56.3118 162.9 56.3118 163.256 56.2966C163.612 56.2814 164.033 56.236 164.519 56.1601C165.006 56.0843 165.274 56.0409 165.323 56.03C165.373 56.019 165.511 55.9788 165.737 55.9092C165.963 55.8388 166.287 55.7372 166.707 55.6044C167.126 55.4719 167.485 55.3516 167.783 55.2433C168.08 55.135 168.359 55.0183 168.621 54.8929C168.883 54.7678 169.166 54.617 169.471 54.4405C169.775 54.2639 170.169 54.0082 170.653 53.6738C170.702 53.6437 170.834 53.54 171.047 53.3627C171.261 53.1854 171.566 52.9224 171.964 52.5735C172.361 52.2251 172.727 51.8876 173.062 51.5611C173.396 51.2344 173.762 50.8515 174.157 50.4122C174.553 49.9725 174.792 49.7041 174.874 49.6073C174.956 49.5105 175.469 48.8132 176.447 47.6877C175.834 47.564 175.486 47.4918 175.401 47.4712C175.317 47.4507 175.26 47.4358 175.232 47.4264C175.205 47.417 175.095 47.3897 174.902 47.3446C174.709 47.2998 174.529 47.26 174.363 47.2251C174.197 47.1903 173.981 47.152 173.715 47.1102C173.448 47.0683 173.186 47.0286 172.928 46.9912C172.669 46.9533 172.47 46.9267 172.331 46.9111C172.192 46.8951 171.906 46.8763 171.474 46.8546C171.042 46.8323 170.636 46.8239 170.259 46.8298C169.881 46.8359 169.62 46.8463 169.475 46.8606C169.332 46.8746 169.089 46.9129 168.747 46.9756C168.405 47.0384 168.059 47.1197 167.708 47.2199C167.358 47.3203 167.05 47.42 166.785 47.519C166.52 47.6182 166.259 47.7279 166.002 47.8481C165.745 47.9682 165.471 48.1108 165.181 48.2757C164.716 48.5577 164.36 48.7868 164.115 48.9629C163.871 49.1389 163.642 49.3152 163.428 49.4914C163.216 49.6677 162.936 49.9217 162.59 50.2535C162.243 50.5852 162.062 50.759 162.047 50.7747C162.032 50.7905 161.911 50.9286 161.685 51.1889C161.459 51.4492 161.212 51.757 160.945 52.1122C160.678 52.4677 160.495 52.7227 160.398 52.8774C160.301 53.032 160.153 53.2725 159.955 53.5987C159.757 53.9247 159.442 54.4698 159.012 55.2343L158.576 55.9915Z" stroke="#333333" stroke-linecap="round" stroke-linejoin="round"/>
</svg>