<svg width="300" height="300" viewBox="0 0 300 300" fill="none" xmlns="http://www.w3.org/2000/svg">
<circle cx="150" cy="150" r="150" fill="#B8E5BE"/>
<g clip-path="url(#clip0_155_946)">
<path d="M171.431 195.826C171.371 195.618 171.278 195.294 171.278 195.294C171.229 194.787 171.2 194.471 171.19 194.346C171.18 194.222 171.158 193.784 171.126 193.032C171.093 192.28 171.085 191.643 171.102 191.121C171.12 190.598 171.16 190.077 171.221 189.558C171.283 189.039 171.333 188.672 171.372 188.456C171.41 188.241 171.467 187.873 171.544 187.354C171.62 186.835 171.671 186.535 171.695 186.455C171.718 186.374 171.864 185.685 172.132 184.388C172.399 183.091 172.61 182.125 172.764 181.491C172.918 180.857 173.11 180.013 173.338 178.959C173.566 177.906 173.745 177.021 173.875 176.304C174.006 175.588 174.127 174.912 174.239 174.275C174.35 173.64 174.425 173.155 174.463 172.822C174.501 172.489 174.545 171.871 174.595 170.967C174.645 170.063 174.64 169.292 174.578 168.655C174.516 168.017 174.446 167.525 174.367 167.177C174.289 166.829 174.201 166.459 174.104 166.066C174.006 165.673 173.948 165.444 173.928 165.38C173.908 165.316 173.732 164.96 173.401 164.312C173.07 163.664 172.668 163.016 172.195 162.369C171.723 161.721 171.405 161.309 171.242 161.132C171.079 160.954 170.897 160.776 170.695 160.596C170.492 160.416 169.807 159.925 168.639 159.123C167.471 158.322 165.73 157.568 163.415 156.861L163.325 156.822C162.148 156.851 161.373 156.897 161 156.961C160.627 157.025 160.271 157.134 159.931 157.288C159.591 157.441 159.339 157.586 159.174 157.722C159.009 157.858 158.815 158.01 158.591 158.179L158.209 158.627L157.945 159.08C157.613 159.562 157.326 160.371 157.084 161.507C156.841 162.643 156.725 163.552 156.736 164.236C156.747 164.921 156.849 165.754 157.043 166.738C157.236 167.721 157.451 168.585 157.687 169.33C157.922 170.076 158.132 170.682 158.315 171.15C158.498 171.617 158.648 171.974 158.764 172.219C158.88 172.465 159.016 172.765 159.173 173.119C159.329 173.473 159.644 174.136 160.119 175.108C160.593 176.08 160.975 176.864 161.263 177.459C161.551 178.055 161.779 178.534 161.947 178.897C162.115 179.261 162.283 179.619 162.452 179.97C162.62 180.322 162.766 180.616 162.888 180.852C163.011 181.088 163.176 181.426 163.383 181.867C163.59 182.307 163.832 182.855 164.11 183.511C164.389 184.167 164.655 184.836 164.909 185.518C165.163 186.201 165.363 186.724 165.508 187.086C165.654 187.449 165.808 187.878 165.971 188.373C166.133 188.869 166.265 189.295 166.364 189.651C166.464 190.008 166.606 190.499 166.79 191.124C166.865 191.261 166.942 191.642 167.059 191.966C167.966 194.469 170.605 197.135 171.159 197.412" fill="#98D9A0"/>
<path d="M108.172 177.071C106.959 177.309 105.967 177.547 105.197 177.786C104.428 178.025 103.508 178.361 102.439 178.792C101.37 179.224 100.184 179.721 98.8806 180.282C97.5766 180.844 96.5952 181.28 95.9363 181.592C95.2775 181.903 94.3023 182.41 93.0108 183.112C91.7197 183.814 90.3291 184.603 88.839 185.477C87.349 186.35 86.0184 187.198 84.8472 188.02C83.676 188.842 82.5166 189.786 81.3692 190.852C80.2218 191.917 79.3183 192.835 78.6586 193.605C77.9986 194.374 77.2033 195.365 76.273 196.578C75.3426 197.79 74.6595 198.698 74.2237 199.3C73.7875 199.902 73.3045 200.613 72.7746 201.433C72.2449 202.252 71.5806 203.521 70.7815 205.239C69.9828 206.957 69.3655 208.442 68.9296 209.693C68.4935 210.943 68.0606 212.645 67.631 214.799C67.2014 216.953 66.8562 219.283 66.5954 221.789C66.3346 224.296 66.1598 226.221 66.0711 227.563C65.9824 228.906 65.9307 230.123 65.9161 231.215C65.9016 232.305 65.8882 233.359 65.876 234.375C65.8638 235.391 65.909 236.446 66.0117 237.539C66.1147 238.632 66.2231 239.504 66.3368 240.157C66.4508 240.809 66.7509 241.877 67.2371 243.362C67.7236 244.846 68.1947 245.984 68.6505 246.775C69.1063 247.566 69.4868 248.131 69.7919 248.47C70.0971 248.809 70.4351 249.098 70.8061 249.339C71.177 249.579 71.6229 249.765 72.1436 249.897C72.6643 250.029 73.1096 250.066 73.4797 250.01C73.85 249.954 74.2441 249.817 74.6618 249.6C75.0795 249.383 75.4506 249.134 75.7751 248.852C76.0996 248.57 76.3498 248.335 76.5258 248.147C76.7017 247.959 77.0877 247.259 77.6837 246.048C78.2794 244.836 78.8296 243.469 79.3342 241.946C79.8388 240.423 80.3444 238.863 80.8508 237.266C81.3572 235.669 81.8314 234.313 82.2735 233.198C82.7154 232.083 83.1167 231.139 83.4775 230.367C83.838 229.594 84.1409 228.972 84.3862 228.501C84.6319 228.03 85.1632 227.127 85.9801 225.791C86.7973 224.456 87.5709 223.279 88.3009 222.262C89.0309 221.244 89.6903 220.378 90.2792 219.664C90.8678 218.95 91.4808 218.236 92.1182 217.521C92.7553 216.806 93.4535 216.092 94.213 215.378C94.9725 214.665 95.8546 213.945 96.8594 213.218C97.8642 212.491 98.6786 211.958 99.3026 211.619C99.9263 211.28 101.225 210.678 103.198 209.813C105.17 208.948 106.599 208.429 107.483 208.254C108.367 208.08 108.876 207.978 109.011 207.949C109.146 207.92 109.363 207.892 109.661 207.866C109.96 207.839 111.569 207.805 114.486 207.764C114.515 207.762 115.308 207.88 116.867 208.117C118.425 208.354 119.744 208.608 120.823 208.88C121.902 209.152 122.698 209.373 123.211 209.542C123.724 209.712 124.374 209.941 125.161 210.231C125.948 210.52 126.806 210.805 127.734 211.086C128.662 211.367 129.573 211.578 130.465 211.719C131.358 211.861 132.22 211.923 133.051 211.906C133.882 211.89 134.674 211.8 135.425 211.637C136.177 211.474 136.751 211.311 137.15 211.147C137.548 210.983 137.981 210.756 138.448 210.465C138.914 210.174 139.41 209.805 139.934 209.357C140.458 208.91 141.071 208.219 141.772 207.285C142.473 206.351 142.994 205.479 143.334 204.67C143.674 203.86 143.923 203.134 144.082 202.491C144.241 201.848 144.374 201.144 144.482 200.378C144.589 199.612 144.653 198.868 144.674 198.147C144.694 197.425 144.708 197.038 144.716 196.986C144.724 196.933 144.711 196.598 144.676 195.981C144.642 195.363 144.599 194.851 144.545 194.444C144.492 194.038 144.438 193.624 144.384 193.203C144.329 192.781 144.285 192.438 144.251 192.174C144.217 191.909 144.145 191.507 144.036 190.97C143.927 190.432 143.815 189.877 143.701 189.305C143.587 188.733 143.468 188.168 143.345 187.609C143.221 187.049 143.157 186.756 143.154 186.729C143.151 186.702 143.058 186.392 142.875 185.799C142.691 185.207 142.513 184.725 142.34 184.354C142.167 183.982 141.996 183.651 141.828 183.36C141.659 183.069 141.531 182.851 141.444 182.705C141.357 182.559 141.046 182.149 140.511 181.474C139.976 180.798 139.52 180.263 139.143 179.866C138.766 179.469 138.332 179.087 137.842 178.721C137.352 178.355 136.917 178.047 136.536 177.797C136.155 177.547 135.577 177.167 134.924 176.832C131.31 174.981 124.578 175.785 124.578 175.785C119.222 176.241 113.464 176.033 108.172 177.071Z" fill="#98D9A0"/>
<path d="M129.906 139.987C129.837 139.576 129.783 139.268 129.744 139.062C129.705 138.857 129.676 138.666 129.659 138.491C129.642 138.316 129.635 138.159 129.641 138.02C129.646 137.881 129.655 137.786 129.668 137.735C129.682 137.684 129.713 137.404 129.762 136.896C129.812 136.387 130.009 135.615 130.354 134.578C130.699 133.54 131.04 132.703 131.376 132.066C131.712 131.429 132.227 130.644 132.92 129.712C133.614 128.781 134.508 127.675 135.602 126.393C136.696 125.112 137.644 123.961 138.444 122.941C139.244 121.921 140.04 120.909 140.831 119.906C141.622 118.904 142.446 117.949 143.301 117.043C144.157 116.136 145.214 115.171 146.473 114.149C147.731 113.127 148.795 112.298 149.664 111.663C150.534 111.028 151.286 110.476 151.921 110.007C152.556 109.539 153.363 108.993 154.344 108.37C155.324 107.747 156.416 107.145 157.618 106.564C158.82 105.983 159.94 105.491 160.978 105.089C162.017 104.687 163.786 103.965 166.285 102.923C166.441 102.824 167.408 102.428 169.187 101.735C170.965 101.043 172.77 100.295 174.602 99.492C182.586 95.9896 194.315 93.9157 199.993 87.6154C204.113 83.0449 204.984 73.7276 208.831 73.7276C209.498 73.7832 210.064 73.8681 210.528 73.9823C210.993 74.0966 211.342 74.2001 211.574 74.2928C211.806 74.3855 212.509 74.7962 213.682 75.5248L213.779 75.6446C213.931 75.8187 214.301 76.2739 214.89 77.0101C217.059 79.7234 216.092 87.212 215.872 90.6121C215.81 91.5663 215.75 92.2565 215.69 92.683C215.015 97.5559 214.392 101.396 210.048 103.785C209.069 104.324 207.962 104.852 206.728 105.37C205.493 105.888 203.983 106.513 202.199 107.247C200.414 107.98 198.357 108.89 196.027 109.977C193.697 111.064 191.965 111.935 190.831 112.589C189.697 113.243 188.734 113.824 187.941 114.333C167.831 121.164 161.731 124.492 150.142 132.637C146.769 134.449 144.65 135.623 143.784 136.159C142.919 136.696 141.978 137.28 140.963 137.911C140.941 137.93 140.259 138.329 138.917 139.11C137.575 139.89 136.332 140.568 135.19 141.143C134.047 141.719 133.349 142.061 133.097 142.169C132.6 142.383 132.3 142.169 131.863 141.85" fill="#98D9A0"/>
</g>
<path d="M214.145 139.863C214.197 139.689 214.255 139.302 214.318 138.701C214.381 138.1 214.411 137.691 214.408 137.475C214.406 137.26 214.39 137.006 214.361 136.714C214.332 136.421 214.309 136.194 214.292 136.031C214.276 135.869 214.249 135.702 214.214 135.53C214.178 135.359 214.132 135.129 214.075 134.841C214.017 134.554 213.974 134.375 213.945 134.302C213.758 133.525 213.608 132.943 213.494 132.557C213.381 132.17 213.277 131.811 213.182 131.481C213.086 131.15 212.986 130.791 212.882 130.403C212.778 130.015 212.694 129.724 212.631 129.528C212.567 129.333 212.446 128.977 212.267 128.461C212.089 127.945 211.923 127.45 211.77 126.976C211.617 126.503 211.487 126.111 211.381 125.801C211.274 125.49 211.14 125.035 210.976 124.435C210.813 123.836 210.677 123.29 210.569 122.797C210.46 122.304 210.325 121.728 210.164 121.069C210.002 120.41 209.819 119.566 209.616 118.537C209.412 117.507 209.306 116.964 209.298 116.907C209.289 116.85 209.228 116.379 209.113 115.495C208.998 114.61 208.917 113.954 208.872 113.527C208.827 113.099 208.791 112.57 208.765 111.939C208.739 111.307 208.732 110.92 208.744 110.777C208.757 110.633 208.765 110.457 208.77 110.247C208.775 110.037 208.777 109.688 208.776 109.198C208.774 108.708 208.793 108.203 208.832 107.683C208.871 107.163 208.9 106.84 208.919 106.712L209.084 105.441C209.251 104.964 209.382 104.607 209.477 104.372C209.571 104.137 209.683 103.849 209.812 103.507C209.941 103.166 210.037 102.946 210.101 102.85C210.675 101.399 211.016 100.547 211.125 100.296C211.233 100.044 211.343 99.7935 211.454 99.5459C211.565 99.2985 211.668 99.0556 211.764 98.8172C211.86 98.5788 211.969 98.2685 212.091 97.8863C212.212 97.5041 212.359 97.0423 212.531 96.501C212.704 95.9594 212.891 95.3582 213.094 94.6973C213.297 94.036 213.409 93.6702 213.431 93.6001C213.453 93.5301 213.535 93.2195 213.675 92.6683C213.815 92.1171 213.944 91.5026 214.06 90.8246C214.177 90.1469 214.263 89.6295 214.319 89.2724C214.376 88.9153 214.454 88.4568 214.555 87.8969C214.656 87.3367 214.715 86.9372 214.732 86.6985C214.75 86.4601 214.762 86.2045 214.77 85.9317C214.777 85.6589 214.78 85.3451 214.78 84.9901C214.78 84.6352 214.765 84.2403 214.736 83.806C214.708 83.3714 214.689 83.1389 214.681 83.1085C214.673 83.0781 214.65 82.9005 214.611 82.5756C214.572 82.2504 214.503 81.8511 214.404 81.3774C214.305 80.9034 214.219 80.5449 214.145 80.3018C214.071 80.0588 213.963 79.7522 213.822 79.382C213.68 79.0116 213.548 78.7112 213.425 78.4808C213.303 78.2505 213.123 77.9238 212.885 77.5006C212.647 77.0775 212.344 76.687 211.976 76.3292C211.523 75.9606 211.224 75.7385 211.079 75.6628C210.934 75.5869 210.58 75.5264 210.017 75.4814C209.455 75.4361 209.046 75.4558 208.79 75.5404C208.535 75.6248 208.342 75.6936 208.212 75.7466C208.083 75.7999 207.927 75.8824 207.746 75.9943C207.565 76.1069 207.371 76.2336 207.166 76.3746C206.961 76.5154 206.642 76.7752 206.209 77.1537C205.776 77.5319 205.434 77.8833 205.183 78.2079C204.931 78.5328 204.7 78.8744 204.489 79.2331C204.277 79.5917 204.11 79.9037 203.987 80.1688C203.864 80.4335 203.727 80.6878 203.577 80.9315C203.427 81.1751 203.252 81.4748 203.053 81.8304C202.854 82.1863 202.603 82.5913 202.3 83.0458C201.996 83.5 201.616 83.9865 201.158 84.5051C200.701 85.0238 200.439 85.3277 200.372 85.417C199.944 85.8026 199.699 86.0357 199.636 86.1163C198.952 86.5761 198.56 86.8605 198.458 86.9696M214.145 139.863C214.094 140.037 213.869 140.648 213.472 141.697L213.11 142.151C212.99 142.352 212.879 142.501 212.777 142.601C212.675 142.7 211.712 143.499 209.888 144.999L209.197 145.629L209.107 146.06C209.1 146.239 209.095 146.628 209.091 147.228C209.088 147.828 209.078 148.271 209.063 148.558C209.048 148.845 209.037 149.136 209.03 149.432C209.024 149.727 209.033 150.093 209.057 150.531C209.082 150.968 209.13 151.811 209.203 153.058C209.277 154.305 209.327 155.124 209.355 155.514C209.382 155.905 209.402 156.247 209.414 156.539C209.427 156.832 209.428 157.035 209.42 157.148C209.411 157.261 209.429 157.995 209.473 159.347C209.517 160.701 209.544 161.542 209.555 161.872C209.566 162.202 209.578 162.448 209.591 162.611C209.604 162.774 209.597 163.38 209.571 164.428C209.545 165.477 209.502 166.996 209.441 168.985L208.424 173.983C208.238 174.336 208.121 174.576 208.071 174.701C208.023 174.826 207.817 175.157 207.455 175.695C207.093 176.233 206.757 176.639 206.447 176.912C206.137 177.185 205.823 177.447 205.504 177.697C205.186 177.948 204.728 178.215 204.13 178.497C203.532 178.78 202.919 178.995 202.291 179.141C201.663 179.288 201.18 179.389 200.841 179.443C200.502 179.499 200.1 179.533 199.635 179.545C199.17 179.558 198.506 179.543 197.643 179.498C196.781 179.454 196.166 179.405 195.8 179.351C195.435 179.296 195.134 179.24 194.9 179.183C194.665 179.126 194.523 179.09 194.474 179.074C194.425 179.059 193.88 178.889 192.84 178.565C191.799 178.241 190.968 177.936 190.348 177.649C189.729 177.362 189.33 177.17 189.151 177.073C188.973 176.975 188.322 176.619 187.196 176.004C186.07 175.389 185.136 174.909 184.393 174.564C183.65 174.219 183.126 173.991 182.822 173.878C182.517 173.765 182.268 173.682 182.074 173.629C181.88 173.576 181.636 173.529 181.343 173.488C181.05 173.446 180.745 173.406 180.426 173.369C180.108 173.332 179.561 173.325 178.786 173.348C178.661 173.395 178.442 173.445 178.131 173.497C177.819 173.549 177.505 173.631 177.188 173.742C176.87 173.853 176.61 173.949 176.408 174.031C176.206 174.112 175.88 174.315 175.43 174.638C174.981 174.961 174.557 175.377 174.16 175.885C173.763 176.394 173.553 176.671 173.529 176.715C173.505 176.76 173.342 177.058 173.04 177.61C172.738 178.163 172.503 178.624 172.338 178.995C172.172 179.366 172.044 179.689 171.954 179.965C171.865 180.241 171.769 180.525 171.667 180.816C171.566 181.107 171.456 181.501 171.338 181.999C171.219 182.496 171.128 182.899 171.065 183.208C171.001 183.516 170.944 183.82 170.892 184.119C170.841 184.418 170.801 184.647 170.771 184.806C170.742 184.964 170.67 185.558 170.555 186.589C170.441 187.62 170.38 188.215 170.372 188.375C170.365 188.534 170.356 189.493 170.347 191.252C170.338 193.01 170.347 200.187 170.379 199.32M214.145 139.863L212.069 139.514C211.53 139.444 211.217 139.399 211.13 139.379C211.043 139.359 210.782 139.329 210.348 139.29C209.913 139.251 209.382 139.19 208.755 139.109C207.851 139.128 207.223 139.144 206.874 139.156C206.525 139.169 206.13 139.213 205.691 139.289C205.252 139.365 204.963 139.438 204.826 139.507C204.318 139.675 203.975 139.797 203.797 139.875C203.62 139.951 203.161 140.188 202.419 140.586C202.022 140.787 201.775 140.935 201.676 141.029L201.279 141.261C200.835 141.615 200.489 141.875 200.24 142.041C199.718 142.505 199.276 142.891 198.916 143.201C198.555 143.511 198.224 143.788 197.923 144.032C197.623 144.276 197.222 144.58 196.72 144.943C196.218 145.307 195.714 145.637 195.208 145.933C194.703 146.23 194.149 146.492 193.546 146.722C193.052 146.843 192.793 146.91 192.769 146.922C192.745 146.934 192.491 146.969 192.008 147.029C191.524 147.088 191.063 147.102 190.624 147.07C190.186 147.038 189.796 146.977 189.453 146.885C189.11 146.793 188.706 146.647 188.24 146.447C187.775 146.248 187.433 146.081 187.215 145.948C186.997 145.814 186.684 145.609 186.277 145.333C185.87 145.058 185.597 144.86 185.459 144.74C185.321 144.621 185.155 144.461 184.96 144.258C184.765 144.057 184.537 143.811 184.276 143.521C184.014 143.231 183.703 142.807 183.341 142.249C182.558 141.145 182.091 140.48 181.942 140.253C181.653 139.699 181.412 139.231 181.218 138.851C181.025 138.47 180.877 138.183 180.774 137.988C180.672 137.793 180.478 137.379 180.193 136.746C179.907 136.113 179.724 135.666 179.642 135.407C179.561 135.147 179.389 134.539 179.127 133.583C178.865 132.626 178.699 131.856 178.629 131.272C178.558 130.689 178.516 130.142 178.5 129.631C178.485 129.12 178.479 128.586 178.481 128.029C178.484 127.473 178.531 126.673 178.622 125.631C178.714 124.588 178.791 123.889 178.853 123.534C178.914 123.179 178.989 122.766 179.078 122.294C179.167 121.822 179.231 121.509 179.27 121.354C179.31 121.2 179.386 120.902 179.498 120.459C179.61 120.015 179.763 119.509 179.957 118.941L180.115 118.331M208.986 106.193C207.943 106.712 206.19 107.147 206.004 107.228C205.59 107.342 204.945 107.543 204.069 107.829C203.193 108.116 202.554 108.334 202.153 108.484C201.751 108.634 201.329 108.782 200.887 108.93C200.444 109.078 200.087 109.202 199.817 109.302C199.547 109.403 199.283 109.492 199.024 109.571C198.766 109.649 198.607 109.701 198.547 109.726C198.487 109.752 198.256 109.826 197.855 109.948C197.454 110.07 196.812 110.297 195.93 110.63C195.047 110.963 194.101 111.306 193.093 111.66C192.084 112.014 191.453 112.228 191.199 112.303C190.944 112.378 190.711 112.455 190.497 112.536C190.284 112.617 190.093 112.682 189.924 112.729C189.755 112.776 189.563 112.84 189.349 112.921C189.136 113.002 188.98 113.055 188.884 113.08C188.787 113.105 188.077 113.373 186.754 113.886C185.431 114.399 184.426 114.796 183.742 115.077C183.057 115.358 182.485 115.584 182.027 115.753C181.569 115.923 180.793 116.228 179.701 116.668C178.609 117.109 177.624 117.511 176.748 117.877C175.872 118.243 175.229 118.512 174.817 118.686C174.405 118.859 174.136 118.971 174.008 119.021C173.88 119.071 173.644 119.171 173.3 119.32C172.956 119.47 172.333 119.732 171.433 120.107C170.531 120.482 169.824 120.773 169.311 120.979C168.798 121.185 168.318 121.381 167.871 121.567C167.424 121.753 167.077 121.894 166.83 121.991C166.583 122.087 166.283 122.21 165.93 122.358C165.577 122.506 164.673 122.927 163.22 123.619C161.767 124.313 160.609 124.894 159.746 125.363C158.883 125.833 158.265 126.176 157.894 126.392C157.522 126.608 157.174 126.808 156.849 126.991C156.523 127.174 156.266 127.325 156.078 127.443C155.89 127.561 155.636 127.707 155.317 127.881C154.998 128.055 154.097 128.61 152.614 129.545C151.131 130.48 149.975 131.232 149.146 131.8C148.316 132.369 147.447 132.982 146.537 133.639C145.628 134.297 144.866 134.848 144.252 135.294C143.638 135.739 143.137 136.111 142.748 136.408C142.36 136.705 142.003 136.975 141.676 137.218C141.349 137.461 141.035 137.692 140.734 137.911C140.433 138.13 140.053 138.429 139.593 138.809C139.132 139.189 138.462 139.745 137.582 140.477C136.702 141.21 135.833 141.903 134.974 142.555L133.779 143.496L133.125 143.883C132.151 144.673 131.539 145.161 131.29 145.348C131.041 145.534 130.732 145.757 130.362 146.017C129.992 146.278 129.587 146.607 129.149 147.004C128.71 147.401 128.29 147.834 127.89 148.304C127.489 148.773 127.166 149.21 126.921 149.613C126.675 150.017 126.469 150.418 126.302 150.816C126.135 151.214 126.044 151.429 126.028 151.459C126.013 151.489 125.971 151.642 125.904 151.919C125.835 152.195 125.751 152.572 125.65 153.048C125.549 153.524 125.493 153.938 125.481 154.289C125.47 154.641 125.462 154.838 125.456 154.882C125.45 154.926 125.515 155.348 125.652 156.148C125.789 156.948 125.939 157.547 126.102 157.946C126.265 158.344 126.423 158.669 126.575 158.919C126.726 159.169 126.806 159.304 126.814 159.324C126.822 159.343 127.048 159.558 127.491 159.968C127.935 160.378 128.447 160.717 129.028 160.985C129.61 161.253 130.082 161.412 130.447 161.462C130.492 161.48 130.721 161.477 131.135 161.455C131.337 161.465 131.607 161.424 131.945 161.331C132.2 161.146 132.437 160.972 132.656 160.809C132.875 160.647 133.144 160.433 133.465 160.168C133.786 159.902 134.071 159.639 134.323 159.38C134.574 159.12 134.777 158.903 134.933 158.73C135.089 158.557 135.342 158.304 135.691 157.972C136.04 157.639 136.437 157.257 136.883 156.824C137.33 156.391 137.89 155.889 138.565 155.319C139.24 154.749 139.756 154.33 140.114 154.062C140.471 153.794 140.788 153.552 141.064 153.334C141.34 153.118 141.878 152.724 142.677 152.153C143.476 151.582 144.324 150.894 145.221 150.09C146.118 149.285 146.847 148.572 147.409 147.951C147.971 147.33 148.323 146.939 148.466 146.776C148.608 146.614 148.93 146.187 149.432 145.495C149.933 144.803 150.271 144.341 150.443 144.111C150.616 143.88 150.874 143.484 151.217 142.923C151.56 142.363 151.845 141.852 152.074 141.39C152.302 140.929 152.498 140.528 152.661 140.187C152.825 139.846 152.938 139.62 153.002 139.506C153.065 139.393 153.171 139.15 153.318 138.777C153.466 138.404 153.592 138.078 153.696 137.798C153.8 137.518 153.933 137.108 154.094 136.568C154.256 136.028 154.34 135.744 154.347 135.718C154.353 135.691 154.41 135.491 154.518 135.12C154.626 134.749 154.726 134.418 154.82 134.127C154.912 133.836 154.971 133.644 154.996 133.553C155.02 133.461 155.121 133.167 155.299 132.669C155.477 132.172 155.585 131.869 155.621 131.761C155.657 131.652 156.078 130.315 156.131 129.315L156.262 130.059C156.351 130.466 156.538 131.366 156.823 132.759C157.109 134.152 157.358 135.21 157.57 135.935C157.782 136.66 157.981 137.258 158.168 137.73C158.355 138.202 158.544 138.638 158.735 139.038C158.926 139.438 159.203 139.921 159.564 140.487C159.926 141.054 160.335 141.617 160.792 142.176C161.249 142.735 161.578 143.107 161.779 143.292C161.981 143.476 162.207 143.657 162.459 143.836C162.711 144.014 162.883 144.14 162.976 144.216C163.068 144.291 163.204 144.389 163.384 144.508C163.565 144.629 165.338 145.498 167.384 146.516M133.763 142.932C132.964 142.578 132.456 142.333 132.24 142.195C132.024 142.058 131.728 141.862 131.355 141.606C130.964 141.359 130.494 141.078 129.944 140.762C129.393 140.446 128.945 140.189 128.597 139.99C128.25 139.791 127.96 139.616 127.728 139.465C127.495 139.313 127.25 139.142 126.992 138.952C126.734 138.763 126.327 138.438 125.77 137.98C125.362 137.644 124.876 137.246 124.876 137.246M124.869 137.246C124.939 136.999 125.332 136.144 125.354 136.041C125.377 135.939 125.459 135.705 125.601 135.34C125.643 135.277 125.763 134.982 125.963 134.455C126.729 132.842 127.273 131.721 127.594 131.092C127.915 130.463 128.089 130.115 128.116 130.049C128.143 129.981 128.212 129.854 128.321 129.666C128.431 129.478 128.615 129.166 128.874 128.729C129.133 128.293 129.301 128.015 129.378 127.897C129.455 127.779 129.802 127.257 130.419 126.33C131.037 125.404 131.616 124.58 132.156 123.861C132.696 123.14 133.297 122.412 133.959 121.675C134.621 120.939 135.154 120.332 135.56 119.855C135.965 119.378 136.389 118.914 136.832 118.464C137.275 118.014 137.649 117.646 137.956 117.363C138.261 117.079 138.497 116.858 138.662 116.698C138.827 116.539 139.363 116.051 140.27 115.233C141.178 114.416 141.772 113.88 142.054 113.626C142.336 113.372 142.999 112.84 144.043 112.03C145.088 111.22 146.225 110.389 147.452 109.536C148.68 108.683 149.786 107.937 150.771 107.299C151.755 106.661 152.75 106.024 153.755 105.39C154.759 104.755 156.018 103.976 157.531 103.053C159.043 102.129 160.257 101.42 161.17 100.924C162.084 100.428 162.732 100.091 163.113 99.9146C163.493 99.7379 164.354 99.3778 165.694 98.834C167.033 98.2903 168.052 97.8875 168.749 97.6259C169.446 97.3642 170.269 97.0563 171.218 96.702C172.167 96.3473 173.048 96.0197 173.862 95.7193C174.675 95.4189 175.54 95.1133 176.456 94.8024C177.372 94.4911 177.955 94.286 178.205 94.1871C178.456 94.0885 179.108 93.8604 180.164 93.5029C181.219 93.1452 182.083 92.8568 182.755 92.6376C183.427 92.4185 184.132 92.1824 184.87 91.9294C185.607 91.6765 186.359 91.4259 187.124 91.1779C187.89 90.9299 188.419 90.7614 188.713 90.6724C189.006 90.5838 190.047 90.3035 191.836 89.8317C191.939 89.7808 192.113 89.7167 192.357 89.6389C192.601 89.5608 192.976 89.4298 193.483 89.2463C193.99 89.0631 194.614 88.8146 195.353 88.5009C196.094 88.1871 196.652 87.9332 197.03 87.7391C197.408 87.545 197.884 87.2886 198.458 86.9696M198.458 86.9696C198.766 85.3371 199.133 83.7376 199.152 83.4548C199.17 83.1721 199.188 82.8809 199.206 82.5811C199.224 82.281 199.224 82.0406 199.207 81.8595C199.19 81.6785 199.171 81.5374 199.152 81.4363C199.132 81.3349 199.112 81.1443 199.093 80.8643C199.074 80.5844 198.996 80.2189 198.858 79.7679C198.721 79.3168 198.576 78.9405 198.423 78.6392C198.269 78.3382 198.034 77.9908 197.715 77.5968C197.396 77.2027 196.744 76.604 195.759 75.8007C195.072 75.4204 194.674 75.1935 194.565 75.12C193.742 74.8298 193.222 74.6531 193.002 74.5898C192.783 74.5266 192.662 74.4939 192.639 74.4917C192.242 74.3522 191.957 74.2604 191.782 74.2161C191.703 74.1795 191.529 74.1207 191.258 74.0401C190.713 73.3513 190.249 72.7785 189.865 72.3215C189.481 71.8646 189.171 71.5165 188.937 71.2775C188.702 71.0385 188.506 70.8362 188.35 70.6704C188.193 70.5045 188.017 70.3322 187.822 70.1536C187.628 69.9747 187.466 69.8452 187.337 69.7649C187.209 69.6849 187.06 69.5832 186.893 69.4595C186.725 69.3355 186.398 69.1675 185.913 68.9554C185.428 68.743 184.911 68.5778 184.362 68.46C183.813 68.3422 183.155 68.2741 182.387 68.2558C181.619 68.2372 181.143 68.2408 180.958 68.2665C180.773 68.2926 180.452 68.3664 179.994 68.4879C179.537 68.6097 179.052 68.7742 178.539 68.9813C178.027 69.1887 177.696 69.3362 177.546 69.4236C177.396 69.5104 176.982 69.7685 176.305 70.1979C175.627 70.6269 175.184 70.9174 174.976 71.0693C174.768 71.2209 174.506 71.4271 174.191 71.6878C173.876 71.9482 173.477 72.2638 172.996 72.6349C172.514 73.0059 172.223 73.2207 172.123 73.279C172.022 73.3373 171.825 73.4419 171.532 73.5928C171.417 73.6127 171.317 73.6411 171.229 73.678C170.516 73.1599 170.077 72.8335 169.912 72.6987C169.748 72.5638 169.528 72.3683 169.254 72.1122C168.979 71.8558 168.492 71.4553 167.791 70.9106C167.091 70.3659 166.685 70.059 166.573 69.9899C166.461 69.9207 166.296 69.8286 166.078 69.7133C165.86 69.598 165.631 69.495 165.393 69.4045C165.155 69.314 164.71 69.2091 164.06 69.09C163.409 68.971 162.872 68.9234 162.451 68.947C162.029 68.9706 161.428 69.0851 160.649 69.291C159.869 69.4968 159.006 69.8542 158.058 70.3629C157.11 70.8717 156.067 71.6095 154.929 72.5767C153.791 73.544 153.101 74.1633 152.86 74.4345C152.619 74.7061 152.325 75.0466 151.978 75.4558C151.631 75.8654 151.167 76.4249 150.586 77.1345C150.005 77.8438 149.36 78.5139 148.652 79.1451C147.944 79.7762 147.537 80.1227 147.432 80.1841C146.833 79.9689 146.366 79.7759 146.031 79.6051C145.697 79.434 145.334 79.2445 144.944 79.0368C144.554 78.829 144.229 78.6619 143.97 78.5354C143.711 78.4089 143.545 78.3316 143.471 78.3034C143.397 78.2748 143.319 78.2388 143.235 78.1951C143.152 78.1513 142.922 78.0749 142.546 77.9655C142.169 77.8561 141.71 77.7633 141.17 77.6874C140.63 77.6117 140.074 77.6108 139.502 77.6846C138.93 77.7584 138.351 77.9229 137.766 78.178C137.18 78.4328 136.732 78.6807 136.421 78.9219C136.11 79.1631 135.857 79.3823 135.664 79.5794C135.471 79.7766 135.285 79.9823 135.107 80.1966C134.929 80.4108 134.676 80.7814 134.347 81.3085C134.018 81.8358 133.837 82.1424 133.805 82.2283C133.773 82.3145 133.631 82.7334 133.38 83.4855C133.128 84.2376 132.986 84.6924 132.954 84.8499C132.921 85.0077 132.877 85.1729 132.822 85.3455C132.768 85.5179 132.695 85.7272 132.604 85.9734C132.513 86.2195 132.431 86.4503 132.359 86.6654L132.216 86.9513C132.198 87.0136 132.156 87.0972 132.09 87.202C132.053 87.2872 131.924 87.3388 131.703 87.3568C131.482 87.3751 131.315 87.3828 131.204 87.38C131.092 87.3772 130.914 87.3793 130.67 87.3861C130.425 87.3932 130.123 87.4014 129.761 87.4104C129.4 87.4194 129.117 87.442 128.911 87.4783C128.705 87.5146 128.389 87.5811 127.963 87.6781C127.537 87.7748 127.114 87.9059 126.693 88.0711C126.272 88.2364 125.898 88.4126 125.57 88.6002C125.242 88.7874 124.916 89.0216 124.592 89.3025C124.267 89.5833 123.836 90.082 123.299 90.7988C122.761 91.5158 122.426 92.0636 122.294 92.4418C122.162 92.82 122.026 93.2867 121.885 93.8423C121.744 94.3978 121.629 95.0038 121.539 95.6601C121.449 96.317 121.405 96.6577 121.405 96.6818C121.406 96.7057 121.375 96.9877 121.314 97.5281C121.252 98.0684 121.176 98.5422 121.085 98.9492C120.995 99.3563 120.933 99.5815 120.901 99.6252C119.882 100.118 119.325 100.433 119.232 100.569C118.749 100.807 118.245 101.133 117.719 101.549C117.194 101.964 116.738 102.408 116.352 102.881C115.965 103.353 115.64 103.876 115.376 104.451C115.111 105.024 114.944 105.388 114.874 105.54C114.804 105.692 114.757 105.81 114.734 105.896C114.711 105.981 114.661 106.25 114.585 106.703C114.508 107.157 114.469 107.583 114.468 107.983C114.467 108.383 114.503 108.78 114.576 109.175C114.65 109.571 114.76 110.038 114.907 110.578C115.055 111.118 115.303 111.788 115.652 112.588C116.001 113.388 116.293 113.99 116.527 114.392C116.761 114.794 116.937 115.104 117.054 115.322C117.171 115.541 117.361 115.864 117.624 116.293C117.887 116.722 118.064 117.01 118.154 117.157C118.245 117.303 118.332 117.453 118.414 117.607C118.496 117.76 118.545 117.875 118.561 117.952L118.886 118.712C119.007 119.019 119.061 119.224 119.048 119.326C119.036 119.428 119.01 119.617 118.972 119.894C118.611 120.89 118.388 121.518 118.304 121.778C118.219 122.038 118.144 122.251 118.078 122.417C118.012 122.584 117.931 122.837 117.833 123.176C117.735 123.515 117.674 123.745 117.649 123.867C117.624 123.99 117.582 124.192 117.523 124.474C117.463 124.756 117.409 125.096 117.361 125.495C117.313 125.893 117.297 126.262 117.313 126.602C117.329 126.942 117.364 127.242 117.418 127.501C117.472 127.76 117.534 128.002 117.604 128.226C117.675 128.449 117.772 128.677 117.896 128.911C118.02 129.144 118.266 129.463 118.633 129.868C119 130.274 119.51 130.804 120.162 131.459C120.814 132.113 121.322 132.619 121.687 132.976C122.053 133.331 122.275 133.538 122.353 133.596C122.85 134.011 123.332 134.388 123.801 134.726L125.508 135.583M124.939 113.376L124.828 112.74C124.865 112.56 124.879 112.097 124.872 111.35C124.863 110.602 124.886 110.025 124.94 109.62C124.993 109.214 125.069 108.815 125.169 108.423C125.268 108.03 125.486 107.49 125.821 106.803C126.156 106.115 126.549 105.501 126.999 104.961C127.45 104.421 127.904 103.998 128.362 103.692C128.819 103.386 129.315 103.151 129.851 102.988C130.386 102.825 130.935 102.747 131.498 102.755C132.062 102.762 132.593 102.843 133.093 102.998C133.592 103.153 134.281 103.414 135.16 103.78M142.067 93.1182L142.122 92.7011L142.173 92.4016C142.305 91.8774 142.392 91.4934 142.435 91.2497C142.478 91.006 142.511 90.8117 142.535 90.6666C142.559 90.5212 142.656 90.1739 142.826 89.6249C142.996 89.0756 143.124 88.717 143.212 88.5493C143.299 88.3819 143.442 88.1441 143.641 87.8359C143.839 87.5281 144.001 87.2919 144.127 87.1273C144.252 86.963 144.351 86.834 144.425 86.7404C144.498 86.6467 144.624 86.5184 144.804 86.355C144.983 86.192 145.544 85.6919 146.487 84.8549M148.697 96.05L148.703 96.5136C148.713 96.659 148.763 96.9058 148.854 97.2536C148.945 97.6017 149.017 97.8762 149.07 98.0771C149.123 98.278 149.185 98.458 149.255 98.6173C149.325 98.777 149.401 98.9182 149.484 99.041C149.567 99.1641 149.633 99.25 149.683 99.2987C149.732 99.3474 149.78 99.3997 149.826 99.4558C149.873 99.5119 149.99 99.6042 150.177 99.7328C150.365 99.8615 150.793 100.233 151.459 100.848M166.101 89.6528C166.159 89.3583 166.187 89.1845 166.183 89.1315C166.21 88.6749 166.234 88.3307 166.257 88.0989C166.279 87.867 166.303 87.6671 166.33 87.4994C166.357 87.3314 166.384 87.1997 166.411 87.1046C166.437 87.0094 166.571 86.7526 166.815 86.3344C167.059 85.9162 167.441 85.5107 167.959 85.1176C168.478 84.7242 168.902 84.4702 169.231 84.3558C169.561 84.2417 169.806 84.1754 169.967 84.1565C170.128 84.1379 170.275 84.1284 170.409 84.1281C170.542 84.1278 170.723 84.1447 170.953 84.1792C171.183 84.2136 171.508 84.3222 171.929 84.5048C172.349 84.6877 172.9 84.9848 173.582 85.3962L174.112 85.6541M184.334 82.4559C184.238 82.1428 184.146 81.739 184.059 81.2445C183.973 80.7504 183.92 80.4296 183.902 80.282C183.883 80.1345 183.883 79.8442 183.903 79.4115C183.922 78.9787 183.974 78.3942 184.057 77.6579M162.244 124.09C162.117 124.51 162.021 125.306 161.975 125.518C161.93 125.731 161.885 125.934 161.839 126.129C161.793 126.324 161.742 126.6 161.686 126.958C161.63 127.316 161.597 127.966 161.588 128.909C161.578 129.853 161.587 130.41 161.614 130.582C161.641 130.754 161.661 130.921 161.674 131.085C161.686 131.248 161.726 131.497 161.793 131.83C161.86 132.162 161.928 132.451 161.998 132.696C162.067 132.941 162.129 133.163 162.184 133.36C162.238 133.557 162.387 133.958 162.631 134.563C162.875 135.167 163.061 135.62 163.19 135.922C163.319 136.224 163.531 136.623 163.827 137.119C164.123 137.614 164.37 138.01 164.569 138.305C164.768 138.6 164.928 138.825 165.051 138.98C165.173 139.135 165.373 139.387 165.651 139.736C165.929 140.085 166.291 140.543 166.738 141.11C167.184 141.677 167.456 142.038 167.553 142.195C167.651 142.351 167.783 142.556 167.949 142.812C168.014 142.964 168.083 143.124 168.154 143.292C168.225 143.461 168.184 143.877 168.031 144.541C167.878 145.204 167.686 145.807 167.456 146.348C167.226 146.889 166.894 147.673 166.461 148.699C166.427 148.839 166.343 149.088 166.211 149.446C166.079 149.804 165.84 150.482 165.494 151.481C165.147 152.48 164.801 153.672 164.453 155.057C164.105 156.442 163.895 157.448 163.822 158.076C163.75 158.704 163.714 159.352 163.717 160.021C163.719 160.689 163.78 161.471 163.901 162.365C164.021 163.259 164.107 163.813 164.157 164.028C164.208 164.242 164.249 164.425 164.281 164.579C164.313 164.732 164.359 164.897 164.418 165.072C164.478 165.247 164.519 165.382 164.542 165.476C164.565 165.571 164.628 165.743 164.731 165.995C164.834 166.246 165.136 166.865 165.638 167.852C166.14 168.839 166.65 169.691 167.167 170.407C167.685 171.123 168.125 171.673 168.488 172.057C168.851 172.439 169.346 172.89 169.973 173.409C170.601 173.928 171.473 174.54 172.589 175.243L174.022 176.063M209.225 153.432C208.231 153.432 207.346 153.182 207.241 153.191L206.839 153.13L206.466 153.08C205.673 152.939 204.862 152.763 204.033 152.552C203.203 152.341 202.732 152.218 202.618 152.185C202.504 152.151 202.272 152.081 201.922 151.975M132.924 160.604C132.733 160.987 132.064 162.59 131.971 162.845C131.879 163.1 131.694 163.597 131.418 164.336C131.142 165.075 130.89 165.767 130.663 166.411C130.435 167.054 130.113 167.945 129.698 169.082C129.282 170.219 128.904 171.269 128.564 172.232C128.224 173.195 127.878 174.148 127.528 175.093C127.177 176.037 126.914 176.715 126.737 177.126C126.56 177.536 126.412 177.864 126.292 178.108C126.172 178.353 126.097 178.513 126.067 178.589C126.037 178.666 125.397 179.718 124.146 181.745L123.092 183.321M123.092 183.321C120.134 183.247 117.971 183.207 116.601 183.201C115.231 183.194 113.798 183.214 112.303 183.259C110.807 183.304 109.323 183.413 107.848 183.583C106.374 183.754 105.57 183.851 105.436 183.875C103.861 184.231 102.424 184.666 101.124 185.181C99.8239 185.696 98.7779 186.168 97.986 186.598C97.1941 187.027 96.2898 187.558 95.273 188.19C94.2561 188.823 93.2067 189.536 92.1246 190.331C91.0425 191.126 90.1492 191.861 89.4448 192.535C88.7403 193.21 88.0725 193.904 87.4413 194.618C86.8104 195.332 86.1505 196.125 85.4615 196.996C84.7728 197.868 84.0677 198.809 83.3462 199.821C82.6247 200.833 82.0695 201.643 81.6807 202.251C81.2921 202.86 80.7749 203.75 80.1289 204.92C79.4826 206.091 78.9634 207.13 78.5714 208.039C78.179 208.948 77.7561 209.991 77.303 211.169C76.8502 212.347 76.5498 213.147 76.4016 213.568C76.2535 213.989 76.0741 214.505 75.8636 215.117C75.6531 215.729 75.4014 216.559 75.1086 217.606C74.8162 218.653 74.5539 219.744 74.3215 220.879C74.0895 222.014 73.882 223.313 73.6992 224.774C73.5163 226.235 73.4206 227.057 73.4122 227.238C73.1956 231.427 73.0813 233.887 73.0691 234.617C73.0568 235.348 73.0426 236.028 73.0262 236.657C73.0098 237.286 73.0159 238.125 73.0445 239.175C73.0734 240.224 73.0967 240.85 73.1144 241.052C73.132 241.253 73.1531 241.787 73.1776 242.654C73.2023 243.521 73.2236 244.111 73.2416 244.424C73.2596 244.737 73.2748 245.317 73.287 246.165C73.2992 247.013 73.285 247.812 73.2445 248.564C73.204 249.316 73.2416 249.538 73.2788 250.131V251.202L184.908 251.479C184.968 250.086 185 249.416 185.032 248.839C185.063 248.262 185.086 247.899 185.1 247.751C185.115 247.603 185.155 246.702 185.221 245.047C185.287 243.392 185.347 242.186 185.402 241.427C185.457 240.669 185.505 239.738 185.545 238.636C185.586 237.535 185.595 236.554 185.573 235.693C185.552 234.831 185.505 234.01 185.435 233.227C185.364 232.445 185.313 231.808 185.28 231.314C185.247 230.821 185.175 229.93 185.062 228.641C184.949 227.353 184.829 226.273 184.702 225.403C184.575 224.533 184.444 223.717 184.309 222.953C184.173 222.189 184.011 221.334 183.824 220.386C183.637 219.439 183.469 218.629 183.32 217.957C183.172 217.285 183.014 216.652 182.848 216.057C182.683 215.463 182.488 214.848 182.265 214.213C182.042 213.579 181.838 213.068 181.655 212.681C181.471 212.295 181.175 211.751 180.766 211.049C180.358 210.348 179.717 209.416 178.842 208.255C177.969 207.094 177.12 206.096 176.296 205.26C175.473 204.424 174.62 203.642 173.738 202.913C172.857 202.184 172.298 201.719 172.062 201.517C171.827 201.315 171.651 201.174 171.535 201.094C171.418 201.013 171.245 200.881 171.015 200.697C170.784 200.514 170.503 200.3 170.172 200.058C169.841 199.816 169.534 199.588 169.252 199.373C168.97 199.159 168.615 198.895 168.186 198.581C167.757 198.267 167.3 197.944 166.814 197.612C166.329 197.279 165.787 196.895 165.19 196.46C164.593 196.024 163.58 195.332 162.149 194.384C160.718 193.436 159.527 192.71 158.576 192.208C157.625 191.705 156.659 191.227 155.678 190.772C154.698 190.318 154.145 190.063 154.02 190.007C153.896 189.952 153.623 189.844 153.202 189.684C152.781 189.524 152.228 189.329 151.543 189.098C150.858 188.868 150.267 188.682 149.771 188.54C149.274 188.399 148.698 188.228 148.042 188.029C147.387 187.829 146.839 187.647 146.398 187.481C145.958 187.315 145.546 187.036 144.935 186.826M123.092 183.321C126.05 183.395 127.888 183.453 128.607 183.496C129.325 183.538 131.031 183.756 133.724 184.149C136.417 184.543 138.538 184.935 140.088 185.326C141.638 185.717 142.756 186.032 143.444 186.271C144.131 186.511 144.628 186.696 144.935 186.826M77.1469 250.916C77.1206 250.796 77.0776 250.492 77.0178 250.004C76.9577 249.516 76.9253 249.199 76.9208 249.054C76.9167 248.908 76.8905 248.397 76.8423 247.522C76.7944 246.646 76.7684 246.153 76.7642 246.044C76.76 245.936 76.7487 245.844 76.7304 245.77C76.7124 245.696 76.7064 244.952 76.7122 243.539C76.7176 242.127 76.7528 241.015 76.8177 240.206C76.8827 239.396 76.9941 238.449 77.1522 237.363C77.3103 236.278 77.4946 235.279 77.7051 234.367C77.9153 233.455 78.047 232.895 78.1 232.688C78.1527 232.48 78.1918 232.344 78.2176 232.278C78.2433 232.213 78.4019 231.722 78.6934 230.807C78.9852 229.891 79.4019 228.823 79.9434 227.601C80.4849 226.379 81.187 225.069 82.0496 223.672C82.9122 222.276 84.1562 220.616 85.7817 218.693C87.4069 216.77 88.3716 215.676 88.676 215.411C88.9803 215.145 89.4002 214.824 89.9356 214.446C90.471 214.068 90.8012 213.834 90.9262 213.743C91.0513 213.651 91.4324 213.427 92.0697 213.069C92.7073 212.711 93.4624 212.372 94.3349 212.051C95.2075 211.73 96.1084 211.496 97.0378 211.348C97.9669 211.2 98.6125 211.113 98.9743 211.088C99.3359 211.063 99.9528 211.094 100.825 211.182C101.697 211.271 102.504 211.395 103.247 211.557C103.99 211.718 104.773 211.946 105.597 212.238C106.421 212.531 107.238 212.91 108.05 213.374C108.862 213.839 109.549 214.296 110.111 214.747C110.672 215.198 111.188 215.679 111.66 216.19C112.131 216.702 112.581 217.282 113.008 217.933C113.436 218.583 113.889 219.451 114.368 220.537C114.846 221.624 115.179 222.471 115.366 223.081C115.554 223.689 115.764 224.559 115.998 225.691C116.232 226.822 116.453 228.069 116.662 229.433C116.87 230.797 117.032 232.065 117.148 233.236C117.264 234.408 117.338 235.263 117.371 235.803C117.403 236.343 117.428 236.706 117.446 236.894C117.464 237.082 117.456 238.055 117.423 239.811C117.391 241.568 117.054 244.897 116.412 249.798C116.381 250.027 116.29 250.441 116.139 251.041M144.935 186.826C145.241 186.957 145.677 187.177 146.241 187.487C146.805 187.797 147.325 188.102 147.799 188.4C148.273 188.699 148.717 188.984 149.131 189.257C149.545 189.529 149.769 189.683 149.803 189.716C149.837 189.75 150.283 190.068 151.143 190.672C152.002 191.276 152.708 191.8 153.262 192.244C153.817 192.688 154.242 193.048 154.537 193.327C154.832 193.605 155.014 193.773 155.081 193.829C155.148 193.886 155.476 194.217 156.063 194.823C156.65 195.43 157.168 196.007 157.617 196.555C158.066 197.104 158.452 197.598 158.775 198.037C159.098 198.476 159.359 198.832 159.558 199.106C159.757 199.38 159.947 199.654 160.13 199.927C160.313 200.2 160.556 200.591 160.858 201.101C161.16 201.611 161.371 201.963 161.489 202.158C161.608 202.354 161.833 202.747 162.165 203.338C162.497 203.928 162.841 204.546 163.197 205.192C163.553 205.838 163.958 206.585 164.412 207.434C164.866 208.284 165.299 209.115 165.71 209.93C166.12 210.744 166.372 211.256 166.466 211.466C166.559 211.675 166.741 212.067 167.012 212.641C167.283 213.215 167.573 213.87 167.883 214.606C168.193 215.342 168.495 216.068 168.791 216.783C169.087 217.498 169.327 218.126 169.511 218.668C169.695 219.21 169.936 219.958 170.233 220.91C170.529 221.862 170.771 222.737 170.958 223.535C171.145 224.333 171.41 225.782 171.753 227.882C172.097 229.983 172.34 231.556 172.481 232.602C172.623 233.648 172.727 234.5 172.793 235.158C172.859 235.816 172.929 236.576 173.005 237.437C173.081 238.298 173.157 239.156 173.235 240.01C173.312 240.865 173.393 241.79 173.476 242.787C173.56 243.784 173.633 244.614 173.694 245.278C173.755 245.943 173.801 249.421 173.834 251.45M144.935 186.826C144.578 186.723 144.223 186.572 143.971 186.458M127.978 206.402C128.387 206.565 128.698 206.683 128.912 206.756C129.125 206.829 129.734 207.106 130.74 207.587C131.745 208.068 132.498 208.503 132.999 208.892C133.5 209.281 133.887 209.601 134.161 209.849C134.434 210.098 134.849 210.575 135.405 211.279C135.961 211.982 136.438 212.689 136.836 213.399C137.234 214.109 137.677 215.452 138.167 217.429C138.656 219.405 138.954 220.916 139.06 221.963C139.166 223.01 139.226 224.223 139.238 225.604C139.251 226.985 139.253 228.015 139.244 228.695C139.235 229.375 139.217 230.497 139.19 232.059C139.162 233.621 139.116 235.013 139.049 236.233C138.983 237.454 138.93 238.411 138.891 239.104C138.851 239.797 138.818 240.285 138.791 240.568C138.765 240.851 138.72 241.576 138.657 242.743C138.594 243.91 138.557 244.846 138.546 245.552C138.534 246.258 138.478 247.117 138.376 248.129L137.81 251.354M89.0258 203.204C89.3028 203.017 89.6007 202.836 89.9195 202.661C90.2383 202.486 90.4817 202.362 90.6498 202.291C90.8182 202.22 91.1459 202.074 91.6328 201.853C92.1193 201.633 93.4896 201.058 95.7434 200.129C97.9972 199.199 100.079 198.433 101.989 197.829C103.9 197.226 105.333 196.818 106.29 196.604C107.247 196.391 108.256 196.234 109.318 196.133C110.379 196.032 111.758 196.034 113.455 196.14C115.151 196.245 116.788 196.398 118.365 196.598C119.942 196.798 121.618 197.105 123.392 197.52C125.166 197.935 126.522 198.282 127.46 198.559C128.398 198.836 129.397 199.151 130.457 199.504C131.518 199.858 132.324 200.155 132.875 200.395C133.427 200.637 134.045 200.953 134.729 201.343C135.414 201.734 136.154 202.238 136.951 202.855C137.748 203.472 138.561 204.24 139.392 205.16C140.223 206.079 140.896 206.886 141.413 207.581C141.929 208.275 142.307 208.812 142.545 209.193C142.783 209.572 143.186 210.288 143.754 211.34C144.322 212.391 144.774 213.28 145.109 214.005C145.443 214.731 145.731 215.37 145.97 215.924C146.209 216.478 146.551 217.394 146.995 218.671C147.439 219.948 147.781 220.972 148.019 221.742C148.258 222.513 148.527 223.43 148.825 224.494C149.123 225.558 149.385 226.635 149.609 227.726C149.834 228.817 149.99 229.672 150.078 230.293C150.165 230.914 150.266 231.537 150.38 232.163C150.495 232.789 150.596 233.529 150.686 234.382C150.776 235.236 150.868 236.069 150.963 236.882C151.057 237.695 151.199 239.325 151.387 241.77L151.475 243.168M111.403 190.942C111.487 190.927 112.154 190.843 113.404 190.691C114.654 190.539 115.93 190.45 117.231 190.424C118.532 190.398 119.65 190.417 120.586 190.483C121.521 190.548 122.282 190.626 122.87 190.716C123.457 190.806 123.773 190.859 123.818 190.873C123.864 190.888 124.826 191.094 126.705 191.493C128.585 191.892 130.077 192.254 131.182 192.58C132.286 192.906 133.592 193.382 135.099 194.008C136.605 194.634 137.899 195.209 138.982 195.734C140.064 196.259 141.112 196.823 142.125 197.425C143.137 198.027 144 198.582 144.712 199.089C145.424 199.598 146.312 200.428 147.374 201.58C148.437 202.732 149.28 203.734 149.902 204.586C150.524 205.438 151.124 206.276 151.701 207.102C152.278 207.927 152.862 208.851 153.453 209.875C154.044 210.898 154.596 211.993 155.11 213.159C155.624 214.325 155.99 215.235 156.208 215.889C156.426 216.543 156.678 217.462 156.963 218.643C157.248 219.825 157.449 220.735 157.566 221.372C157.683 222.01 157.822 222.883 157.985 223.992C158.147 225.102 158.296 226.324 158.432 227.658C158.568 228.993 158.779 231.021 159.068 233.743C159.356 236.465 159.553 238.324 159.657 239.32C159.762 240.315 159.977 242.416 160.299 245.621M203.947 122.705C203.947 122.705 203.407 122.507 203.051 122.414C202.278 122.213 201.19 122.191 201.018 122.157C200.847 122.122 200.705 122.101 200.592 122.091C200.479 122.082 200.179 122.056 199.692 122.013C199.204 121.97 198.561 121.95 197.761 121.954C196.961 121.958 196.138 122.016 195.292 122.127C194.446 122.239 193.804 122.338 193.367 122.424C192.93 122.51 192.49 122.614 192.049 122.735C191.608 122.856 191.327 122.933 191.204 122.965C191.082 122.997 190.934 123.052 190.759 123.13C190.584 123.207 190.235 123.331 189.713 123.501C189.567 123.565 188.97 123.833 187.924 124.304M198.131 121.954L198.028 123.336C198.028 123.336 197.968 123.547 197.923 123.68C197.792 124.062 197.557 124.523 197.496 124.624C197.436 124.724 197.359 124.864 197.266 125.044C197.172 125.223 197.069 125.48 196.839 125.671C196.757 125.739 196.711 125.784 196.611 125.825C196.462 125.886 196.358 125.882 196.198 125.86C195.82 125.805 195.466 125.232 195.466 125.232C195.466 125.232 195.309 125.031 195.239 124.886C195.164 124.73 195.155 124.624 195.106 124.464C195.057 124.304 195.019 124.093 194.992 123.83L194.722 122.205M210.025 246.652C209.806 246.206 209.555 245.285 209.272 243.888C208.989 242.492 208.826 241.025 208.784 239.489C208.743 237.953 208.77 236.622 208.865 235.495C208.961 234.369 209.135 232.852 209.385 230.943C209.634 229.034 210.145 226.416 210.918 223.087C210.934 222.943 211.153 222.226 211.574 220.936C211.995 219.647 212.788 217.906 213.953 215.715C215.118 213.523 216.022 211.907 216.665 210.869C217.308 209.83 217.853 208.94 218.3 208.2C218.747 207.46 219.245 206.627 219.796 205.703C220.346 204.779 220.848 203.967 221.3 203.268C221.752 202.568 222.507 201.465 223.564 199.957C224.621 198.448 225.569 197.124 226.408 195.984C227.246 194.843 228.147 193.669 229.111 192.461C230.074 191.253 231.102 189.913 232.193 188.44C233.285 186.967 234.215 185.72 234.982 184.699C235.748 183.679 236.645 182.535 237.673 181.268C238.7 180 239.471 179.05 239.985 178.418C240.5 177.786 241.13 176.978 241.874 175.995C242.619 175.011 243.351 173.968 244.072 172.865C244.792 171.762 245.313 170.934 245.634 170.381C245.955 169.828 246.223 169.35 246.438 168.95C246.653 168.549 247.378 167.026 248.614 164.381C249.85 161.735 250.816 159.506 251.513 157.693C252.209 155.881 252.819 154.02 253.341 152.11C253.863 150.2 254.242 148.708 254.478 147.634C254.714 146.56 254.916 145.655 255.085 144.92C255.254 144.185 255.859 141.64 256.902 137.285L257.406 135.454M257.406 135.454C257.218 135.081 257.081 134.784 256.996 134.564C256.91 134.344 256.745 133.969 256.502 133.438C256.258 132.907 255.993 132.333 255.706 131.717C255.42 131.1 255.198 130.622 255.041 130.284C254.884 129.946 254.632 129.345 254.286 128.482C253.94 127.62 253.598 126.467 253.262 125.025C252.926 123.582 252.748 122.345 252.728 121.314C252.709 120.283 252.842 119.101 253.127 117.769C253.412 116.437 253.724 115.386 254.061 114.615C254.399 113.844 254.914 112.936 255.607 111.891C256.3 110.845 257.773 108.941 260.027 106.179C260.923 107.683 261.653 109.362 261.748 109.586C262.296 111.159 262.775 112.81 263.185 114.537C263.595 116.265 263.858 117.9 263.972 119.442C264.087 120.984 264.104 122.129 264.024 122.875C263.944 123.622 263.716 124.636 263.338 125.919C262.96 127.201 262.548 128.273 262.102 129.135C261.655 129.996 261.427 130.438 261.418 130.463C261.409 130.487 261.244 130.767 260.923 131.304C260.603 131.84 260.206 132.502 259.732 133.29C259.1 134.343 258.819 134.474 257.406 135.454ZM212.255 218.207C212.519 217.469 212.652 216.89 213.061 215.825C213.471 214.759 213.752 213.998 213.905 213.54C214.059 213.084 214.188 212.697 214.293 212.38C214.398 212.064 214.539 211.541 214.715 210.813C214.892 210.084 215.066 209.037 215.238 207.674C215.411 206.31 215.473 204.903 215.427 203.453C215.38 202.002 215.242 200.614 215.014 199.288C214.786 197.962 214.596 196.981 214.446 196.344C214.296 195.706 214.11 194.961 213.888 194.107C213.666 193.253 213.274 192.025 212.71 190.423C212.147 188.821 211.587 187.327 211.031 185.943L210.948 185.743L210.026 184.012C209.322 185.193 208.831 186.084 208.552 186.686C208.273 187.288 207.915 188.113 207.477 189.162C207.04 190.21 206.665 191.142 206.354 191.955C206.042 192.769 205.727 193.722 205.409 194.813C205.091 195.905 204.851 196.861 204.69 197.68C204.529 198.5 204.424 199.065 204.374 199.377C204.325 199.688 204.277 200.139 204.23 200.729C204.182 201.32 204.154 201.851 204.145 202.323C204.136 202.795 204.152 203.557 204.192 204.609C204.232 205.661 204.366 206.797 204.595 208.017C204.824 209.238 204.953 209.879 204.983 209.94C205.013 210.002 205.12 210.265 205.303 210.73C205.487 211.195 205.751 211.746 206.096 212.383C206.442 213.02 206.761 213.549 207.053 213.971C207.346 214.393 207.666 214.816 208.015 215.241C208.364 215.666 208.691 216.027 208.994 216.324C209.298 216.622 209.502 216.812 209.605 216.893C209.708 216.974 209.865 217.09 210.075 217.241C210.286 217.392 210.492 217.544 210.695 217.697C210.898 217.85 211.112 217.98 211.336 218.087C211.56 218.194 212.351 218.437 212.542 218.537M220.739 204.153C220.978 203.883 221.023 203.729 221.246 203.485C221.47 203.241 221.754 202.93 222.099 202.553C222.444 202.176 222.901 201.744 223.471 201.258C224.04 200.773 224.793 200.172 225.729 199.456C226.666 198.741 227.544 198.126 228.362 197.611C229.18 197.097 230.107 196.602 231.142 196.129C232.178 195.656 233.143 195.287 234.037 195.022C234.932 194.758 235.931 194.544 237.033 194.38C238.135 194.217 239.028 194.106 239.712 194.048C240.396 193.989 242.261 193.914 245.308 193.823M218.116 208.503C218.894 208.82 220.068 209.256 220.576 209.444C221.084 209.633 221.687 209.811 222.386 209.978C223.086 210.145 223.569 210.248 223.837 210.288C224.105 210.328 224.55 210.358 225.173 210.379C225.796 210.4 226.631 210.309 227.676 210.107C228.721 209.904 229.75 209.572 230.762 209.111C231.774 208.65 232.75 208.102 233.691 207.467C234.632 206.833 235.45 206.227 236.145 205.649C236.841 205.07 237.54 204.456 238.244 203.804C238.949 203.153 239.555 202.556 240.065 202.014C240.574 201.471 241.196 200.664 241.933 199.591C242.67 198.519 243.605 197.083 244.738 195.282L245.109 194.609M225.108 197.776C224.915 197.613 224.859 197.564 224.718 197.436C224.577 197.307 224.488 197.219 224.453 197.17C224.418 197.121 224.231 196.878 223.893 196.44C223.555 196.002 223.241 195.573 222.948 195.154C222.657 194.735 222.39 194.329 222.148 193.935C221.906 193.541 221.546 192.749 221.07 191.561C220.593 190.372 220.247 189.241 220.033 188.167C219.818 187.093 219.688 186.168 219.642 185.391C219.596 184.614 219.689 183.406 219.92 181.768C220.151 180.131 220.508 178.572 220.99 177.091C221.472 175.61 221.867 174.488 222.174 173.725C222.482 172.963 222.926 172.05 223.507 170.986C224.088 169.922 224.763 168.785 225.53 167.575C226.298 166.365 227.578 164.742 227.776 164.418C228.151 165.779 228.617 167.277 228.648 167.367C229.056 168.786 229.42 170.153 229.738 171.469C230.057 172.785 230.318 174.052 230.523 175.271C230.727 176.49 230.86 177.527 230.923 178.383C230.986 179.238 230.999 180.036 230.964 180.774C230.928 181.513 230.821 182.411 230.641 183.468C230.46 184.525 230.231 185.54 229.954 186.514C229.676 187.489 229.314 188.618 228.869 189.9C228.358 191.369 227.946 193.25 227.201 194.64C227.016 194.987 226.626 195.472 226.626 195.472L226.022 196.51M239.871 178.559C240.002 178.256 241.126 176.974 241.126 176.974C241.126 176.974 242.515 175.631 243.337 174.712C244.134 173.821 244.731 172.925 245.275 172.351C245.819 171.777 246.415 171.187 247.063 170.583C247.711 169.978 248.528 169.301 249.512 168.551C250.496 167.801 251.972 166.862 253.938 165.734C255.904 164.605 257.65 163.711 259.177 163.05C260.704 162.388 263.194 161.515 267.442 160.18L267.164 161.001C266.771 161.748 266.292 162.61 265.727 163.588C265.161 164.567 264.682 165.327 264.29 165.87C263.898 166.413 263.351 167.126 262.649 168.012C261.946 168.897 261.251 169.722 260.564 170.489C259.877 171.256 259.126 172.048 258.309 172.865C257.492 173.683 256.344 174.641 254.867 175.74C253.389 176.839 252.06 177.633 250.88 178.122C249.7 178.61 248.804 178.92 248.193 179.052C247.583 179.185 246.89 179.288 246.115 179.364C245.34 179.44 242.734 179.488 238.97 179.668M245.286 171.051C245.509 170.321 245.663 169.817 245.745 169.538C245.828 169.259 245.927 168.935 246.043 168.567C246.159 168.198 246.276 167.788 246.394 167.337C246.512 166.885 246.617 166.494 246.71 166.162C246.803 165.829 246.881 165.322 246.946 164.64C247.01 163.957 247.075 163.04 247.139 161.888C247.204 160.736 247.238 159.685 247.241 158.736C247.245 157.786 247.204 156.747 247.117 155.62C247.029 154.494 246.951 153.64 246.88 153.058C246.81 152.477 246.695 151.606 246.536 150.443C246.376 149.28 246.156 147.925 245.874 146.376C245.593 144.827 244.753 141.34 243.355 135.915L242.723 133.438C242.213 134.327 241.455 135.768 241.201 136.305C240.947 136.842 240.618 137.588 240.213 138.542C239.809 139.497 239.308 140.99 238.712 143.022C238.115 145.053 237.695 147.004 237.449 148.875C237.204 150.746 237.07 152.16 237.047 153.118C237.024 154.076 237.046 155.292 237.114 156.767C237.182 158.241 237.283 159.34 237.416 160.064C237.548 160.787 237.7 161.39 237.872 161.873C238.044 162.356 238.341 162.979 238.762 163.741C239.183 164.503 239.6 165.095 240.012 165.518C240.423 165.94 240.846 166.322 241.279 166.664C241.712 167.006 242.084 167.267 242.394 167.446C242.704 167.625 243.077 167.813 243.512 168.01C243.947 168.208 244.489 168.42 245.139 168.646C245.788 168.872 246.143 168.963 246.394 169.03M255.452 151.625L255.735 150.218C255.754 150.139 255.981 149.537 256.417 148.414C256.853 147.291 257.342 146.232 257.883 145.237C258.424 144.242 259.059 143.184 259.789 142.064C260.518 140.943 261.316 139.83 262.18 138.724C263.045 137.618 263.914 136.643 264.79 135.8C265.665 134.957 266.75 134.079 268.044 133.166C269.338 132.253 270.315 131.6 270.976 131.208C271.637 130.816 272.168 130.525 272.569 130.336C272.97 130.147 274.106 129.664 275.976 128.888L275.402 131.46C274.619 133.61 273.993 135.121 273.525 135.995C273.056 136.868 272.316 137.988 271.306 139.354C270.295 140.721 269.346 141.818 268.459 142.642C267.573 143.467 266.604 144.268 265.552 145.046C264.499 145.823 263.41 146.598 262.283 147.372C261.157 148.145 260.186 148.798 259.37 149.329C258.555 149.86 257.729 150.366 256.891 150.846C256.053 151.326 255.365 151.684 254.828 151.921C254.567 152.017 253.394 152.404 253.234 152.496M127.318 139.187C127.528 138.898 128.333 137.93 128.51 137.708C128.686 137.487 129.121 136.943 129.814 136.075C130.796 134.922 131.483 134.134 131.874 133.713C132.265 133.291 132.581 132.956 132.824 132.708C133.066 132.461 133.264 132.268 133.418 132.129C133.571 131.99 133.781 131.802 134.046 131.565C134.313 131.327 134.567 131.095 134.81 130.868C135.053 130.641 135.721 130.128 136.813 129.328C137.906 128.529 138.731 127.958 139.289 127.616C139.847 127.273 140.355 126.963 140.813 126.684C141.271 126.405 142.035 125.951 143.104 125.324C144.173 124.697 145.035 124.188 145.689 123.798C146.344 123.408 147.491 122.737 149.131 121.783C150.772 120.83 152.026 120.096 152.895 119.582C153.764 119.069 154.507 118.622 155.125 118.243C156.274 117.545 157.086 117.066 157.561 116.805C158.035 116.544 158.535 116.277 159.059 116.004C159.584 115.732 159.913 115.553 160.048 115.469C160.183 115.385 161.086 114.972 162.755 114.23C164.425 113.488 165.743 112.923 166.707 112.534C167.672 112.145 168.52 111.783 169.251 111.448C169.983 111.113 170.848 110.743 171.848 110.337C172.847 109.931 173.705 109.594 174.421 109.327C175.137 109.059 175.727 108.833 176.191 108.65C176.655 108.465 177.195 108.246 177.811 107.992C178.426 107.738 179.082 107.463 179.779 107.168C180.475 106.872 180.972 106.664 181.268 106.543C181.565 106.423 181.871 106.301 182.186 106.177C182.5 106.052 182.679 105.985 182.723 105.973C182.767 105.962 183.354 105.736 184.483 105.297C185.613 104.857 186.531 104.519 187.236 104.283C187.942 104.047 188.776 103.795 189.738 103.528C190.7 103.262 191.593 103.015 192.414 102.789C193.236 102.562 194.026 102.345 194.784 102.138C195.542 101.932 196.071 101.795 196.371 101.726C196.671 101.658 197.258 101.524 198.134 101.324C199.008 101.124 199.495 101.01 199.594 100.982C199.693 100.955 200.038 100.883 200.629 100.767C201.221 100.651 201.737 100.549 202.179 100.461C202.62 100.372 203.092 100.273 203.596 100.164C204.099 100.054 204.361 99.9955 204.382 99.9878C204.402 99.98 204.6 99.9383 204.976 99.8627C205.351 99.787 205.765 99.6972 206.22 99.5934C206.675 99.4899 208.986 98.9837 211.861 98.5647M100.481 172.543L100.309 172.211C100.191 172.028 99.9803 171.571 99.6766 170.84C99.3732 170.11 99.0681 169.397 98.7612 168.703C98.4546 168.009 97.9989 167.034 97.3944 165.779C96.7896 164.524 96.1597 163.322 95.5048 162.173C94.8498 161.023 94.3169 160.112 93.9058 159.438C93.4948 158.765 93.1957 158.275 93.0087 157.969C92.8219 157.664 92.6124 157.313 92.3801 156.917C92.1477 156.522 91.9123 156.137 91.6738 155.762C91.4357 155.388 91.1291 154.895 90.754 154.283C90.379 153.671 89.2579 152.01 87.3907 149.3L87.2807 149.197C86.9655 148.753 86.7071 148.401 86.5056 148.139C86.3038 147.878 85.455 146.864 83.9594 145.098M83.9594 145.098C82.4634 143.331 81.1683 141.801 80.0744 140.506C78.9807 139.212 77.9159 137.832 76.8798 136.367C75.844 134.902 74.7974 133.226 73.7401 131.338C72.6828 129.45 71.9031 127.962 71.4011 126.875C70.8991 125.788 70.1885 123.764 69.2694 120.802C68.3502 117.84 67.773 115.859 67.5374 114.858C67.3022 113.857 67.1109 112.909 66.9637 112.012C66.8162 111.116 66.6914 110.145 66.5892 109.101C66.487 108.056 66.4305 106.691 66.4199 105.005C66.409 103.319 66.4358 101.962 66.5004 100.935C66.565 99.9077 66.7363 98.6507 67.0143 97.1645C67.2923 95.6784 67.6085 94.146 67.963 92.5671C68.3171 90.9879 68.9515 88.7745 69.8662 85.927C70.7805 83.0796 71.4762 81.0347 71.9531 79.7922C72.4303 78.55 72.8257 77.5254 73.1394 76.7185C73.4531 75.9115 73.9948 74.6821 74.7645 73.0304M83.9594 145.098C84.2322 145.426 84.8226 146.142 84.9232 146.238M83.9594 145.098C83.6865 144.769 83.5834 144.7 83.3828 144.417C82.976 143.842 82.8589 143.45 82.6237 142.791C82.2193 141.66 81.983 140.919 81.7614 139.742C81.4608 138.144 81.3988 136.824 81.2732 135.686C81.1475 134.548 81.0886 133.49 81.0963 132.512C81.1037 131.534 81.1647 130.392 81.2794 129.086C81.3941 127.78 81.5639 126.531 81.7885 125.341C82.0129 124.151 82.2514 123.073 82.5043 122.107C82.7573 121.14 83.2726 119.688 84.0503 117.75C84.8284 115.813 85.7755 113.642 86.8916 111.238C86.9698 111.07 86.9352 111.183 87.2226 110.629C87.6912 111.198 88.4123 112.269 88.7838 112.922C89.1557 113.576 89.6371 114.527 90.2285 115.777C90.8201 117.026 91.2183 117.991 91.423 118.671C91.6278 119.352 91.7959 120.165 91.9274 121.113C92.0591 122.061 92.1845 123.262 92.3034 124.718C92.4226 126.173 92.4921 127.443 92.512 128.528C92.532 129.613 92.4867 130.684 92.3761 131.741C92.2659 132.798 92.0141 134.212 91.6208 135.982C91.2274 137.752 90.9541 138.859 90.8012 139.302C90.6479 139.746 90.4106 140.309 90.0893 140.991C89.7679 141.673 89.3628 142.449 88.874 143.319C88.3855 144.19 87.8328 145.076 87.2161 145.978C86.5997 146.88 86.2722 147.389 86.1324 147.681M74.7645 73.0304C74.4454 72.6785 73.4167 71.3187 73.1991 71.0657C72.9815 70.8124 72.7355 70.4637 72.4611 70.0194C72.1863 69.5752 71.9958 69.2232 71.8898 68.9634C71.7837 68.7036 71.6975 68.4409 71.631 68.1753C71.5644 67.9099 71.5057 67.4669 71.4546 66.8463C71.4031 66.226 71.4855 65.2928 71.7018 64.0469C71.9178 62.801 72.2538 61.3598 72.7099 59.7233C73.1659 58.0867 73.6021 56.581 74.0186 55.2064C74.4351 53.8321 74.8185 52.5453 75.1688 51.3455C75.5191 50.1458 75.7676 49.294 75.9141 48.7902C76.0607 48.2865 76.287 47.6182 76.5933 46.7855C76.8993 45.9525 77.3319 45.006 77.8915 43.9457C78.4506 42.8852 79.0422 41.9587 79.666 41.1663L80.4494 40.3818C80.4494 40.3818 80.9703 41.1163 81.2104 42.3006C81.4505 43.4848 81.7217 44.6666 82.0241 45.8458C82.3268 47.0254 82.571 48.1575 82.7564 49.2419C82.9421 50.326 83.076 51.6577 83.158 53.2372C83.2399 54.817 83.1714 56.3348 82.9526 57.7906C82.734 59.2464 82.3297 60.8074 81.7393 62.4737C81.1489 64.14 80.7698 65.131 80.6021 65.4466C80.4346 65.7618 80.2673 66.0802 80.1002 66.4013C79.9331 66.7222 79.6825 67.1623 79.3483 67.7219C79.0144 68.2818 78.5294 69.0037 77.8934 69.8876C77.2574 70.7711 76.6678 71.5224 76.1247 72.1418C75.5813 72.7615 75.4379 72.6436 74.7645 73.0304ZM71.7192 127.542C71.3585 126.712 70.9911 126.046 70.371 125.179C69.5367 124.013 69.2441 123.712 67.9647 122.274C66.6854 120.835 65.8771 120.102 65.217 119.445C64.5569 118.788 63.9024 118.163 63.2535 117.572C62.6047 116.98 61.8543 116.314 61.0023 115.574C60.1507 114.833 59.3145 114.13 58.4937 113.464C57.6733 112.797 56.6801 112.026 55.5145 111.15C54.3485 110.275 53.14 109.438 51.8889 108.641C50.6375 107.843 49.5125 107.201 48.514 106.716C47.5151 106.23 47.0368 105.796 46.9082 105.555C47.3511 108.369 47.7196 110.286 48.0137 111.307C48.3077 112.328 48.6716 113.46 49.1055 114.704C49.539 115.948 49.9043 116.843 50.2012 117.392C50.4985 117.94 50.8788 118.567 51.3422 119.273C51.8053 119.979 52.444 120.849 53.258 121.885C54.0721 122.921 54.8516 123.824 55.5965 124.595C56.3415 125.366 56.935 125.949 57.3772 126.344C57.8197 126.738 58.3999 127.158 59.1175 127.603C59.8351 128.047 60.5619 128.424 61.2979 128.732C62.0338 129.041 62.9391 129.359 64.0138 129.688C65.0888 130.017 66.0612 130.261 66.9308 130.421C67.8005 130.58 68.6788 130.716 69.5658 130.827C70.4525 130.939 71.0609 130.997 71.3913 131C71.722 131.002 73.2141 130.811 73.4557 130.827M66.4182 104.671C66.417 103.92 66.7331 103.242 67.1025 102.073C67.3544 101.276 67.5464 100.499 67.9647 99.5382C68.4731 98.3708 68.8969 97.8427 69.5634 96.6861C70.23 95.5291 70.8204 94.5788 71.3346 93.8351C71.8488 93.0914 72.3967 92.3482 72.9784 91.6054C73.56 90.8626 74.0848 90.2156 74.5524 89.6648C75.0196 89.1142 75.5182 88.5563 76.0481 87.9911C76.5781 87.4263 77.1397 86.8551 77.733 86.2773C78.3262 85.6991 79.0817 85.0978 79.9996 84.4738C80.9171 83.8494 81.6685 83.3926 82.2537 83.103C82.8393 82.8132 83.3455 82.6003 83.7723 82.4645C84.1991 82.3285 84.5788 82.2166 84.9114 82.1292C85.2437 82.0421 85.8335 81.8087 86.2622 81.7126C86.276 81.9535 86.2197 82.3007 86.0934 82.7539C85.9671 83.2072 85.7883 83.7335 85.5569 84.3331C85.3255 84.9327 85.0702 85.5595 84.7909 86.2136C84.5117 86.8674 84.1652 87.6529 83.7516 88.5702C83.338 89.4875 82.8177 90.6133 82.1907 91.9472C81.5633 93.2812 80.9423 94.492 80.3275 95.5795C79.7127 96.6667 78.9417 97.855 78.0145 99.1443C77.0873 100.433 76.1927 101.409 75.3304 102.073C74.4679 102.737 73.6652 103.253 72.9225 103.619C72.1798 103.985 71.1544 104.404 69.8464 104.876C68.5387 105.348 67.7843 105.596 67.5832 105.618C67.382 105.641 66.4953 105.897 66.4307 105.915M66.9967 91.3992C66.815 91.2203 66.8136 90.7983 66.7873 90.7481C66.7609 90.6982 66.7143 90.5241 66.6475 90.2258C66.5806 89.9279 66.4844 89.5408 66.3588 89.0647C66.2331 88.5888 66.1129 88.1788 65.9982 87.8347C65.8831 87.4909 65.8164 87.3031 65.7981 87.2711C65.7795 87.2395 65.6233 86.86 65.3296 86.1324C65.0355 85.4052 64.7065 84.6467 64.3427 83.8571C63.9789 83.0675 63.5276 82.1398 62.9887 81.0743C62.4497 80.0091 61.9067 79.0294 61.3597 78.135C60.8131 77.241 60.1316 76.2743 59.3153 75.2348C58.499 74.1951 57.689 73.2919 56.8852 72.5256C56.0811 71.7592 55.3504 71.1596 54.6929 70.7268C54.0353 70.294 53.3549 69.948 52.6517 69.6885C51.9486 69.429 51.5825 69.3034 51.0689 69.2371C51.0869 69.951 51.1509 70.3237 51.2313 71.2456C51.3119 72.1673 51.4449 73.2755 51.63 74.5704C51.8151 75.8653 52.0204 76.905 52.246 77.6893C52.4719 78.4736 52.7981 79.3479 53.2246 80.312C53.6511 81.2758 54.0649 82.0905 54.466 82.7561C54.8668 83.422 55.2911 84.0985 55.7391 84.7855C56.1871 85.4725 56.5626 86.0243 56.8656 86.4412C57.1687 86.8582 57.5087 87.2636 57.8853 87.6573C58.2616 88.051 58.6945 88.4248 59.1839 88.7785C59.6734 89.132 60.1034 89.387 60.4739 89.5435C60.8448 89.7004 61.4363 89.8596 62.2484 90.0215C63.0605 90.1833 63.8152 90.3475 64.5126 90.5139C65.2103 90.6807 65.8214 90.8674 66.3459 91.0739L66.9967 91.3992ZM66.9967 91.3992C67.2082 91.5074 67.4511 91.6533 67.7256 91.8368" stroke="#333333" stroke-linecap="round" stroke-linejoin="round"/>
<defs>
<clipPath id="clip0_155_946">
<rect width="154.714" height="178.004" fill="white" transform="translate(64.1348 73.752)"/>
</clipPath>
</defs>
</svg>
