<svg width="300" height="300" viewBox="0 0 300 300" fill="none" xmlns="http://www.w3.org/2000/svg">
<circle cx="150" cy="150" r="150" fill="#E6B8E6"/>
<path d="M123.554 63.7087C122.771 62.498 122.323 61.5067 122.236 60.2604C122.209 59.8728 122.214 59.2902 122.251 58.5126C122.288 57.7353 122.331 57.215 122.38 56.9519C122.43 56.6892 122.487 56.3638 122.552 55.9759C122.618 55.5881 122.677 55.3048 122.732 55.1261C122.786 54.9475 122.84 54.7494 122.895 54.532C122.95 54.3146 123.17 53.7282 123.554 52.7729C123.938 51.8178 124.33 51.033 124.729 50.4182C125.129 49.8035 125.462 49.3472 125.727 49.0495C125.991 48.7514 126.348 48.4087 126.796 48.0215C127.244 47.6342 127.546 47.3753 127.701 47.2445C127.857 47.1134 128.366 46.7936 129.23 46.285C130.093 45.7768 131.09 45.295 132.221 44.8397C133.352 44.3844 134.081 44.1079 134.409 44.0102C134.738 43.9129 135.114 43.8002 135.539 43.6723C135.963 43.5444 136.982 43.3246 138.596 43.013C140.21 42.7014 141.99 42.529 143.937 42.4959C145.885 42.4625 147.393 42.4959 148.462 42.5961C149.531 42.6963 150.324 42.7965 150.842 42.8967C151.36 42.9972 152.664 43.1957 154.756 43.4922C156.848 43.7887 158.884 44.2106 160.864 44.7579C162.844 45.3056 164.827 46.0015 166.811 46.8456C168.796 47.69 170.005 48.2473 170.439 48.5173C170.874 48.7873 171.332 49.1216 171.813 49.5202C172.294 49.9185 172.643 50.2092 172.86 50.3922C173.076 50.5753 173.356 50.8348 173.7 51.1706C174.044 51.5065 174.345 51.8068 174.604 52.0715C174.862 52.3358 175.123 52.6154 175.387 52.91C175.651 53.2049 176.128 53.7619 176.818 54.5812C177.507 55.4007 178.097 56.1313 178.587 56.7728C179.078 57.4146 179.759 58.4351 180.632 59.8341C181.506 61.2334 182.058 62.1421 182.289 62.5602C182.52 62.9783 182.798 63.5156 183.125 64.1719C183.452 64.8286 183.84 65.6684 184.289 66.6915C184.737 67.7149 185.182 68.7423 185.623 69.7736C186.063 70.8049 186.465 71.7676 186.828 72.6618C187.191 73.5564 187.498 74.3841 187.749 75.1451C187.999 75.906 188.22 76.5477 188.412 77.0701C188.603 77.5929 188.896 78.4819 189.288 79.7372C189.681 80.9922 190.162 82.665 190.729 84.7556C191.297 86.8459 191.783 88.6007 192.188 90.0198C192.593 91.4393 193.026 92.8128 193.488 94.1403C193.949 95.4678 194.427 96.663 194.921 97.7262C195.415 98.7893 195.802 99.5961 196.08 100.147C196.359 100.697 196.786 101.416 197.364 102.305C197.941 103.193 198.435 103.895 198.845 104.411C199.255 104.926 199.617 105.374 199.931 105.755C200.244 106.136 200.508 106.441 200.722 106.67C200.937 106.9 201.291 107.273 201.786 107.79C202.281 108.308 202.879 108.893 203.579 109.547C204.279 110.201 204.811 110.695 205.175 111.028C205.538 111.361 205.736 111.54 205.769 111.564C205.802 111.588 206.44 112.128 207.685 113.184C208.929 114.239 209.941 115.09 210.721 115.737C211.501 116.384 212.57 117.382 213.928 118.73C215.287 120.079 216.12 120.943 216.427 121.323C216.733 121.704 217.293 122.589 218.106 123.978C218.918 125.367 219.762 127.628 220.636 130.761L220.628 130.87C220.787 131.374 220.798 132.552 220.66 134.406C220.523 136.26 220.279 137.779 219.928 138.963C219.577 140.146 219.051 141.486 218.351 142.981C217.65 144.477 216.867 145.97 216 147.461C215.133 148.951 214.294 150.211 213.483 151.241C212.671 152.271 211.845 153.169 211.005 153.937C210.165 154.704 209.437 155.299 208.822 155.721C208.207 156.144 207.502 156.548 206.708 156.934C205.913 157.32 205.209 157.606 204.596 157.792C203.982 157.978 203.616 158.09 203.496 158.127C203.376 158.164 203.198 158.203 202.962 158.243C202.727 158.284 202.314 158.347 201.724 158.432C201.134 158.517 200.375 158.59 199.445 158.651C198.515 158.713 197.54 158.697 196.519 158.604C195.497 158.511 194.179 158.156 192.563 157.541C190.948 156.926 189.02 155.761 186.779 154.047C186.528 153.72 186.097 153.263 185.484 152.676C184.872 152.089 184.088 151.233 183.134 150.109C182.179 148.986 181.462 148.112 180.984 147.488C180.506 146.864 180.168 146.401 179.972 146.1C179.776 145.798 179.281 145.008 178.488 143.73C177.695 142.451 176.959 141.036 176.281 139.486C175.602 137.935 175.128 136.752 174.858 135.936C174.589 135.121 174.279 134.015 173.926 132.619C173.573 131.224 173.226 129.59 172.885 127.718C172.543 125.847 172.289 123.87 172.122 121.787C171.956 119.704 171.806 117.528 171.675 115.26C171.544 112.992 171.447 111.35 171.383 110.332C171.321 109.314 171.196 108.102 171.01 106.697C170.825 105.292 170.622 104.084 170.403 103.072C170.184 102.06 170.031 101.341 169.942 100.914C169.854 100.487 169.709 99.8055 169.506 98.87C169.303 97.9348 169.129 97.1978 168.984 96.6589C168.839 96.1201 168.692 95.6256 168.542 95.1754C168.392 94.7251 168.296 94.4321 168.255 94.2963C168.214 94.1605 168.074 93.768 167.835 93.1189C167.595 92.4698 167.372 91.9094 167.164 91.4377C166.956 90.9657 166.783 90.5776 166.646 90.2732C166.508 89.9688 166.319 89.5989 166.078 89.1634C165.837 88.7277 165.577 88.2834 165.297 87.8306C165.017 87.3781 164.626 86.7717 164.123 86.0114C163.621 85.2511 162.983 84.3744 162.209 83.3812C161.435 82.388 160.837 81.6599 160.416 81.1967C159.995 80.7332 159.619 80.3255 159.288 79.9735C158.958 79.6213 158.605 79.2551 158.23 78.8751C157.856 78.4951 157.374 78.0875 156.784 77.6524C156.195 77.2173 155.695 76.8817 155.284 76.6457C154.873 76.4097 154.581 76.2436 154.408 76.1475C154.235 76.0511 153.9 75.855 153.402 75.5591C152.904 75.2635 152.521 75.0345 152.252 74.8719C151.983 74.7093 151.426 74.3988 150.581 73.9403C149.736 73.4819 149.181 73.1865 148.915 73.0541C148.65 72.9221 148.379 72.7827 148.101 72.6358C147.823 72.489 147.411 72.2669 146.863 71.9694C146.316 71.6717 145.848 71.436 145.46 71.2624C145.071 71.0884 144.791 70.9602 144.619 70.8777C144.447 70.7951 144.05 70.63 143.429 70.3823C142.807 70.1347 142.208 69.9215 141.632 69.7429C141.056 69.5642 140.59 69.4344 140.235 69.3534C139.88 69.2724 139.527 69.1836 139.176 69.0868C138.824 68.9901 138.593 68.9394 138.482 68.9346C138.371 68.9302 138.097 68.8735 137.659 68.7645C137.222 68.6555 136.019 68.4017 134.052 68.0031C133.84 67.9221 133.421 67.7874 132.794 67.599C128.882 66.4234 125.68 66.9967 123.554 63.7087Z" fill="#D998D9"/>
<path d="M110.4 202.199C105.6 200.699 100.2 202.753 95.1003 205.499C84.2888 211.321 80.4149 213.233 93.5996 228.299C97.8001 233.099 115.297 243.789 121.2 245.399C131.1 248.099 141.3 248.099 159.6 245.399C165.861 244.475 185.1 239.699 194.1 228.299C201.776 218.576 194.617 208.371 182.4 204.299C177.9 202.799 171 208.499 165 211.199C159.36 213.737 140.4 216.899 130.5 212.999C127.318 211.746 113.7 203.23 110.4 202.199Z" fill="#D998D9"/>
<path d="M108.126 94.956C108.002 95.2208 107.525 96.7959 107.473 97.0303C107.421 97.2644 107.342 97.5739 107.236 97.9585C107.129 98.3432 107.025 98.7316 106.922 99.124C106.819 99.5165 106.722 99.9003 106.631 100.276C106.54 100.651 106.465 100.945 106.406 101.158C106.348 101.37 106.28 101.642 106.202 101.973C106.124 102.303 106.043 102.617 105.959 102.913C105.875 103.209 105.788 103.522 105.697 103.85C105.606 104.177 105.53 104.442 105.468 104.645C105.406 104.847 105.343 105.064 105.278 105.298C105.214 105.532 105.006 106.095 104.654 106.986C104.303 107.877 104.024 108.551 103.817 109.008C103.61 109.465 103.43 109.856 103.277 110.179C103.123 110.502 102.921 110.941 102.671 111.496C102.421 112.051 102.218 112.511 102.062 112.876C101.905 113.24 101.751 113.637 101.599 114.067C101.448 114.497 101.341 114.821 101.278 115.038C101.216 115.255 101.164 115.45 101.121 115.623C101.079 115.797 101.029 115.994 100.972 116.215C100.916 116.436 100.886 116.566 100.882 116.605C100.879 116.643 100.861 116.734 100.83 116.877C100.798 117.021 100.775 117.19 100.761 117.386C100.746 117.582 100.738 117.843 100.737 118.169C100.735 118.495 100.737 118.717 100.743 118.835C100.748 118.953 100.772 119.123 100.816 119.347L100.996 119.862C101.079 120.017 101.364 120.285 101.852 120.666C102.34 121.048 102.703 121.303 102.942 121.431C103.18 121.558 103.59 121.746 104.173 121.995C104.754 122.244 105.121 122.407 105.274 122.483C105.426 122.559 105.552 122.615 105.651 122.651C105.75 122.687 106.111 122.906 106.734 123.306L106.84 123.583C106.911 123.756 106.963 123.902 106.997 124.022C107.031 124.141 107.058 124.254 107.077 124.361C107.145 124.566 107.2 124.809 107.241 125.087C107.283 125.367 107.31 125.532 107.322 125.583C107.335 125.634 107.349 125.762 107.365 125.969C107.382 126.175 107.393 126.339 107.4 126.461C107.407 126.583 107.466 127.065 107.578 127.907C107.571 128.098 107.592 128.32 107.64 128.575L107.698 128.76C107.754 128.883 107.796 129.009 107.826 129.14C107.911 129.37 107.973 129.528 108.013 129.614C108.052 129.7 108.21 130.08 108.486 130.754L108.506 131.218C108.49 131.755 108.481 132.078 108.48 132.189C108.479 132.384 108.476 132.496 108.473 132.522C108.469 132.549 108.475 132.837 108.49 133.386L108.463 133.663C108.507 134.432 108.545 134.917 108.577 135.118L108.599 135.478C108.62 135.553 108.647 135.766 108.678 136.116C108.71 136.466 108.74 136.766 108.769 137.014C108.798 137.263 108.845 137.657 108.908 138.195C108.972 138.733 109.022 139.086 109.059 139.253C109.095 139.421 109.13 139.604 109.164 139.803C109.198 140.002 109.26 140.273 109.351 140.617C109.442 140.961 109.489 141.141 109.491 141.158C109.493 141.175 109.744 141.873 110.243 143.253C110.32 143.349 110.484 143.636 110.736 144.113C110.987 144.459 111.154 144.684 111.239 144.787C111.324 144.891 111.457 145.045 111.638 145.25C111.819 145.455 112.006 145.639 112.198 145.803C112.391 145.966 112.839 146.205 113.541 146.518C114.243 146.831 114.883 147.061 115.463 147.207C116.042 147.353 116.496 147.446 116.824 147.486C117.152 147.526 117.364 147.545 117.459 147.543C117.553 147.541 117.762 147.539 118.086 147.537C118.409 147.535 118.697 147.535 118.952 147.538C119.206 147.541 119.474 147.534 119.756 147.518C120.038 147.503 120.314 147.482 120.584 147.455C120.855 147.428 121.521 147.323 122.583 147.14C123.645 146.958 124.481 146.806 125.091 146.687C125.701 146.568 126.343 146.412 127.016 146.22C127.69 146.027 128.152 145.893 128.402 145.817C128.652 145.742 129.436 145.464 130.753 144.984C132.07 144.504 133.521 143.912 135.109 143.207L135.451 143.019L135.842 142.791C135.894 142.741 136.007 142.663 136.182 142.557C136.356 142.452 136.599 142.293 136.91 142.079L137.719 141.688M137.16 142.079C137.203 142.871 137.375 144.655 137.402 145.681C137.43 146.707 137.444 147.459 137.444 147.936C137.444 148.414 137.448 148.867 137.458 149.294C137.467 149.72 137.438 150.468 137.371 151.537C137.303 152.607 137.135 153.9 136.867 155.418C136.598 156.935 136.371 158.079 136.186 158.848C136.001 159.617 135.851 160.194 135.737 160.577C135.623 160.961 135.49 161.403 135.339 161.906C135.188 162.408 135.02 162.929 134.835 163.467C134.65 164.006 134.42 164.635 134.145 165.354C130.799 174.119 128.674 183.598 123.996 191.773C123.659 192.363 123.391 192.83 123.193 193.175C122.996 193.52 122.881 193.724 122.851 193.786C122.821 193.848 122.663 194.123 122.379 194.61C122.095 195.098 121.856 195.503 121.662 195.825C121.468 196.146 121.259 196.495 121.036 196.87C120.813 197.245 120.59 197.602 120.368 197.941C120.146 198.279 119.965 198.554 119.822 198.766C119.758 198.894 119.457 199.323 118.921 200.051C118.384 200.779 117.922 201.368 117.537 201.817C117.151 202.267 116.867 202.599 116.683 202.815C116.499 203.03 116.168 203.379 115.69 203.86C115.213 204.342 114.463 205.044 113.44 205.964C112.418 206.885 111.549 207.624 110.834 208.181C110.118 208.738 109.328 209.281 108.463 209.809C107.598 210.338 106.593 210.884 105.45 211.448C104.306 212.012 103.463 212.406 102.921 212.63C102.379 212.854 101.89 213.055 101.455 213.233C101.02 213.41 100.346 213.643 99.4309 213.932C98.5162 214.222 97.8383 214.43 97.397 214.557C96.9553 214.683 96.1307 214.868 94.923 215.111C93.7153 215.355 92.3737 215.652 90.8979 216.003C89.4218 216.355 88.3488 216.644 87.6789 216.872M177.956 144.284L177.722 147.789C177.736 148.602 177.723 150.001 177.681 151.985C177.64 153.969 177.609 155.672 177.59 157.095C177.571 158.517 177.558 159.605 177.55 160.359C177.543 161.113 177.491 162.395 177.395 164.206C177.299 166.016 177.227 167.38 177.181 168.299C177.134 169.217 177.086 170.269 177.038 171.454C176.989 172.639 176.926 174.103 176.847 175.845C176.769 177.587 176.688 179.227 176.605 180.765C176.522 182.303 176.44 183.744 176.356 185.089C176.273 186.433 176.169 188.078 176.044 190.023C175.919 191.969 175.334 202.263 175.512 204.834C174.928 205.127 174.466 205.354 174.126 205.515C173.115 205.992 172.33 206.353 171.77 206.598C171.211 206.843 170.82 207.009 170.598 207.097C170.376 207.183 169.764 207.416 168.763 207.794C167.762 208.172 166.785 208.523 165.832 208.845C164.88 209.169 164.26 209.373 163.973 209.459C163.686 209.546 163.264 209.677 162.708 209.853C162.151 210.028 161.345 210.28 160.288 210.607C159.232 210.935 158.374 211.195 157.715 211.386C157.056 211.578 156.629 211.696 156.432 211.739C156.236 211.783 155.872 211.866 155.341 211.987C154.809 212.109 154.403 212.197 154.121 212.252C153.839 212.307 153.338 212.398 152.618 212.526C151.898 212.653 151.111 212.779 150.258 212.903C149.405 213.026 148.193 213.154 146.623 213.286C145.052 213.418 143.82 213.487 142.927 213.493C142.034 213.498 141.365 213.495 140.919 213.485C140.473 213.475 139.497 213.391 137.99 213.233C136.483 213.075 135.471 212.948 134.956 212.851C134.44 212.754 134.091 212.688 133.908 212.654C133.726 212.619 133.484 212.565 133.183 212.49C132.883 212.415 132.529 212.314 132.122 212.186C131.715 212.058 131.166 211.857 130.474 211.585C129.783 211.312 129.197 211.065 128.718 210.842C128.239 210.618 127.297 210.138 125.893 209.401C124.489 208.664 123.387 208.056 122.587 207.578C121.788 207.1 120.875 206.534 119.851 205.881C118.583 205.074 117.352 204.293 116.141 203.401M177.956 144.284C178.11 144.928 178.261 145.507 178.408 146.021C178.555 146.534 178.7 146.978 178.843 147.351C178.986 147.725 179.109 148.04 179.213 148.297C179.317 148.554 179.442 148.834 179.588 149.138C179.735 149.441 179.973 149.896 180.303 150.502C180.634 151.107 181.263 151.911 182.191 152.913C183.119 153.916 183.958 154.645 184.706 155.1C185.455 155.556 185.893 155.815 186.019 155.877C186.145 155.94 186.328 156.006 186.569 156.076C186.81 156.145 187.071 156.214 187.353 156.282C187.634 156.35 188.02 156.419 188.51 156.489C188.999 156.557 189.572 156.592 190.229 156.593C190.885 156.595 191.243 156.591 191.301 156.582C191.36 156.573 191.506 156.561 191.741 156.547C191.975 156.532 192.163 156.514 192.302 156.491C192.441 156.468 192.78 156.41 193.319 156.316C193.858 156.221 194.463 156.095 195.133 155.938C195.803 155.78 196.714 155.527 197.866 155.18C199.019 154.833 199.888 154.53 200.473 154.27C201.059 154.01 201.37 153.869 201.406 153.845C201.442 153.822 201.646 153.705 202.016 153.495C202.387 153.285 202.847 153.008 203.396 152.663C203.947 152.318 204.678 151.8 205.591 151.111C206.503 150.422 207.102 149.941 207.386 149.669C207.67 149.397 208.021 149.032 208.438 148.574C208.855 148.115 209.368 147.46 209.976 146.607C210.584 145.754 211.049 145.047 211.371 144.485C211.694 143.923 212.019 143.258 212.347 142.49C212.675 141.721 212.967 140.888 213.224 139.991C213.48 139.094 213.663 138.385 213.771 137.865C213.879 137.344 213.978 136.656 214.067 135.802C214.157 134.947 214.199 134.443 214.195 134.29C214.191 134.136 214.184 133.881 214.172 133.524C214.161 133.168 214.117 132.653 214.041 131.979C213.964 131.305 213.856 130.603 213.716 129.871C213.577 129.139 213.418 128.442 213.239 127.779C213.06 127.116 212.919 126.633 212.815 126.329C212.712 126.026 212.623 125.783 212.549 125.602C212.475 125.421 212.372 125.175 212.241 124.864C212.109 124.552 211.909 124.143 211.639 123.637C211.369 123.131 211.107 122.672 210.851 122.262C210.596 121.851 210.306 121.406 209.982 120.927C209.66 120.449 209.2 119.845 208.605 119.115C208.009 118.384 207.695 118.004 207.663 117.975C207.631 117.944 207.411 117.71 207.004 117.272C206.597 116.834 206.266 116.48 206.012 116.212C205.758 115.943 205.457 115.64 205.108 115.303C204.76 114.966 204.381 114.628 203.972 114.291C203.562 113.953 203.166 113.639 202.782 113.349C202.398 113.058 201.725 112.642 200.761 112.102C199.798 111.561 199.135 111.202 198.771 111.024C198.409 110.846 197.93 110.608 197.335 110.31C196.741 110.012 196.203 109.723 195.722 109.444C195.241 109.165 194.956 108.996 194.868 108.936C194.78 108.877 194.648 108.794 194.473 108.688C194.298 108.582 194.107 108.461 193.902 108.324C193.696 108.187 193.415 107.981 193.057 107.704C192.7 107.428 192.282 107.074 191.803 106.641C191.324 106.208 190.713 105.537 189.968 104.628C189.223 103.718 188.734 103.063 188.501 102.661C188.268 102.259 188.073 101.883 187.916 101.535C187.76 101.188 187.649 100.906 187.584 100.689C187.519 100.472 187.388 99.935 187.19 99.0774C186.992 98.2197 186.865 97.5648 186.811 97.1124C186.756 96.6601 186.712 96.2991 186.679 96.0294C186.646 95.7597 186.622 95.4636 186.606 95.1411C186.591 94.8186 186.567 94.4598 186.534 94.0645C186.502 93.6692 186.47 93.3151 186.437 93.0023C186.404 92.6896 186.368 92.2807 186.331 91.7756C186.293 91.2705 186.263 90.9215 186.239 90.7289C186.216 90.5366 186.183 90.2221 186.141 89.7853C186.099 89.3489 186.078 89.1162 186.077 89.0874C186.077 89.0586 186.043 88.7729 185.977 88.2306C185.91 87.6883 185.869 87.3651 185.853 87.2605C185.837 87.1556 185.811 86.9388 185.775 86.6105C185.74 86.2822 185.71 86.029 185.685 85.8509C185.66 85.6732 185.619 85.3179 185.562 84.785C185.505 84.2524 185.443 83.6178 185.376 82.8812C185.31 82.1447 185.265 81.603 185.241 81.2566C185.216 80.9108 185.162 80.3947 185.079 79.7083C184.996 79.0223 184.919 78.4898 184.85 78.111C184.78 77.7321 184.645 77.1595 184.446 76.3931C184.248 75.6268 183.916 74.6431 183.451 73.4419C182.987 72.2404 182.683 71.5013 182.538 71.2244C182.394 70.9476 182.068 70.3775 181.563 69.514C181.056 68.6504 180.616 67.9411 180.24 67.3861C179.864 66.8308 179.474 66.2938 179.071 65.7747C178.667 65.2557 178.079 64.5824 177.306 63.7548C176.533 62.9272 175.704 62.1451 174.818 61.4085C173.932 60.6723 173.444 60.2786 173.354 60.2271C171.154 58.8015 169.958 58.0304 169.764 57.9138C169.57 57.7976 169.277 57.619 168.885 57.3781C168.492 57.1376 168.166 56.9406 167.907 56.7872C167.647 56.6334 167.332 56.4409 166.96 56.2097C166.589 55.9789 166.253 55.7671 165.952 55.5744C165.652 55.3818 165.332 55.188 164.991 54.9935C164.651 54.7989 164.333 54.6146 164.036 54.4404C163.739 54.2666 163.427 54.0909 163.097 53.9135C162.768 53.7364 162.533 53.6091 162.392 53.5317C162.25 53.4543 162.068 53.3609 161.844 53.2514C161.62 53.1423 161.198 52.9483 160.577 52.6693C159.956 52.3902 159.331 52.1209 158.7 51.8616C158.07 51.6019 157.566 51.4054 157.189 51.272C156.812 51.1386 156.447 51.018 156.093 50.9102C155.74 50.8023 155.29 50.6808 154.745 50.5454C154.201 50.4101 153.481 50.2638 152.587 50.1067C151.694 49.95 150.694 49.8144 149.589 49.6998C148.484 49.5855 147.654 49.506 147.1 49.461C146.546 49.416 145.596 49.3609 144.249 49.2962C142.903 49.2318 141.058 49.2211 138.714 49.2642C136.371 49.3076 135.09 49.3498 134.871 49.3906C133.086 49.7377 131.908 49.9951 131.335 50.1632C130.762 50.3312 130.393 50.4472 130.229 50.5113C130.065 50.5751 129.844 50.6625 129.566 50.7736C129.288 50.8849 129.019 51.005 128.757 51.1335C128.494 51.2621 128.138 51.4439 127.688 51.679C127.238 51.9137 126.888 52.1094 126.639 52.2661C126.39 52.4228 125.945 52.7209 125.306 53.1606C124.666 53.6003 124.121 54.0022 123.671 54.3665C123.221 54.731 122.954 54.9551 122.868 55.0383C122.784 55.1212 122.643 55.2473 122.446 55.417C122.248 55.587 121.941 55.884 121.523 56.3082C121.106 56.732 120.695 57.1803 120.292 57.653C119.889 58.1254 119.583 58.489 119.374 58.7438C119.165 58.9989 118.929 59.292 118.666 59.6229C118.403 59.9538 118.233 60.166 118.155 60.2596C118.078 60.3532 117.966 60.4987 117.822 60.6962C117.677 60.8937 117.498 61.1455 117.285 61.4515C117.072 61.7574 116.892 62.0311 116.743 62.2727C116.595 62.5139 116.478 62.7273 116.394 62.9132M177.956 144.284C177.802 143.639 177.678 143.124 177.585 142.738C177.491 142.351 177.41 141.992 177.341 141.661C177.272 141.33 177.227 141.145 177.207 141.105C177.187 141.064 177.039 140.551 176.765 139.565C176.49 138.579 176.301 137.946 176.198 137.666C176.094 137.386 175.997 137.139 175.907 136.925C175.818 136.71 175.712 136.479 175.59 136.231C175.469 135.983 175.291 135.674 175.056 135.303C174.821 134.933 174.648 134.675 174.539 134.529C174.429 134.382 174.306 134.235 174.169 134.086C174.032 133.937 173.558 133.565 172.745 132.97C171.933 132.375 171.383 132.007 171.095 131.864C170.807 131.721 170.598 131.626 170.47 131.578C170.342 131.53 170.174 131.461 169.965 131.37C169.756 131.278 169.473 131.173 169.117 131.054C168.76 130.935 168.288 130.749 167.7 130.495M105.426 73.554C104.268 75.0019 103.319 76.7695 103.205 77.0958C103.092 77.4219 102.964 77.8292 102.822 78.3178C102.68 78.8061 102.547 79.3576 102.423 79.9728C102.299 80.588 102.217 81.0684 102.177 81.4139C102.137 81.7594 102.101 82.1043 102.068 82.4488C102.035 82.7936 102.022 83.0795 102.029 83.3065C102.035 83.5335 102.047 83.8122 102.063 84.1431C102.079 84.474 102.097 84.7594 102.116 84.999C102.135 85.2386 102.164 85.478 102.202 85.7173C102.241 85.9565 102.281 86.2168 102.324 86.4982C102.367 86.7799 102.395 86.9342 102.407 86.9611C102.419 86.9879 102.473 87.1934 102.567 87.5774C102.662 87.9617 102.786 88.357 102.941 88.7633C103.095 89.1697 103.342 89.6894 103.679 90.3227C104.016 90.956 104.348 91.4964 104.673 91.9438C104.999 92.3916 105.551 92.947 106.329 93.6097C107.107 94.2725 108.037 94.9311 109.118 95.5858C110.2 96.2405 111.082 96.7481 111.764 97.1085C112.445 97.4688 113.012 97.7466 113.466 97.9418C113.919 98.1373 114.751 98.4687 115.963 98.9359C117.175 99.4034 118.04 99.7282 118.557 99.9098C119.073 100.091 119.718 100.288 120.492 100.499C121.264 100.71 121.865 100.87 122.294 100.979C122.722 101.088 123.233 101.222 123.825 101.379C124.418 101.536 125.092 101.701 125.849 101.873C126.605 102.045 127.129 102.162 127.42 102.226C127.711 102.289 128.066 102.386 128.487 102.516C128.908 102.646 129.296 102.783 129.652 102.928C130.008 103.072 130.212 103.155 130.264 103.175C130.316 103.195 130.659 103.395 131.295 103.774C131.931 104.154 132.374 104.428 132.624 104.598C132.874 104.768 133.164 105 133.496 105.292C133.827 105.584 134.141 105.909 134.439 106.267C134.737 106.625 134.968 106.935 135.132 107.197C135.297 107.459 135.434 107.699 135.544 107.919C135.654 108.139 135.736 108.296 135.79 108.39C135.844 108.484 135.887 108.575 135.919 108.663C135.95 108.751 135.995 108.859 136.056 108.986C136.117 109.113 136.316 109.685 136.653 110.701C136.991 111.718 137.261 112.628 137.465 113.431C137.669 114.235 137.814 114.868 137.901 115.331C137.987 115.795 138.071 116.195 138.151 116.533C138.231 116.87 138.335 117.314 138.462 117.866C138.59 118.416 138.79 119.207 139.063 120.237C139.155 120.455 139.28 120.81 139.44 121.302C139.6 121.794 139.715 122.132 139.785 122.315C139.856 122.499 140.056 122.977 140.386 123.748C140.716 124.52 141.039 125.154 141.355 125.65C141.67 126.147 142.021 126.604 142.408 127.022C142.794 127.44 143.255 127.855 143.791 128.266C144.326 128.678 144.782 128.988 145.157 129.195C145.532 129.402 146.067 129.665 146.762 129.985C147.457 130.304 148.251 130.648 149.143 131.017C150.035 131.386 150.615 131.631 150.882 131.752C151.149 131.874 151.4 132 151.634 132.13C151.867 132.262 152.077 132.381 152.263 132.488C152.448 132.596 152.635 132.727 152.822 132.883C153.01 133.039 153.169 133.192 153.301 133.345C153.432 133.497 153.585 133.703 153.761 133.962C153.936 134.221 154.048 134.398 154.096 134.492C154.144 134.586 154.213 134.722 154.303 134.9C154.394 135.077 154.51 135.403 154.653 135.877C154.795 136.352 154.882 136.648 154.914 136.768C154.945 136.887 154.988 137.147 155.043 137.55C155.099 137.952 155.127 138.326 155.129 138.672C155.131 139.018 155.135 139.222 155.142 139.284C155.15 139.346 155.134 139.547 155.097 139.889C155.059 140.232 155.026 140.46 154.998 140.575C154.969 140.69 154.915 140.907 154.834 141.224C154.753 141.542 154.701 141.749 154.677 141.845C154.652 141.94 154.451 142.402 154.074 143.23C153.697 144.058 153.288 144.813 152.847 145.494C152.406 146.176 151.791 147.137 151 148.378L150.915 148.539L150.691 148.968C150.444 149.413 150.153 149.957 149.819 150.601C149.484 151.244 149.225 151.849 149.041 152.415C148.857 152.981 148.734 153.521 148.673 154.033C148.612 154.546 148.59 154.947 148.606 155.236C148.621 155.526 148.643 155.756 148.671 155.929C148.7 156.102 148.72 156.238 148.731 156.339C148.743 156.439 148.818 156.717 148.958 157.172C149.097 157.626 149.239 158.005 149.384 158.306C149.529 158.607 149.68 158.876 149.838 159.111C149.995 159.347 150.153 159.566 150.313 159.768C150.472 159.97 150.586 160.107 150.655 160.178C150.724 160.25 150.83 160.364 150.974 160.519C151.118 160.675 151.331 160.882 151.613 161.142C151.895 161.402 152.209 161.658 152.557 161.911C152.905 162.164 153.209 162.37 153.469 162.529C153.729 162.687 154.175 162.944 154.805 163.3C155.435 163.655 155.915 163.912 156.246 164.07C156.576 164.228 156.802 164.334 156.922 164.387C157.043 164.44 157.179 164.489 157.33 164.534C157.482 164.579 157.755 164.591 158.148 164.57L158.163 164.522C158.033 164.389 157.972 164.303 157.98 164.264C157.889 164.162 157.83 164.089 157.803 164.046C157.777 164.003 157.74 163.954 157.692 163.899C157.644 163.844 157.544 163.704 157.39 163.479C157.237 163.254 157.088 163.019 156.944 162.773C156.8 162.528 156.638 162.252 156.459 161.946C156.28 161.639 156.14 161.368 156.04 161.132C155.939 160.896 155.861 160.686 155.806 160.504C155.751 160.321 155.692 160.106 155.631 159.858C155.569 159.61 155.53 159.349 155.516 159.074C155.501 158.8 155.505 158.538 155.53 158.29C155.555 158.041 155.597 157.816 155.654 157.615C155.712 157.414 155.742 157.298 155.745 157.269C155.749 157.24 155.877 157.025 156.13 156.625C156.383 156.225 156.699 155.84 157.078 155.47C157.457 155.1 157.704 154.874 157.82 154.791C157.936 154.708 158.194 154.557 158.596 154.339C158.997 154.121 159.252 153.99 159.36 153.946C159.469 153.903 159.581 153.853 159.696 153.796C159.812 153.739 160.042 153.64 160.387 153.498C160.731 153.356 160.915 153.279 160.936 153.266C160.959 153.253 161.266 153.126 161.859 152.887C162.453 152.647 163.03 152.406 163.592 152.162C164.153 151.919 164.647 151.678 165.072 151.44C165.498 151.202 165.841 150.99 166.102 150.805C166.364 150.619 166.629 150.423 166.897 150.216C167.165 150.008 167.366 149.844 167.501 149.724C167.634 149.604 167.758 149.48 167.872 149.353C167.986 149.227 168.111 149.066 168.247 148.872C168.382 148.678 168.524 148.462 168.671 148.225C168.818 147.988 168.917 147.814 168.97 147.703C169.023 147.591 169.106 147.406 169.22 147.146C169.333 146.887 169.451 146.581 169.573 146.227C169.696 145.873 169.777 145.612 169.816 145.444C169.855 145.277 169.919 145.028 170.008 144.697C170.08 144.515 170.132 143.714 170.165 142.294C170.197 140.875 170.17 139.777 170.085 139C169.999 138.222 169.932 137.68 169.884 137.373C169.835 137.065 169.79 136.777 169.75 136.506C169.709 136.236 169.616 135.801 169.471 135.201C169.326 134.602 169.194 134.125 169.073 133.77C168.952 133.417 168.83 133.099 168.705 132.817C168.581 132.536 168.394 132.167 168.146 131.712C167.897 131.256 167.547 130.695 167.096 130.028C166.645 129.361 166.292 128.879 166.036 128.582C165.78 128.285 165.509 128 165.223 127.726C164.938 127.453 164.577 127.154 164.139 126.83C163.701 126.506 163.293 126.227 162.916 125.994C162.538 125.76 162.167 125.556 161.8 125.383C161.434 125.209 161.067 125.04 160.698 124.874C160.33 124.709 160.053 124.586 159.867 124.505C159.682 124.425 159.062 124.174 158.007 123.754C156.952 123.334 156.308 123.086 156.075 123.01C155.842 122.933 155.621 122.869 155.412 122.818C155.204 122.767 154.986 122.71 154.758 122.646C154.532 122.584 154.236 122.516 153.87 122.445C153.505 122.373 153.293 122.327 153.233 122.307C153.174 122.287 152.998 122.244 152.705 122.179C152.412 122.113 152.094 122.046 151.75 121.975C151.406 121.905 151.032 121.825 150.626 121.735C150.22 121.645 149.766 121.53 149.264 121.389C148.761 121.248 147.989 120.953 146.947 120.504C146.853 120.468 146.029 119.575 144.475 117.823M183.535 116.344L183.677 116.633C183.809 116.741 184.004 116.961 184.264 117.292C184.524 117.623 184.769 117.967 184.998 118.326C185.228 118.684 185.402 118.981 185.521 119.217C185.64 119.454 185.756 119.771 185.869 120.169C185.982 120.567 186.092 121.353 186.198 122.528C186.305 123.703 186.351 124.431 186.335 124.712C186.319 124.994 186.31 125.182 186.307 125.277C186.304 125.372 186.277 125.681 186.226 126.203C186.176 126.725 186.115 127.373 186.043 128.148C185.972 128.922 185.917 129.612 185.878 130.217C185.838 130.822 185.816 131.431 185.812 132.044C185.808 132.656 185.851 133.47 185.94 134.488C186.03 135.505 186.181 136.438 186.394 137.286C186.608 138.133 186.844 138.842 187.103 139.412C187.363 139.982 187.569 140.387 187.722 140.628C187.875 140.869 188.025 141.081 188.172 141.265C188.32 141.449 188.415 141.56 188.458 141.599C188.5 141.639 188.82 141.902 189.42 142.389C190.019 142.877 190.569 143.23 191.072 143.447C191.575 143.665 192.039 143.811 192.464 143.886C192.889 143.961 193.247 143.994 193.538 143.984C193.828 143.973 194.216 143.929 194.701 143.852C195.185 143.775 196.108 143.476 197.47 142.955M107.737 85.5106C107.827 85.6281 107.94 85.7677 108.076 85.9296C108.211 86.0915 108.433 86.3084 108.742 86.5803C109.052 86.8523 109.3 87.0769 109.486 87.254C109.672 87.4308 109.839 87.5929 109.986 87.7402C110.134 87.8872 110.31 88.0667 110.514 88.2787C110.719 88.4908 111.062 88.8097 111.543 89.2351C112.024 89.6609 112.416 89.98 112.718 90.1927C113.021 90.4057 113.343 90.6113 113.686 90.8095C114.029 91.0076 114.38 91.1858 114.739 91.3438C115.098 91.5021 115.861 91.744 117.028 92.0694C118.194 92.3945 119.092 92.6078 119.722 92.7094C120.351 92.8111 121.013 92.8919 121.707 92.9518C122.401 93.012 123.817 93.1179 125.955 93.2698C128.093 93.4216 129.682 93.5351 130.722 93.6099C131.762 93.685 132.647 93.7541 133.377 93.8169C134.106 93.8794 134.736 93.9438 135.264 94.0101C135.793 94.0768 136.33 94.161 136.874 94.2627C137.419 94.3644 137.828 94.4526 138.104 94.5273C138.379 94.6025 138.591 94.665 138.741 94.7152C138.89 94.7657 139.081 94.8416 139.313 94.9426C139.546 95.0439 139.778 95.1506 140.012 95.2629C140.246 95.3756 140.67 95.6185 141.282 95.9914C141.895 96.3648 142.36 96.67 142.676 96.907C142.992 97.144 143.285 97.3891 143.557 97.6419C143.828 97.8945 144.047 98.1199 144.214 98.3187C144.381 98.5172 144.566 98.7486 144.767 99.0128C144.969 99.2774 145.189 99.592 145.426 99.9569C145.664 100.322 145.854 100.639 145.997 100.908C146.139 101.178 146.369 101.633 146.689 102.272C147.008 102.912 147.235 103.369 147.371 103.644C147.506 103.918 147.613 104.144 147.692 104.321C147.771 104.499 147.892 104.765 148.055 105.121C148.218 105.476 148.406 105.895 148.617 106.377C148.829 106.859 149.023 107.268 149.2 107.606C149.377 107.944 149.523 108.231 149.638 108.468C149.753 108.704 149.832 108.856 149.874 108.923C149.917 108.99 150.096 109.283 150.413 109.802C150.729 110.32 151.052 110.774 151.38 111.163C151.708 111.552 151.98 111.845 152.195 112.044C152.41 112.242 152.673 112.451 152.982 112.67C153.292 112.889 153.569 113.073 153.813 113.22C154.058 113.367 154.444 113.54 154.972 113.739C155.5 113.938 155.905 114.064 156.185 114.116C156.466 114.169 156.772 114.205 157.102 114.224C157.432 114.243 157.703 114.249 157.914 114.24C158.124 114.232 158.294 114.213 158.422 114.184C158.551 114.154 158.669 114.126 158.777 114.1C158.884 114.073 159.255 113.977 159.888 113.811M114.193 105.123C114.421 105.235 114.596 105.317 114.717 105.369C114.838 105.421 114.917 105.459 114.952 105.484C114.988 105.508 115.405 105.618 116.206 105.814C117.006 106.01 117.646 106.134 118.125 106.184C118.604 106.234 118.951 106.264 119.166 106.273C119.38 106.281 119.57 106.285 119.736 106.284C119.901 106.283 120.043 106.29 120.162 106.306C120.282 106.321 120.466 106.328 120.717 106.328C120.967 106.328 120.562 106.365 121.353 106.328M121.353 106.328L123.15 106.208M121.353 106.328C120.774 107.724 120.374 108.12 120.207 108.246C120.041 108.373 119.805 108.488 119.554 108.622C119.303 108.756 119.061 108.864 118.827 108.945C118.594 109.026 118.38 109.076 118.187 109.096C117.995 109.116 117.829 109.117 117.691 109.1C117.553 109.082 117.409 109.053 117.259 109.013C117.109 108.973 116.983 108.912 116.884 108.83C116.784 108.747 116.703 108.675 116.641 108.613C116.578 108.551 116.531 108.495 116.498 108.446C116.465 108.397 116.407 108.277 116.323 108.086C116.24 107.894 116.206 107.823 116.141 107.634C116.062 107.401 116.001 107.01 116.001 107.01C116.001 107.01 115.96 106.82 115.961 106.696C115.962 106.491 116.083 106.184 116.083 106.184M108.901 131.469C109.658 131.469 110.349 131.469 111.173 131.302C111.412 131.253 111.513 131.245 111.913 131.12C112.314 130.994 112.752 130.856 113.227 130.706M183.535 244.327C184.114 243.811 184.597 243.392 184.985 243.07C185.373 242.747 185.741 242.459 186.089 242.205C186.438 241.951 186.833 241.661 187.275 241.336C187.716 241.01 188.182 240.671 188.672 240.318C189.162 239.965 189.442 239.761 189.511 239.707C189.58 239.654 189.856 239.453 190.339 239.105C190.822 238.758 191.485 238.222 192.329 237.496C193.173 236.77 193.969 236.046 194.718 235.324C195.466 234.601 195.928 234.149 196.103 233.967C196.278 233.785 196.554 233.511 196.931 233.143C197.309 232.776 197.775 232.305 198.33 231.733C198.886 231.16 199.276 230.749 199.503 230.498C199.729 230.249 199.996 229.963 200.303 229.641C200.61 229.319 201.339 228.517 202.491 227.236C202.592 227.154 203.261 226.336 204.5 224.784C205.739 223.231 206.693 221.999 207.362 221.087C208.032 220.175 208.551 219.48 208.921 219.001C209.291 218.523 209.603 218.119 209.858 217.791C210.112 217.462 210.474 216.991 210.942 216.376C211.411 215.761 212.007 214.852 212.73 213.647C213.454 212.442 213.977 211.527 214.3 210.902C214.623 210.276 214.858 209.791 215.005 209.448C215.153 209.104 215.3 208.765 215.448 208.43C215.596 208.095 215.756 207.71 215.929 207.274C216.102 206.838 216.307 206.259 216.545 205.537C216.783 204.814 216.905 204.437 216.91 204.408C216.916 204.377 216.967 204.207 217.062 203.895C217.157 203.584 217.261 203.221 217.373 202.807C217.485 202.392 217.581 202.011 217.661 201.662C217.741 201.314 217.827 200.933 217.919 200.52C218.012 200.108 218.069 199.876 218.091 199.824C218.113 199.773 218.194 199.372 218.333 198.621C218.472 197.87 218.574 197.291 218.639 196.885C218.705 196.478 218.795 195.966 218.911 195.348C219.028 194.73 219.115 194.301 219.173 194.06C219.231 193.819 219.206 193.335 219.229 192.859C219.362 190.188 219.418 189.782 219.421 188.811C219.424 187.84 219.374 186.538 219.27 184.907C219.167 183.275 219.028 181.984 218.854 181.033C218.679 180.082 218.541 179.436 218.438 179.097L218.362 178.908C217.176 175.416 216.462 173.353 216.219 172.719C215.976 172.085 215.776 171.6 215.619 171.263C215.461 170.925 215.306 170.597 215.155 170.278C215.003 169.959 214.754 169.509 214.406 168.929C214.058 168.348 213.494 167.512 212.713 166.418C211.932 165.325 211.384 164.599 211.069 164.242C210.754 163.885 210.303 163.441 209.716 162.909C209.129 162.378 206.736 160.795 205.071 159.428C204.993 159.987 204.95 160.354 204.943 160.528C204.936 160.701 204.918 160.874 204.89 161.044C204.862 161.215 204.816 161.799 204.75 162.797C204.685 163.796 204.626 165.009 204.573 166.437C204.521 167.865 204.558 169.513 204.686 171.381C204.813 173.25 204.93 174.383 205.036 174.782C205.142 175.18 205.22 175.478 205.27 175.674C205.32 175.87 205.413 176.185 205.548 176.618C205.683 177.053 205.907 177.639 206.221 178.377C206.535 179.115 206.794 179.674 206.998 180.055C207.202 180.435 207.39 180.79 207.562 181.12C207.734 181.449 207.981 181.891 208.302 182.445C208.624 182.999 209.063 183.706 209.62 184.565C210.177 185.425 210.564 185.999 210.78 186.287C210.997 186.574 211.331 187.009 211.782 187.591C212.233 188.172 212.635 188.667 212.987 189.075C213.339 189.483 213.659 189.847 213.948 190.168C214.237 190.489 214.539 190.808 214.853 191.126C215.167 191.444 215.676 191.926 216.381 192.57C217.087 193.215 217.625 193.719 217.995 194.08C218.366 194.442 218.604 194.656 218.708 194.722C218.813 194.789 218.912 194.851 219.006 194.908M215.006 169.983C214.95 169.801 214.846 169.058 214.716 168.586C214.69 168.354 214.632 167.943 214.541 167.353C214.45 166.763 214.376 166.29 214.32 165.932C214.264 165.574 214.219 165.238 214.187 164.923C214.154 164.608 214.129 164.402 214.111 164.304C214.094 164.206 214.048 163.797 213.973 163.077C213.898 162.357 213.826 161.657 213.759 160.976C213.691 160.296 213.643 159.506 213.614 158.607C213.585 157.707 213.575 156.975 213.582 156.408C213.59 155.842 213.594 155.457 213.596 155.252C213.597 155.048 213.625 154.63 213.679 153.999C213.733 153.368 213.814 152.651 213.922 151.848C214.03 151.046 214.154 150.362 214.296 149.796C214.437 149.23 214.615 148.622 214.828 147.973C215.041 147.323 215.216 146.837 215.355 146.515C215.493 146.193 215.658 145.847 215.851 145.478C216.044 145.11 216.534 144.367 217.322 143.252C218.109 142.136 218.884 141.161 219.644 140.326C220.405 139.491 220.884 138.974 221.084 138.773C221.283 138.573 221.519 138.344 221.791 138.086C222.064 137.827 222.418 137.51 222.852 137.132C223.288 136.754 223.763 136.355 224.278 135.933C224.793 135.512 225.242 135.159 225.625 134.874C226.009 134.59 226.316 134.37 226.545 134.215C226.774 134.06 226.965 133.928 227.119 133.819C227.273 133.71 227.443 133.596 227.628 133.477C227.815 133.357 228.078 133.166 228.42 132.904C228.763 132.643 229.335 132.236 230.136 131.684L231.463 130.706C231.301 131.014 231.175 131.264 231.085 131.453C230.994 131.642 230.907 131.835 230.825 132.03C230.743 132.225 230.665 132.423 230.591 132.623C230.517 132.824 230.313 133.361 229.978 134.235C229.643 135.109 229.373 135.873 229.168 136.527C228.963 137.181 228.838 137.581 228.791 137.727C228.745 137.873 228.56 138.572 228.237 139.825C227.915 141.078 227.686 142.037 227.552 142.701C227.418 143.366 227.31 144.059 227.229 144.781C227.148 145.503 227.013 147.31 226.824 150.202C226.787 150.522 226.72 151.709 226.623 153.764C226.526 155.818 226.421 157.396 226.307 158.497C226.193 159.598 226.096 160.39 226.014 160.872C225.933 161.354 225.846 161.773 225.753 162.127C225.66 162.481 225.509 163.002 225.302 163.689C225.095 164.376 224.774 165.221 224.34 166.224C223.906 167.226 223.507 168.016 223.143 168.596C222.779 169.177 222.407 169.711 222.028 170.198C221.649 170.686 221.303 171.108 220.991 171.463C220.679 171.819 220.34 172.177 219.974 172.536C219.609 172.895 219.31 173.178 219.078 173.384C218.846 173.59 218.705 173.711 218.656 173.747C218.607 173.783 218.366 173.983 217.935 174.346L217.059 175.096M219.418 188.33C219.419 187.649 219.87 186.93 220.017 186.247C220.086 185.927 220.144 185.633 220.191 185.367C220.239 185.1 220.319 184.72 220.431 184.225C220.543 183.73 220.634 183.369 220.706 183.143C220.777 182.916 220.837 182.743 220.885 182.622C220.932 182.501 221.052 182.205 221.243 181.735C221.435 181.264 221.659 180.763 221.914 180.231C222.169 179.699 222.38 179.278 222.547 178.968C222.714 178.659 222.881 178.374 223.047 178.114C223.213 177.853 223.539 177.396 224.025 176.742C224.51 176.088 224.909 175.583 225.222 175.227C225.534 174.871 225.739 174.639 225.836 174.532C225.933 174.425 226.147 174.215 226.478 173.901C226.809 173.587 227.181 173.252 227.591 172.895C228.002 172.538 228.275 172.3 228.411 172.181C228.546 172.062 228.826 171.827 229.251 171.476C229.677 171.126 230.147 170.734 230.663 170.301C231.178 169.869 232.964 168.624 233.419 168.245C233.363 168.479 233.265 169.969 233.195 171.459C233.124 172.95 233.064 174.498 233.014 176.102C232.964 177.707 232.919 178.903 232.876 179.691C232.834 180.479 232.776 181.226 232.703 181.932C232.63 182.638 232.058 185.155 230.987 189.484C230.894 189.807 230.58 190.604 230.046 191.874C229.511 193.144 228.835 194.401 228.019 195.645C227.202 196.889 226.583 197.756 226.162 198.246C225.74 198.735 225.312 199.171 224.878 199.552C224.444 199.932 224.083 200.226 223.795 200.431C223.507 200.636 223.094 200.909 222.556 201.248C222.018 201.588 221.417 201.933 220.754 202.283C220.091 202.632 219.621 202.872 219.345 203.003C219.069 203.133 218.47 203.372 217.55 203.72M204.438 224.898L204.551 224.857C204.687 224.791 204.839 224.74 205.008 224.704L205.221 224.636C205.493 224.591 205.685 224.546 205.799 224.502C205.956 224.475 206.333 224.388 206.929 224.242C207.524 224.096 208.015 223.969 208.399 223.863C208.784 223.756 209.093 223.664 209.328 223.588C209.563 223.511 209.757 223.445 209.91 223.39C210.063 223.334 210.394 223.217 210.902 223.04C211.411 222.862 211.732 222.747 211.867 222.693C212.002 222.639 212.466 222.406 213.259 221.995C214.051 221.583 214.77 221.177 215.417 220.777C216.063 220.376 216.707 219.964 217.346 219.539C217.986 219.114 218.527 218.745 218.971 218.431C219.416 218.116 219.8 217.844 220.124 217.617C220.449 217.388 220.984 216.989 221.729 216.419C222.474 215.849 223.233 215.286 224.007 214.732C224.781 214.178 225.672 213.555 226.679 212.862C227.686 212.17 228.462 211.632 229.007 211.249C229.551 210.866 230.18 210.427 230.894 209.933C231.607 209.438 232.162 209.05 232.558 208.768C232.954 208.487 233.353 208.205 233.754 207.924C234.155 207.642 235.081 206.964 236.531 205.89L236.411 206.261C236.367 206.48 236.229 206.968 235.997 207.725C235.765 208.482 235.537 209.317 235.313 210.23C235.089 211.143 234.826 212.032 234.524 212.897C234.223 213.761 233.923 214.511 233.625 215.145C233.327 215.779 233.073 216.269 232.863 216.615C232.653 216.961 232.307 217.474 231.827 218.154C231.346 218.834 230.816 219.538 230.236 220.265C229.655 220.991 229.015 221.694 228.314 222.373C227.614 223.052 226.964 223.643 226.365 224.147C225.766 224.651 225.125 225.162 224.442 225.682C223.759 226.201 222.959 226.753 222.042 227.337C221.125 227.921 220.406 228.363 219.885 228.663C219.365 228.963 218.638 229.294 217.704 229.658C216.772 230.021 216.074 230.265 215.612 230.39C215.149 230.514 214.561 230.64 213.847 230.768C213.133 230.896 212.572 230.987 212.166 231.04C211.759 231.093 211.417 231.127 211.139 231.141C210.861 231.155 210.559 231.173 210.233 231.194C209.907 231.216 209.378 231.192 208.647 231.123C207.917 231.054 207.023 230.942 205.966 230.789C204.909 230.635 203.902 230.458 202.945 230.258L200.448 229.487M106.893 242.849L106.725 242.801C106.426 242.689 106.193 242.594 106.027 242.516C105.861 242.437 105.478 242.26 104.879 241.985C104.28 241.709 103.925 241.541 103.816 241.481C103.706 241.421 103.567 241.348 103.398 241.262C103.229 241.177 102.983 241.045 102.66 240.865C102.337 240.685 102.068 240.525 101.853 240.387C101.639 240.247 100.901 239.731 99.6403 238.839C98.3789 237.947 97.0959 236.965 95.7915 235.893C94.4866 234.821 93.2763 233.738 92.1606 232.644C91.0452 231.55 90.1322 230.617 89.4215 229.847C88.7109 229.076 88.1022 228.402 87.5955 227.825C87.0891 227.248 86.7081 226.805 86.4527 226.495C86.1972 226.186 85.9541 225.88 85.7232 225.578C85.4924 225.277 84.9824 224.629 84.1933 223.636C83.404 222.644 82.7217 221.762 82.1464 220.993C81.571 220.223 80.9703 219.356 80.3441 218.391C79.7179 217.427 78.862 216.012 77.7764 214.148C76.6907 212.283 75.8995 210.658 75.4025 209.271C74.9052 207.886 74.517 206.677 74.2379 205.645C73.9588 204.613 73.7457 203.784 73.5987 203.158C73.4514 202.531 73.3497 202.081 73.2937 201.806C73.2377 201.531 73.1557 201.054 73.0479 200.374C72.9404 199.694 72.8115 198.815 72.6609 197.737C72.51 196.66 72.3789 195.636 72.2675 194.666C72.1558 193.695 72.0647 192.891 71.9941 192.252C71.9235 191.614 71.8362 190.68 71.7323 189.451C71.6287 188.222 71.5603 187.063 71.5269 185.974C71.4932 184.884 71.4734 183.829 71.4676 182.809C71.4615 181.789 71.4565 181.015 71.4526 180.486C71.449 179.957 71.4424 179.549 71.4326 179.261C71.4229 178.972 71.4192 178.627 71.4215 178.224M71.4215 178.224C71.7821 177.691 72.7974 175.663 73.0056 174.405C73.2138 173.148 73.3844 172.127 73.5175 171.341C73.6502 170.554 73.7375 169.966 73.7793 169.576C73.8207 169.186 73.8979 168.079 74.0109 166.255C74.1236 164.431 74.1713 162.969 74.1542 161.869C74.1367 160.769 74.0853 159.851 73.9998 159.114C73.9143 158.378 73.8364 157.801 73.7661 157.384C73.6962 156.968 73.5585 156.284 73.3529 155.331C73.1476 154.378 72.8468 153.362 72.4505 152.281C72.0542 151.201 71.6265 150.203 71.1674 149.288C70.7083 148.373 70.2888 147.618 69.909 147.022C69.5289 146.427 69.2489 146.009 69.0688 145.769C68.8888 145.529 68.7154 145.296 68.5487 145.071C68.3823 144.846 67.9471 144.335 67.2432 143.538C66.539 142.742 65.8686 142.022 65.2321 141.377C64.5958 140.733 63.9936 140.113 63.4254 139.517C62.8575 138.92 62.4222 138.411 62.1195 137.988C61.8168 137.565 61.4637 136.978 61.0603 136.228C61.0198 136.067 60.7059 135.606 60.3342 134.902C60.3206 135.198 60.3028 135.443 60.2808 135.638C60.2588 135.833 60.225 136.142 60.1793 136.566C60.1334 136.99 60.0777 137.471 60.0123 138.011C59.9469 138.551 59.856 139.191 59.7398 139.93C59.6236 140.67 59.4533 141.709 59.2289 143.045C59.0045 144.383 58.834 145.419 58.7175 146.155C58.6006 146.89 58.4172 148.493 58.1672 150.963C57.9169 153.432 57.8443 155.306 57.9492 156.584C58.0541 157.862 58.2313 158.958 58.4809 159.871C58.7306 160.783 58.9871 161.531 59.2507 162.114C59.5142 162.697 59.8373 163.304 60.2196 163.937C60.602 164.569 61.0583 165.208 61.5887 165.854C62.119 166.501 62.7726 167.263 63.5493 168.141C64.326 169.02 64.8785 169.649 65.2068 170.03C65.5351 170.411 65.8445 170.765 66.135 171.093C66.4257 171.421 66.6451 171.672 66.793 171.846C66.941 172.02 67.4111 172.583 68.2034 173.533C68.996 174.484 69.6985 175.309 70.3111 176.01C70.8842 176.665 70.9674 177.222 71.4215 178.224ZM72.548 196.913C72.6891 196.741 73.4396 196.005 73.674 195.759C73.9084 195.513 74.2608 195.174 74.7313 194.743C75.2014 194.312 75.5934 193.955 75.9071 193.672C76.2208 193.389 76.5052 193.121 76.7603 192.868C77.0158 192.616 77.3322 192.306 77.7094 191.939C78.0869 191.572 78.5553 191.063 79.1144 190.41C79.6736 189.759 80.3403 188.83 81.1148 187.624C81.8893 186.418 82.4882 185.39 82.9117 184.541C83.3352 183.691 83.7891 182.545 84.2735 181.104C84.7579 179.663 85.0974 178.541 85.292 177.739C85.4869 176.937 85.6642 176.025 85.8238 175.004C85.9834 173.982 86.0923 173.249 86.1506 172.805C86.2089 172.361 86.2758 171.832 86.3512 171.217C86.4266 170.602 86.4927 169.96 86.5493 169.29C86.606 168.621 86.6281 166.516 86.6158 162.976L86.6232 161.54C86.0253 162.743 85.504 163.538 85.2812 163.733C85.0585 163.928 84.8444 164.107 84.6392 164.271C84.4339 164.435 84.1516 164.653 83.7926 164.923C83.4338 165.194 83.0573 165.472 82.663 165.757C82.2683 166.042 81.9209 166.285 81.6207 166.488C81.3206 166.691 80.9699 166.954 80.5688 167.277C80.168 167.601 79.6374 168.056 78.9772 168.643C78.3171 169.231 77.8769 169.634 77.6567 169.854C77.4362 170.073 77.2731 170.233 77.1673 170.333C77.0614 170.432 76.9694 170.525 76.8914 170.61C76.8137 170.695 76.5456 170.997 76.0871 171.514C75.6286 172.032 75.2929 172.431 75.0799 172.713C74.8668 172.994 74.608 173.355 74.3033 173.796C73.999 174.238 72.6746 175.657 72.606 175.774M73.7221 203.668C73.1432 203.654 71.7505 203.712 71.1898 203.626C70.6293 203.54 69.8107 203.368 68.7338 203.11C67.6566 202.852 66.7342 202.583 65.9665 202.305C65.1985 202.026 64.154 201.406 62.833 200.446C61.5117 199.485 60.539 198.673 59.9151 198.01C59.2912 197.347 58.7848 196.782 58.396 196.314C58.0071 195.846 57.6318 195.354 57.2698 194.836C56.9078 194.319 56.4907 193.642 56.0187 192.806C55.5469 191.969 55.0818 190.98 54.6233 189.837C54.1652 188.694 53.8348 187.814 53.6321 187.197C53.4297 186.58 53.2249 185.966 53.0173 185.354C52.8098 184.743 52.4904 183.561 52.0592 181.811C51.6276 180.061 51.3118 178.653 51.112 177.588C50.9123 176.523 50.7603 175.173 50.656 173.538C50.5517 171.902 50.5184 170.309 50.5559 168.759C50.5576 168.678 50.5559 167.795 50.7303 167.242C53.2301 168.775 54.801 169.723 55.4437 170.086C56.0867 170.449 56.5111 170.7 56.717 170.838C57.3328 171.143 58.0285 171.529 58.8039 171.997C59.579 172.464 60.362 172.993 61.153 173.582C61.9437 174.171 62.9355 175.015 64.1286 176.114C65.3221 177.214 66.0354 177.894 66.2685 178.157C66.5016 178.419 66.6741 178.626 66.7858 178.778C66.8975 178.929 67.0607 179.151 67.2757 179.444C67.4904 179.737 67.7125 180.064 67.9421 180.425C68.1713 180.786 68.466 181.31 68.826 181.995C69.1857 182.68 69.5921 183.626 70.045 184.831C70.4983 186.037 70.7971 186.94 70.9415 187.541C71.0863 188.142 71.2229 188.814 71.3514 189.556C71.4796 190.298 71.5734 190.745 71.6327 190.895M86.8163 226.927C86.7121 226.876 86.4894 226.601 86.0529 226.235C85.6165 225.868 85.2279 225.561 84.8869 225.312C84.5463 225.064 84.25 224.859 83.9981 224.698C83.7459 224.537 83.4199 224.324 83.02 224.06C82.6199 223.796 81.8224 223.249 80.6277 222.42C79.4326 221.591 78.3146 220.775 77.2737 219.971C76.2328 219.166 75.2942 218.414 74.4582 217.717C73.6226 217.019 72.8536 216.386 72.1514 215.819C71.4494 215.251 70.7459 214.686 70.0407 214.125C69.3355 213.564 68.5737 212.945 67.7552 212.268C66.937 211.591 66.2337 210.978 65.6455 210.431C65.0575 209.884 64.3807 209.197 63.6149 208.37C62.8489 207.544 62.2573 206.893 61.8403 206.418C61.423 205.943 60.9711 205.469 60.4848 204.994C59.9988 204.519 59.6313 204.167 59.3824 203.938C59.1334 203.71 58.3605 202.672 57.4863 201.667C57.4921 201.985 57.5122 202.316 57.5466 202.661C57.5809 203.006 57.6194 203.342 57.6622 203.668C57.7049 203.995 57.7647 204.438 57.8414 204.998C57.9185 205.557 57.9994 206.099 58.0843 206.625C58.1691 207.15 58.3198 207.822 58.5364 208.64C58.7527 209.459 58.9979 210.237 59.2721 210.973C59.5463 211.71 59.7887 212.312 59.9992 212.779C60.2096 213.246 60.5836 213.963 61.1211 214.929C61.6582 215.895 62.1926 216.789 62.7243 217.61C63.2552 218.431 63.6607 219.032 63.9408 219.413C64.2208 219.794 64.5876 220.266 65.0409 220.827C65.4938 221.389 65.8603 221.815 66.1404 222.107C66.4201 222.398 66.6866 222.662 66.9398 222.9C67.1929 223.138 67.808 223.618 68.7848 224.339C69.7613 225.059 70.5137 225.57 71.0421 225.872C71.5705 226.174 72.2649 226.498 73.1252 226.845C73.9854 227.191 74.8224 227.466 75.636 227.67C76.4496 227.874 77.3535 228.024 78.3475 228.122C79.3414 228.22 80.203 228.269 80.9321 228.271C81.6613 228.273 82.2235 228.269 82.6188 228.261C83.0138 228.252 83.5139 228.205 84.1191 228.119C84.7242 228.034 85.3854 227.973 87.1535 227.319M175.654 204.825L176.175 204.921C177.077 205.198 177.79 205.44 178.314 205.648C178.838 205.856 179.39 206.109 179.97 206.406C180.548 206.704 180.958 206.921 181.199 207.056C181.44 207.19 181.661 207.317 181.86 207.436C182.06 207.555 182.254 207.664 182.443 207.763C182.632 207.862 182.81 207.957 182.975 208.049C183.14 208.14 183.391 208.277 183.728 208.46M183.728 208.46C184.064 208.644 184.627 208.94 185.416 209.349C186.205 209.759 186.753 210.033 187.062 210.171C187.37 210.309 187.85 210.506 188.502 210.761C189.153 211.015 189.698 211.221 190.139 211.378C190.579 211.535 191.023 211.692 191.469 211.849C191.915 212.006 192.609 212.292 193.551 212.707C193.681 212.77 194.386 213.108 195.666 213.722C196.946 214.337 197.933 214.824 198.625 215.182C199.318 215.54 200.102 215.961 200.979 216.445L201.693 216.872M183.728 208.46C182.698 209.112 180.96 210.324 180.52 210.589C180.081 210.854 179.639 211.126 179.194 211.406C178.748 211.686 178.367 211.916 178.051 212.097C177.735 212.277 177.211 212.572 176.48 212.982C175.749 213.392 175.053 213.772 174.391 214.124C173.73 214.476 173.266 214.717 172.999 214.846C172.733 214.975 172.341 215.167 171.825 215.422C171.308 215.676 170.9 215.867 170.601 215.994C170.302 216.121 170.083 216.224 169.943 216.303C167.665 217.343 165.81 218.168 164.379 218.777C162.948 219.386 162.118 219.739 161.888 219.836C161.657 219.933 161.381 220.051 161.059 220.191C160.736 220.33 160.302 220.51 159.756 220.732C159.21 220.954 158.518 221.216 157.679 221.518C156.84 221.82 156.309 222.01 156.087 222.086C155.865 222.163 155.586 222.245 155.251 222.332C154.916 222.42 154.479 222.518 153.939 222.627C153.399 222.736 152.828 222.819 152.226 222.875C151.624 222.932 151.111 222.976 150.689 223.009C150.266 223.041 149.854 223.07 149.453 223.094C149.051 223.119 148.554 223.139 147.961 223.155C147.368 223.172 146.902 223.176 146.561 223.167C146.22 223.158 146.008 223.149 145.923 223.139C145.839 223.129 145.609 223.118 145.234 223.106C144.859 223.094 144.383 223.075 143.806 223.051C143.229 223.028 142.779 222.998 142.457 222.962C142.134 222.925 141.74 222.889 141.275 222.854C140.81 222.82 140.154 222.749 139.307 222.643C138.459 222.536 137.717 222.427 137.081 222.315C136.444 222.203 135.93 222.111 135.539 222.039C135.147 221.968 134.714 221.881 134.239 221.78C133.764 221.678 133.053 221.513 132.108 221.285C131.162 221.056 129.909 220.716 128.348 220.266C126.786 219.815 125.979 219.577 125.925 219.552C125.871 219.526 125.796 219.498 125.7 219.466C125.604 219.434 125.303 219.334 124.797 219.166C124.29 218.998 123.956 218.891 123.794 218.845C123.632 218.799 123.381 218.715 123.04 218.592C122.699 218.468 122.178 218.275 121.476 218.011C120.773 217.748 119.985 217.389 119.11 216.936C118.235 216.481 117.34 215.952 116.426 215.347C115.511 214.742 114.846 214.269 114.428 213.928C114.011 213.587 113.65 213.271 113.347 212.981C113.044 212.691 112.619 212.249 112.074 211.656C111.529 211.062 111.191 210.665 111.062 210.465C110.96 210.361 110.834 210.189 110.683 209.951L110.02 208.786M201.693 216.872C199.946 218.328 198.996 219.118 198.841 219.244C198.685 219.371 198.501 219.527 198.289 219.712C198.076 219.898 197.579 220.336 196.797 221.025C196.015 221.714 195.514 222.163 195.296 222.372C195.077 222.58 194.859 222.794 194.643 223.014C194.428 223.233 194.092 223.565 193.637 224.01C193.182 224.455 192.832 224.793 192.588 225.023C192.344 225.253 192.029 225.542 191.642 225.89C191.255 226.238 190.929 226.525 190.663 226.752C190.398 226.979 190.05 227.286 189.619 227.672C189.188 228.057 188.748 228.454 188.297 228.862C187.847 229.27 187.282 229.777 186.602 230.383C185.922 230.989 185.55 231.315 185.486 231.361C185.422 231.408 185.19 231.587 184.791 231.899L184.664 232.024C184.209 232.386 183.863 232.661 183.626 232.848C183.389 233.035 183.18 233.195 182.999 233.329C182.817 233.462 182.552 233.647 182.204 233.883C181.855 234.12 181.536 234.323 181.247 234.494C180.957 234.665 180.72 234.807 180.536 234.92C180.352 235.033 180.006 235.229 179.498 235.508C178.99 235.787 178.351 236.136 177.581 236.555C176.811 236.975 176.289 237.262 176.016 237.416C175.744 237.571 175.469 237.722 175.193 237.869C174.917 238.015 174.49 238.237 173.913 238.534C173.336 238.832 172.693 239.14 171.985 239.457C171.278 239.774 170.817 239.974 170.603 240.057C170.39 240.139 170.198 240.216 170.027 240.288C169.856 240.358 169.486 240.497 168.915 240.705C168.346 240.912 167.797 241.1 167.269 241.269C166.74 241.437 166.357 241.556 166.117 241.628C165.877 241.701 165.248 241.869 164.231 242.132C163.213 242.396 162.47 242.569 162.002 242.653C161.533 242.737 161.267 242.787 161.205 242.803C161.143 242.819 160.784 242.88 160.128 242.987C159.473 243.094 158.725 243.207 157.886 243.328C157.047 243.448 156.004 243.575 154.758 243.71C153.511 243.844 151.972 243.975 150.14 244.102C148.309 244.228 147.366 244.29 147.311 244.286C143.297 244.13 141.217 244.048 141.074 244.038C140.931 244.029 140.565 243.984 139.975 243.906C139.386 243.827 138.754 243.73 138.08 243.614C137.405 243.499 137.018 243.431 136.919 243.409C136.819 243.387 136.561 243.335 136.144 243.251C135.727 243.167 135.358 243.087 135.035 243.009C134.712 242.932 134.464 242.873 134.288 242.832C134.113 242.791 133.712 242.687 133.084 242.519C132.457 242.351 132.042 242.237 131.842 242.177C131.642 242.117 131.236 241.999 130.623 241.823C130.011 241.647 129.396 241.463 128.779 241.271C128.161 241.078 126.572 240.547 124.011 239.678C121.45 238.809 120.109 238.349 119.989 238.298C119.869 238.247 119.556 238.124 119.05 237.929C118.545 237.734 117.854 237.473 116.978 237.145C116.102 236.818 114.939 236.375 113.487 235.817C112.036 235.259 111.083 234.883 110.628 234.689C110.174 234.496 109.886 234.362 109.765 234.288C106.076 232.165 103.795 230.757 102.921 230.065C102.048 229.373 101.112 228.591 100.114 227.718C99.1159 226.846 98.5369 226.349 98.3766 226.227C98.2164 226.105 98.0251 225.943 97.8026 225.739C97.5799 225.535 97.2951 225.265 96.9483 224.926C96.6016 224.588 96.1294 224.084 95.5317 223.415C94.9337 222.746 94.5217 222.256 94.2961 221.945C94.0704 221.633 93.8697 221.358 93.6938 221.119C93.518 220.881 93.2817 220.533 92.9848 220.075C92.6876 219.617 92.2944 218.976 91.8052 218.151C91.3159 217.326 90.8083 216.23 90.658 216.061M201.693 216.872L204.751 218.631M192.515 212.261L191.217 213.494C191.096 213.603 190.389 214.186 189.096 215.245C187.803 216.304 186.722 217.153 185.855 217.791C184.988 218.431 184.167 219.009 183.393 219.526C182.618 220.043 182.056 220.417 181.706 220.648C181.357 220.879 181.171 221 181.146 221.012C181.121 221.023 180.312 221.543 178.718 222.572C177.124 223.6 175.905 224.376 175.061 224.899C174.217 225.422 173.358 225.919 172.486 226.388C171.613 226.858 170.054 227.66 167.809 228.793C167.49 228.956 167.04 229.17 166.459 229.437C165.878 229.703 164.887 230.099 163.484 230.625C162.082 231.15 160.759 231.591 159.515 231.946C158.271 232.302 157.088 232.591 155.968 232.814C154.847 233.037 154.191 233.165 154.001 233.197C153.81 233.229 153.487 233.276 153.031 233.337C152.575 233.399 151.623 233.474 150.176 233.565C148.729 233.655 147.614 233.711 146.832 233.732C146.05 233.753 145.193 233.749 144.263 233.72C143.333 233.691 142.427 233.634 141.544 233.546C140.66 233.459 139.586 233.298 138.321 233.062C137.057 232.826 134.295 232.196 130.036 231.173C129.862 231.121 128.994 230.777 127.43 230.141C125.867 229.505 124.358 228.873 122.901 228.245C121.444 227.618 120.36 227.146 119.649 226.83C118.938 226.514 117.709 225.956 115.96 225.156C114.212 224.356 112.995 223.761 112.307 223.372C111.62 222.982 111 222.611 110.447 222.257C109.893 221.902 109.532 221.664 109.362 221.541C109.193 221.419 108.676 221.032 107.811 220.38C106.947 219.728 106.18 219.129 105.51 218.582C104.841 218.036 104.396 217.672 104.175 217.492C103.954 217.312 103.418 216.884 102.566 216.207L102.181 215.843C101.932 215.545 101.775 215.366 101.711 215.305C101.647 215.244 100.637 214.122 100.214 213.679M150.647 61.4386C150.856 61.39 151.03 61.3569 151.169 61.3388C151.309 61.3206 151.46 61.3114 151.623 61.311C151.785 61.311 151.921 61.3174 152.032 61.33C152.142 61.3426 152.286 61.3512 152.465 61.3561C152.643 61.3609 152.819 61.368 152.992 61.3774C153.166 61.3871 153.339 61.4031 153.511 61.4251C153.683 61.4474 153.835 61.4655 153.968 61.4794C154.1 61.4933 154.366 61.5457 154.764 61.6364C155.163 61.7267 155.573 61.8372 155.996 61.9677C156.419 62.0982 156.818 62.2304 157.193 62.3644C157.567 62.4984 158.02 62.6903 158.552 62.9399C159.083 63.1892 159.561 63.4438 159.987 63.7038C160.412 63.9641 160.744 64.1815 160.981 64.3557C161.218 64.5299 161.399 64.6683 161.525 64.7709C161.651 64.8735 161.794 64.9914 161.955 65.1245C162.117 65.2572 162.266 65.3866 162.402 65.5129C162.538 65.6398 162.648 65.7415 162.732 65.8179C162.814 65.8943 163.08 66.1782 163.528 66.6697C163.977 67.1608 164.302 67.5319 164.506 67.7828C164.709 68.0337 164.944 68.3373 165.212 68.6934C165.48 69.0499 165.706 69.3722 165.892 69.66C166.078 69.9478 166.32 70.3901 166.616 70.9868C166.913 71.5832 167.158 72.1357 167.353 72.6444C167.547 73.1527 167.708 73.6523 167.835 74.1431C167.962 74.6343 168.045 74.9883 168.085 75.2052C168.125 75.4222 168.169 75.7067 168.218 76.0589C168.267 76.4112 168.326 76.7728 168.395 77.1432M104.781 72.4164C104.881 72.4352 105.686 73.1487 105.93 73.2886C106.063 73.3388 106.32 73.41 106.699 73.5022C107.08 73.5939 107.549 73.7162 108.108 73.8693C108.667 74.0221 109.105 74.1422 109.424 74.2293C109.742 74.3164 110.572 74.4684 111.913 74.6853C113.254 74.9022 114.385 75.0826 115.308 75.2267C116.231 75.3711 117.069 75.5278 117.822 75.6965C118.574 75.8655 119.292 76.0496 119.975 76.249C120.659 76.4488 121.36 76.6507 122.078 76.8547C122.797 77.0586 124.012 77.4654 125.725 78.0748C127.437 78.6841 128.744 79.1848 129.644 79.5773C130.545 79.9697 131.161 80.2459 131.491 80.4058C131.822 80.5658 132.48 80.9192 133.467 81.4661C134.453 82.0129 135.29 82.4818 135.979 82.8725C136.667 83.2633 137.473 83.7164 138.398 84.2318C139.322 84.7476 140.143 85.2052 140.861 85.6044C141.58 86.0036 142.28 86.3751 142.962 86.7189C143.644 87.0628 144.321 87.3861 144.992 87.6888C145.663 87.9916 146.253 88.2687 146.761 88.5203C147.269 88.7721 147.853 89.091 148.515 89.4766C149.176 89.8626 149.671 90.1546 149.998 90.3531C150.326 90.5519 150.599 90.7145 150.816 90.8411C151.033 90.9681 151.306 91.1379 151.636 91.3503C151.966 91.5627 152.264 91.7613 152.53 91.9462C152.796 92.1311 153.119 92.3636 153.499 92.6436C153.879 92.9234 154.109 93.0948 154.19 93.1582C154.271 93.2223 154.339 93.2712 154.394 93.3045C154.448 93.3382 154.606 93.4503 154.867 93.641C155.127 93.8317 155.31 93.967 155.414 94.047C155.518 94.127 155.666 94.237 155.858 94.3769C156.05 94.5164 156.199 94.6291 156.307 94.7153C156.415 94.8011 157.011 95.3081 157.461 95.5626C157.347 95.3991 157.14 95.0319 156.84 94.4611C156.54 93.89 156.268 93.3541 156.025 92.8535C155.781 92.3527 155.622 92.0062 155.548 91.8139C155.472 91.6216 155.378 91.3276 155.263 90.9322C155.149 90.5372 154.995 90.0147 154.802 89.3645C154.608 88.7144 154.446 88.1631 154.316 87.7105C154.186 87.2585 154.08 86.8343 153.997 86.438C153.914 86.0417 153.829 85.6104 153.742 85.1442C153.655 84.6779 153.592 84.3274 153.556 84.0927C153.519 83.8583 153.486 83.6729 153.455 83.5366C153.424 83.4006 153.355 83.0222 153.248 82.4012C153.141 81.7798 153.048 81.3092 152.969 80.989C152.889 80.6681 152.805 80.3592 152.715 80.0623C152.625 79.7654 152.544 79.5249 152.471 79.3406C152.399 79.1561 152.332 79.011 152.269 78.9055C152.207 78.7996 152.107 78.6404 151.971 78.4277C151.85 78.3525 151.282 78.2385 150.266 78.0857C149.25 77.9326 148.292 77.8956 147.392 77.975C146.491 78.0536 145.679 78.1106 144.955 78.1459C144.232 78.1809 143.442 78.2014 142.587 78.2076C142.458 78.2005 141.942 78.1708 141.5 78.1187C141.309 77.8865 141.185 77.7594 141.014 77.4291C140.335 76.1168 139.989 75.4423 139.976 75.4053C139.964 75.3681 139.821 75.0859 139.547 74.5588C139.272 74.0317 138.937 73.45 138.541 72.8134C138.146 72.1762 137.817 71.6887 137.555 71.351C137.293 71.013 137.14 70.814 137.095 70.7541C137.051 70.6942 136.884 70.5441 136.596 70.3035C135.9 69.904 135.413 69.6523 135.136 69.5487C134.859 69.4448 134.49 69.3438 134.029 69.2457C133.568 69.1476 133.081 69.0743 132.569 69.0261C132.057 68.9778 131.441 68.9391 130.724 68.9096C130.006 68.8798 129.256 68.853 128.474 68.829C127.692 68.8047 126.879 68.7826 126.034 68.7628C125.188 68.7431 124.543 68.7275 124.096 68.7159C123.649 68.7046 123.389 68.6963 123.317 68.6915C123.244 68.6866 123.166 68.6834 123.084 68.6817C123.002 68.6798 122.724 68.6429 122.249 68.571C121.775 68.4991 121.356 68.4161 120.993 68.3215C120.63 68.2267 120.404 68.1675 120.315 68.1441C120.227 68.1208 120.101 68.0752 119.936 68.0068L119.613 67.8838L119.426 67.7526C119.113 67.4191 118.868 67.1637 118.691 66.986C118.515 66.8079 118.378 66.6648 118.28 66.557C118.182 66.4495 118.036 66.2597 117.84 65.9874C117.644 65.7151 117.462 65.4346 117.295 65.1458C117.127 64.857 116.925 64.5149 116.69 64.1199C116.454 63.7255 116.21 63.3328 115.955 62.9413C115.701 62.5499 115.555 62.3209 115.517 62.2546C115.479 62.1882 115.429 62.1171 115.368 62.0414C115.308 61.9659 115.235 61.8736 115.15 61.7642C115.065 61.655 114.924 61.5089 114.727 61.3259C114.53 61.1433 114.353 61.0214 114.196 60.9603C114.039 60.8994 113.934 60.8589 113.881 60.8388C113.656 60.8233 113.501 60.825 113.417 60.8438C113.333 60.8629 113.196 60.9171 113.006 61.0065C112.816 61.0962 112.527 61.3006 112.14 61.6202C111.753 61.9398 111.4 62.2911 111.083 62.6738C110.766 63.0562 110.377 63.5692 109.916 64.2129C109.455 64.8562 108.914 65.6387 108.295 66.5605C107.675 67.4823 107.27 68.0916 107.079 68.3889C106.887 68.6864 106.71 68.9731 106.547 69.249C106.384 69.5248 106.242 69.7588 106.121 69.9504C106.001 70.1424 105.897 70.3203 105.81 70.4845C105.607 70.8406 105.465 71.0813 105.382 71.2063L105.12 71.668C105.075 71.7192 104.993 71.8762 104.875 72.1388L104.781 72.4164Z" stroke="#333333" stroke-linecap="round" stroke-linejoin="round"/>
</svg>
