<svg width="102" height="475" viewBox="0 0 102 475" fill="none" xmlns="http://www.w3.org/2000/svg">
<path d="M83.7083 11.3884V20.1786L88.5032 22.5759C89.3023 22.9754 95.2956 27.7701 96.4943 29.3683C97.693 30.9665 100.49 35.7612 100.889 37.3594C101.289 38.9576 100.49 46.5491 100.49 48.1473C100.49 49.7455 97.2931 54.9397 96.0945 56.5379C94.8958 58.1361 90.5007 62.5312 88.5029 63.3303C86.5052 64.1294 81.7108 65.3281 78.5141 64.9286C76.6111 64.6907 71.3221 62.2649 68.9248 60.933H33.7641C34.2969 60.1339 35.0427 58.9353 33.7641 60.5335C32.1659 62.5312 26.5724 64.529 21.7778 64.9286C16.9832 65.3281 8.59253 61.7321 4.19744 54.5402C-0.197647 47.3482 0.201904 38.558 3.79761 31.3661C5.92256 27.1158 13.7867 21.7768 19.3802 20.1786V11.3884L12.9873 10.9888V1.79911L88.1034 1V10.9888L83.7083 11.3884Z" fill="#CCB8E5"/>
<rect width="53.5402" height="362.795" transform="matrix(-1 0 0 1 77.7168 61.3328)" fill="#CCB8E5"/>
<path d="M98.0928 459.687V473.272H5.79591V459.687L12.5883 453.694L19.3807 424.127H83.3093L90.1017 453.694L98.0928 459.687Z" fill="#CCB8E5"/>
<path d="M23.9499 64.7258V423.872V64.7258Z" fill="#CCB8E5"/>
<path d="M37.1276 61.2412V423.927V61.2412Z" fill="#CCB8E5"/>
<path d="M50.8706 61.2412V423.957V61.2412Z" fill="#CCB8E5"/>
<path d="M65.0374 61.2412V423.968V61.2412Z" fill="#CCB8E5"/>
<path d="M77.9754 64.9753V424.05V64.9753Z" fill="#CCB8E5"/>
<path d="M83.2712 424.067H19.3019H83.2712Z" fill="#CCB8E5"/>
<path d="M19.3019 424.067L12.4828 453.887L19.3019 424.067Z" fill="#CCB8E5"/>
<path d="M83.2712 424.067L90.2616 453.887L83.2712 424.067Z" fill="#CCB8E5"/>
<path d="M90.2616 453.887H12.4828H90.2616Z" fill="#CCB8E5"/>
<path d="M98.1658 460.023V473.672V460.023Z" fill="#CCB8E5"/>
<path d="M98.1658 473.672H5.37855H98.1658Z" fill="#CCB8E5"/>
<path d="M5.37855 473.672L5.60949 460.199L5.37855 473.672Z" fill="#CCB8E5"/>
<path d="M5.70331 460.067L98.1658 460.023L5.70331 460.067Z" fill="#CCB8E5"/>
<path d="M90.2616 453.887L98.1658 460.023L90.2616 453.887Z" fill="#CCB8E5"/>
<path d="M12.4828 453.887L5.70331 460.067L12.4828 453.887Z" fill="#CCB8E5"/>
<path d="M12.8907 1.80621V11.2777V1.80621Z" fill="#CCB8E5"/>
<path d="M12.8907 1.80621L88.359 1.39978L12.8907 1.80621Z" fill="#CCB8E5"/>
<path d="M88.3559 1.39978V11.2777V1.39978Z" fill="#CCB8E5"/>
<path d="M88.3559 11.2777H12.8907H88.3559Z" fill="#CCB8E5"/>
<path d="M22.8103 45.374C22.7219 45.4071 22.6116 45.4606 22.4792 45.534C22.3952 45.5354 22.2786 45.5749 22.1295 45.6531L21.797 45.7561L21.446 45.8702C20.7602 45.8609 20.3548 45.8329 20.2296 45.7854C20.1041 45.7382 20.0064 45.6951 19.9368 45.6562C19.8671 45.6179 19.7755 45.5658 19.6617 45.5007C19.5475 45.4353 19.4488 45.3617 19.3658 45.2797C19.283 45.1977 19.2046 45.0987 19.1305 44.9829C19.0567 44.8668 18.9824 44.6974 18.9077 44.4742C18.8327 44.2512 18.8199 43.8286 18.8692 43.2064C18.9185 42.5848 18.9908 42.1355 19.0861 41.8588C19.1817 41.5818 19.3619 41.2376 19.6266 40.8262L20.0525 40.3619C20.1915 40.2068 20.6081 39.9209 21.3022 39.5044C21.5568 39.4034 21.6955 39.3457 21.7185 39.3313C21.7418 39.3165 21.8958 39.275 22.1802 39.2071C22.4647 39.1389 22.8872 39.1042 23.4481 39.1031C24.0089 39.1025 24.4228 39.132 24.6896 39.192C24.9565 39.2519 25.2484 39.3528 25.5655 39.4948C25.8822 39.6361 26.2121 39.8196 26.5551 40.0449C26.8982 40.2706 27.2128 40.5057 27.4991 40.75C27.7853 40.9943 28.0202 41.2279 28.2033 41.4515C28.3862 41.6748 28.5249 41.8504 28.6196 41.9779C28.714 42.1051 28.8836 42.413 29.128 42.9015C29.3721 43.3901 29.5375 43.7687 29.6241 44.0381C29.7111 44.3068 29.7654 44.5026 29.7872 44.6246C29.8093 44.7465 29.8354 44.9095 29.8653 45.1141C29.8952 45.3188 29.9131 45.5155 29.9194 45.7036C29.9256 45.8921 29.9266 46.1318 29.9218 46.4233C29.917 46.7151 29.9091 46.9405 29.8984 47.0986C29.8876 47.2571 29.7449 47.6878 29.4703 48.3906C29.1957 49.0935 28.9088 49.663 28.6097 50.0995C28.3106 50.5368 28.0965 50.8228 27.9674 50.9575C27.838 51.0929 27.5515 51.3632 27.1077 51.7691C26.664 52.1746 26.2433 52.5028 25.8456 52.7533C25.4482 53.0034 25.0541 53.2055 24.6629 53.3599C24.2718 53.5143 23.9808 53.6208 23.7901 53.6794C23.5995 53.738 23.2387 53.7947 22.7077 53.8495C22.1767 53.9046 21.7615 53.9252 21.4617 53.911C21.162 53.8966 20.9044 53.8784 20.689 53.857C20.4735 53.8353 20.3002 53.8103 20.169 53.7813C20.0378 53.7524 19.8172 53.7029 19.5074 53.6329C19.1972 53.563 18.8248 53.4462 18.3897 53.2822C17.9546 53.1182 17.4598 52.8758 16.9052 52.5554C16.3506 52.235 15.6085 51.6495 14.6792 50.7996C13.7499 49.9492 13.1864 49.3966 12.9886 49.1416C12.7908 48.886 12.6142 48.633 12.4585 48.3826C12.3028 48.1314 12.1825 47.9365 12.0976 47.7976C12.0122 47.6588 11.8877 47.4288 11.7243 47.1077C11.5608 46.7866 11.3659 46.2961 11.1397 45.636C10.9138 44.9755 10.7501 43.969 10.6482 42.6174C10.546 41.2654 10.5786 40.1461 10.7462 39.2596C10.9135 38.3724 11.0815 37.6912 11.25 37.2151C11.4185 36.7393 11.5656 36.3764 11.6914 36.1269C11.8172 35.8775 11.9504 35.6343 12.0908 35.3976C12.2316 35.1609 12.3228 35.0139 12.3646 34.956C12.4068 34.8981 12.6026 34.6391 12.9523 34.1788C13.3019 33.7188 13.5083 33.4542 13.5714 33.3849C13.6344 33.3163 13.7576 33.1809 13.941 32.9786C14.1242 32.7764 14.4456 32.4755 14.9049 32.0762C15.3641 31.6769 15.8552 31.3126 16.3784 30.9835C16.9019 30.6548 17.637 30.2971 18.5836 29.9106C19.5302 29.524 20.2536 29.2765 20.7535 29.1676C21.2534 29.0588 21.9225 28.9681 22.7606 28.8961C23.5985 28.8244 24.345 28.8074 25 28.8446C25.6552 28.8825 26.1602 28.9347 26.5149 29.0016C26.8696 29.0684 27.1918 29.1414 27.482 29.2206C27.7721 29.2995 28.0798 29.3868 28.4049 29.4826C28.73 29.5777 28.9266 29.636 28.9947 29.6567C29.0628 29.6777 29.6173 29.9249 30.6578 30.3986C31.6982 30.8723 32.4193 31.2469 32.8212 31.5226C33.2234 31.7985 33.5787 32.0579 33.8874 32.3008C34.1961 32.5434 34.7122 33.0597 35.4356 33.8497C36.1587 34.6398 36.6768 35.2575 36.9897 35.703C37.3025 36.1485 37.5569 36.5311 37.7532 36.8502C37.9496 37.1699 38.2313 37.7346 38.5982 38.5449C38.9655 39.3546 39.2242 39.9823 39.3745 40.4275C39.5251 40.8723 39.6779 41.3915 39.833 41.9855C39.9878 42.5795 40.1053 43.1707 40.1854 43.7595C40.2649 44.3483 40.3142 44.9201 40.3333 45.4745C40.3524 46.0285 40.3483 46.6051 40.3211 47.2046C40.2942 47.8037 40.2287 48.416 40.1248 49.0407C40.0205 49.6653 39.9428 50.0832 39.8917 50.2944C39.8406 50.5052 39.7623 50.7861 39.6568 51.1372C39.5511 51.4883 39.4224 51.8867 39.2706 52.3318C39.1182 52.777 38.8015 53.4612 38.3207 54.3849C37.8403 55.3087 37.4425 56.0035 37.1276 56.4694C36.8129 56.9355 36.5774 57.2754 36.4209 57.4894C36.2646 57.7033 35.8007 58.219 35.0292 59.0363C34.2579 59.8535 33.6359 60.4593 33.1632 60.8542C32.6908 61.2487 32.3502 61.5254 32.1416 61.6839C31.9333 61.8424 31.6558 62.0298 31.3089 62.2462C30.9622 62.4625 30.5244 62.7055 29.9949 62.9749C29.9181 63.0094 29.3029 63.2366 28.1495 63.6573C26.9961 64.0783 26.0084 64.365 25.1864 64.5173C24.3647 64.6692 23.7319 64.7663 23.2885 64.808C22.8451 64.8497 22.3172 64.8834 21.7047 64.9089C21.0918 64.9348 20.4442 64.925 19.7617 64.8802C19.0795 64.8354 18.6699 64.8 18.533 64.7742C18.3965 64.7483 18.1264 64.7027 17.7231 64.6369C17.3197 64.5708 16.9954 64.5081 16.75 64.4492C16.505 64.3906 16.3151 64.3396 16.1804 64.2962C16.0456 64.2528 15.6504 64.1214 14.9948 63.9016C14.3398 63.6817 13.6473 63.38 12.917 62.9961C12.187 62.6123 11.6321 62.2935 11.2526 62.0402C10.8731 61.7866 10.4271 61.4497 9.91434 61.0293C9.40189 60.609 9.1058 60.3572 9.02602 60.2738C8.94593 60.1901 8.44427 59.6464 7.52096 58.6421C6.59734 57.6381 5.84501 56.7235 5.26413 55.899C4.68354 55.0742 4.16048 54.2227 3.69495 53.3438C3.2297 52.4655 2.85319 51.6676 2.56544 50.951C2.27768 50.2343 2.04146 49.556 1.85679 48.9155C1.67242 48.2757 1.56977 47.9093 1.54885 47.8163C1.52794 47.7233 1.46057 47.3967 1.34642 46.8372C1.23198 46.278 1.13657 45.2116 1.06038 43.6374C0.983887 42.0639 0.98291 40.8869 1.05731 40.1065C1.13142 39.3268 1.21134 38.6895 1.29739 38.1947C1.38316 37.6999 1.46302 37.3133 1.53683 37.0349C1.61063 36.7558 1.79877 36.1961 2.10147 35.3558C2.40416 34.5151 2.70568 33.7823 3.00599 33.1573C3.30599 32.5319 3.63206 31.9303 3.98405 31.3525C4.33635 30.7743 4.69432 30.2426 5.05798 29.7571C5.42133 29.272 5.66327 28.9517 5.78369 28.7957C5.90382 28.6399 6.24067 28.2719 6.79436 27.6924C7.34805 27.1125 7.71243 26.7453 7.88753 26.5906C8.06263 26.4359 8.28743 26.2351 8.56204 25.988C8.83665 25.741 9.49761 25.2425 10.5446 24.4921C11.5914 23.742 12.3415 23.2414 12.7951 22.9906C13.2487 22.7398 13.5831 22.558 13.7986 22.445C14.014 22.3317 14.5185 22.1022 15.3122 21.7566C16.1061 21.4114 16.9291 21.0903 17.7811 20.7937C18.6329 20.497 19.3065 20.281 19.802 20.1456C20.2971 20.0109 20.776 19.8955 21.2385 19.7994C21.7014 19.704 22.0566 19.6316 22.3043 19.5824C22.552 19.5338 23.192 19.4528 24.2241 19.3401C25.2562 19.2268 25.7861 19.1688 25.8139 19.166C25.8417 19.1629 26.1791 19.1507 26.8263 19.1287C27.4735 19.107 28.8665 19.0981 31.0051 19.1029C33.1437 19.107 34.3389 19.1164 34.5908 19.1302C34.8424 19.1443 34.9888 19.1541 35.03 19.1599C35.071 19.1658 35.4151 19.1828 36.0626 19.2114C36.7104 19.2404 37.4348 19.263 38.2356 19.2786C39.0367 19.2937 39.5315 19.3079 39.7201 19.3209C39.9083 19.3344 40.1645 19.3385 40.4887 19.3341C40.8129 19.3296 41.339 19.3383 42.0669 19.3603C42.7948 19.382 44.8477 19.3914 48.2254 19.3876L51.3594 19.3573" fill="#CCB8E5"/>
<path d="M79.0828 45.3784C79.1712 45.4118 79.2815 45.465 79.4139 45.5384C79.4979 45.5398 79.6143 45.5796 79.7634 45.6575L80.0961 45.7604L80.4471 45.8745C81.1329 45.8655 81.5383 45.8373 81.6635 45.7897C81.7887 45.7422 81.886 45.6991 81.9557 45.6605C82.0253 45.6223 82.1173 45.5705 82.2314 45.5051C82.3456 45.4399 82.4439 45.366 82.5267 45.284C82.6097 45.2017 82.6883 45.103 82.7621 44.9872C82.836 44.8711 82.9102 44.7014 82.9852 44.4785C83.0602 44.2556 83.0732 43.8329 83.0239 43.2107C82.9746 42.5888 82.902 42.1398 82.8064 41.8632C82.711 41.5865 82.5308 41.2423 82.2658 40.8305L81.8406 40.3662C81.7013 40.2112 81.2846 39.9253 80.5905 39.5087C80.3359 39.4078 80.197 39.3501 80.174 39.3356C80.151 39.3208 79.9973 39.2793 79.7129 39.2115C79.4281 39.1429 79.0054 39.1085 78.4448 39.1075C77.8839 39.1068 77.4699 39.1364 77.2028 39.1963C76.936 39.2566 76.6441 39.3575 76.3274 39.4991C76.0104 39.6404 75.6803 39.8236 75.3373 40.0493C74.9943 40.2749 74.6798 40.51 74.3938 40.7543C74.1076 40.9986 73.8729 41.2326 73.6898 41.4559C73.5066 41.6795 73.3677 41.8548 73.2733 41.9823C73.1789 42.1094 73.0095 42.4173 72.7651 42.9059C72.521 43.3944 72.3556 43.7734 72.269 44.0424C72.182 44.3115 72.1274 44.5069 72.1053 44.6289C72.0835 44.7509 72.0577 44.9142 72.0278 45.1185C71.9979 45.3235 71.9798 45.5198 71.9735 45.708C71.9672 45.8964 71.9665 46.1365 71.9713 46.4277C71.9761 46.7195 71.9838 46.9444 71.9945 47.1029C72.005 47.2614 72.1476 47.6921 72.4222 48.395C72.6971 49.0975 72.9839 49.667 73.2827 50.1039C73.5818 50.5408 73.7961 50.8268 73.9255 50.9619C74.0549 51.0969 74.3414 51.3676 74.7851 51.7734C75.2289 52.1793 75.6494 52.5071 76.0468 52.7576C76.4445 53.0077 76.839 53.2102 77.2302 53.3642C77.6213 53.5189 77.9122 53.6256 78.1025 53.6842C78.2932 53.7424 78.6541 53.7987 79.1854 53.8538C79.7164 53.9089 80.1316 53.9295 80.4314 53.9154C80.7308 53.9009 80.9884 53.8831 81.2041 53.8614C81.4196 53.84 81.5926 53.8146 81.7235 53.7857C81.8546 53.7567 82.0753 53.7072 82.3855 53.6373C82.6957 53.5673 83.0683 53.4505 83.5034 53.2865C83.9385 53.1222 84.4333 52.8798 84.9879 52.5597C85.5425 52.2393 86.2843 51.6542 87.2136 50.8039C88.1429 49.9536 88.7065 49.4009 88.9043 49.146C89.1018 48.8907 89.2785 48.6377 89.4341 48.3869C89.5898 48.1361 89.7103 47.9408 89.7955 47.8019C89.8806 47.6628 90.0051 47.4328 90.1688 47.112C90.3323 46.7909 90.5268 46.3005 90.7527 45.6403C90.9789 44.9798 91.143 43.9737 91.2449 42.6217C91.3468 41.2697 91.314 40.1505 91.1467 39.2639C90.9793 38.3771 90.8116 37.6956 90.6431 37.2194C90.4743 36.7433 90.3268 36.3804 90.201 36.1313C90.0752 35.8818 89.942 35.639 89.8016 35.402C89.6612 35.1656 89.5699 35.0183 89.5278 34.9604C89.4857 34.9025 89.2899 34.6434 88.9406 34.1831C88.591 33.7228 88.3848 33.4582 88.3217 33.3892C88.2587 33.3207 88.1353 33.1852 87.9518 32.983C87.7687 32.7807 87.4474 32.4799 86.9878 32.0806C86.5288 31.6812 86.0375 31.3173 85.514 30.9879C84.9905 30.6592 84.2555 30.3015 83.3088 29.9149C82.3625 29.5283 81.6395 29.2805 81.1396 29.172C80.6397 29.0628 79.9706 28.9725 79.1325 28.9004C78.2946 28.8288 77.548 28.8114 76.8927 28.849C76.2377 28.8865 75.7329 28.9393 75.3782 29.0064C75.0235 29.0733 74.701 29.1461 74.4109 29.225C74.1204 29.3042 73.8127 29.3915 73.4875 29.4869C73.1624 29.5823 72.966 29.6404 72.8982 29.661C72.83 29.682 72.2758 29.9292 71.2353 30.4029C70.1949 30.8767 69.4736 31.2518 69.0717 31.5274C68.6698 31.8034 68.3146 32.0626 68.0059 32.3052C67.6972 32.5481 67.1816 33.0649 66.4588 33.8556C65.736 34.646 65.2183 35.2642 64.9061 35.7104C64.5935 36.1565 64.3395 36.5395 64.1438 36.8596C63.9481 37.1796 63.6677 37.7459 63.3025 38.5584C62.9374 39.3705 62.6803 40.0001 62.5315 40.447C62.3824 40.8938 62.232 41.4161 62.0802 42.0135C61.9284 42.611 61.8146 43.2065 61.739 43.8002C61.6637 44.3938 61.6193 44.9707 61.6055 45.5313C61.5918 46.0919 61.6021 46.676 61.6368 47.2841C61.6715 47.8919 61.7459 48.5143 61.86 49.151C61.9745 49.7874 62.0592 50.2132 62.1141 50.4289C62.1694 50.6449 62.2535 50.9328 62.3665 51.2925C62.4797 51.6522 62.6178 52.0607 62.7803 52.5179C62.9429 52.9751 63.2774 53.6807 63.7842 54.6341C64.291 55.5881 64.7087 56.3061 65.0374 56.7881C65.3661 57.2701 65.6117 57.6216 65.7743 57.8424C65.9368 58.0636 66.4135 58.5941 67.2045 59.4338C67.9951 60.2734 68.6288 60.8927 69.1054 61.2921C69.582 61.6914 69.9247 61.9705 70.1336 62.1294C70.3422 62.2882 70.6189 62.4746 70.9637 62.6886C71.3085 62.9025 71.743 63.141 72.2668 63.4042C72.3424 63.4377 72.9454 63.6515 74.076 64.0457C75.2067 64.4405 76.1725 64.7015 76.973 64.829C77.7735 64.9565 78.3893 65.0343 78.8208 65.0622C79.2526 65.0904 79.7673 65.1084 80.3646 65.1167C80.9622 65.1243 81.5946 65.0973 82.2618 65.0349C82.9291 64.9732 83.3297 64.9276 83.4636 64.8986C83.5977 64.87 83.8629 64.8186 84.2591 64.7442C84.6553 64.6698 84.9739 64.6012 85.2151 64.5378C85.4565 64.4747 85.6437 64.4202 85.7766 64.3748C85.9093 64.3289 86.2996 64.1917 86.9471 63.9629C87.5946 63.7341 88.2803 63.4243 89.0043 63.0333C89.7286 62.6429 90.2795 62.3197 90.6569 62.0637C91.0343 61.8081 91.4784 61.4685 91.989 61.0458C92.4994 60.623 92.7943 60.3699 92.8741 60.2862C92.9536 60.2025 93.4544 59.6575 94.3765 58.6515C95.2983 57.6454 96.0496 56.7301 96.6298 55.9049C97.2101 55.0797 97.7329 54.2275 98.1982 53.3486C98.6634 52.4697 99.0399 51.672 99.3277 50.9553C99.6154 50.2387 99.8513 49.56 100.036 48.9199C100.22 48.2797 100.323 47.9133 100.344 47.8206C100.365 47.7273 100.433 47.401 100.547 46.8415C100.661 46.2823 100.756 45.2156 100.833 43.6417C100.909 42.0678 100.91 40.8909 100.836 40.1108C100.761 39.3308 100.681 38.6935 100.595 38.199C100.509 37.7043 100.43 37.318 100.356 37.0392C100.282 36.7605 100.094 36.2008 99.7914 35.3601C99.4884 34.5198 99.1869 33.7866 98.8869 33.1616C98.5866 32.5363 98.2606 31.935 97.9086 31.3568C97.5566 30.779 97.1988 30.2473 96.8351 29.7615C96.4715 29.2764 96.2295 28.9557 96.1094 28.8C95.9893 28.6443 95.6524 28.2766 95.0987 27.6967C94.545 27.1172 94.1807 26.75 94.0056 26.595C93.8305 26.4403 93.6054 26.2394 93.3308 25.9924C93.0562 25.7457 92.3955 25.2469 91.3485 24.4964C90.3017 23.746 89.5514 23.2454 89.0975 22.995C88.6439 22.7441 88.3095 22.5624 88.0941 22.4494C87.879 22.336 87.3742 22.1065 86.5803 21.761C85.7866 21.4157 84.9638 21.0947 84.1116 20.798C83.2597 20.501 82.5863 20.285 82.0911 20.15C81.596 20.0149 81.1171 19.8995 80.6546 19.8037C80.1917 19.7083 79.8365 19.636 79.5888 19.5867C79.341 19.5378 78.7011 19.4571 77.669 19.3445C76.6369 19.2315 76.107 19.1734 76.0792 19.1703C76.0511 19.1672 75.7135 19.1547 75.0666 19.133C74.4194 19.1113 73.0266 19.1028 70.888 19.1073C68.7491 19.1117 67.5539 19.1207 67.3023 19.1345C67.0507 19.1486 66.9043 19.1584 66.8631 19.1643C66.8221 19.1698 66.4777 19.1873 65.8298 19.2163C65.1823 19.2452 64.4582 19.2674 63.6571 19.2829C62.8563 19.2981 62.3616 19.3122 62.173 19.3253C61.9845 19.3387 61.7279 19.3432 61.4037 19.3384C61.0795 19.3343 60.5535 19.3429 59.8256 19.3647C59.0977 19.3867 57.0451 19.3957 53.6677 19.3919L51.034 19.3616" fill="#CCB8E5"/>
<path d="M32.696 61.2412H69.0453H32.696Z" fill="#CCB8E5"/>
<path d="M19.5226 11.2777V20.225V11.2777Z" fill="#CCB8E5"/>
<path d="M83.8687 11.2777V20.7139V11.2777Z" fill="#CCB8E5"/>
<path d="M23.9499 64.7258V423.872M37.1276 61.2412V423.927M50.8706 61.2412V423.957M65.0374 61.2412V423.968M77.9754 64.9753V424.05M12.4828 453.887L19.3019 424.067H83.2712L90.2616 453.887M12.4828 453.887H90.2616M12.4828 453.887L5.70331 460.067L98.1658 460.023M90.2616 453.887L98.1658 460.023M98.1658 460.023V473.672H5.37855L5.60949 460.199M88.359 1.39978L12.8907 1.80621V11.2777H88.3559V1.39978M22.8103 45.374C22.7219 45.4071 22.6116 45.4606 22.4792 45.534C22.3952 45.5354 22.2786 45.5749 22.1295 45.6531L21.797 45.7561L21.446 45.8702C20.7602 45.8609 20.3548 45.8329 20.2296 45.7854C20.1041 45.7382 20.0064 45.6951 19.9368 45.6562C19.8671 45.6179 19.7755 45.5658 19.6617 45.5007C19.5475 45.4353 19.4488 45.3617 19.3658 45.2797C19.283 45.1977 19.2046 45.0987 19.1305 44.9829C19.0567 44.8668 18.9824 44.6974 18.9077 44.4742C18.8327 44.2512 18.8199 43.8286 18.8692 43.2064C18.9185 42.5848 18.9908 42.1355 19.0861 41.8588C19.1817 41.5818 19.3619 41.2376 19.6266 40.8262L20.0525 40.3619C20.1915 40.2068 20.6081 39.9209 21.3022 39.5044C21.5568 39.4034 21.6955 39.3457 21.7185 39.3313C21.7418 39.3165 21.8958 39.275 22.1802 39.2071C22.4647 39.1389 22.8872 39.1042 23.4481 39.1031C24.0089 39.1025 24.4228 39.132 24.6896 39.192C24.9565 39.2519 25.2484 39.3528 25.5655 39.4948C25.8822 39.6361 26.2121 39.8196 26.5551 40.0449C26.8982 40.2706 27.2128 40.5057 27.4991 40.75C27.7853 40.9943 28.0202 41.2279 28.2033 41.4515C28.3862 41.6748 28.5249 41.8504 28.6196 41.9779C28.714 42.1051 28.8836 42.413 29.128 42.9015C29.3721 43.3901 29.5375 43.7687 29.6241 44.0381C29.7111 44.3068 29.7654 44.5026 29.7872 44.6246C29.8093 44.7465 29.8354 44.9095 29.8653 45.1141C29.8952 45.3188 29.9131 45.5155 29.9194 45.7036C29.9256 45.8921 29.9266 46.1318 29.9218 46.4233C29.917 46.7151 29.9091 46.9405 29.8984 47.0986C29.8876 47.2571 29.7449 47.6878 29.4703 48.3906C29.1957 49.0935 28.9088 49.663 28.6097 50.0995C28.3106 50.5368 28.0965 50.8228 27.9674 50.9575C27.838 51.0929 27.5515 51.3632 27.1077 51.7691C26.664 52.1746 26.2433 52.5028 25.8456 52.7533C25.4482 53.0034 25.0541 53.2055 24.6629 53.3599C24.2718 53.5143 23.9808 53.6208 23.7901 53.6794C23.5995 53.738 23.2387 53.7947 22.7077 53.8495C22.1767 53.9046 21.7614 53.9252 21.4617 53.911C21.162 53.8966 20.9044 53.8784 20.689 53.857C20.4735 53.8353 20.3002 53.8103 20.169 53.7813C20.0378 53.7524 19.8172 53.7029 19.5074 53.6329C19.1972 53.563 18.8248 53.4462 18.3897 53.2822C17.9546 53.1182 17.4598 52.8758 16.9052 52.5554C16.3506 52.235 15.6085 51.6495 14.6792 50.7996C13.7499 49.9492 13.1864 49.3966 12.9886 49.1416C12.7908 48.886 12.6142 48.633 12.4585 48.3826C12.3028 48.1314 12.1825 47.9365 12.0976 47.7976C12.0122 47.6588 11.8877 47.4288 11.7243 47.1077C11.5608 46.7866 11.3659 46.2961 11.1397 45.636C10.9138 44.9755 10.7501 43.969 10.6482 42.6174C10.546 41.2654 10.5786 40.1461 10.7462 39.2596C10.9135 38.3724 11.0815 37.6912 11.25 37.2151C11.4185 36.7393 11.5656 36.3764 11.6914 36.1269C11.8172 35.8775 11.9504 35.6343 12.0908 35.3976C12.2316 35.1609 12.3228 35.0139 12.3646 34.956C12.4068 34.8981 12.6026 34.6391 12.9523 34.1788C13.3019 33.7188 13.5083 33.4542 13.5714 33.3849C13.6344 33.3163 13.7576 33.1809 13.941 32.9786C14.1242 32.7764 14.4456 32.4755 14.9049 32.0762C15.3641 31.6769 15.8552 31.3126 16.3784 30.9835C16.9019 30.6548 17.637 30.2971 18.5836 29.9106C19.5302 29.524 20.2536 29.2765 20.7535 29.1676C21.2534 29.0588 21.9225 28.9681 22.7606 28.8961C23.5985 28.8244 24.345 28.8074 25 28.8446C25.6552 28.8825 26.1602 28.9347 26.5149 29.0016C26.8696 29.0684 27.1918 29.1414 27.482 29.2206C27.7721 29.2995 28.0798 29.3868 28.4049 29.4826C28.73 29.5777 28.9266 29.636 28.9947 29.6567C29.0628 29.6777 29.6173 29.9249 30.6578 30.3986C31.6982 30.8723 32.4193 31.2469 32.8212 31.5226C33.2234 31.7985 33.5787 32.0579 33.8874 32.3008C34.1961 32.5434 34.7122 33.0597 35.4356 33.8497C36.1587 34.6398 36.6768 35.2575 36.9897 35.703C37.3025 36.1485 37.5569 36.5311 37.7532 36.8502C37.9496 37.1699 38.2313 37.7346 38.5982 38.545C38.9655 39.3546 39.2242 39.9823 39.3745 40.4275C39.5251 40.8723 39.6779 41.3915 39.833 41.9855C39.9878 42.5795 40.1053 43.1707 40.1854 43.7595C40.2649 44.3483 40.3142 44.9201 40.3333 45.4745C40.3524 46.0285 40.3483 46.6051 40.3211 47.2046C40.2942 47.8037 40.2287 48.416 40.1248 49.0407C40.0205 49.6653 39.9428 50.0832 39.8917 50.2944C39.8406 50.5052 39.7623 50.7861 39.6568 51.1372C39.5511 51.4883 39.4224 51.8867 39.2706 52.3318C39.1182 52.777 38.8015 53.4612 38.3207 54.3849C37.8403 55.3087 37.4425 56.0035 37.1276 56.4694C36.8129 56.9355 36.5774 57.2754 36.4209 57.4894C36.2646 57.7033 35.8007 58.219 35.0292 59.0363C34.2579 59.8535 33.6359 60.4593 33.1632 60.8542C32.6908 61.2487 32.3502 61.5254 32.1416 61.6839C31.9333 61.8424 31.6558 62.0298 31.3089 62.2462C30.9623 62.4625 30.5244 62.7055 29.9949 62.9749C29.9181 63.0094 29.3029 63.2366 28.1495 63.6573C26.9961 64.0783 26.0084 64.365 25.1864 64.5173C24.3647 64.6692 23.732 64.7663 23.2885 64.808C22.8451 64.8497 22.3172 64.8834 21.7047 64.9089C21.0918 64.9348 20.4442 64.925 19.7617 64.8802C19.0795 64.8354 18.6699 64.8 18.533 64.7742C18.3965 64.7483 18.1265 64.7027 17.7231 64.6369C17.3197 64.5708 16.9954 64.5081 16.75 64.4492C16.505 64.3906 16.3151 64.3396 16.1804 64.2962C16.0456 64.2528 15.6504 64.1214 14.9948 63.9016C14.3398 63.6817 13.6473 63.38 12.917 62.9961C12.187 62.6123 11.6321 62.2935 11.2526 62.0402C10.8731 61.7866 10.4271 61.4497 9.91434 61.0293C9.40188 60.609 9.10579 60.3572 9.02601 60.2738C8.94593 60.1901 8.44428 59.6464 7.52096 58.6421C6.59734 57.6381 5.84501 56.7235 5.26413 55.899C4.68354 55.0742 4.16049 54.2227 3.69494 53.3438C3.2297 52.4655 2.85319 51.6676 2.56543 50.951C2.27768 50.2343 2.04146 49.556 1.85679 48.9155C1.67243 48.2757 1.56977 47.9093 1.54885 47.8163C1.52794 47.7233 1.46057 47.3967 1.34642 46.8372C1.23198 46.278 1.13658 45.2116 1.06038 43.6374C0.983884 42.0638 0.98291 40.8869 1.05731 40.1065C1.13142 39.3268 1.21134 38.6895 1.2974 38.1947C1.38315 37.6999 1.46302 37.3133 1.53683 37.0349C1.61063 36.7558 1.79877 36.1961 2.10147 35.3558C2.40416 34.5151 2.70568 33.7823 3.00599 33.1573C3.30599 32.5319 3.63206 31.9303 3.98405 31.3525C4.33635 30.7743 4.69432 30.2426 5.05797 29.7571C5.42132 29.272 5.66327 28.9517 5.78369 28.7957C5.90381 28.6399 6.24067 28.2719 6.79436 27.6924C7.34805 27.1125 7.71242 26.7453 7.88753 26.5906C8.06263 26.4359 8.28743 26.2351 8.56204 25.988C8.83664 25.741 9.49761 25.2425 10.5446 24.4921C11.5914 23.742 12.3415 23.2414 12.7951 22.9906C13.2487 22.7398 13.5831 22.558 13.7986 22.445C14.014 22.3317 14.5185 22.1022 15.3122 21.7566C16.1061 21.4114 16.9291 21.0903 17.781 20.7937C18.633 20.497 19.3065 20.281 19.802 20.1456C20.2971 20.0109 20.776 19.8955 21.2385 19.7994C21.7014 19.704 22.0566 19.6316 22.3043 19.5824C22.5521 19.5338 23.192 19.4528 24.2241 19.3401C25.2562 19.2268 25.7861 19.1688 25.8139 19.166C25.8417 19.1629 26.1791 19.1507 26.8263 19.1287C27.4735 19.107 28.8665 19.0981 31.0051 19.1029C33.1437 19.107 34.3389 19.1164 34.5908 19.1302C34.8424 19.1443 34.9888 19.1541 35.03 19.1599C35.071 19.1658 35.4151 19.1828 36.0626 19.2114C36.7104 19.2404 37.4348 19.263 38.2356 19.2786C39.0367 19.2937 39.5315 19.3079 39.7201 19.3209C39.9083 19.3344 40.1645 19.3385 40.4887 19.3341C40.8129 19.3296 41.339 19.3383 42.0669 19.3603C42.7948 19.382 44.8477 19.3914 48.2254 19.3876L51.3594 19.3573M79.0828 45.3784C79.1712 45.4118 79.2815 45.465 79.4139 45.5384C79.4979 45.5398 79.6143 45.5796 79.7634 45.6575L80.0961 45.7604L80.4471 45.8745C81.1329 45.8655 81.5383 45.8373 81.6635 45.7897C81.7887 45.7422 81.886 45.6991 81.9557 45.6605C82.0253 45.6223 82.1173 45.5705 82.2314 45.5051C82.3456 45.4399 82.4439 45.366 82.5267 45.284C82.6097 45.2017 82.6883 45.103 82.7621 44.9872C82.836 44.8711 82.9102 44.7014 82.9852 44.4785C83.0602 44.2556 83.0732 43.8329 83.0239 43.2107C82.9746 42.5888 82.902 42.1398 82.8064 41.8632C82.711 41.5865 82.5308 41.2423 82.2658 40.8305L81.8406 40.3662C81.7013 40.2112 81.2846 39.9253 80.5905 39.5087C80.3359 39.4078 80.197 39.3501 80.174 39.3356C80.151 39.3208 79.9973 39.2793 79.7129 39.2115C79.4281 39.1429 79.0054 39.1085 78.4448 39.1075C77.8839 39.1068 77.4699 39.1364 77.2028 39.1963C76.936 39.2566 76.6441 39.3575 76.3274 39.4991C76.0104 39.6404 75.6803 39.8236 75.3373 40.0493C74.9943 40.2749 74.6798 40.51 74.3938 40.7543C74.1076 40.9986 73.8729 41.2326 73.6898 41.4559C73.5066 41.6795 73.3677 41.8548 73.2733 41.9823C73.1789 42.1094 73.0095 42.4173 72.7651 42.9059C72.521 43.3944 72.3556 43.7734 72.269 44.0424C72.182 44.3115 72.1274 44.5069 72.1053 44.6289C72.0835 44.7509 72.0577 44.9142 72.0278 45.1185C71.9979 45.3235 71.9798 45.5198 71.9735 45.708C71.9672 45.8964 71.9665 46.1365 71.9713 46.4277C71.9761 46.7195 71.9838 46.9444 71.9945 47.1029C72.005 47.2614 72.1476 47.6921 72.4222 48.395C72.6971 49.0975 72.9839 49.667 73.2827 50.1039C73.5818 50.5408 73.7961 50.8268 73.9255 50.9619C74.0549 51.0969 74.3414 51.3676 74.7851 51.7734C75.2289 52.1793 75.6494 52.5071 76.0468 52.7576C76.4445 53.0077 76.839 53.2102 77.2302 53.3642C77.6213 53.5189 77.9122 53.6256 78.1025 53.6842C78.2932 53.7424 78.6541 53.7987 79.1854 53.8538C79.7164 53.9089 80.1316 53.9295 80.4314 53.9154C80.7308 53.9009 80.9884 53.8831 81.2041 53.8614C81.4196 53.84 81.5926 53.8146 81.7235 53.7857C81.8546 53.7567 82.0753 53.7072 82.3855 53.6373C82.6957 53.5673 83.0683 53.4505 83.5034 53.2865C83.9385 53.1222 84.4333 52.8798 84.9879 52.5597C85.5425 52.2393 86.2843 51.6542 87.2136 50.8039C88.1429 49.9536 88.7065 49.4009 88.9043 49.146C89.1018 48.8907 89.2785 48.6377 89.4341 48.3869C89.5898 48.1361 89.7103 47.9408 89.7955 47.8019C89.8806 47.6628 90.0051 47.4328 90.1688 47.112C90.3323 46.7909 90.5268 46.3005 90.7527 45.6403C90.9789 44.9798 91.143 43.9737 91.2449 42.6217C91.3468 41.2697 91.314 40.1505 91.1467 39.2639C90.9793 38.3771 90.8116 37.6956 90.6431 37.2194C90.4743 36.7433 90.3268 36.3804 90.201 36.1313C90.0752 35.8818 89.942 35.639 89.8016 35.402C89.6612 35.1656 89.5699 35.0183 89.5278 34.9604C89.4857 34.9025 89.2899 34.6434 88.9406 34.1831C88.591 33.7228 88.3848 33.4582 88.3217 33.3892C88.2587 33.3207 88.1353 33.1852 87.9518 32.983C87.7687 32.7807 87.4474 32.4799 86.9878 32.0806C86.5288 31.6812 86.0375 31.3173 85.514 30.9879C84.9905 30.6592 84.2555 30.3015 83.3088 29.9149C82.3625 29.5283 81.6395 29.2805 81.1396 29.172C80.6397 29.0628 79.9706 28.9725 79.1325 28.9004C78.2946 28.8288 77.548 28.8114 76.8927 28.849C76.2377 28.8865 75.7329 28.9393 75.3782 29.0064C75.0235 29.0733 74.701 29.1461 74.4109 29.225C74.1204 29.3042 73.8127 29.3915 73.4875 29.4869C73.1624 29.5823 72.966 29.6404 72.8982 29.661C72.83 29.682 72.2758 29.9292 71.2353 30.4029C70.1949 30.8767 69.4736 31.2518 69.0717 31.5274C68.6698 31.8034 68.3146 32.0626 68.0059 32.3052C67.6972 32.5481 67.1816 33.0649 66.4588 33.8556C65.736 34.646 65.2183 35.2642 64.9061 35.7104C64.5935 36.1565 64.3395 36.5395 64.1438 36.8596C63.9481 37.1796 63.6677 37.7459 63.3025 38.5584C62.9374 39.3705 62.6803 40.0001 62.5315 40.447C62.3824 40.8938 62.232 41.4161 62.0802 42.0135C61.9284 42.611 61.8146 43.2065 61.739 43.8002C61.6637 44.3938 61.6193 44.9707 61.6055 45.5313C61.5918 46.0919 61.6022 46.676 61.6368 47.2841C61.6715 47.8919 61.7459 48.5143 61.86 49.151C61.9745 49.7874 62.0592 50.2132 62.1141 50.4289C62.1694 50.6449 62.2535 50.9328 62.3665 51.2925C62.4797 51.6522 62.6178 52.0607 62.7803 52.5179C62.9429 52.9751 63.2774 53.6807 63.7842 54.6341C64.291 55.5881 64.7087 56.3061 65.0374 56.7881C65.3661 57.2701 65.6117 57.6216 65.7743 57.8424C65.9368 58.0636 66.4135 58.5941 67.2045 59.4338C67.9951 60.2734 68.6288 60.8927 69.1054 61.2921C69.582 61.6914 69.9247 61.9705 70.1336 62.1294C70.3422 62.2882 70.6189 62.4746 70.9637 62.6886C71.3085 62.9025 71.743 63.141 72.2668 63.4042C72.3424 63.4377 72.9454 63.6515 74.076 64.0457C75.2067 64.4405 76.1725 64.7015 76.973 64.829C77.7735 64.9565 78.3893 65.0343 78.8208 65.0622C79.2526 65.0904 79.7673 65.1084 80.3646 65.1167C80.9622 65.1243 81.5946 65.0973 82.2618 65.0349C82.9291 64.9732 83.3297 64.9276 83.4636 64.8986C83.5977 64.87 83.8629 64.8186 84.2591 64.7442C84.6553 64.6698 84.9739 64.6012 85.2151 64.5378C85.4565 64.4747 85.6437 64.4202 85.7766 64.3748C85.9093 64.3289 86.2996 64.1917 86.9471 63.9629C87.5946 63.7342 88.2803 63.4243 89.0043 63.0333C89.7286 62.6429 90.2795 62.3197 90.6569 62.0637C91.0343 61.8081 91.4784 61.4685 91.989 61.0458C92.4994 60.623 92.7943 60.3699 92.8741 60.2862C92.9536 60.2025 93.4544 59.6575 94.3765 58.6515C95.2983 57.6454 96.0496 56.7301 96.6298 55.9049C97.2101 55.0797 97.7329 54.2275 98.1982 53.3486C98.6634 52.4697 99.0399 51.672 99.3277 50.9553C99.6154 50.2387 99.8513 49.56 100.036 48.9199C100.22 48.2797 100.323 47.9133 100.344 47.8206C100.365 47.7273 100.433 47.401 100.547 46.8415C100.661 46.2823 100.756 45.2156 100.833 43.6417C100.909 42.0678 100.91 40.8909 100.836 40.1108C100.761 39.3308 100.681 38.6934 100.595 38.199C100.509 37.7043 100.43 37.318 100.356 37.0392C100.282 36.7605 100.094 36.2008 99.7914 35.3601C99.4884 34.5198 99.1869 33.7866 98.8869 33.1616C98.5866 32.5363 98.2606 31.935 97.9086 31.3568C97.5566 30.779 97.1988 30.2473 96.8351 29.7615C96.4715 29.2764 96.2295 28.9557 96.1094 28.8C95.9893 28.6443 95.6524 28.2766 95.0987 27.6967C94.545 27.1172 94.1807 26.75 94.0056 26.595C93.8305 26.4403 93.6054 26.2394 93.3308 25.9924C93.0562 25.7457 92.3955 25.2469 91.3485 24.4964C90.3017 23.746 89.5514 23.2454 89.0975 22.995C88.6439 22.7441 88.3095 22.5624 88.0941 22.4494C87.879 22.336 87.3742 22.1065 86.5803 21.761C85.7866 21.4157 84.9638 21.0947 84.1116 20.798C83.2597 20.501 82.5863 20.285 82.0911 20.15C81.596 20.0149 81.1171 19.8995 80.6546 19.8037C80.1917 19.7083 79.8365 19.636 79.5888 19.5867C79.341 19.5378 78.7011 19.4571 77.669 19.3445C76.6369 19.2315 76.107 19.1734 76.0792 19.1703C76.0511 19.1672 75.7135 19.1547 75.0666 19.133C74.4194 19.1113 73.0266 19.1028 70.888 19.1073C68.7491 19.1117 67.5539 19.1207 67.3023 19.1345C67.0507 19.1486 66.9043 19.1584 66.8631 19.1643C66.8221 19.1698 66.4777 19.1873 65.8298 19.2163C65.1823 19.2452 64.4582 19.2674 63.6571 19.2829C62.8563 19.2981 62.3616 19.3122 62.173 19.3253C61.9845 19.3387 61.7279 19.3432 61.4037 19.3384C61.0795 19.3343 60.5535 19.3429 59.8256 19.3647C59.0977 19.3867 57.0451 19.3957 53.6677 19.3919L51.034 19.3616M32.696 61.2412H69.0453M19.5226 11.2777V20.225M83.8687 11.2777V20.7139" stroke="#333333" stroke-linecap="round" stroke-linejoin="round"/>
</svg>
