<svg width="287" height="299" viewBox="0 0 287 299" fill="none" xmlns="http://www.w3.org/2000/svg">
<path d="M184.07 277.294C183.773 277.078 183.219 276.737 182.408 276.273C181.597 275.808 180.064 274.804 177.81 273.26C175.555 271.716 173.677 270.396 172.177 269.302C170.677 268.207 169.497 267.327 168.638 266.662C167.779 265.996 165.624 264.125 162.174 261.047C158.724 257.968 155.851 255.172 153.554 252.656C151.258 250.141 149.466 248.032 148.178 246.33C146.891 244.629 145.674 242.974 144.529 241.366C143.384 239.759 142.204 237.946 140.989 235.929C139.773 233.911 137.608 228.896 134.494 220.885C131.379 212.874 129.653 208.157 129.317 206.734C128.981 205.312 128.551 203.048 128.027 199.943C127.503 196.838 127.104 193.541 126.831 190.053C126.557 186.565 126.4 184.003 126.358 182.366C126.316 180.729 126.294 179.245 126.292 177.915C126.291 176.584 126.367 174.584 126.521 171.914C126.674 169.245 126.911 166.582 127.23 163.926C127.549 161.269 128.382 156.353 129.729 149.179C131.076 142.003 131.99 137.299 132.469 135.067C132.949 132.834 133.475 130.424 134.049 127.837C134.623 125.25 135.223 122.275 135.849 118.91C136.476 115.546 136.94 112.766 137.241 110.57C137.543 108.375 137.858 105.34 138.186 101.466C138.514 97.5918 138.665 93.8766 138.639 90.3206C138.613 86.7644 138.546 84.4345 138.438 83.3308C138.331 82.2274 138.266 81.5448 138.243 81.2828C138.221 81.0209 138.031 79.7885 137.673 77.5861C137.315 75.3835 136.971 73.5249 136.642 72.0103C136.313 70.4959 136.035 69.323 135.81 68.4918C135.585 67.6606 135.322 66.7345 135.02 65.7134C134.719 64.6927 134.327 63.4287 133.844 61.9212C133.361 60.4137 133.008 59.323 132.784 58.6493C132.56 57.9753 132.236 57.1289 131.813 56.1103C131.39 55.0914 131.083 54.3479 130.89 53.8796C130.696 53.4114 130.468 52.8786 130.207 52.2811C129.945 51.6836 129.632 50.9733 129.27 50.1502C128.906 49.3269 128.442 48.2418 127.878 46.895L127.436 45.6266" stroke="#333333" stroke-linecap="round" stroke-linejoin="round"/>
<path d="M182.855 269.993L182.258 269.273C181.793 268.629 181.39 268.056 181.047 267.555C180.705 267.053 180.381 266.55 180.074 266.044C179.767 265.539 179.391 264.844 178.945 263.959C178.499 263.074 178.166 262.352 177.945 261.793C177.725 261.233 177.553 260.756 177.428 260.36C177.304 259.964 177.187 259.533 177.077 259.067C176.967 258.6 176.884 258.217 176.83 257.917C176.775 257.618 176.71 257.091 176.636 256.336C176.562 255.58 176.517 255.065 176.502 254.791C176.488 254.515 176.514 253.724 176.579 252.416C176.644 251.108 176.746 250.035 176.886 249.197C177.025 248.36 177.303 247.241 177.721 245.84C178.138 244.439 178.545 243.242 178.941 242.248C179.337 241.255 179.636 240.534 179.839 240.082C180.042 239.631 180.435 238.826 181.018 237.667L181.886 236.118" fill="#B8E5BE"/>
<path d="M182.855 269.993C182.901 269.911 183.167 269.896 183.413 269.559C183.564 269.334 183.767 269.036 184.022 268.666C184.277 268.297 184.502 267.97 184.695 267.686C184.889 267.402 185.084 267.111 185.282 266.813C185.479 266.515 185.726 266.134 186.02 265.669C186.315 265.204 186.468 264.961 186.478 264.941C186.488 264.921 186.547 264.818 186.655 264.631C186.762 264.445 186.92 264.172 187.128 263.812C187.336 263.453 187.516 263.135 187.669 262.859C187.822 262.583 187.971 262.301 188.118 262.012C188.265 261.723 188.453 261.31 188.682 260.771C188.911 260.232 189.071 259.843 189.162 259.605C189.251 259.366 189.315 259.19 189.353 259.076C189.391 258.963 189.427 258.863 189.46 258.779C189.493 258.694 189.607 258.285 189.801 257.552C189.995 256.82 190.122 256.279 190.182 255.929C190.242 255.579 190.302 255.188 190.363 254.756C190.425 254.324 190.466 253.949 190.485 253.63C190.505 253.312 190.514 252.847 190.512 252.236C190.51 251.625 190.491 251.127 190.454 250.743C190.417 250.359 190.363 249.979 190.291 249.602C190.219 249.225 190.123 248.787 190.004 248.289C189.885 247.79 189.786 247.387 189.706 247.078C189.626 246.769 189.556 246.526 189.495 246.347C189.435 246.168 189.314 245.868 189.134 245.448C188.954 245.027 188.797 244.69 188.666 244.435C188.534 244.18 188.355 243.857 188.127 243.466C187.898 243.075 187.599 242.577 187.228 241.971C186.858 241.364 186.515 240.834 186.201 240.381C185.886 239.928 185.6 239.55 185.343 239.248C185.085 238.946 184.853 238.688 184.648 238.474C184.444 238.26 184.23 238.054 184.007 237.854C183.784 237.655 183.168 237.154 182.159 236.353L181.886 236.118" fill="#B8E5BE"/>
<path d="M182.855 269.993L182.258 269.273C181.793 268.629 181.39 268.056 181.047 267.555C180.705 267.053 180.381 266.55 180.074 266.044C179.767 265.539 179.391 264.844 178.945 263.959C178.499 263.074 178.166 262.352 177.945 261.793C177.725 261.233 177.553 260.756 177.428 260.36C177.304 259.964 177.187 259.533 177.077 259.067C176.967 258.6 176.884 258.217 176.83 257.917C176.775 257.618 176.71 257.091 176.636 256.336C176.562 255.58 176.517 255.065 176.502 254.791C176.488 254.515 176.514 253.724 176.579 252.416C176.644 251.108 176.746 250.035 176.886 249.197C177.025 248.36 177.303 247.241 177.721 245.84C178.138 244.439 178.545 243.242 178.941 242.248C179.337 241.255 179.636 240.534 179.839 240.082C180.042 239.631 180.435 238.826 181.018 237.667L181.886 236.118L182.159 236.353C183.168 237.154 183.784 237.655 184.007 237.854C184.23 238.054 184.444 238.26 184.648 238.474C184.853 238.688 185.085 238.946 185.343 239.248C185.6 239.55 185.886 239.928 186.201 240.381C186.515 240.834 186.858 241.364 187.228 241.971C187.599 242.577 187.898 243.075 188.127 243.466C188.355 243.857 188.534 244.18 188.666 244.435C188.797 244.69 188.954 245.027 189.134 245.448C189.314 245.868 189.435 246.168 189.495 246.347C189.556 246.526 189.626 246.769 189.706 247.078C189.786 247.387 189.885 247.79 190.004 248.289C190.123 248.787 190.219 249.225 190.291 249.602C190.363 249.979 190.417 250.359 190.454 250.743C190.491 251.127 190.51 251.625 190.512 252.236C190.514 252.847 190.505 253.312 190.485 253.63C190.466 253.949 190.425 254.324 190.363 254.756C190.302 255.188 190.242 255.579 190.182 255.929C190.122 256.279 189.995 256.82 189.801 257.552C189.607 258.285 189.493 258.694 189.46 258.779C189.427 258.863 189.391 258.963 189.353 259.076C189.315 259.19 189.251 259.366 189.162 259.605C189.071 259.843 188.911 260.232 188.682 260.771C188.453 261.31 188.265 261.723 188.118 262.012C187.971 262.301 187.822 262.583 187.669 262.859C187.516 263.135 187.336 263.453 187.128 263.812C186.92 264.172 186.762 264.445 186.655 264.631C186.547 264.818 186.488 264.921 186.478 264.941C186.468 264.961 186.315 265.204 186.02 265.669C185.726 266.134 185.479 266.515 185.282 266.813C185.084 267.111 184.889 267.402 184.695 267.686C184.502 267.97 184.277 268.297 184.022 268.666C183.767 269.036 183.564 269.334 183.413 269.559C183.167 269.896 182.901 269.911 182.855 269.993Z" stroke="#333333" stroke-linecap="round" stroke-linejoin="round"/>
<path d="M163.212 253.497C163.212 253.497 162.879 253.347 162.572 252.911C162.264 252.475 160.744 250.464 160.407 249.986C160.071 249.508 159.792 249.105 159.57 248.777C159.348 248.449 158.945 247.743 158.358 246.657C157.772 245.572 157.45 244.962 157.394 244.826C157.337 244.69 157.273 244.541 157.203 244.378C157.133 244.215 157.025 243.914 156.879 243.477C156.734 243.04 156.558 242.323 156.353 241.326C156.147 240.329 156.023 239.638 155.981 239.253C155.939 238.869 155.913 238.592 155.901 238.422C155.89 238.253 155.944 237.497 156.065 236.153C156.185 234.808 156.292 233.947 156.386 233.57C156.481 233.193 156.599 232.782 156.741 232.337C156.883 231.893 157.052 231.419 157.246 230.915C157.44 230.411 157.677 229.856 157.957 229.251C158.237 228.645 158.484 228.146 158.699 227.753C158.914 227.36 159.166 226.934 159.456 226.473C159.745 226.013 159.975 225.65 160.144 225.386C160.312 225.123 160.606 224.699 161.024 224.115C161.442 223.531 161.712 223.165 161.833 223.017C161.955 222.87 162.329 222.373 162.956 221.525L163.653 220.691" fill="#B8E5BE"/>
<path d="M163.212 253.497L163.611 252.997C163.68 252.896 163.882 252.567 164.219 252.009C164.555 251.452 164.894 250.897 165.235 250.343C165.576 249.789 165.852 249.338 166.063 248.992C166.274 248.646 166.477 248.311 166.672 247.986C166.867 247.662 167.056 247.336 167.241 247.007C167.426 246.678 167.629 246.296 167.849 245.86C168.07 245.424 168.23 245.091 168.33 244.861C168.43 244.63 168.575 244.248 168.764 243.713C168.953 243.178 169.074 242.816 169.126 242.625C169.178 242.434 169.263 242.088 169.381 241.586C169.498 241.085 169.602 240.539 169.694 239.949C169.785 239.359 169.843 238.914 169.866 238.614C169.89 238.313 169.906 238.121 169.916 238.037C169.925 237.954 169.922 237.54 169.907 236.797C169.892 236.055 169.853 235.384 169.791 234.784C169.729 234.184 169.668 233.715 169.608 233.375C169.547 233.036 169.453 232.587 169.324 232.029C169.195 231.471 169.114 231.119 169.079 230.975C169.045 230.83 168.932 230.448 168.742 229.827C168.553 229.205 168.434 228.826 168.386 228.687C168.338 228.548 168.239 228.296 168.09 227.931C167.942 227.565 167.82 227.277 167.726 227.067C167.633 226.857 167.455 226.472 167.192 225.914C166.929 225.355 166.65 224.833 166.354 224.347C166.059 223.861 165.728 223.351 165.363 222.816L163.653 220.691" fill="#B8E5BE"/>
<path d="M163.212 253.497C163.212 253.497 162.879 253.347 162.572 252.911C162.264 252.475 160.744 250.464 160.407 249.986C160.071 249.508 159.792 249.105 159.57 248.777C159.348 248.449 158.945 247.743 158.358 246.657C157.772 245.572 157.45 244.962 157.394 244.826C157.337 244.69 157.273 244.541 157.203 244.378C157.133 244.215 157.025 243.914 156.879 243.477C156.734 243.04 156.558 242.323 156.353 241.326C156.147 240.329 156.023 239.638 155.981 239.253C155.939 238.869 155.913 238.592 155.901 238.422C155.89 238.253 155.944 237.497 156.065 236.153C156.185 234.808 156.292 233.947 156.386 233.57C156.481 233.193 156.599 232.782 156.741 232.337C156.883 231.893 157.052 231.419 157.246 230.915C157.44 230.411 157.677 229.856 157.957 229.251C158.237 228.645 158.484 228.146 158.699 227.753C158.914 227.36 159.166 226.934 159.456 226.473C159.745 226.013 159.975 225.65 160.144 225.386C160.312 225.123 160.606 224.699 161.024 224.115C161.442 223.531 161.712 223.165 161.833 223.017C161.955 222.87 162.329 222.373 162.956 221.525L163.653 220.691L165.363 222.816C165.728 223.351 166.059 223.861 166.354 224.347C166.65 224.833 166.929 225.355 167.192 225.914C167.455 226.472 167.633 226.857 167.726 227.067C167.82 227.277 167.942 227.565 168.09 227.931C168.239 228.296 168.338 228.548 168.386 228.687C168.434 228.826 168.553 229.205 168.742 229.827C168.932 230.448 169.045 230.83 169.079 230.975C169.114 231.119 169.195 231.471 169.324 232.029C169.453 232.587 169.547 233.036 169.608 233.375C169.668 233.715 169.729 234.184 169.791 234.784C169.853 235.384 169.892 236.055 169.907 236.797C169.922 237.54 169.925 237.954 169.916 238.037C169.906 238.121 169.89 238.313 169.866 238.614C169.843 238.914 169.785 239.359 169.694 239.949C169.602 240.539 169.498 241.085 169.381 241.586C169.263 242.088 169.178 242.434 169.126 242.625C169.074 242.816 168.953 243.178 168.764 243.713C168.575 244.248 168.43 244.63 168.33 244.861C168.23 245.091 168.07 245.424 167.849 245.86C167.629 246.296 167.426 246.678 167.241 247.007C167.056 247.336 166.867 247.662 166.672 247.986C166.477 248.311 166.274 248.646 166.063 248.992C165.852 249.338 165.576 249.789 165.235 250.343C164.894 250.897 164.555 251.452 164.219 252.009C163.882 252.567 163.68 252.896 163.611 252.997L163.212 253.497Z" stroke="#333333" stroke-linecap="round" stroke-linejoin="round"/>
<path d="M139.153 219.859L139.057 219.223C139.042 219.115 139.013 218.805 138.969 218.294C138.925 217.782 138.892 217.409 138.87 217.176C138.847 216.943 138.827 216.741 138.809 216.569C138.792 216.397 138.755 215.986 138.699 215.337C138.642 214.688 138.596 214.012 138.562 213.308C138.528 212.604 138.512 212.032 138.514 211.592C138.517 211.152 138.528 210.687 138.55 210.197C138.571 209.707 138.581 209.448 138.581 209.42C138.582 209.392 138.607 209.157 138.658 208.716C138.708 208.274 138.762 207.877 138.82 207.525C138.878 207.173 138.949 206.793 139.032 206.384C139.115 205.975 139.192 205.616 139.264 205.307C139.336 204.999 139.418 204.689 139.51 204.378C139.601 204.066 139.685 203.794 139.761 203.561C139.838 203.328 139.947 203.038 140.088 202.692C140.229 202.346 140.369 202.027 140.509 201.734C140.649 201.442 140.812 201.119 140.998 200.764C141.184 200.41 141.387 200.05 141.608 199.684C141.829 199.317 142.067 198.945 142.323 198.566C142.821 198.024 143.289 197.527 143.728 197.074C144.166 196.621 144.576 196.213 144.956 195.85C145.337 195.486 145.688 195.167 146.01 194.893C146.333 194.619 146.692 194.343 147.088 194.066C147.483 193.789 147.867 193.528 148.238 193.284C148.609 193.04 148.956 192.83 149.278 192.653C149.6 192.476 149.917 192.319 150.228 192.182C150.539 192.045 150.881 191.907 151.255 191.768C151.628 191.629 152.084 191.465 152.624 191.278C153.164 191.09 153.607 190.938 153.955 190.819C154.303 190.701 154.594 190.605 154.827 190.531C155.061 190.457 155.436 190.348 155.953 190.202C156.469 190.056 157.726 189.807 158.266 189.624" fill="#B8E5BE"/>
<path d="M139.153 219.859C139.607 219.695 140.031 219.605 140.264 219.509C140.498 219.413 140.748 219.307 141.013 219.191C141.278 219.075 141.599 218.933 141.973 218.764C142.348 218.596 142.655 218.458 142.896 218.349C143.137 218.24 143.338 218.149 143.498 218.075C143.658 218.001 143.966 217.846 144.421 217.608C144.876 217.37 145.349 217.112 145.841 216.832C146.332 216.552 146.745 216.301 147.08 216.079C147.414 215.857 147.777 215.604 148.169 215.321C148.56 215.038 149.039 214.654 149.605 214.168C150.17 213.682 150.549 213.346 150.742 213.16C150.935 212.975 151.197 212.7 151.526 212.337C151.856 211.973 152.287 211.49 152.818 210.887C152.87 210.812 152.986 210.642 153.168 210.376C153.35 210.11 153.596 209.748 153.907 209.291C154.218 208.833 154.49 208.42 154.721 208.053C154.953 207.686 155.183 207.295 155.412 206.88C155.64 206.466 155.881 205.977 156.134 205.414C156.388 204.85 156.548 204.479 156.615 204.3C156.683 204.122 156.772 203.887 156.882 203.596C156.993 203.305 157.107 202.987 157.223 202.643C157.34 202.298 157.452 201.948 157.56 201.591C157.669 201.235 157.819 200.687 158.011 199.948C158.204 199.209 158.366 198.528 158.498 197.904C158.631 197.281 158.728 196.703 158.79 196.17C158.851 195.637 158.885 195.103 158.891 194.566C158.898 194.031 158.891 193.622 158.872 193.34C158.852 193.059 158.832 192.832 158.812 192.66C158.793 192.488 158.744 192.157 158.665 191.669C158.586 191.18 158.453 190.498 158.266 189.624" fill="#B8E5BE"/>
<path d="M139.153 219.859L139.057 219.223C139.042 219.115 139.013 218.805 138.969 218.294C138.925 217.782 138.892 217.409 138.87 217.176C138.847 216.943 138.827 216.741 138.809 216.569C138.792 216.397 138.755 215.986 138.699 215.337C138.642 214.688 138.596 214.012 138.562 213.308C138.528 212.604 138.512 212.032 138.514 211.592C138.517 211.152 138.529 210.687 138.55 210.197C138.571 209.707 138.581 209.448 138.581 209.42C138.582 209.392 138.607 209.157 138.658 208.716C138.708 208.274 138.762 207.877 138.82 207.525C138.878 207.173 138.949 206.793 139.032 206.384C139.115 205.975 139.192 205.616 139.264 205.307C139.336 204.999 139.418 204.689 139.51 204.378C139.601 204.066 139.685 203.794 139.761 203.561C139.838 203.328 139.947 203.038 140.088 202.692C140.229 202.346 140.369 202.027 140.509 201.734C140.649 201.442 140.812 201.119 140.998 200.764C141.184 200.41 141.387 200.05 141.608 199.684C141.829 199.317 142.067 198.945 142.323 198.566C142.821 198.024 143.289 197.527 143.728 197.074C144.166 196.621 144.576 196.213 144.956 195.85C145.337 195.486 145.688 195.167 146.01 194.893C146.333 194.619 146.692 194.343 147.088 194.066C147.483 193.789 147.867 193.528 148.238 193.284C148.609 193.04 148.956 192.83 149.278 192.653C149.6 192.476 149.917 192.319 150.228 192.182C150.539 192.045 150.881 191.907 151.255 191.768C151.628 191.629 152.084 191.465 152.624 191.278C153.164 191.09 153.607 190.938 153.955 190.819C154.303 190.701 154.594 190.605 154.827 190.531C155.061 190.457 155.436 190.348 155.953 190.202C156.469 190.056 157.726 189.807 158.266 189.624C158.453 190.498 158.586 191.18 158.665 191.669C158.744 192.157 158.793 192.488 158.812 192.66C158.832 192.832 158.852 193.059 158.872 193.34C158.891 193.622 158.898 194.031 158.891 194.566C158.885 195.103 158.851 195.637 158.79 196.17C158.728 196.703 158.631 197.281 158.498 197.904C158.366 198.528 158.204 199.209 158.011 199.948C157.819 200.687 157.669 201.235 157.56 201.591C157.452 201.948 157.34 202.298 157.223 202.643C157.107 202.987 156.993 203.305 156.882 203.596C156.772 203.887 156.683 204.122 156.615 204.3C156.548 204.479 156.388 204.85 156.134 205.414C155.881 205.977 155.64 206.466 155.412 206.88C155.183 207.295 154.953 207.686 154.721 208.053C154.49 208.42 154.218 208.833 153.907 209.291C153.596 209.748 153.35 210.11 153.168 210.376C152.986 210.642 152.87 210.812 152.818 210.887C152.287 211.49 151.856 211.973 151.526 212.337C151.197 212.7 150.935 212.975 150.742 213.16C150.549 213.346 150.17 213.682 149.605 214.168C149.039 214.654 148.56 215.038 148.169 215.321C147.777 215.604 147.414 215.857 147.08 216.079C146.745 216.301 146.332 216.552 145.841 216.832C145.349 217.112 144.876 217.37 144.421 217.608C143.966 217.846 143.658 218.001 143.498 218.075C143.338 218.149 143.137 218.24 142.896 218.349C142.655 218.458 142.348 218.596 141.973 218.764C141.599 218.933 141.278 219.075 141.013 219.191C140.748 219.307 140.498 219.413 140.264 219.509C140.031 219.605 139.607 219.695 139.153 219.859Z" stroke="#333333" stroke-linecap="round" stroke-linejoin="round"/>
<path d="M130.961 181.726C130.987 181.252 131.021 180.837 131.063 180.48C131.105 180.123 131.158 179.698 131.223 179.205C131.288 178.713 131.354 178.259 131.421 177.843C131.488 177.427 131.567 176.968 131.659 176.465C131.749 175.962 131.859 175.44 131.987 174.898C132.116 174.357 132.263 173.795 132.428 173.215C132.594 172.634 132.727 172.172 132.829 171.83C132.932 171.488 133.012 171.239 133.069 171.083C133.127 170.928 133.259 170.599 133.466 170.096C133.673 169.594 133.902 169.097 134.151 168.604C134.401 168.112 134.573 167.783 134.669 167.617C134.765 167.451 134.889 167.254 135.043 167.026C135.197 166.798 135.397 166.51 135.641 166.164C135.885 165.817 136.102 165.517 136.291 165.264C136.481 165.011 136.676 164.764 136.878 164.523C137.079 164.283 137.313 164.025 137.58 163.749C137.846 163.474 138.251 163.088 138.795 162.591C139.34 162.093 139.82 161.692 140.235 161.389C140.651 161.085 141.066 160.807 141.481 160.555C141.895 160.304 142.379 160.028 142.931 159.727C143.483 159.426 144.005 159.158 144.499 158.923C144.992 158.688 145.456 158.485 145.89 158.315C146.325 158.146 146.719 157.999 147.073 157.875C147.427 157.75 147.808 157.628 148.218 157.51C148.629 157.391 149.077 157.28 149.564 157.177C150.051 157.075 150.482 156.991 150.857 156.925C151.232 156.86 151.672 156.784 152.177 156.696C152.682 156.609 153.503 156.46 154.641 156.248C154.889 156.213 155.145 156.17 155.407 156.119C155.671 156.068 155.918 156.012 156.15 155.951L157.503 155.718" fill="#B8E5BE"/>
<path d="M130.961 181.726L131.543 181.629C132.209 181.503 132.603 181.427 132.726 181.4C132.848 181.373 133.053 181.328 133.339 181.265C133.626 181.202 133.959 181.121 134.339 181.021C134.719 180.922 135.186 180.798 135.74 180.65C136.294 180.501 136.737 180.382 137.068 180.293C137.399 180.204 137.625 180.14 137.748 180.102C137.869 180.063 138.084 179.989 138.391 179.877C138.699 179.766 139.097 179.619 139.586 179.437C140.075 179.255 140.488 179.098 140.825 178.968C141.162 178.837 141.471 178.712 141.751 178.591C142.032 178.471 142.287 178.354 142.516 178.24C142.746 178.126 143.014 177.986 143.32 177.82C143.626 177.653 144.082 177.384 144.688 177.013C145.294 176.642 145.793 176.311 146.187 176.021C146.581 175.731 146.941 175.448 147.266 175.173C147.59 174.899 147.946 174.583 148.333 174.227C148.72 173.871 149.034 173.579 149.274 173.351C149.514 173.124 149.705 172.935 149.845 172.785C149.986 172.635 150.271 172.313 150.701 171.817C151.132 171.321 151.512 170.848 151.841 170.398C152.171 169.948 152.529 169.412 152.917 168.79C153.305 168.168 153.531 167.798 153.595 167.679C153.659 167.56 153.745 167.391 153.852 167.171C153.96 166.952 154.1 166.662 154.272 166.302C154.445 165.942 154.596 165.619 154.726 165.331C154.855 165.044 154.984 164.739 155.114 164.417C155.244 164.094 155.398 163.694 155.575 163.217C155.752 162.74 155.894 162.322 155.998 161.962C156.104 161.602 156.256 161.06 156.454 160.335C156.653 159.61 156.791 159.099 156.866 158.804C156.943 158.508 157.065 158.045 157.235 157.418C157.275 157.235 157.373 156.531 157.503 155.718" fill="#B8E5BE"/>
<path d="M130.961 181.726C130.987 181.252 131.021 180.837 131.063 180.48C131.105 180.123 131.158 179.698 131.223 179.205C131.288 178.713 131.354 178.259 131.421 177.843C131.488 177.427 131.567 176.968 131.659 176.465C131.749 175.962 131.859 175.44 131.987 174.898C132.116 174.357 132.263 173.795 132.428 173.215C132.594 172.634 132.727 172.172 132.829 171.83C132.932 171.488 133.012 171.239 133.069 171.083C133.127 170.928 133.259 170.599 133.466 170.096C133.673 169.594 133.902 169.097 134.151 168.604C134.401 168.112 134.573 167.783 134.669 167.617C134.765 167.451 134.889 167.254 135.043 167.026C135.197 166.798 135.397 166.51 135.641 166.164C135.885 165.817 136.102 165.517 136.291 165.264C136.481 165.011 136.676 164.764 136.878 164.523C137.079 164.283 137.313 164.025 137.58 163.749C137.846 163.474 138.251 163.088 138.795 162.591C139.34 162.093 139.82 161.692 140.235 161.389C140.651 161.085 141.066 160.807 141.481 160.555C141.895 160.304 142.379 160.028 142.931 159.727C143.483 159.426 144.005 159.158 144.499 158.923C144.992 158.688 145.456 158.485 145.89 158.315C146.325 158.146 146.719 157.999 147.073 157.875C147.427 157.75 147.808 157.628 148.218 157.51C148.629 157.391 149.077 157.28 149.564 157.177C150.051 157.075 150.482 156.991 150.857 156.925C151.232 156.86 151.672 156.784 152.177 156.696C152.682 156.609 153.503 156.46 154.641 156.248C154.889 156.213 155.145 156.17 155.407 156.119C155.671 156.068 155.918 156.012 156.15 155.951L157.503 155.718C157.373 156.531 157.275 157.235 157.235 157.418C157.065 158.045 156.943 158.508 156.866 158.804C156.791 159.099 156.653 159.61 156.454 160.335C156.256 161.06 156.104 161.602 155.998 161.962C155.894 162.322 155.752 162.74 155.575 163.217C155.398 163.694 155.244 164.094 155.114 164.417C154.984 164.739 154.855 165.044 154.726 165.331C154.596 165.619 154.445 165.942 154.272 166.302C154.1 166.662 153.96 166.952 153.852 167.171C153.745 167.391 153.659 167.56 153.595 167.679C153.531 167.798 153.305 168.168 152.917 168.79C152.529 169.412 152.171 169.948 151.841 170.398C151.512 170.848 151.132 171.321 150.701 171.817C150.271 172.313 149.986 172.635 149.845 172.785C149.705 172.935 149.514 173.124 149.274 173.351C149.034 173.579 148.72 173.871 148.333 174.227C147.946 174.583 147.59 174.899 147.266 175.173C146.941 175.448 146.581 175.731 146.187 176.021C145.793 176.311 145.294 176.642 144.688 177.013C144.082 177.384 143.626 177.653 143.32 177.82C143.014 177.986 142.746 178.126 142.516 178.24C142.287 178.354 142.032 178.471 141.751 178.591C141.471 178.712 141.162 178.837 140.825 178.968C140.488 179.098 140.075 179.255 139.586 179.437C139.097 179.619 138.699 179.766 138.391 179.877C138.084 179.989 137.869 180.063 137.748 180.102C137.625 180.14 137.399 180.204 137.068 180.293C136.737 180.382 136.294 180.501 135.74 180.65C135.186 180.798 134.719 180.922 134.339 181.021C133.959 181.121 133.626 181.202 133.339 181.265C133.053 181.328 132.848 181.373 132.726 181.4C132.603 181.427 132.209 181.503 131.543 181.629L130.961 181.726Z" stroke="#333333" stroke-linecap="round" stroke-linejoin="round"/>
<path d="M136.244 138.268L136.598 137.537C136.911 137.003 137.285 136.393 137.721 135.706C138.156 135.019 138.495 134.494 138.736 134.131C138.978 133.769 139.224 133.409 139.476 133.053C139.727 132.697 139.986 132.334 140.252 131.963C140.518 131.592 140.707 131.334 140.82 131.188C140.931 131.041 141.12 130.819 141.385 130.522C141.651 130.224 141.95 129.925 142.284 129.623C142.617 129.322 143.029 128.968 143.519 128.563C144.009 128.157 144.424 127.825 144.765 127.565C145.106 127.305 145.421 127.089 145.71 126.918C145.999 126.746 146.297 126.586 146.606 126.437C146.915 126.289 147.25 126.142 147.612 125.995C147.974 125.848 148.368 125.706 148.794 125.569C149.219 125.432 149.564 125.327 149.829 125.253C150.093 125.18 150.55 125.091 151.2 124.988C151.851 124.885 152.367 124.814 152.75 124.775C153.132 124.736 153.495 124.71 153.837 124.695C154.18 124.68 154.576 124.672 155.023 124.672C155.472 124.671 155.894 124.676 156.292 124.687C156.689 124.699 157.144 124.722 157.656 124.757C158.167 124.792 158.594 124.828 158.936 124.864C159.278 124.899 159.606 124.933 159.921 124.963C160.236 124.994 160.544 125.024 160.846 125.052C161.147 125.08 161.453 125.108 161.762 125.138C162.072 125.168 162.436 125.204 162.854 125.245C163.272 125.286 163.744 125.333 164.271 125.385C164.797 125.437 165.378 125.495 166.013 125.559" fill="#B8E5BE"/>
<path d="M136.244 138.268C136.538 138.321 136.836 138.369 137.138 138.411C137.441 138.453 137.893 138.506 138.493 138.57C139.093 138.633 139.587 138.68 139.974 138.709C140.361 138.738 140.758 138.767 141.165 138.796C141.572 138.825 142.083 138.846 142.697 138.859C143.312 138.872 143.877 138.871 144.394 138.854C144.911 138.838 145.479 138.812 146.099 138.778C146.718 138.744 147.217 138.706 147.593 138.667C147.969 138.626 148.23 138.597 148.376 138.579C148.523 138.561 148.931 138.483 149.601 138.347C150.271 138.211 150.911 138.048 151.523 137.858C152.134 137.667 152.637 137.494 153.031 137.338C153.425 137.183 153.849 137.001 154.304 136.795C154.759 136.588 155.11 136.42 155.355 136.289C155.6 136.159 155.734 136.087 155.755 136.075C155.777 136.062 156.128 135.836 156.808 135.397C157.489 134.958 158.181 134.453 158.884 133.882C159.587 133.311 160.114 132.854 160.464 132.509C160.814 132.164 161.014 131.965 161.065 131.912C161.116 131.859 161.395 131.547 161.902 130.975C162.408 130.403 162.839 129.884 163.195 129.418C163.552 128.952 163.811 128.611 163.974 128.395C164.137 128.18 164.299 127.953 164.462 127.714C164.624 127.475 165.294 126.496 166.013 125.559" fill="#B8E5BE"/>
<path d="M136.244 138.268L136.598 137.537C136.911 137.003 137.285 136.393 137.721 135.706C138.156 135.019 138.495 134.494 138.736 134.131C138.978 133.769 139.224 133.409 139.476 133.053C139.727 132.697 139.986 132.334 140.252 131.963C140.518 131.592 140.707 131.334 140.82 131.188C140.931 131.041 141.12 130.819 141.385 130.522C141.651 130.224 141.95 129.925 142.284 129.623C142.617 129.322 143.029 128.968 143.519 128.563C144.009 128.157 144.424 127.825 144.765 127.565C145.106 127.305 145.421 127.089 145.71 126.918C145.999 126.746 146.297 126.586 146.606 126.437C146.915 126.289 147.25 126.142 147.612 125.995C147.974 125.848 148.368 125.706 148.794 125.569C149.219 125.432 149.564 125.327 149.829 125.253C150.093 125.18 150.55 125.091 151.2 124.988C151.851 124.885 152.367 124.814 152.75 124.775C153.132 124.736 153.495 124.71 153.837 124.695C154.18 124.68 154.576 124.672 155.023 124.672C155.472 124.671 155.894 124.676 156.292 124.687C156.689 124.699 157.144 124.722 157.656 124.757C158.167 124.792 158.594 124.828 158.936 124.864C159.278 124.899 159.606 124.933 159.921 124.963C160.236 124.994 160.544 125.024 160.846 125.052C161.147 125.08 161.453 125.108 161.762 125.138C162.072 125.168 162.436 125.204 162.854 125.245C163.272 125.286 163.744 125.333 164.271 125.385C164.797 125.437 165.378 125.495 166.013 125.559C165.294 126.496 164.624 127.475 164.462 127.714C164.299 127.953 164.137 128.18 163.974 128.395C163.811 128.611 163.552 128.952 163.195 129.418C162.839 129.884 162.408 130.403 161.902 130.975C161.395 131.547 161.116 131.859 161.065 131.912C161.014 131.965 160.814 132.164 160.464 132.509C160.114 132.854 159.587 133.311 158.884 133.882C158.181 134.453 157.489 134.958 156.808 135.397C156.128 135.836 155.777 136.062 155.755 136.075C155.734 136.087 155.6 136.159 155.355 136.289C155.11 136.42 154.759 136.588 154.304 136.795C153.849 137.001 153.425 137.183 153.031 137.338C152.637 137.494 152.134 137.667 151.523 137.858C150.911 138.048 150.271 138.211 149.601 138.347C148.931 138.483 148.523 138.561 148.376 138.579C148.23 138.597 147.969 138.626 147.593 138.667C147.217 138.706 146.718 138.744 146.099 138.778C145.479 138.812 144.911 138.838 144.394 138.854C143.877 138.871 143.312 138.872 142.697 138.859C142.083 138.846 141.572 138.825 141.165 138.796C140.758 138.767 140.361 138.738 139.974 138.709C139.587 138.68 139.093 138.633 138.493 138.57C137.893 138.506 137.441 138.453 137.138 138.411C136.836 138.369 136.538 138.321 136.244 138.268Z" stroke="#333333" stroke-linecap="round" stroke-linejoin="round"/>
<path d="M141.259 110.732C141.333 110.41 141.325 109.639 141.419 109.235C141.756 108.152 142.046 107.249 142.291 106.526C142.536 105.802 142.724 105.256 142.855 104.887C142.986 104.517 143.114 104.182 143.238 103.882C143.362 103.581 143.494 103.281 143.633 102.98C143.772 102.68 143.939 102.329 144.135 101.928C144.331 101.528 144.51 101.17 144.674 100.855C144.838 100.539 145.02 100.209 145.219 99.8633C145.418 99.5177 145.616 99.1913 145.812 98.8842C146.008 98.5771 146.344 98.1256 146.819 97.5296C147.294 96.9338 147.702 96.4627 148.043 96.1165C148.384 95.7699 148.761 95.433 149.176 95.1054C149.589 94.7778 150.097 94.4018 150.699 93.9777C151.301 93.553 151.845 93.1919 152.333 92.8944C152.821 92.5965 153.254 92.3621 153.63 92.1909C154.006 92.0195 154.362 91.8662 154.698 91.7312C155.032 91.5961 155.423 91.4536 155.871 91.3036C156.318 91.154 156.693 91.039 156.995 90.9587C157.298 90.8788 157.632 90.7989 157.999 90.7193C158.366 90.6394 158.837 90.542 159.414 90.427C159.99 90.3118 160.513 90.2099 160.981 90.1212C161.45 90.0326 161.921 89.9487 162.395 89.8694C162.869 89.7902 163.309 89.716 163.714 89.6468C164.119 89.5775 164.454 89.5156 164.72 89.4614C164.986 89.4071 165.569 89.3463 166.053 89.2332" fill="#B8E5BE"/>
<path d="M141.259 110.732C141.422 110.719 141.596 110.716 141.781 110.722C141.966 110.728 142.068 110.73 142.087 110.728C142.107 110.727 142.464 110.725 143.159 110.722C143.854 110.72 144.484 110.709 145.049 110.692C145.614 110.674 146.094 110.653 146.488 110.628C146.882 110.603 147.338 110.559 147.854 110.494C148.371 110.429 148.898 110.339 149.436 110.224C149.973 110.109 150.474 109.982 150.937 109.842C151.399 109.703 151.826 109.56 152.218 109.411C152.608 109.263 152.927 109.133 153.173 109.023C153.419 108.912 153.684 108.777 153.965 108.618C154.246 108.459 154.518 108.288 154.78 108.106C155.043 107.923 155.342 107.703 155.679 107.445C156.015 107.187 156.369 106.893 156.741 106.565C157.112 106.236 157.502 105.873 157.909 105.474C157.935 105.442 158.033 105.317 158.203 105.098C158.373 104.879 158.615 104.566 158.929 104.159C159.243 103.752 159.52 103.377 159.761 103.034C160.002 102.69 160.248 102.309 160.5 101.891C160.751 101.471 161.009 100.998 161.275 100.469C161.541 99.9405 161.766 99.4787 161.95 99.0835C162.134 98.688 162.297 98.3272 162.44 98.0013C162.582 97.6754 162.714 97.3508 162.835 97.0274C162.956 96.704 163.087 96.3678 163.227 96.0191C163.366 95.6704 163.475 95.3965 163.554 95.1973C163.633 94.9984 163.745 94.6993 163.89 94.2999C164.035 93.9006 164.18 93.5123 164.326 93.1353C164.472 92.7583 164.677 92.2583 164.94 91.6353C165.203 91.0124 165.574 90.2117 166.053 89.2332" fill="#B8E5BE"/>
<path d="M141.259 110.732C141.333 110.41 141.325 109.639 141.419 109.235C141.756 108.152 142.046 107.249 142.291 106.526C142.536 105.802 142.724 105.256 142.855 104.887C142.986 104.517 143.114 104.182 143.238 103.882C143.362 103.581 143.494 103.281 143.633 102.98C143.772 102.68 143.939 102.329 144.135 101.928C144.331 101.528 144.51 101.17 144.674 100.855C144.838 100.539 145.02 100.209 145.219 99.8633C145.418 99.5177 145.616 99.1913 145.812 98.8842C146.008 98.5771 146.344 98.1256 146.819 97.5296C147.294 96.9338 147.702 96.4627 148.043 96.1165C148.384 95.7699 148.761 95.433 149.176 95.1054C149.589 94.7778 150.097 94.4018 150.699 93.9777C151.301 93.553 151.845 93.1919 152.333 92.8944C152.821 92.5965 153.254 92.3621 153.63 92.1909C154.006 92.0195 154.362 91.8662 154.698 91.7312C155.032 91.5961 155.423 91.4536 155.871 91.3036C156.318 91.154 156.693 91.039 156.995 90.9587C157.298 90.8788 157.632 90.7989 157.999 90.7193C158.366 90.6394 158.837 90.542 159.414 90.427C159.99 90.3118 160.513 90.2099 160.981 90.1212C161.45 90.0326 161.921 89.9487 162.395 89.8694C162.869 89.7902 163.309 89.716 163.714 89.6468C164.118 89.5775 164.454 89.5156 164.72 89.4614C164.986 89.4071 165.569 89.3463 166.053 89.2332C165.574 90.2117 165.203 91.0124 164.94 91.6353C164.677 92.2583 164.472 92.7583 164.326 93.1353C164.18 93.5123 164.035 93.9006 163.89 94.2999C163.745 94.6993 163.633 94.9984 163.554 95.1973C163.475 95.3965 163.366 95.6704 163.227 96.0191C163.087 96.3678 162.956 96.704 162.835 97.0274C162.714 97.3508 162.582 97.6754 162.44 98.0013C162.297 98.3272 162.134 98.688 161.95 99.0835C161.766 99.4787 161.541 99.9405 161.275 100.469C161.009 100.998 160.751 101.471 160.5 101.891C160.248 102.309 160.002 102.69 159.761 103.034C159.52 103.377 159.243 103.752 158.929 104.159C158.615 104.566 158.373 104.879 158.203 105.098C158.033 105.317 157.935 105.442 157.909 105.474C157.502 105.873 157.112 106.236 156.741 106.565C156.369 106.893 156.015 107.187 155.679 107.445C155.342 107.703 155.043 107.923 154.78 108.106C154.518 108.288 154.246 108.459 153.965 108.618C153.684 108.777 153.419 108.912 153.173 109.023C152.927 109.133 152.608 109.263 152.218 109.411C151.826 109.56 151.399 109.703 150.937 109.842C150.474 109.982 149.973 110.109 149.436 110.224C148.898 110.339 148.371 110.429 147.854 110.494C147.338 110.559 146.882 110.603 146.488 110.628C146.094 110.653 145.614 110.674 145.049 110.692C144.484 110.709 143.854 110.72 143.159 110.722C142.464 110.725 142.107 110.727 142.087 110.728C142.068 110.73 141.966 110.728 141.781 110.722C141.596 110.716 141.422 110.719 141.259 110.732Z" stroke="#333333" stroke-linecap="round" stroke-linejoin="round"/>
<path d="M141.909 81.6926C141.935 81.2168 141.992 80.4707 142.084 79.9001C142.177 79.3297 142.26 78.8243 142.335 78.3836C142.41 77.9423 142.499 77.4523 142.604 76.9139C142.71 76.3756 142.785 76.0028 142.831 75.7956C142.878 75.5884 142.956 75.2986 143.067 74.9259C143.177 74.5534 143.316 74.1113 143.483 73.5996C143.65 73.088 143.829 72.6006 144.02 72.1374C144.212 71.6739 144.36 71.3361 144.465 71.1239C144.571 70.9122 144.744 70.5882 144.984 70.1521C145.224 69.7161 145.495 69.2832 145.796 68.8537C146.097 68.4242 146.407 68.0204 146.724 67.6418C147.041 67.2632 147.337 66.9357 147.61 66.6592C147.883 66.3829 148.141 66.1318 148.383 65.9064C148.626 65.6811 148.904 65.4441 149.218 65.1952C149.532 64.9462 149.955 64.6504 150.487 64.3078C151.019 63.965 151.581 63.6411 152.173 63.3363C152.766 63.0316 153.302 62.7869 153.782 62.6024C154.262 62.418 154.653 62.279 154.956 62.1853C155.259 62.0918 155.497 62.0179 155.671 61.9635C155.846 61.9094 156.22 61.8058 156.793 61.6529C157.365 61.4995 157.883 61.3752 158.347 61.2797C158.811 61.184 159.062 61.1329 159.099 61.1265C159.137 61.1204 159.596 61.0283 160.475 60.8503C161.354 60.6723 162.445 60.4488 163.749 60.1799" fill="#B8E5BE"/>
<path d="M141.909 81.6926C142.249 81.6146 142.996 81.4236 144.15 81.1196C144.741 80.9824 145.376 80.8187 146.053 80.6288C146.73 80.4389 147.308 80.2658 147.787 80.1095C148.266 79.9529 148.542 79.8635 148.616 79.8411C148.689 79.8186 148.899 79.7415 149.245 79.61C149.591 79.479 150.063 79.2802 150.661 79.0135C151.258 78.7465 151.953 78.3793 152.747 77.9121C153.541 77.4444 154.002 77.1653 154.129 77.0747C154.257 76.9838 154.529 76.7825 154.946 76.4707C155.363 76.1587 156.139 75.3873 157.276 74.1567C158.412 72.9266 159.164 72.0423 159.532 71.5038C159.9 70.9654 160.181 70.5295 160.375 70.1962C160.569 69.8632 160.784 69.4478 161.019 68.95C161.254 68.4521 161.437 68.0309 161.567 67.6866C161.697 67.3421 161.851 66.9024 162.028 66.3674C162.205 65.8323 162.321 65.4718 162.376 65.2859C162.431 65.1001 162.516 64.7879 162.633 64.3498C162.866 63.4427 163.271 61.8452 163.749 60.1799" fill="#B8E5BE"/>
<path d="M141.909 81.6926C141.935 81.2168 141.992 80.4707 142.084 79.9001C142.177 79.3297 142.26 78.8243 142.335 78.3836C142.41 77.9423 142.499 77.4523 142.604 76.9139C142.71 76.3756 142.785 76.0028 142.831 75.7956C142.878 75.5884 142.956 75.2986 143.067 74.9259C143.177 74.5534 143.316 74.1113 143.483 73.5996C143.65 73.088 143.829 72.6006 144.02 72.1374C144.212 71.6739 144.36 71.3361 144.465 71.1239C144.571 70.9122 144.744 70.5882 144.984 70.1521C145.224 69.7161 145.495 69.2832 145.796 68.8537C146.097 68.4242 146.407 68.0204 146.724 67.6418C147.041 67.2632 147.337 66.9357 147.61 66.6592C147.883 66.3829 148.141 66.1318 148.383 65.9064C148.626 65.6811 148.904 65.4441 149.218 65.1952C149.532 64.9462 149.955 64.6504 150.487 64.3078C151.019 63.965 151.581 63.6411 152.173 63.3363C152.766 63.0316 153.302 62.7869 153.782 62.6024C154.262 62.418 154.653 62.279 154.956 62.1853C155.259 62.0918 155.497 62.0179 155.671 61.9635C155.846 61.9094 156.22 61.8058 156.793 61.6529C157.365 61.4995 157.883 61.3752 158.347 61.2797C158.811 61.184 159.062 61.1329 159.099 61.1265C159.137 61.1204 159.596 61.0283 160.475 60.8503C161.354 60.6723 162.445 60.4488 163.749 60.1799C163.271 61.8452 162.866 63.4427 162.633 64.3498C162.516 64.7879 162.431 65.1001 162.376 65.2859C162.321 65.4718 162.205 65.8323 162.028 66.3674C161.851 66.9024 161.697 67.3421 161.567 67.6866C161.437 68.0309 161.254 68.4521 161.019 68.95C160.784 69.4478 160.569 69.8632 160.375 70.1962C160.181 70.5295 159.9 70.9654 159.532 71.5038C159.164 72.0423 158.412 72.9266 157.276 74.1567C156.139 75.3873 155.363 76.1587 154.946 76.4707C154.529 76.7825 154.257 76.9838 154.129 77.0747C154.002 77.1653 153.541 77.4444 152.747 77.9121C151.953 78.3793 151.258 78.7465 150.661 79.0135C150.063 79.2802 149.591 79.479 149.245 79.61C148.899 79.7415 148.689 79.8186 148.616 79.8411C148.542 79.8635 148.266 79.9529 147.787 80.1095C147.308 80.2658 146.73 80.4389 146.053 80.6288C145.376 80.8187 144.741 80.9824 144.15 81.1196C142.996 81.4236 142.249 81.6146 141.909 81.6926Z" stroke="#333333" stroke-linecap="round" stroke-linejoin="round"/>
<path d="M136.872 56.3363L136.9 55.8339C136.94 55.2443 136.984 54.7537 137.029 54.3623C137.075 53.9712 137.117 53.6441 137.153 53.3811C137.19 53.1183 137.227 52.8668 137.263 52.6268C137.299 52.3868 137.374 51.9707 137.489 51.3779C137.604 50.7848 137.689 50.3685 137.746 50.1291C137.803 49.8897 137.932 49.3995 138.132 48.6582C138.333 47.9168 138.488 47.3844 138.597 47.0608C138.705 46.7373 138.819 46.4243 138.937 46.1217C139.056 45.819 139.198 45.4732 139.363 45.0841C139.527 44.6947 139.698 44.3141 139.875 43.9423C140.052 43.5703 140.235 43.2069 140.424 42.8522C140.613 42.4979 140.785 42.1859 140.94 41.9161C141.094 41.6461 141.232 41.4187 141.352 41.2338C141.472 41.0487 141.638 40.816 141.847 40.5357C142.057 40.2551 142.312 39.9267 142.612 39.5507C142.912 39.1749 143.185 38.8446 143.433 38.5596C143.681 38.2743 143.951 37.9861 144.245 37.6948C144.538 37.4032 144.888 37.0788 145.295 36.722C145.702 36.3656 146.071 36.064 146.402 35.8171C146.734 35.5702 147.002 35.3835 147.207 35.2569C147.412 35.1298 147.623 35.0057 147.84 34.8846C148.056 34.7634 148.25 34.661 148.42 34.5776C148.59 34.4941 148.907 34.3521 149.371 34.1515C149.835 33.9507 150.367 33.7539 150.968 33.561C151.569 33.3678 152.495 33.1345 153.746 32.8613L154.893 32.5894" fill="#B8E5BE"/>
<path d="M136.872 56.3363C137.098 56.1371 137.597 55.6689 138.251 55.1413C138.383 55.0146 138.621 54.8152 138.963 54.5432C139.306 54.2714 139.662 53.9916 140.032 53.704C140.401 53.4167 140.715 53.1802 140.972 52.9942C141.23 52.8083 141.521 52.6 141.844 52.3692C142.167 52.1381 142.558 51.874 143.018 51.577C143.478 51.2802 143.895 51.0157 144.268 50.7833C144.642 50.5507 145.051 50.2886 145.495 49.9969C145.94 49.7048 146.276 49.4763 146.501 49.3115C146.726 49.146 147.029 48.9033 147.409 48.5835C147.789 48.2634 148.042 48.0428 148.168 47.9214C148.294 47.7998 148.599 47.4348 149.084 46.8264C149.569 46.2179 150.255 45.3461 151.142 44.2108C151.172 44.1558 151.244 44.0234 151.358 43.8136C151.473 43.6036 151.629 43.3162 151.827 42.9515C152.026 42.5866 152.208 42.2286 152.375 41.8777C152.542 41.5269 152.726 41.0987 152.928 40.5932C153.13 40.0874 153.333 39.5016 153.539 38.8359C153.746 38.1702 153.914 37.5841 154.046 37.0774C154.177 36.571 154.31 35.9968 154.445 35.3547C154.581 34.7128 154.694 34.1258 154.787 33.5941L154.893 32.5894" fill="#B8E5BE"/>
<path d="M136.872 56.3363L136.9 55.8339C136.94 55.2443 136.984 54.7537 137.029 54.3623C137.075 53.9712 137.117 53.6441 137.153 53.3811C137.19 53.1183 137.227 52.8668 137.263 52.6268C137.299 52.3868 137.374 51.9707 137.489 51.3779C137.604 50.7848 137.689 50.3685 137.746 50.1291C137.803 49.8897 137.932 49.3995 138.132 48.6582C138.333 47.9168 138.488 47.3844 138.597 47.0608C138.705 46.7373 138.819 46.4243 138.937 46.1217C139.056 45.819 139.198 45.4732 139.363 45.0841C139.527 44.6947 139.698 44.3141 139.875 43.9423C140.052 43.5703 140.235 43.2069 140.424 42.8522C140.613 42.4979 140.785 42.1859 140.94 41.9161C141.094 41.6461 141.232 41.4187 141.352 41.2338C141.472 41.0487 141.638 40.816 141.847 40.5357C142.057 40.2551 142.312 39.9267 142.612 39.5507C142.912 39.1749 143.185 38.8446 143.433 38.5596C143.681 38.2743 143.951 37.9861 144.245 37.6948C144.538 37.4032 144.888 37.0788 145.295 36.722C145.702 36.3656 146.071 36.064 146.402 35.8171C146.734 35.5702 147.002 35.3835 147.207 35.2569C147.412 35.1298 147.623 35.0057 147.84 34.8845C148.056 34.7634 148.25 34.661 148.42 34.5776C148.59 34.4941 148.907 34.3521 149.371 34.1515C149.835 33.9507 150.367 33.7539 150.968 33.561C151.569 33.3678 152.495 33.1345 153.746 32.8613L154.893 32.5894L154.787 33.5941C154.694 34.1258 154.581 34.7128 154.445 35.3547C154.31 35.9968 154.177 36.571 154.046 37.0774C153.914 37.5841 153.746 38.1702 153.539 38.8359C153.333 39.5016 153.13 40.0874 152.928 40.5932C152.726 41.0987 152.542 41.5269 152.375 41.8777C152.208 42.2286 152.026 42.5866 151.827 42.9515C151.629 43.3162 151.473 43.6036 151.358 43.8136C151.244 44.0234 151.172 44.1558 151.142 44.2108C150.255 45.3461 149.569 46.2179 149.084 46.8264C148.599 47.4348 148.294 47.7998 148.168 47.9214C148.042 48.0428 147.789 48.2634 147.409 48.5835C147.029 48.9033 146.726 49.146 146.501 49.3115C146.276 49.4763 145.94 49.7048 145.495 49.9969C145.051 50.2886 144.642 50.5507 144.268 50.7833C143.895 51.0157 143.478 51.2802 143.018 51.577C142.558 51.874 142.167 52.1381 141.844 52.3692C141.521 52.6 141.23 52.8083 140.972 52.9942C140.715 53.1802 140.401 53.4167 140.032 53.704C139.662 53.9916 139.306 54.2714 138.963 54.5432C138.621 54.8152 138.383 55.0146 138.251 55.1413C137.597 55.6689 137.098 56.1371 136.872 56.3363Z" stroke="#333333" stroke-linecap="round" stroke-linejoin="round"/>
<path d="M125.647 41.3557C125.285 41.2376 125.067 41.1801 125.023 41.1608C124.979 41.1413 124.813 41.0741 124.527 40.9595C124.24 40.8453 123.825 40.6803 123.281 40.4644C122.738 40.2484 122.273 40.0623 121.889 39.9061C121.504 39.75 121.142 39.5997 120.804 39.4552C120.465 39.3107 120.114 39.1584 119.75 38.9979C119.387 38.8367 118.958 38.6339 118.464 38.3897C117.97 38.1455 117.588 37.9475 117.32 37.7957C117.051 37.6442 116.794 37.4921 116.55 37.3395C116.305 37.1871 115.884 36.8949 115.287 36.4626C114.689 36.0302 114.249 35.6895 113.965 35.4404C113.681 35.1912 113.319 34.8231 112.881 34.3359C112.443 33.8484 111.881 33.2004 111.193 32.3918C111.14 32.3183 110.994 32.0835 110.756 31.6874C110.517 31.2914 110.275 30.7669 110.029 30.1139C109.783 29.461 109.615 28.9273 109.524 28.5125C109.433 28.098 109.37 27.7137 109.333 27.3595C109.296 27.005 109.27 26.611 109.257 26.1774C109.243 25.7438 109.238 25.3469 109.241 24.9869C109.244 24.627 109.26 24.2311 109.288 23.7994C109.317 23.3676 109.381 22.7679 109.482 22.0005C109.582 21.2336 109.699 20.481 109.832 19.7427C109.965 19.0047 110.098 18.2901 110.23 17.599C110.361 16.9078 110.528 16.0283 110.728 14.9605L110.824 14.2445" fill="#B8E5BE"/>
<path d="M125.647 41.3557C126.051 40.3105 126.294 39.6681 126.377 39.4285C126.46 39.1889 126.616 38.7257 126.846 38.0392C127.076 37.3532 127.23 36.867 127.307 36.5806C127.385 36.294 127.461 35.9587 127.536 35.5747C127.611 35.1906 127.665 34.61 127.697 33.8328C127.728 33.0556 127.716 32.321 127.658 31.6289C127.601 30.9366 127.529 30.3886 127.442 29.985C127.354 29.5815 127.262 29.2159 127.166 28.8883C127.07 28.5608 126.96 28.2375 126.838 27.9189C126.715 27.6007 126.624 27.3735 126.565 27.2373C126.506 27.1014 126.393 26.8709 126.226 26.5457C126.059 26.221 125.876 25.8978 125.677 25.5763C125.478 25.2545 125.281 24.9483 125.085 24.6578C124.889 24.3673 124.663 24.055 124.407 23.7207C124.15 23.3861 123.782 22.9589 123.303 22.439C123.152 22.2714 123.009 22.1158 122.874 21.9723C122.738 21.8286 122.55 21.6509 122.309 21.4391C122.068 21.2275 121.752 20.958 121.361 20.6306C120.97 20.303 120.617 20.0156 120.302 19.7682C119.986 19.5208 119.648 19.2716 119.288 19.0204C118.927 18.7691 118.562 18.5268 118.192 18.2936C117.822 18.0604 117.517 17.8794 117.278 17.7508C117.038 17.6221 116.744 17.463 116.395 17.2738C116.047 17.0849 115.644 16.8664 115.186 16.618C114.729 16.3694 114.302 16.1503 113.904 15.9605C113.506 15.7706 113.19 15.6211 112.955 15.5123C112.253 15.1877 111.521 14.6306 110.824 14.2445" fill="#B8E5BE"/>
<path d="M125.647 41.3557C125.285 41.2376 125.067 41.1801 125.023 41.1608C124.979 41.1413 124.813 41.0741 124.527 40.9595C124.24 40.8453 123.825 40.6803 123.281 40.4644C122.738 40.2484 122.273 40.0623 121.889 39.9061C121.504 39.75 121.142 39.5997 120.804 39.4552C120.465 39.3107 120.114 39.1584 119.75 38.9979C119.387 38.8367 118.958 38.6339 118.464 38.3897C117.97 38.1455 117.588 37.9475 117.32 37.7957C117.051 37.6442 116.794 37.4921 116.55 37.3395C116.305 37.1871 115.884 36.8949 115.287 36.4626C114.689 36.0302 114.249 35.6895 113.965 35.4404C113.681 35.1912 113.319 34.8231 112.881 34.3359C112.443 33.8484 111.881 33.2004 111.193 32.3918C111.14 32.3183 110.994 32.0835 110.756 31.6874C110.517 31.2914 110.275 30.7669 110.029 30.1139C109.783 29.461 109.615 28.9273 109.524 28.5125C109.433 28.098 109.37 27.7137 109.333 27.3595C109.296 27.005 109.27 26.611 109.257 26.1774C109.243 25.7438 109.238 25.3469 109.241 24.9869C109.244 24.627 109.26 24.2311 109.288 23.7994C109.317 23.3676 109.381 22.7679 109.482 22.0005C109.582 21.2336 109.699 20.481 109.832 19.7427C109.965 19.0047 110.098 18.2901 110.23 17.599C110.361 16.9078 110.528 16.0283 110.728 14.9605L110.824 14.2445C111.521 14.6306 112.253 15.1877 112.955 15.5123C113.19 15.6211 113.506 15.7706 113.904 15.9605C114.302 16.1503 114.729 16.3694 115.186 16.618C115.644 16.8664 116.047 17.0849 116.395 17.2738C116.744 17.463 117.038 17.6221 117.278 17.7508C117.517 17.8794 117.822 18.0604 118.192 18.2936C118.562 18.5268 118.927 18.7691 119.288 19.0204C119.648 19.2716 119.986 19.5208 120.302 19.7682C120.617 20.0156 120.97 20.303 121.361 20.6306C121.752 20.958 122.068 21.2275 122.309 21.4391C122.55 21.6509 122.738 21.8286 122.874 21.9723C123.009 22.1158 123.152 22.2714 123.303 22.439C123.782 22.9589 124.15 23.3861 124.407 23.7207C124.663 24.055 124.889 24.3673 125.085 24.6578C125.281 24.9483 125.478 25.2545 125.677 25.5763C125.876 25.8978 126.059 26.221 126.226 26.5457C126.393 26.8709 126.506 27.1014 126.565 27.2373C126.624 27.3735 126.715 27.6007 126.838 27.9189C126.96 28.2375 127.07 28.5608 127.166 28.8883C127.262 29.2159 127.354 29.5815 127.442 29.985C127.529 30.3886 127.601 30.9366 127.658 31.6289C127.716 32.321 127.728 33.0556 127.697 33.8328C127.665 34.61 127.611 35.1906 127.536 35.5747C127.461 35.9587 127.385 36.294 127.307 36.5806C127.23 36.867 127.076 37.3532 126.846 38.0392C126.616 38.7257 126.46 39.1889 126.377 39.4285C126.294 39.6681 126.051 40.3105 125.647 41.3557Z" stroke="#333333" stroke-linecap="round" stroke-linejoin="round"/>
<path d="M173.063 277.516C172.736 277.917 172.519 278.184 172.411 278.318C172.303 278.453 172.23 278.538 172.193 278.573C172.157 278.608 171.997 278.775 171.715 279.075C171.432 279.375 171.212 279.601 171.055 279.755C170.898 279.909 170.608 280.197 170.184 280.621C169.761 281.044 169.354 281.425 168.964 281.766C168.574 282.105 168.134 282.449 167.643 282.797C167.152 283.145 166.781 283.401 166.531 283.564C166.281 283.727 165.869 283.95 165.297 284.234C164.725 284.518 164.304 284.711 164.034 284.814C163.764 284.917 163.308 285.045 162.666 285.199C162.023 285.352 161.15 285.547 160.045 285.784C159.926 285.78 159.618 285.786 159.123 285.802C158.627 285.818 158.191 285.814 157.815 285.792C157.439 285.769 157.04 285.73 156.618 285.674C156.196 285.619 155.743 285.534 155.259 285.421C154.776 285.309 154.262 285.168 153.717 284.998C153.172 284.828 152.686 284.667 152.26 284.515C151.833 284.362 151.465 284.218 151.156 284.082C150.848 283.946 150.509 283.78 150.141 283.583C149.774 283.387 149.376 283.16 148.948 282.904C148.521 282.647 148.12 282.396 147.746 282.151C147.372 281.905 147.024 281.665 146.702 281.432C146.381 281.198 146.091 280.984 145.834 280.791C145.576 280.597 145.301 280.386 145.01 280.156C144.719 279.927 144.498 279.756 144.347 279.644C144.195 279.533 143.917 279.316 143.512 278.995C143.107 278.674 142.771 278.406 142.504 278.191C142.238 277.976 141.98 277.786 141.73 277.619C141.48 277.453 141.007 276.965 140.342 276.491" fill="#B8E5BE"/>
<path d="M173.063 277.516C172.887 277.425 172.563 277.253 172.247 277.082C171.931 276.911 171.551 276.705 171.109 276.462C170.666 276.219 170.265 276.004 169.906 275.817C169.548 275.63 169.159 275.436 168.739 275.234C168.319 275.033 168.097 274.926 168.074 274.913C168.051 274.9 167.916 274.844 167.67 274.745C167.423 274.647 167.07 274.508 166.609 274.328C166.148 274.147 165.752 273.996 165.421 273.875C165.09 273.753 164.766 273.641 164.449 273.538C164.131 273.436 163.817 273.343 163.505 273.261C163.193 273.18 162.755 273.079 162.189 272.96C161.623 272.841 161.227 272.763 161.001 272.725C160.774 272.688 160.515 272.646 160.223 272.6C159.931 272.553 159.455 272.507 158.795 272.462C158.134 272.417 157.661 272.393 157.376 272.39C157.09 272.387 156.79 272.393 156.477 272.409C156.163 272.425 155.787 272.45 155.351 272.483C154.914 272.517 154.47 272.562 154.021 272.617C153.571 272.673 153.115 272.74 152.653 272.817C152.191 272.894 151.766 272.97 151.377 273.044C150.989 273.118 150.559 273.208 150.088 273.314C149.616 273.42 149.222 273.512 148.905 273.592C148.587 273.671 148.328 273.741 148.127 273.801C147.926 273.862 147.696 273.934 147.436 274.017C147.176 274.101 146.854 274.206 146.468 274.332C146.083 274.459 145.708 274.584 145.344 274.709C144.981 274.834 144.544 274.988 144.032 275.172C143.519 275.356 143.091 275.516 142.747 275.65C142.402 275.785 141.601 276.065 140.342 276.491" fill="#B8E5BE"/>
<path d="M173.063 277.516C172.736 277.917 172.519 278.184 172.411 278.318C172.303 278.453 172.23 278.538 172.193 278.573C172.157 278.608 171.997 278.775 171.715 279.075C171.432 279.375 171.212 279.601 171.055 279.755C170.898 279.909 170.608 280.197 170.184 280.621C169.761 281.044 169.354 281.425 168.964 281.766C168.574 282.105 168.134 282.449 167.643 282.797C167.152 283.145 166.781 283.401 166.531 283.564C166.281 283.727 165.869 283.95 165.297 284.234C164.725 284.518 164.304 284.711 164.034 284.814C163.764 284.917 163.308 285.045 162.666 285.199C162.023 285.352 161.15 285.547 160.045 285.784C159.926 285.78 159.618 285.786 159.123 285.802C158.627 285.818 158.191 285.814 157.815 285.792C157.439 285.769 157.04 285.73 156.618 285.674C156.196 285.619 155.743 285.534 155.259 285.421C154.776 285.309 154.262 285.168 153.717 284.998C153.172 284.828 152.686 284.667 152.26 284.515C151.833 284.362 151.465 284.218 151.156 284.082C150.848 283.946 150.509 283.78 150.141 283.583C149.774 283.387 149.376 283.16 148.948 282.904C148.521 282.647 148.12 282.396 147.746 282.151C147.372 281.905 147.024 281.665 146.702 281.432C146.381 281.198 146.091 280.984 145.834 280.791C145.576 280.597 145.301 280.386 145.01 280.156C144.719 279.927 144.498 279.756 144.347 279.644C144.195 279.533 143.917 279.316 143.512 278.995C143.107 278.674 142.771 278.406 142.504 278.191C142.238 277.976 141.98 277.786 141.73 277.619C141.48 277.453 141.007 276.965 140.342 276.491C141.601 276.065 142.402 275.785 142.747 275.65C143.091 275.516 143.519 275.356 144.032 275.172C144.544 274.988 144.981 274.834 145.344 274.709C145.708 274.584 146.083 274.459 146.468 274.332C146.854 274.206 147.176 274.101 147.436 274.017C147.696 273.934 147.926 273.862 148.127 273.801C148.328 273.741 148.587 273.671 148.905 273.592C149.222 273.512 149.616 273.42 150.088 273.314C150.559 273.208 150.989 273.118 151.377 273.044C151.766 272.97 152.191 272.894 152.653 272.817C153.115 272.74 153.571 272.673 154.021 272.617C154.47 272.562 154.914 272.517 155.351 272.483C155.787 272.45 156.163 272.425 156.477 272.409C156.79 272.393 157.09 272.387 157.376 272.39C157.661 272.393 158.134 272.417 158.795 272.462C159.455 272.507 159.931 272.553 160.223 272.6C160.515 272.646 160.774 272.688 161.001 272.725C161.227 272.763 161.623 272.841 162.189 272.96C162.755 273.079 163.193 273.18 163.505 273.261C163.817 273.343 164.131 273.436 164.449 273.538C164.766 273.641 165.09 273.753 165.421 273.875C165.752 273.996 166.148 274.147 166.609 274.328C167.07 274.508 167.423 274.647 167.67 274.745C167.916 274.844 168.051 274.9 168.074 274.913C168.097 274.926 168.319 275.033 168.739 275.234C169.159 275.436 169.548 275.63 169.906 275.817C170.265 276.004 170.666 276.219 171.109 276.462C171.551 276.705 171.931 276.911 172.247 277.082C172.563 277.253 172.887 277.425 173.063 277.516Z" stroke="#333333" stroke-linecap="round" stroke-linejoin="round"/>
<path d="M150.978 255.806C150.621 256.2 150.173 256.778 150.086 256.873C150 256.969 149.87 257.099 149.698 257.263C149.526 257.427 149.36 257.585 149.199 257.737C149.038 257.888 148.778 258.115 148.421 258.417C148.063 258.719 147.56 259.095 146.913 259.545C146.265 259.994 145.714 260.341 145.26 260.584C144.805 260.827 144.377 261.034 143.976 261.204C143.575 261.374 143.233 261.503 142.949 261.591C142.666 261.679 142.427 261.745 142.233 261.788C142.039 261.832 141.77 261.875 141.426 261.918C141.081 261.962 140.63 261.989 140.072 261.999C139.514 262.009 138.595 261.916 137.316 261.721C137.23 261.704 136.845 261.574 136.161 261.33C135.477 261.088 134.957 260.879 134.601 260.705C134.246 260.53 133.935 260.36 133.67 260.194C133.404 260.028 133.078 259.813 132.691 259.548C132.305 259.283 131.873 258.967 131.393 258.6C130.913 258.233 130.351 257.768 129.708 257.204C129.064 256.641 128.536 256.169 128.121 255.79C127.707 255.411 126.773 254.453 126.259 253.989" fill="#B8E5BE"/>
<path d="M150.978 255.806C150.804 255.685 150.569 255.521 150.274 255.315C149.979 255.109 149.627 254.866 149.217 254.585C148.806 254.304 148.434 254.057 148.098 253.844C147.763 253.63 147.397 253.408 147.001 253.179C146.606 252.95 146.268 252.763 145.989 252.619C145.709 252.475 145.515 252.383 145.406 252.341C145.298 252.3 145.193 252.255 145.09 252.205C144.988 252.156 144.762 252.061 144.412 251.919C144.063 251.778 143.77 251.667 143.534 251.586C143.298 251.505 143.118 251.447 142.995 251.412C142.873 251.377 142.673 251.33 142.395 251.272C142.117 251.215 141.741 251.14 141.267 251.049C140.794 250.958 140.384 250.887 140.039 250.836C139.693 250.784 139.357 250.749 139.03 250.731C138.704 250.713 138.397 250.704 138.111 250.702C137.824 250.7 137.295 250.737 136.525 250.814C135.754 250.889 135.105 250.977 134.578 251.076C134.05 251.175 133.681 251.249 133.471 251.296C133.261 251.344 132.998 251.412 132.683 251.501C132.367 251.59 131.957 251.714 131.452 251.873C130.946 252.031 130.474 252.189 130.034 252.344C129.594 252.5 129.181 252.664 128.794 252.835C128.406 253.005 128.028 253.173 127.657 253.338C127.288 253.502 126.821 253.719 126.259 253.989" fill="#B8E5BE"/>
<path d="M150.978 255.806C150.621 256.2 150.173 256.778 150.086 256.873C150 256.969 149.87 257.099 149.698 257.263C149.526 257.427 149.36 257.585 149.199 257.737C149.038 257.888 148.778 258.115 148.421 258.417C148.063 258.719 147.56 259.095 146.913 259.545C146.265 259.994 145.714 260.341 145.26 260.584C144.805 260.827 144.377 261.034 143.976 261.204C143.575 261.374 143.233 261.503 142.949 261.591C142.666 261.679 142.427 261.745 142.233 261.788C142.039 261.832 141.77 261.875 141.426 261.918C141.081 261.962 140.63 261.989 140.072 261.999C139.514 262.009 138.595 261.916 137.316 261.721C137.23 261.704 136.845 261.574 136.161 261.33C135.477 261.088 134.957 260.879 134.601 260.705C134.246 260.53 133.935 260.36 133.67 260.194C133.404 260.028 133.078 259.813 132.691 259.548C132.305 259.283 131.873 258.967 131.393 258.6C130.913 258.233 130.351 257.768 129.708 257.204C129.064 256.641 128.536 256.169 128.121 255.79C127.707 255.411 126.773 254.453 126.259 253.989C126.821 253.719 127.288 253.502 127.657 253.338C128.028 253.173 128.406 253.005 128.794 252.835C129.181 252.664 129.594 252.5 130.034 252.344C130.474 252.189 130.946 252.031 131.452 251.873C131.957 251.714 132.367 251.59 132.683 251.501C132.998 251.412 133.261 251.344 133.471 251.296C133.681 251.249 134.05 251.175 134.578 251.076C135.105 250.977 135.754 250.889 136.525 250.814C137.295 250.737 137.824 250.7 138.111 250.702C138.397 250.704 138.704 250.713 139.03 250.731C139.357 250.749 139.693 250.784 140.039 250.836C140.384 250.887 140.794 250.958 141.267 251.049C141.741 251.14 142.117 251.215 142.395 251.272C142.673 251.33 142.873 251.377 142.995 251.412C143.118 251.447 143.298 251.505 143.534 251.586C143.77 251.667 144.063 251.778 144.412 251.919C144.762 252.061 144.988 252.156 145.09 252.205C145.193 252.255 145.298 252.3 145.406 252.341C145.515 252.383 145.709 252.475 145.989 252.619C146.268 252.763 146.606 252.95 147.001 253.179C147.397 253.408 147.763 253.63 148.098 253.843C148.434 254.057 148.806 254.304 149.217 254.585C149.627 254.866 149.979 255.109 150.274 255.315C150.569 255.521 150.804 255.685 150.978 255.806Z" stroke="#333333" stroke-linecap="round" stroke-linejoin="round"/>
<path d="M135.008 234.226L134.493 234.481C134.06 234.673 133.723 234.814 133.483 234.904C133.242 234.994 132.862 235.143 132.343 235.35C131.824 235.558 131.339 235.739 130.889 235.894C130.438 236.049 130.03 236.179 129.663 236.284C129.296 236.389 128.896 236.494 128.463 236.601C128.029 236.708 127.635 236.798 127.28 236.871C126.925 236.943 126.54 237.008 126.125 237.065C125.71 237.122 125.392 237.159 125.171 237.174C124.95 237.19 124.595 237.196 124.105 237.192C123.616 237.189 123.049 237.145 122.404 237.062C121.759 236.98 121.317 236.914 121.079 236.865C120.84 236.816 120.448 236.689 119.903 236.485C119.359 236.282 118.621 235.993 117.691 235.618C117.454 235.521 117.014 235.267 116.37 234.856C115.726 234.444 115.246 234.12 114.93 233.884C114.614 233.647 114.35 233.431 114.135 233.236C113.922 233.04 113.563 232.692 113.059 232.191C112.556 231.691 112.211 231.339 112.025 231.136C111.839 230.934 111.731 230.814 111.703 230.778C111.674 230.742 111.426 230.442 110.958 229.877C110.49 229.312 110.151 228.896 109.943 228.627C109.735 228.359 109.486 228.031 109.196 227.644C108.905 227.258 107.967 226.156 106.761 224.497" fill="#B8E5BE"/>
<path d="M135.008 234.226C134.833 233.8 134.824 233.321 134.236 232.602C133.847 232.164 133.492 231.786 133.172 231.467C132.851 231.148 132.501 230.82 132.12 230.482C131.738 230.144 131.424 229.872 131.177 229.666C130.93 229.46 130.72 229.288 130.549 229.151C130.378 229.014 130.084 228.8 129.667 228.51C129.25 228.22 128.855 227.954 128.482 227.713C128.109 227.471 127.911 227.342 127.887 227.325C127.863 227.309 127.668 227.194 127.3 226.979C126.932 226.765 126.538 226.548 126.117 226.33C125.696 226.112 125.462 225.993 125.415 225.972C125.367 225.952 125.246 225.898 125.052 225.808C124.857 225.719 124.575 225.6 124.205 225.449C123.836 225.298 123.335 225.113 122.702 224.895C122.069 224.677 121.56 224.512 121.175 224.4C120.79 224.288 120.396 224.184 119.993 224.091C119.59 223.996 119.288 223.931 119.086 223.896C118.885 223.86 118.452 223.802 117.787 223.721C117.122 223.641 116.582 223.586 116.168 223.557C115.753 223.527 115.216 223.525 114.559 223.55C113.901 223.576 113.247 223.624 112.597 223.696C111.947 223.768 111.363 223.841 110.847 223.915C110.33 223.989 109.776 224.068 109.185 224.152C109.038 224.187 108.23 224.303 106.761 224.497" fill="#B8E5BE"/>
<path d="M135.008 234.226L134.493 234.481C134.06 234.673 133.723 234.814 133.483 234.904C133.242 234.994 132.862 235.143 132.343 235.35C131.824 235.558 131.339 235.739 130.889 235.894C130.438 236.049 130.03 236.179 129.663 236.284C129.296 236.389 128.896 236.494 128.463 236.601C128.029 236.708 127.635 236.798 127.28 236.871C126.925 236.943 126.54 237.008 126.125 237.065C125.71 237.122 125.392 237.159 125.171 237.174C124.95 237.19 124.595 237.196 124.105 237.192C123.616 237.189 123.049 237.145 122.404 237.062C121.759 236.98 121.317 236.914 121.079 236.865C120.84 236.816 120.448 236.689 119.903 236.485C119.359 236.282 118.621 235.993 117.691 235.618C117.454 235.521 117.014 235.267 116.37 234.856C115.726 234.444 115.246 234.12 114.93 233.884C114.614 233.647 114.35 233.431 114.135 233.236C113.922 233.04 113.563 232.692 113.059 232.191C112.556 231.691 112.211 231.339 112.025 231.136C111.839 230.934 111.731 230.814 111.703 230.778C111.674 230.742 111.426 230.442 110.958 229.877C110.49 229.312 110.151 228.896 109.943 228.627C109.735 228.359 109.486 228.031 109.196 227.644C108.905 227.258 107.967 226.156 106.761 224.497C108.23 224.303 109.038 224.187 109.185 224.152C109.776 224.068 110.33 223.989 110.847 223.915C111.363 223.841 111.947 223.768 112.597 223.696C113.247 223.624 113.901 223.576 114.559 223.55C115.216 223.525 115.753 223.527 116.168 223.557C116.582 223.586 117.122 223.641 117.787 223.721C118.452 223.802 118.885 223.86 119.086 223.896C119.288 223.931 119.59 223.996 119.993 224.091C120.396 224.184 120.79 224.288 121.175 224.4C121.56 224.512 122.069 224.677 122.702 224.895C123.335 225.113 123.836 225.298 124.205 225.449C124.575 225.6 124.857 225.719 125.052 225.808C125.246 225.898 125.367 225.952 125.415 225.972C125.462 225.993 125.696 226.112 126.117 226.33C126.538 226.548 126.932 226.765 127.3 226.979C127.668 227.194 127.863 227.309 127.887 227.325C127.911 227.342 128.109 227.471 128.482 227.713C128.855 227.954 129.25 228.22 129.667 228.51C130.084 228.8 130.378 229.014 130.549 229.151C130.72 229.288 130.93 229.46 131.177 229.666C131.424 229.872 131.738 230.144 132.12 230.482C132.501 230.82 132.851 231.148 133.172 231.467C133.492 231.786 133.847 232.164 134.236 232.602C134.824 233.321 134.833 233.8 135.008 234.226Z" stroke="#333333" stroke-linecap="round" stroke-linejoin="round"/>
<path d="M124.656 208.868C124.373 208.964 123.978 209.083 123.469 209.225C122.961 209.366 122.535 209.482 122.191 209.573C121.847 209.663 121.337 209.783 120.662 209.932C119.987 210.081 119.445 210.195 119.038 210.275C118.631 210.356 118.232 210.429 117.841 210.495C117.45 210.561 117.089 210.619 116.76 210.669C116.43 210.718 116.066 210.77 115.666 210.825C115.267 210.88 114.911 210.924 114.599 210.959C114.287 210.995 113.962 211.024 113.624 211.047C113.287 211.071 112.881 211.076 112.406 211.063C111.932 211.05 111.395 211.012 110.796 210.948C110.196 210.884 109.717 210.81 109.358 210.725C108.999 210.641 108.645 210.54 108.297 210.422C107.949 210.305 107.756 210.24 107.721 210.225C107.684 210.21 107.397 210.064 106.859 209.786C106.32 209.508 105.79 209.175 105.269 208.787C104.748 208.399 104.314 208.035 103.967 207.695C103.62 207.354 103.377 207.103 103.239 206.94C103.1 206.777 102.925 206.545 102.713 206.245C102.502 205.944 102.3 205.623 102.109 205.281C101.918 204.939 101.699 204.518 101.452 204.019C101.205 203.519 100.99 203.066 100.806 202.658C100.623 202.251 100.444 201.819 100.269 201.362C100.094 200.906 99.9047 200.402 99.7004 199.849C99.496 199.297 99.097 197.741 98.4407 195.952" fill="#B8E5BE"/>
<path d="M124.656 208.868C124.181 208.023 123.842 207.584 123.693 207.323C123.544 207.062 123.417 206.844 123.314 206.67C123.211 206.496 122.953 206.104 122.54 205.494C122.127 204.883 121.907 204.558 121.88 204.519C121.853 204.48 121.757 204.359 121.592 204.158C121.429 203.956 121.193 203.673 120.885 203.308C120.577 202.943 120.262 202.596 119.938 202.266C119.615 201.936 119.283 201.621 118.942 201.32C118.601 201.019 118.326 200.779 118.115 200.6C117.904 200.42 117.738 200.286 117.617 200.196C117.495 200.107 117.296 199.973 117.022 199.794C116.747 199.616 116.504 199.467 116.295 199.345C116.084 199.224 115.806 199.077 115.459 198.905C115.113 198.734 114.708 198.557 114.247 198.374C113.786 198.191 113.391 198.045 113.062 197.936C112.732 197.828 112.362 197.726 111.952 197.63C111.541 197.534 111.03 197.425 110.42 197.303C109.809 197.181 109.263 197.079 108.781 196.997C108.299 196.914 107.797 196.843 107.277 196.782C106.757 196.721 106.282 196.674 105.852 196.641C105.423 196.607 104.981 196.571 104.528 196.532C104.074 196.493 103.634 196.452 103.208 196.41C102.781 196.368 102.36 196.321 101.942 196.27C101.525 196.219 101.246 196.183 101.106 196.161C100.966 196.139 100.652 196.101 100.165 196.048C99.6775 195.995 99.1027 195.963 98.4407 195.952" fill="#B8E5BE"/>
<path d="M124.656 208.868C124.373 208.964 123.978 209.083 123.469 209.225C122.961 209.366 122.535 209.482 122.191 209.573C121.847 209.663 121.337 209.783 120.662 209.932C119.987 210.081 119.445 210.195 119.038 210.275C118.631 210.356 118.232 210.429 117.841 210.495C117.45 210.561 117.089 210.619 116.76 210.669C116.43 210.718 116.066 210.77 115.666 210.825C115.267 210.88 114.911 210.924 114.599 210.959C114.287 210.995 113.962 211.024 113.624 211.047C113.287 211.071 112.881 211.076 112.406 211.063C111.932 211.05 111.395 211.012 110.796 210.948C110.196 210.884 109.717 210.81 109.358 210.725C108.999 210.641 108.645 210.54 108.297 210.422C107.949 210.305 107.756 210.24 107.721 210.225C107.684 210.21 107.397 210.064 106.859 209.786C106.32 209.508 105.79 209.175 105.269 208.787C104.748 208.399 104.314 208.035 103.967 207.695C103.62 207.354 103.377 207.103 103.239 206.94C103.1 206.777 102.925 206.545 102.713 206.245C102.502 205.944 102.3 205.623 102.109 205.281C101.918 204.939 101.699 204.518 101.452 204.019C101.205 203.519 100.99 203.066 100.806 202.658C100.623 202.251 100.444 201.819 100.269 201.362C100.094 200.906 99.9047 200.402 99.7004 199.849C99.496 199.297 99.097 197.741 98.4407 195.952C99.1027 195.963 99.6775 195.995 100.165 196.048C100.652 196.101 100.966 196.139 101.106 196.161C101.246 196.183 101.525 196.219 101.942 196.27C102.36 196.321 102.781 196.368 103.208 196.41C103.634 196.452 104.074 196.493 104.528 196.532C104.981 196.571 105.423 196.607 105.852 196.641C106.282 196.674 106.757 196.721 107.277 196.782C107.797 196.843 108.299 196.914 108.781 196.997C109.263 197.079 109.809 197.181 110.42 197.303C111.03 197.425 111.541 197.534 111.952 197.63C112.362 197.726 112.732 197.828 113.062 197.936C113.391 198.045 113.786 198.191 114.247 198.374C114.708 198.557 115.113 198.734 115.459 198.905C115.806 199.077 116.084 199.224 116.295 199.345C116.504 199.467 116.747 199.616 117.022 199.794C117.296 199.973 117.495 200.107 117.617 200.196C117.738 200.286 117.904 200.42 118.115 200.6C118.326 200.779 118.601 201.019 118.942 201.32C119.283 201.621 119.615 201.936 119.938 202.266C120.262 202.596 120.577 202.943 120.885 203.308C121.193 203.673 121.429 203.956 121.592 204.158C121.757 204.359 121.853 204.48 121.88 204.519C121.907 204.558 122.127 204.883 122.54 205.494C122.953 206.104 123.211 206.496 123.314 206.67C123.417 206.844 123.544 207.062 123.693 207.323C123.842 207.584 124.181 208.023 124.656 208.868Z" stroke="#333333" stroke-linecap="round" stroke-linejoin="round"/>
<path d="M121.817 184.13C121.651 184.137 121.377 184.158 120.995 184.192L120.243 184.192C119.892 184.191 119.519 184.185 119.124 184.172C118.729 184.16 118.311 184.142 117.872 184.119C117.433 184.095 117.055 184.072 116.739 184.048C116.423 184.024 116.121 183.995 115.832 183.96C115.543 183.925 115.298 183.887 115.097 183.846C114.896 183.804 114.715 183.762 114.554 183.718C114.392 183.674 114.154 183.59 113.838 183.465C113.522 183.341 113.102 183.169 112.577 182.95C112.053 182.73 111.623 182.543 111.286 182.387C110.949 182.232 110.668 182.086 110.444 181.949C110.219 181.812 110.092 181.735 110.062 181.718C110.033 181.701 109.85 181.569 109.515 181.32C109.18 181.072 108.922 180.873 108.742 180.724C108.562 180.575 108.322 180.353 108.023 180.059C107.724 179.765 107.562 179.603 107.536 179.575C107.509 179.546 107.334 179.33 107.008 178.928C106.683 178.525 106.204 177.931 105.57 177.144C105.516 177.073 105.402 176.886 105.231 176.582C105.059 176.278 104.829 175.858 104.539 175.321C104.25 174.783 103.997 174.302 103.783 173.876C103.568 173.45 103.355 173.001 103.144 172.529C102.933 172.056 102.723 171.575 102.514 171.087C102.305 170.599 102.127 170.187 101.98 169.851C101.834 169.514 101.634 169.051 101.382 168.461C101.129 167.871 100.67 166.762 99.8217 164.912" fill="#B8E5BE"/>
<path d="M121.817 184.13L121.617 182.687C121.547 182.381 121.461 182.04 121.358 181.663C121.255 181.286 121.13 180.881 120.984 180.449C120.836 180.016 120.697 179.643 120.567 179.33C120.435 179.016 120.292 178.703 120.135 178.391C119.977 178.079 119.698 177.609 119.297 176.98C118.895 176.351 118.551 175.845 118.266 175.464C117.98 175.082 117.659 174.685 117.304 174.273C116.949 173.861 116.743 173.626 116.685 173.568C116.626 173.51 116.503 173.382 116.314 173.187C116.125 172.991 115.925 172.794 115.713 172.598C115.502 172.403 115.249 172.174 114.952 171.912C114.656 171.651 114.407 171.436 114.207 171.266C114.006 171.096 113.826 170.952 113.668 170.834C113.511 170.717 113.383 170.625 113.284 170.558C113.185 170.492 113.059 170.402 112.906 170.287C112.753 170.172 112.407 169.946 111.869 169.608C111.331 169.27 110.796 168.962 110.265 168.682C109.734 168.402 109.247 168.16 108.806 167.955C108.364 167.75 108.009 167.591 107.74 167.479C107.472 167.366 107.131 167.236 106.717 167.088C106.303 166.94 105.879 166.794 105.444 166.648C105.009 166.503 104.512 166.35 103.952 166.191C103.393 166.031 102.871 165.877 102.386 165.729C101.903 165.582 101.595 165.484 101.465 165.436C101.336 165.389 100.788 165.214 99.8217 164.912" fill="#B8E5BE"/>
<path d="M121.817 184.13C121.651 184.137 121.377 184.158 120.995 184.192L120.243 184.192C119.892 184.191 119.519 184.185 119.124 184.172C118.729 184.16 118.311 184.142 117.872 184.119C117.433 184.095 117.055 184.072 116.739 184.048C116.423 184.024 116.121 183.995 115.832 183.96C115.543 183.925 115.298 183.887 115.097 183.846C114.896 183.804 114.715 183.762 114.554 183.718C114.392 183.674 114.154 183.59 113.838 183.465C113.522 183.341 113.102 183.169 112.577 182.95C112.053 182.73 111.623 182.543 111.286 182.387C110.949 182.232 110.668 182.086 110.444 181.949C110.219 181.812 110.092 181.735 110.062 181.718C110.033 181.701 109.85 181.569 109.515 181.32C109.18 181.072 108.922 180.873 108.742 180.724C108.562 180.575 108.322 180.353 108.023 180.059C107.724 179.765 107.562 179.603 107.536 179.575C107.509 179.546 107.334 179.33 107.008 178.928C106.683 178.525 106.204 177.931 105.57 177.144C105.516 177.073 105.402 176.886 105.231 176.582C105.059 176.278 104.829 175.858 104.539 175.321C104.25 174.783 103.997 174.302 103.783 173.876C103.568 173.45 103.355 173.001 103.144 172.529C102.933 172.056 102.723 171.575 102.514 171.087C102.305 170.599 102.127 170.187 101.98 169.851C101.834 169.514 101.634 169.051 101.382 168.461C101.129 167.871 100.67 166.762 99.8217 164.912C100.788 165.214 101.336 165.389 101.465 165.436C101.595 165.484 101.903 165.582 102.386 165.729C102.871 165.877 103.393 166.031 103.952 166.191C104.512 166.35 105.009 166.503 105.444 166.648C105.879 166.794 106.303 166.94 106.717 167.088C107.131 167.236 107.472 167.366 107.74 167.479C108.009 167.591 108.364 167.75 108.806 167.955C109.247 168.16 109.734 168.402 110.265 168.682C110.796 168.962 111.331 169.27 111.869 169.608C112.407 169.946 112.753 170.172 112.906 170.287C113.059 170.402 113.185 170.492 113.284 170.558C113.383 170.625 113.511 170.717 113.668 170.834C113.826 170.952 114.006 171.096 114.207 171.266C114.407 171.436 114.656 171.651 114.952 171.912C115.249 172.174 115.502 172.403 115.713 172.598C115.925 172.794 116.125 172.991 116.314 173.187C116.503 173.382 116.626 173.51 116.685 173.568C116.743 173.626 116.949 173.861 117.304 174.273C117.659 174.685 117.98 175.082 118.266 175.464C118.551 175.845 118.895 176.351 119.297 176.98C119.698 177.609 119.977 178.079 120.135 178.391C120.292 178.703 120.435 179.016 120.567 179.33C120.697 179.643 120.836 180.016 120.984 180.449C121.13 180.881 121.255 181.286 121.358 181.663C121.461 182.04 121.547 182.381 121.617 182.687L121.817 184.13Z" stroke="#333333" stroke-linecap="round" stroke-linejoin="round"/>
<path d="M125.119 152.576C124.687 152.741 124.531 152.892 124.239 152.979C123.462 153.202 122.789 153.365 122.22 153.47C121.652 153.574 121.196 153.64 120.855 153.666C120.514 153.691 120.102 153.691 119.622 153.665C119.141 153.638 118.701 153.606 118.303 153.567C117.904 153.529 117.468 153.481 116.992 153.424C116.517 153.367 116.095 153.315 115.725 153.267C115.356 153.219 114.975 153.167 114.581 153.112C114.188 153.056 113.919 153.008 113.774 152.966C113.63 152.924 113.256 152.803 112.653 152.603C112.049 152.402 111.487 152.181 110.967 151.941C110.448 151.7 109.983 151.452 109.572 151.196C109.162 150.94 108.778 150.669 108.42 150.382C108.061 150.095 107.697 149.76 107.328 149.377C106.96 148.994 106.646 148.639 106.388 148.314C106.184 148.073 105.99 147.807 105.807 147.517C105.623 147.227 105.348 146.738 104.983 146.049C104.618 145.361 104.332 144.744 104.126 144.199C103.92 143.654 103.778 143.255 103.699 143.001C103.621 142.747 103.5 142.268 103.335 141.562C103.17 140.857 103.063 140.365 103.013 140.088C102.963 139.811 102.881 139.313 102.769 138.595C102.617 137.803 102.682 137.004 102.591 136.376" fill="#B8E5BE"/>
<path d="M125.119 152.576C124.899 152.234 124.729 151.954 124.608 151.737C124.488 151.519 124.312 151.2 124.081 150.781C123.591 149.896 123.217 149.238 122.959 148.808C122.701 148.377 122.449 147.971 122.204 147.591C121.959 147.211 121.638 146.729 121.24 146.145C120.842 145.561 120.472 145.065 120.131 144.658C119.79 144.251 119.496 143.918 119.249 143.66C119.003 143.402 118.753 143.155 118.502 142.919C118.25 142.683 117.924 142.403 117.525 142.08C117.126 141.756 116.717 141.446 116.299 141.148C115.881 140.851 115.493 140.603 115.134 140.405C114.776 140.207 114.429 140.019 114.095 139.842C113.761 139.665 113.419 139.494 113.071 139.33C112.723 139.165 112.497 139.062 112.395 139.021C112.293 138.98 112.087 138.9 111.778 138.781C111.469 138.662 111.041 138.505 110.492 138.309C109.944 138.114 109.449 137.952 109.008 137.822C108.567 137.692 108.1 137.569 107.608 137.453C107.116 137.337 106.66 137.238 106.241 137.156C105.821 137.075 105.528 137.017 105.361 136.983C105.194 136.948 104.905 136.883 104.495 136.786C104.085 136.69 103.45 136.553 102.591 136.376" fill="#B8E5BE"/>
<path d="M125.119 152.576C124.687 152.741 124.531 152.892 124.239 152.979C123.462 153.202 122.789 153.365 122.22 153.47C121.652 153.574 121.196 153.64 120.855 153.666C120.514 153.691 120.102 153.691 119.622 153.665C119.141 153.638 118.701 153.606 118.303 153.567C117.904 153.529 117.468 153.481 116.992 153.424C116.517 153.367 116.095 153.315 115.725 153.267C115.356 153.219 114.975 153.167 114.581 153.112C114.188 153.056 113.919 153.008 113.774 152.966C113.63 152.924 113.256 152.803 112.653 152.603C112.049 152.402 111.487 152.181 110.967 151.941C110.448 151.7 109.983 151.452 109.572 151.196C109.162 150.94 108.778 150.669 108.42 150.382C108.061 150.095 107.697 149.76 107.328 149.377C106.96 148.994 106.646 148.639 106.388 148.314C106.184 148.073 105.99 147.807 105.807 147.517C105.623 147.227 105.348 146.738 104.983 146.049C104.618 145.361 104.332 144.744 104.126 144.199C103.92 143.654 103.778 143.255 103.699 143.001C103.621 142.747 103.5 142.268 103.335 141.562C103.17 140.857 103.063 140.365 103.013 140.088C102.963 139.811 102.881 139.313 102.769 138.595C102.617 137.803 102.682 137.004 102.591 136.376C103.45 136.553 104.085 136.69 104.495 136.786C104.905 136.883 105.194 136.948 105.361 136.983C105.528 137.017 105.821 137.075 106.241 137.156C106.66 137.238 107.116 137.337 107.608 137.453C108.1 137.569 108.567 137.692 109.008 137.822C109.449 137.952 109.944 138.114 110.492 138.309C111.041 138.505 111.469 138.662 111.778 138.781C112.087 138.9 112.293 138.98 112.395 139.021C112.497 139.062 112.723 139.165 113.071 139.33C113.419 139.494 113.761 139.665 114.095 139.842C114.429 140.019 114.776 140.207 115.134 140.405C115.493 140.603 115.881 140.851 116.299 141.148C116.717 141.446 117.126 141.756 117.525 142.08C117.924 142.403 118.25 142.683 118.502 142.919C118.753 143.155 119.003 143.402 119.249 143.66C119.496 143.918 119.79 144.251 120.131 144.658C120.472 145.065 120.842 145.561 121.24 146.145C121.638 146.729 121.959 147.211 122.204 147.591C122.449 147.971 122.701 148.377 122.959 148.808C123.217 149.238 123.591 149.896 124.081 150.781C124.312 151.2 124.488 151.519 124.608 151.737C124.729 151.954 124.899 152.234 125.119 152.576Z" stroke="#333333" stroke-linecap="round" stroke-linejoin="round"/>
<path d="M130.602 126.317C129.998 126.281 129.337 126.313 129.048 126.279C128.759 126.244 128.38 126.193 127.91 126.126C127.44 126.058 127.108 126.008 126.916 125.977C126.724 125.946 126.24 125.842 125.465 125.663C124.689 125.485 124.157 125.353 123.867 125.267C123.577 125.181 123.082 124.994 122.383 124.708C121.683 124.42 121.014 124.077 120.375 123.678C119.736 123.279 119.089 122.785 118.435 122.197C117.781 121.609 117.25 121.055 116.841 120.534C116.432 120.014 116.122 119.59 115.911 119.265C115.701 118.939 115.389 118.395 114.973 117.634C114.558 116.873 114.143 115.95 113.728 114.864C113.313 113.779 113.048 113.053 112.935 112.687C112.822 112.32 112.647 111.723 112.412 110.896C112.176 110.069 112.005 109.437 111.897 108.999C111.79 108.562 111.705 108.211 111.643 107.945C111.58 107.68 111.577 107.24 111.756 106.548" fill="#B8E5BE"/>
<path d="M130.602 126.317L130.544 125.872C130.489 124.801 130.436 124.064 130.386 123.66C130.336 123.255 130.249 122.743 130.124 122.122C129.999 121.502 129.865 120.962 129.724 120.503C129.582 120.044 129.447 119.647 129.32 119.312C129.193 118.977 129.05 118.628 128.891 118.265C128.731 117.903 128.598 117.603 128.49 117.368C128.382 117.132 128.285 116.932 128.2 116.77C128.114 116.607 127.953 116.338 127.717 115.961C127.48 115.584 127.249 115.246 127.023 114.947C126.797 114.648 126.602 114.402 126.437 114.209C126.273 114.015 125.969 113.714 125.525 113.304C125.081 112.895 124.61 112.505 124.111 112.135C123.612 111.765 123.214 111.486 122.915 111.299C122.617 111.112 122.328 110.943 122.049 110.791C121.77 110.64 121.452 110.474 121.093 110.295C120.734 110.116 120.411 109.959 120.124 109.825C119.836 109.69 119.53 109.554 119.205 109.418C118.88 109.283 118.38 109.096 117.705 108.858C117.029 108.619 116.423 108.421 115.888 108.262C115.352 108.103 114.92 107.969 114.59 107.859C114.26 107.749 113.954 107.638 113.673 107.526C113.392 107.415 113.194 107.333 113.079 107.281C112.964 107.229 112.797 107.147 112.578 107.036C112.359 106.924 112.206 106.844 112.118 106.797C112.03 106.75 111.909 106.667 111.756 106.548" fill="#B8E5BE"/>
<path d="M130.602 126.317C129.998 126.281 129.337 126.313 129.048 126.279C128.759 126.244 128.38 126.193 127.91 126.126C127.44 126.058 127.108 126.008 126.916 125.977C126.724 125.946 126.24 125.842 125.465 125.663C124.689 125.485 124.157 125.353 123.867 125.267C123.577 125.181 123.082 124.994 122.383 124.708C121.683 124.42 121.014 124.077 120.375 123.678C119.736 123.279 119.089 122.785 118.435 122.197C117.781 121.609 117.25 121.055 116.841 120.534C116.432 120.014 116.122 119.59 115.911 119.265C115.701 118.939 115.389 118.395 114.973 117.634C114.558 116.873 114.143 115.95 113.728 114.864C113.313 113.779 113.048 113.053 112.935 112.687C112.822 112.32 112.647 111.723 112.412 110.896C112.176 110.069 112.005 109.437 111.897 108.999C111.79 108.562 111.705 108.211 111.643 107.945C111.58 107.68 111.577 107.24 111.756 106.548C111.909 106.667 112.03 106.75 112.118 106.797C112.206 106.844 112.359 106.924 112.578 107.036C112.797 107.147 112.964 107.229 113.079 107.281C113.194 107.333 113.392 107.415 113.673 107.526C113.954 107.638 114.26 107.749 114.59 107.859C114.92 107.969 115.352 108.103 115.888 108.262C116.423 108.421 117.029 108.619 117.705 108.858C118.38 109.096 118.88 109.283 119.205 109.418C119.53 109.554 119.836 109.69 120.124 109.825C120.411 109.959 120.734 110.116 121.093 110.295C121.452 110.474 121.77 110.64 122.049 110.791C122.328 110.943 122.617 111.112 122.915 111.299C123.214 111.486 123.612 111.765 124.111 112.135C124.61 112.505 125.081 112.895 125.525 113.304C125.969 113.714 126.273 114.015 126.437 114.209C126.602 114.402 126.797 114.648 127.023 114.947C127.249 115.246 127.48 115.584 127.717 115.961C127.953 116.338 128.114 116.607 128.2 116.77C128.285 116.932 128.382 117.132 128.49 117.368C128.598 117.603 128.731 117.903 128.891 118.265C129.05 118.628 129.193 118.977 129.32 119.312C129.447 119.647 129.582 120.044 129.724 120.503C129.865 120.962 129.999 121.502 130.124 122.122C130.249 122.743 130.336 123.255 130.386 123.66C130.436 124.064 130.489 124.801 130.544 125.872L130.602 126.317Z" stroke="#333333" stroke-linecap="round" stroke-linejoin="round"/>
<path d="M135.398 98.1166L134.398 98.0944C133.041 98.0188 131.948 97.952 131.121 97.894C130.294 97.8359 129.629 97.7808 129.126 97.7289C128.623 97.6772 128.248 97.6343 128.001 97.6001C127.753 97.566 127.302 97.4803 126.647 97.3432C125.992 97.2059 125.345 97.0281 124.706 96.8096C124.067 96.5911 123.512 96.368 123.04 96.1405C122.569 95.9132 122.098 95.6317 121.63 95.2957C121.161 94.9595 120.779 94.6649 120.482 94.4118C120.186 94.1588 119.898 93.8914 119.618 93.6098C119.337 93.328 119.011 92.9501 118.64 92.4762C118.268 92.0023 117.85 91.4325 117.387 90.7668C117.352 90.7149 117.266 90.5515 117.129 90.2765C116.993 90.0016 116.806 89.6151 116.568 89.1169C116.33 88.6189 116.104 88.1087 115.889 87.5866C115.674 87.0646 115.471 86.5305 115.278 85.9842C115.086 85.4383 114.926 84.9776 114.797 84.6018C114.669 84.2258 114.556 83.8837 114.458 83.5758C114.361 83.2675 114.141 82.757 113.901 82.1114" fill="#B8E5BE"/>
<path d="M135.398 98.1166C135.065 97.5361 134.741 96.8133 134.492 96.354C134.243 95.8946 133.965 95.3981 133.659 94.8643C133.353 94.3305 133.007 93.7516 132.621 93.1277C132.235 92.504 131.984 92.1091 131.867 91.9432C131.751 91.7772 131.599 91.5743 131.412 91.3349C131.225 91.0955 130.983 90.7917 130.687 90.4234C130.39 90.0554 130.097 89.709 129.806 89.3844C129.516 89.0595 129.228 88.7564 128.944 88.4752C128.66 88.194 128.403 87.9469 128.173 87.734C127.944 87.521 127.698 87.3065 127.435 87.0901C127.172 86.8732 126.856 86.6413 126.487 86.3944C126.118 86.1474 125.795 85.941 125.518 85.7755C125.24 85.61 125.076 85.511 125.025 85.478C124.974 85.445 124.871 85.3873 124.715 85.3052C124.559 85.2233 124.295 85.1099 123.925 84.9647C123.554 84.8196 123.05 84.6287 122.414 84.3919C121.778 84.1549 121.26 83.9662 120.859 83.8259C120.458 83.6854 120.13 83.5834 119.876 83.5201C119.622 83.457 119.388 83.4018 119.173 83.3541C118.959 83.3064 118.599 83.2383 118.093 83.1498C117.587 83.0615 117.134 82.982 116.732 82.9114C116.33 82.8406 115.98 82.7723 115.681 82.7063C115.381 82.6406 115.152 82.5813 114.993 82.5288C114.834 82.4768 114.543 82.3663 114.119 82.1973L113.901 82.1114" fill="#B8E5BE"/>
<path d="M135.398 98.1166L134.398 98.0944C133.041 98.0188 131.948 97.952 131.121 97.894C130.294 97.8359 129.629 97.7808 129.126 97.7289C128.623 97.6772 128.248 97.6343 128.001 97.6001C127.753 97.566 127.302 97.4803 126.647 97.3432C125.992 97.2059 125.345 97.0281 124.706 96.8096C124.067 96.5911 123.512 96.368 123.04 96.1405C122.569 95.9132 122.098 95.6317 121.63 95.2957C121.161 94.9595 120.779 94.6649 120.482 94.4118C120.186 94.1588 119.898 93.8914 119.618 93.6098C119.337 93.328 119.011 92.9501 118.64 92.4762C118.268 92.0023 117.85 91.4325 117.387 90.7668C117.352 90.7149 117.266 90.5515 117.129 90.2765C116.993 90.0016 116.806 89.6151 116.568 89.1169C116.33 88.6189 116.104 88.1087 115.889 87.5866C115.674 87.0646 115.471 86.5305 115.278 85.9842C115.086 85.4383 114.926 84.9776 114.797 84.6018C114.669 84.2258 114.556 83.8837 114.458 83.5758C114.361 83.2675 114.141 82.757 113.901 82.1114L114.119 82.1973C114.543 82.3663 114.834 82.4768 114.993 82.5288C115.152 82.5813 115.381 82.6406 115.681 82.7063C115.98 82.7723 116.33 82.8406 116.732 82.9114C117.134 82.982 117.587 83.0615 118.093 83.1498C118.599 83.2383 118.959 83.3064 119.173 83.3541C119.388 83.4018 119.622 83.457 119.876 83.5201C120.13 83.5834 120.458 83.6854 120.859 83.8259C121.26 83.9662 121.778 84.1549 122.414 84.3919C123.05 84.6287 123.554 84.8196 123.925 84.9647C124.295 85.1099 124.559 85.2233 124.715 85.3052C124.871 85.3873 124.974 85.445 125.025 85.478C125.076 85.511 125.24 85.61 125.518 85.7755C125.795 85.941 126.118 86.1474 126.487 86.3944C126.856 86.6413 127.172 86.8732 127.435 87.0901C127.698 87.3065 127.944 87.521 128.173 87.734C128.403 87.9469 128.66 88.194 128.944 88.4752C129.228 88.7564 129.516 89.0595 129.806 89.3844C130.097 89.709 130.39 90.0554 130.687 90.4234C130.983 90.7917 131.225 91.0955 131.412 91.3349C131.599 91.5743 131.751 91.7772 131.867 91.9432C131.984 92.1091 132.235 92.504 132.621 93.1277C133.007 93.7516 133.353 94.3305 133.659 94.8643C133.965 95.3981 134.243 95.8946 134.492 96.354C134.741 96.8133 135.065 97.5361 135.398 98.1166Z" stroke="#333333" stroke-linecap="round" stroke-linejoin="round"/>
<path d="M134.107 75.9927C133.788 76.0086 133.489 76.0229 133.211 76.0356C132.932 76.0486 132.589 76.057 132.18 76.0608C131.771 76.0644 131.23 76.0669 130.556 76.0681C129.883 76.0693 129.15 76.0398 128.36 75.9797C127.569 75.9196 126.629 75.7933 125.54 75.6007C124.451 75.4085 123.82 75.288 123.647 75.2393C123.474 75.1906 123.131 75.0828 122.617 74.9157C122.103 74.7486 121.498 74.4998 120.801 74.1696C120.104 73.8398 119.34 73.402 118.511 72.8563C117.681 72.3107 116.968 71.7779 116.371 71.2581C115.775 70.7386 115.326 70.32 115.026 70.0025C114.725 69.6852 114.491 69.4261 114.323 69.2249C114.156 69.0236 113.902 68.7086 113.56 68.2798C113.22 67.8516 112.847 67.3537 112.441 66.7863C112.036 66.2188 111.479 65.3038 110.881 63.9261" fill="#B8E5BE"/>
<path d="M134.107 75.9927L133.842 75.4617C133.552 74.8515 133.315 74.3656 133.133 74.0042C132.95 73.6424 132.782 73.3248 132.628 73.0512C132.475 72.7773 132.307 72.5045 132.124 72.2327C131.942 71.9609 131.716 71.6513 131.446 71.3039C131.177 70.9563 130.907 70.6291 130.639 70.3224C130.37 70.0158 130.038 69.6576 129.642 69.2482C129.246 68.8388 128.928 68.5238 128.687 68.3031C128.446 68.0826 128.205 67.8729 127.964 67.6739C127.723 67.4751 127.442 67.2501 127.121 66.9989C126.8 66.748 126.51 66.5292 126.25 66.3421C125.991 66.1549 125.762 65.9996 125.565 65.8759C125.367 65.7523 125.038 65.5648 124.579 65.3135C124.119 65.062 123.528 64.7464 122.805 64.3669C122.449 64.2332 122.046 64.1045 121.596 63.9807C121.145 63.8571 120.648 63.7382 120.104 63.624C119.56 63.5095 119.065 63.4185 118.62 63.3507C118.175 63.2827 117.694 63.2321 117.178 63.1992C116.661 63.1661 116.21 63.1499 115.825 63.1503C115.44 63.1509 115.012 63.1715 114.541 63.2118C114.071 63.2522 113.731 63.2899 113.522 63.3251C113.312 63.3602 113.009 63.4223 112.613 63.5114C112.217 63.6005 111.768 63.7115 111.267 63.8445L110.881 63.9261" fill="#B8E5BE"/>
<path d="M134.107 75.9927C133.788 76.0086 133.489 76.0229 133.211 76.0356C132.932 76.0486 132.589 76.057 132.18 76.0608C131.771 76.0644 131.23 76.0669 130.556 76.0681C129.883 76.0693 129.15 76.0398 128.36 75.9797C127.569 75.9196 126.629 75.7933 125.54 75.6007C124.451 75.4085 123.82 75.288 123.647 75.2393C123.474 75.1906 123.131 75.0828 122.617 74.9157C122.103 74.7486 121.498 74.4998 120.801 74.1696C120.104 73.8398 119.34 73.402 118.511 72.8563C117.681 72.3107 116.968 71.7779 116.371 71.2581C115.775 70.7386 115.326 70.32 115.026 70.0025C114.725 69.6852 114.491 69.4261 114.323 69.2249C114.156 69.0236 113.902 68.7086 113.56 68.2798C113.22 67.8516 112.847 67.3537 112.441 66.7863C112.036 66.2188 111.479 65.3038 110.881 63.9261L111.267 63.8445C111.768 63.7115 112.217 63.6005 112.613 63.5114C113.009 63.4223 113.312 63.3602 113.522 63.3251C113.731 63.2899 114.071 63.2522 114.541 63.2118C115.012 63.1715 115.44 63.1509 115.825 63.1503C116.21 63.1499 116.661 63.1661 117.178 63.1992C117.694 63.2321 118.175 63.2827 118.62 63.3507C119.065 63.4185 119.56 63.5095 120.104 63.624C120.648 63.7382 121.145 63.8571 121.596 63.9807C122.046 64.1045 122.449 64.2332 122.805 64.3669C123.528 64.7464 124.119 65.062 124.579 65.3135C125.038 65.5648 125.367 65.7523 125.565 65.8759C125.762 65.9996 125.991 66.1549 126.25 66.3421C126.51 66.5292 126.8 66.748 127.121 66.9989C127.442 67.2501 127.723 67.4751 127.964 67.6739C128.205 67.8729 128.446 68.0826 128.687 68.3031C128.928 68.5238 129.246 68.8388 129.642 69.2482C130.038 69.6576 130.37 70.0158 130.639 70.3224C130.907 70.6291 131.177 70.9563 131.446 71.3039C131.716 71.6513 131.942 71.9609 132.124 72.2327C132.307 72.5045 132.475 72.7773 132.628 73.0512C132.782 73.3248 132.95 73.6424 133.133 74.0042C133.315 74.3656 133.552 74.8515 133.842 75.4617L134.107 75.9927Z" stroke="#333333" stroke-linecap="round" stroke-linejoin="round"/>
<path d="M127.927 55.9917L127.412 56.0418C127.31 56.051 127.161 56.0658 126.965 56.0862C126.769 56.1064 126.526 56.1322 126.236 56.1636C125.946 56.195 125.662 56.2211 125.385 56.242C125.108 56.2627 124.771 56.281 124.375 56.2966C123.978 56.312 123.602 56.312 123.247 56.2968C122.891 56.2815 122.47 56.2361 121.984 56.1603C121.497 56.0845 121.229 56.041 121.18 56.0301C121.13 56.0191 120.992 55.9789 120.766 55.9094C120.539 55.839 120.216 55.7373 119.796 55.6046C119.376 55.472 119.018 55.3517 118.72 55.2434C118.423 55.1352 118.143 55.0184 117.881 54.8931C117.62 54.7679 117.336 54.6171 117.032 54.4406C116.728 54.264 116.334 54.0084 115.85 53.6739C115.801 53.6438 115.669 53.5401 115.455 53.3628C115.242 53.1855 114.936 52.9225 114.539 52.5736C114.142 52.2252 113.776 51.8877 113.441 51.5612C113.107 51.2345 112.741 50.8516 112.346 50.4123C111.95 49.9726 111.711 49.7042 111.629 49.6074C111.547 49.5106 111.034 48.8134 110.056 47.6879" fill="#B8E5BE"/>
<path d="M127.927 55.9917L127.491 55.2344C127.06 54.47 126.746 53.9248 126.548 53.5988C126.349 53.2726 126.202 53.0322 126.105 52.8775C126.008 52.7228 125.825 52.4678 125.558 52.1124C125.291 51.7571 125.044 51.4493 124.818 51.189C124.592 50.9287 124.471 50.7906 124.456 50.7748C124.44 50.7591 124.26 50.5854 123.913 50.2536C123.567 49.9218 123.287 49.6679 123.074 49.4915C122.861 49.3153 122.632 49.1391 122.387 48.963C122.143 48.7869 121.787 48.5578 121.322 48.2758C121.032 48.1109 120.758 47.9683 120.501 47.8482C120.244 47.7281 119.983 47.6184 119.718 47.5192C119.453 47.4201 119.145 47.3204 118.795 47.22C118.444 47.1199 118.098 47.0385 117.756 46.9757C117.414 46.913 117.171 46.8747 117.027 46.8607C116.883 46.8464 116.622 46.836 116.244 46.8299C115.867 46.8241 115.461 46.8324 115.029 46.8547C114.597 46.8764 114.311 46.8953 114.172 46.9112C114.032 46.9268 113.834 46.9534 113.575 46.9913C113.317 47.0288 113.055 47.0685 112.788 47.1103C112.522 47.1521 112.306 47.1904 112.14 47.2252C111.974 47.2602 111.794 47.2999 111.601 47.3448C111.408 47.3898 111.298 47.4171 111.271 47.4265C111.243 47.4359 111.186 47.4509 111.102 47.4713C111.017 47.4919 110.669 47.5641 110.056 47.6879" fill="#B8E5BE"/>
<path d="M127.927 55.9917L127.412 56.0418C127.31 56.051 127.161 56.0658 126.965 56.0862C126.769 56.1064 126.526 56.1322 126.236 56.1636C125.946 56.195 125.662 56.2211 125.385 56.242C125.108 56.2627 124.771 56.281 124.375 56.2966C123.978 56.312 123.602 56.312 123.247 56.2968C122.891 56.2815 122.47 56.2361 121.984 56.1603C121.497 56.0845 121.229 56.041 121.18 56.0301C121.13 56.0191 120.992 55.9789 120.766 55.9094C120.539 55.839 120.216 55.7373 119.796 55.6046C119.376 55.472 119.018 55.3517 118.72 55.2434C118.423 55.1352 118.143 55.0184 117.881 54.8931C117.62 54.7679 117.336 54.6171 117.032 54.4406C116.728 54.264 116.334 54.0084 115.85 53.6739C115.801 53.6438 115.669 53.5401 115.455 53.3628C115.242 53.1855 114.936 52.9225 114.539 52.5736C114.142 52.2252 113.776 51.8877 113.441 51.5612C113.107 51.2345 112.741 50.8516 112.346 50.4123C111.95 49.9726 111.711 49.7042 111.629 49.6074C111.547 49.5106 111.034 48.8134 110.056 47.6879C110.669 47.5641 111.017 47.4919 111.102 47.4713C111.186 47.4509 111.243 47.4359 111.271 47.4265C111.298 47.4171 111.408 47.3898 111.601 47.3448C111.794 47.2999 111.974 47.2602 112.14 47.2252C112.306 47.1904 112.522 47.1521 112.788 47.1103C113.055 47.0685 113.317 47.0288 113.575 46.9913C113.834 46.9534 114.032 46.9268 114.172 46.9112C114.311 46.8953 114.597 46.8764 115.029 46.8547C115.461 46.8324 115.867 46.8241 116.244 46.8299C116.622 46.836 116.883 46.8464 117.027 46.8607C117.171 46.8747 117.414 46.913 117.756 46.9757C118.098 47.0385 118.444 47.1199 118.795 47.22C119.145 47.3204 119.453 47.4201 119.718 47.5192C119.983 47.6184 120.244 47.7281 120.501 47.8482C120.758 47.9683 121.032 48.1109 121.322 48.2758C121.787 48.5578 122.143 48.7869 122.387 48.963C122.632 49.1391 122.861 49.3153 123.074 49.4915C123.287 49.6679 123.567 49.9218 123.913 50.2536C124.26 50.5854 124.44 50.7591 124.456 50.7748C124.471 50.7906 124.592 50.9287 124.818 51.189C125.044 51.4493 125.291 51.7571 125.558 52.1124C125.825 52.4678 126.008 52.7228 126.105 52.8775C126.202 53.0322 126.349 53.2726 126.548 53.5988C126.746 53.9248 127.06 54.47 127.491 55.2344L127.927 55.9917Z" stroke="#333333" stroke-linecap="round" stroke-linejoin="round"/>
</svg>
