<svg width="1058" height="1511" viewBox="0 0 1058 1511" fill="none" xmlns="http://www.w3.org/2000/svg">
<path d="M485.98 594.379C414.306 584.823 318.742 556.153 301.221 540.226L159.467 626.234L41.6035 826.92L812.493 726.577L871.425 626.234L748.783 521.113C733.918 534.386 701.001 562.524 688.259 568.895C672.331 576.859 557.654 603.936 485.98 594.379Z" fill="#355E3B"/>
<path d="M303.892 772.766C231.146 752.06 162.422 715.632 106.788 669.556L44.7949 805.941L369.064 1159.8L664.721 1019.73L837.983 702.731L698.102 669.556C628.162 652.969 562.99 699.045 512.124 728.534C461.258 758.022 342.481 783.75 303.892 772.766Z" fill="#98BDD9"/>
<path d="M681.888 924.077C645.255 941.597 366.524 1150.25 349.004 1301.56L514.65 1390.75L922.393 1175.73L1009.99 860.367C968.052 771.704 877.477 599.475 850.719 619.862C817.272 645.346 801.344 705.87 787.009 744.096C772.675 782.322 718.521 906.557 681.888 924.077Z" fill="#D998D9"/>
<path d="M333.073 893.815C301.218 853.996 156.278 822.141 70.2695 853.996L102.124 1131.13L333.073 1327.04L696.219 1303.15C694.626 1273.95 686.344 1207.59 665.957 1175.73C640.473 1135.91 474.827 1096.09 431.823 1072.2C388.819 1048.31 364.928 933.634 333.073 893.815Z" fill="#B498D9"/>
<path d="M366.52 1484.72L350.593 1502.24L705.776 1505.43L688.255 1495.87L673.921 1456.05L694.626 1413.05L785.413 1352.53L898.498 1272.89L966.986 1193.25L1016.36 1113.61L1052.99 992.565L1048.22 863.552L1005.21 736.132L931.946 637.382L844.344 564.116L758.336 516.333L728.074 511.555V524.297L751.965 549.781L841.159 615.084L906.462 697.907L944.688 782.322L963.801 863.552L959.022 976.637L925.575 1083.35L847.53 1186.88L780.635 1237.85L688.255 1288.82L600.654 1309.52L468.456 1314.3L358.557 1284.04L267.77 1234.66L191.318 1169.36L135.572 1092.91L100.532 1006.9L86.1969 906.556L100.532 799.842L137.165 712.241L199.282 627.826L253.435 581.636L304.403 549.781L328.294 519.519V511.555L283.698 524.297L202.467 570.487L130.794 631.011L71.8622 707.463L24.0798 803.028L8.15234 885.851V983.008L30.4508 1076.98L63.8985 1151.84L108.495 1217.14L121.5 1236L138.5 1252.5L200.875 1304.74L247.064 1342.97L333.073 1390.75L366.52 1422.61L377.67 1456.05L366.52 1484.72Z" fill="#333333"/>
<path d="M756.746 551.375C758.703 552.564 766.602 557.926 766.303 557.746C766.318 557.443 769.199 561.058 777.632 566.741C786.065 572.424 792.61 577.036 797.27 580.577C801.93 584.118 805.5 586.803 807.979 588.635C810.46 590.467 814.784 594.049 820.953 599.38C827.121 604.71 831.887 608.987 835.25 612.212C838.614 615.438 841.133 617.872 842.808 619.517C844.484 621.162 845.596 622.267 846.147 622.832C846.697 623.396 846.963 623.67 846.947 623.651C846.929 623.632 847.294 624.002 848.039 624.76C848.785 625.518 849.642 626.41 850.608 627.436C851.575 628.461 852.717 629.652 854.034 631.009C855.351 632.366 857.895 635.141 861.666 639.332C865.44 643.524 868.843 647.49 871.877 651.232C874.911 654.974 877.239 657.875 878.86 659.933C880.48 661.991 883.037 665.374 886.531 670.082C886.073 669.457 885.693 668.941 885.392 668.534C886.478 668.204 891.351 675.152 900.007 689.381C908.664 703.609 915.017 714.599 919.067 722.353C923.116 730.106 926.067 736.123 927.919 740.404C929.769 744.685 931.406 748.361 932.829 751.432C934.253 754.503 936.529 760.289 939.657 768.791C942.785 777.292 945.36 784.918 947.378 791.668C949.399 798.419 951.181 804.918 952.725 811.165C954.27 817.413 955.601 823.452 956.722 829.283C957.843 835.114 958.736 840.268 959.402 844.745C960.068 849.222 960.532 852.521 960.793 854.641C961.054 856.762 961.435 860.096 961.936 864.645C962.438 869.195 962.845 874.732 963.158 881.257C963.471 887.782 963.71 894.088 963.874 900.175C964.04 906.263 963.808 914.758 963.179 925.661C962.55 936.563 961.852 944.959 961.081 950.848C960.313 956.737 959.517 962.505 958.694 968.153C957.871 973.799 956.725 980.092 955.256 987.03C953.787 993.968 952.629 999.156 951.782 1002.6C950.935 1006.04 950.189 1008.94 949.544 1011.32C948.899 1013.7 948.291 1015.75 947.72 1017.46C947.15 1019.18 946.81 1020.53 946.699 1021.5C946.589 1022.48 944.862 1027.72 941.518 1037.24C938.173 1046.76 935.258 1054.38 932.771 1060.09C930.285 1065.81 927.907 1070.93 925.636 1075.46C923.366 1079.98 921.448 1083.77 919.883 1086.82C918.317 1089.86 915.768 1094.36 912.235 1100.3C908.7 1106.24 905.942 1110.65 903.959 1113.53C901.976 1116.41 900.605 1118.49 899.847 1119.78C899.089 1121.07 895.869 1125.73 890.188 1133.76C884.507 1141.79 877.843 1150.25 870.195 1159.13C862.547 1168.02 856.039 1175.17 850.675 1180.6C845.309 1186.04 841.056 1190.23 837.914 1193.18C834.772 1196.13 831.492 1199.16 828.073 1202.28C824.655 1205.4 820.099 1209.32 814.407 1214.03C808.715 1218.75 803.231 1223.03 797.959 1226.88C792.686 1230.73 788.837 1233.49 786.41 1235.16C783.983 1236.82 782.056 1238.14 780.629 1239.09C779.202 1240.05 778.105 1240.72 777.339 1241.11C776.572 1241.51 775.428 1242.31 773.906 1243.52C772.384 1244.73 766.411 1248.36 755.989 1254.41C745.566 1260.45 736.472 1265.33 728.704 1269.05C720.937 1272.78 714.515 1275.71 709.438 1277.87C704.362 1280.03 700.087 1281.81 696.611 1283.21C693.138 1284.61 688.744 1286.27 683.433 1288.18C678.121 1290.09 673.201 1291.72 668.675 1293.04C664.147 1294.37 660.061 1295.72 656.416 1297.09C652.771 1298.46 643.875 1300.71 629.728 1303.86C615.581 1307 604.703 1309.11 597.092 1310.19C589.481 1311.27 582.97 1312.08 577.558 1312.61C572.146 1313.15 567.169 1313.66 562.626 1314.15C558.083 1314.64 550.402 1315.02 539.583 1315.27C528.764 1315.53 520.507 1315.54 514.815 1315.3C509.123 1315.06 503.716 1314.85 498.593 1314.67C493.469 1314.49 485.84 1313.81 475.705 1312.65C465.57 1311.49 458.246 1310.47 453.731 1309.58C449.214 1308.69 445.312 1308.07 442.026 1307.72C438.739 1307.36 430.395 1305.57 416.991 1302.35C403.588 1299.12 391.585 1295.68 380.982 1292.02C370.379 1288.36 360.583 1284.73 351.596 1281.12L352.82 1281.62C351.378 1280.84 347.993 1279.42 342.663 1277.36C337.332 1275.3 329.765 1271.74 319.96 1266.67C310.155 1261.6 302.497 1257.47 296.99 1254.3C291.482 1251.13 285.415 1247.4 278.789 1243.11C272.162 1238.82 266.583 1235.03 262.054 1231.72C257.525 1228.42 253.064 1225.15 248.672 1221.93C244.279 1218.71 238.562 1214.05 231.52 1207.97C224.477 1201.89 218.966 1196.9 214.987 1193.01C211.008 1189.12 208.025 1186.18 206.038 1184.17C204.051 1182.17 202.308 1180.38 200.811 1178.8C199.313 1177.22 198.161 1176 197.353 1175.14C196.543 1174.27 195.878 1173.55 195.353 1172.98C194.828 1172.41 194.136 1171.59 193.278 1170.51C192.42 1169.44 191.974 1168.98 191.938 1169.14C191.902 1169.3 188.4 1165.27 181.429 1157.03C174.461 1148.79 167.841 1140.15 161.572 1131.12C155.302 1122.09 150.542 1114.87 147.29 1109.45C144.039 1104.03 140.747 1098.38 137.415 1092.48C134.084 1086.59 130.619 1079.88 127.023 1072.36C123.425 1064.84 120.543 1058.37 118.375 1052.94C116.207 1047.51 114.527 1043.25 113.334 1040.15C112.142 1037.05 110.754 1033.05 109.17 1028.15C107.587 1023.24 106.381 1019.82 105.554 1017.88C104.726 1015.94 103.222 1010.43 101.041 1001.34C98.8603 992.259 97.206 985.167 96.0781 980.065C94.9503 974.964 93.9597 969.349 93.1055 963.22C92.2523 957.092 91.6276 952.556 91.2326 949.61C90.8368 946.663 90.3968 942.129 89.9135 936.008C89.4312 929.887 89.0236 924.023 88.691 918.416C88.3585 912.809 88.2986 905.217 88.5108 895.639C88.7221 886.061 89.0731 878.568 89.5635 873.159C90.0539 867.75 90.4902 863.698 90.8709 861.004C91.2525 858.309 91.5049 855.925 91.6297 853.855C91.7536 851.784 92.7425 845.33 94.5971 834.492C96.4498 823.654 98.8269 812.978 101.728 802.465C104.629 791.953 107.122 783.724 109.207 777.778C111.292 771.833 112.82 767.617 113.792 765.132C114.764 762.646 115.812 759.991 116.939 757.166C118.063 754.341 119.848 750.072 122.295 744.357C124.741 738.644 127.963 731.923 131.96 724.196C135.957 716.469 139.419 710.145 142.348 705.224C145.277 700.302 147.826 696.127 149.992 692.699C152.16 689.27 154.674 685.46 157.535 681.271C160.396 677.08 164.117 671.913 168.698 665.77C173.279 659.628 178.636 652.843 184.768 645.417C190.9 637.992 198.115 630.201 206.414 622.043C214.713 613.886 220.771 608.134 224.587 604.786C228.403 601.437 233.228 597.351 239.061 592.528C244.893 587.705 250.136 583.587 254.791 580.174C259.445 576.762 263.708 573.732 267.577 571.083C271.447 568.434 274.322 566.502 276.204 565.285C278.085 564.069 279.697 563.034 281.04 562.18C282.383 561.327 283.445 560.655 284.227 560.168C285.009 559.68 287.388 558.231 291.365 555.82" stroke="#333333" stroke-width="10" stroke-linecap="round" stroke-linejoin="round"/>
<path d="M775.917 525.338C775.784 525.273 775.217 525.003 774.219 524.527C774.509 524.682 775.33 525.086 776.682 525.737C778.035 526.388 779.918 527.285 782.332 528.431C784.746 529.577 787.3 530.847 789.993 532.24C792.688 533.633 795.522 535.149 798.495 536.79C801.467 538.431 804.041 539.859 806.213 541.076C808.386 542.294 810.501 543.5 812.561 544.693C814.62 545.886 816.337 546.88 817.708 547.677C819.079 548.474 820.607 549.387 822.292 550.415C823.977 551.445 826.048 552.724 828.503 554.25C830.959 555.777 833.269 557.244 835.433 558.649C837.597 560.054 839.616 561.398 841.489 562.68C843.362 563.963 845.07 565.121 846.613 566.156C848.156 567.19 849.533 568.1 850.745 568.886C851.958 569.673 853.411 570.687 855.105 571.927C856.8 573.168 858.343 574.311 859.735 575.356C861.126 576.4 862.649 577.552 864.302 578.813C865.956 580.075 867.518 581.268 868.988 582.394C870.459 583.522 872.162 584.83 874.095 586.319C876.027 587.808 877.916 589.275 879.763 590.723C881.61 592.17 883.568 593.768 885.632 595.518C887.698 597.269 889.534 598.838 891.138 600.227C892.74 601.617 894.456 603.117 896.286 604.727C898.117 606.337 899.868 607.894 901.54 609.398C903.213 610.903 904.807 612.355 906.322 613.753C907.837 615.152 909.273 616.497 910.631 617.789C911.988 619.081 913.568 620.617 915.369 622.397C917.169 624.176 918.939 625.939 920.677 627.685C922.415 629.431 924.09 631.143 925.703 632.822C927.315 634.5 928.948 636.227 930.6 638C932.253 639.773 933.498 641.209 934.336 642.309C935.174 643.41 935.798 643.942 936.211 643.906C936.623 643.87 937.686 644.865 939.399 646.892C941.113 648.921 942.792 650.952 944.437 652.986C946.083 655.02 947.979 657.394 950.126 660.111C952.273 662.827 954.285 665.387 956.163 667.792C958.038 670.197 959.78 672.446 961.385 674.54C962.991 676.635 964.461 678.574 965.796 680.357C967.131 682.14 968.596 684.136 970.192 686.345C971.788 688.553 973.458 690.919 975.2 693.443C976.943 695.965 978.494 698.276 979.852 700.377C981.209 702.478 982.373 704.286 983.347 705.804C984.321 707.321 985.251 708.781 986.135 710.183C987.02 711.585 988.14 713.462 989.493 715.815C990.848 718.169 991.955 720.002 992.816 721.317C993.675 722.631 994.624 724.224 995.662 726.094C996.7 727.964 997.666 729.724 998.56 731.375C999.454 733.026 1000.45 734.88 1001.55 736.936C1002.64 738.992 1003.69 740.982 1004.69 742.905C1005.68 744.827 1006.63 746.684 1007.53 748.474C1008.42 750.264 1009.27 751.988 1010.07 753.646C1010.87 755.303 1011.79 757.276 1012.83 759.563C1013.88 761.85 1014.98 764.333 1016.15 767.01C1017.31 769.689 1018.37 772.182 1019.31 774.49C1020.24 776.797 1021.14 779.015 1022.01 781.145C1022.87 783.274 1023.7 785.316 1024.49 787.268C1025.29 789.22 1026.12 791.434 1026.99 793.91C1027.86 796.385 1028.63 798.616 1029.3 800.604C1029.98 802.591 1030.7 804.747 1031.46 807.073C1032.23 809.396 1032.95 811.647 1033.63 813.826C1034.31 816.005 1034.95 818.11 1035.54 820.142C1036.14 822.174 1036.69 824.133 1037.2 826.02C1037.71 827.905 1038.28 830.153 1038.91 832.763C1039.55 835.373 1040.14 837.767 1040.69 839.945C1041.25 842.123 1041.65 843.651 1041.91 844.528C1042.16 845.405 1042.49 846.848 1042.9 848.856C1043.3 850.863 1043.68 852.761 1044.02 854.549C1044.36 856.337 1044.74 858.35 1045.16 860.588C1045.57 862.825 1045.95 864.925 1046.3 866.888C1046.64 868.852 1047.02 871.1 1047.44 873.633C1047.86 876.165 1048.21 878.57 1048.49 880.848C1048.78 883.125 1049.06 885.476 1049.36 887.899C1049.65 890.322 1049.94 892.816 1050.24 895.384C1050.54 897.952 1050.81 900.68 1051.04 903.569C1051.28 906.458 1051.49 909.508 1051.66 912.719C1051.84 915.93 1051.98 918.822 1052.08 921.396C1052.19 923.969 1052.27 926.708 1052.33 929.614C1052.38 932.519 1052.37 934.937 1052.28 936.869C1052.2 938.8 1052.23 939.984 1052.36 940.42C1052.5 940.856 1052.53 942.189 1052.46 944.418C1052.39 946.646 1052.3 948.838 1052.21 950.995C1052.11 953.151 1051.99 955.643 1051.85 958.469C1051.71 961.296 1051.55 964.001 1051.38 966.583C1051.22 969.166 1051.04 971.626 1050.85 973.964C1050.66 976.303 1050.45 978.519 1050.24 980.613C1050.02 982.708 1049.73 985.143 1049.37 987.919C1049.01 990.694 1048.67 993.252 1048.36 995.591C1048.05 997.93 1047.81 999.587 1047.67 1000.56C1047.52 1001.54 1047.3 1002.96 1047 1004.83C1046.7 1006.69 1046.32 1009 1045.87 1011.75C1045.42 1014.5 1044.86 1017.52 1044.18 1020.8C1043.5 1024.08 1042.71 1027.63 1041.8 1031.45C1040.89 1035.27 1040.08 1038.62 1039.36 1041.49C1038.63 1044.37 1038 1046.78 1037.46 1048.72C1036.92 1050.66 1036.46 1052.31 1036.07 1053.66C1035.69 1055.02 1035.32 1056.28 1034.97 1057.44C1034.62 1058.6 1034.2 1059.98 1033.71 1061.57C1033.22 1063.16 1032.74 1064.73 1032.25 1066.26C1031.76 1067.8 1031.19 1069.58 1030.54 1071.6C1029.89 1073.61 1029.16 1075.75 1028.37 1078C1027.57 1080.25 1026.69 1082.61 1025.75 1085.09C1024.8 1087.57 1023.92 1089.84 1023.12 1091.9C1022.31 1093.95 1021.42 1096.21 1020.42 1098.65C1019.43 1101.1 1018.23 1103.84 1016.82 1106.89C1015.41 1109.93 1014.36 1112.34 1013.66 1114.12C1012.96 1115.89 1012.07 1117.9 1010.98 1120.14C1009.89 1122.37 1008.86 1124.46 1007.88 1126.4C1006.91 1128.35 1005.81 1130.51 1004.59 1132.9C1003.37 1135.3 1002.18 1137.6 1001 1139.81C999.832 1142.02 998.685 1144.14 997.562 1146.17C996.439 1148.2 995.34 1150.14 994.266 1151.99C993.191 1153.84 991.885 1156.01 990.345 1158.51C988.807 1161.02 987.257 1163.5 985.698 1165.96C984.138 1168.42 982.557 1170.85 980.956 1173.23C979.354 1175.61 978.105 1177.53 977.207 1178.96C976.309 1180.4 975.215 1182.03 973.925 1183.85C972.635 1185.68 971.42 1187.38 970.278 1188.97C969.137 1190.56 967.856 1192.33 966.435 1194.28C965.014 1196.24 963.578 1198.18 962.129 1200.09C960.679 1202.01 959.216 1203.91 957.738 1205.79C956.259 1207.67 954.766 1209.53 953.26 1211.37C951.754 1213.21 950.233 1215.04 948.7 1216.84C947.164 1218.65 945.696 1220.36 944.293 1221.99C942.89 1223.62 941.236 1225.52 939.333 1227.7C937.427 1229.88 935.47 1232.07 933.461 1234.26C931.45 1236.46 929.336 1238.72 927.118 1241.02C924.9 1243.32 922.578 1245.67 920.152 1248.08C917.727 1250.48 915.642 1252.54 913.897 1254.25C912.152 1255.97 910.747 1257.33 909.682 1258.35C908.618 1259.38 907.211 1260.68 905.46 1262.28C903.71 1263.87 901.615 1265.75 899.176 1267.91C896.74 1270.08 894.472 1272.07 892.372 1273.88C890.274 1275.69 888.345 1277.33 886.586 1278.78C884.827 1280.24 883.16 1281.62 881.585 1282.9C880.01 1284.19 878.18 1285.66 876.096 1287.33C874.012 1289 870.459 1291.77 865.438 1295.64L866.179 1295.11C866.582 1294.85 866.395 1295.03 865.618 1295.64C864.843 1296.24 863.5 1297.29 861.593 1298.79C859.684 1300.29 857.784 1301.81 855.891 1303.35C853.997 1304.89 852.113 1306.46 850.238 1308.04C848.365 1309.63 846.916 1310.87 845.893 1311.76C844.87 1312.65 844.258 1313.18 844.055 1313.34" stroke="#333333" stroke-width="10" stroke-linecap="round" stroke-linejoin="round"/>
<path d="M200.327 1302.18C197.538 1299.78 194.902 1297.54 192.42 1295.44C189.939 1293.34 187.605 1291.4 185.419 1289.6C183.232 1287.8 181.216 1286.15 179.369 1284.64C177.523 1283.12 175.493 1281.43 173.281 1279.57C171.068 1277.7 168.864 1275.83 166.665 1273.96C164.466 1272.08 162.294 1270.19 160.149 1268.28C158.005 1266.37 155.935 1264.5 153.941 1262.67C151.947 1260.84 150.417 1259.43 149.35 1258.43C148.284 1257.44 146.972 1256.19 145.414 1254.69C143.857 1253.18 142.545 1251.9 141.475 1250.85C140.406 1249.8 139.413 1248.81 138.497 1247.9C137.58 1246.99 136.867 1246.27 136.356 1245.75C135.845 1245.24 135.151 1244.53 134.276 1243.63C133.4 1242.74 133.053 1242.38 133.232 1242.57C133.411 1242.76 132.952 1242.29 131.854 1241.15C130.756 1240.01 129.235 1238.42 127.291 1236.36C125.346 1234.31 123.262 1232.02 121.038 1229.52C118.812 1227.01 117.406 1225.41 116.819 1224.72C116.232 1224.03 115.406 1223.08 114.34 1221.86C113.275 1220.65 111.871 1219.05 110.132 1217.08C108.392 1215.11 106.657 1213.04 104.926 1210.88C103.195 1208.71 101.682 1206.8 100.386 1205.13C99.0906 1203.45 97.7249 1201.67 96.2877 1199.77C94.8504 1197.87 93.4914 1196.06 92.2101 1194.34C90.9307 1192.62 89.4481 1190.6 87.763 1188.28C86.0787 1185.97 84.4273 1183.62 82.8091 1181.24C81.1917 1178.86 79.7977 1176.8 78.6271 1175.05C77.4582 1173.3 76.3328 1171.58 75.2522 1169.91C74.1707 1168.23 73.3182 1166.9 72.6949 1165.92C72.0717 1164.93 71.2762 1163.65 70.3061 1162.07C69.3352 1160.49 68.3416 1158.88 67.327 1157.21C66.3132 1155.55 65.3734 1153.97 64.5085 1152.46C63.6446 1150.95 62.6864 1149.23 61.6326 1147.32C60.5796 1145.4 59.6472 1143.74 58.835 1142.32C58.0227 1140.9 57.3299 1139.73 56.7583 1138.8C56.1868 1137.88 55.4337 1136.5 54.4975 1134.66C53.5614 1132.82 52.6967 1131.09 51.905 1129.48C51.1115 1127.88 50.234 1126.08 49.272 1124.08C48.3099 1122.09 47.4125 1120.22 46.5789 1118.47C45.747 1116.72 44.803 1114.71 43.7473 1112.45C42.6917 1110.18 41.7194 1108.02 40.8296 1105.97C39.9389 1103.91 39.0489 1101.82 38.16 1099.69C37.2719 1097.56 36.3845 1095.4 35.4982 1093.2C34.6111 1091 33.7328 1088.76 32.8626 1086.47C31.9933 1084.18 31.1316 1081.85 30.2792 1079.47C29.4268 1077.09 28.6184 1074.79 27.8525 1072.56C27.0884 1070.34 26.3677 1068.18 25.691 1066.1C25.0143 1064.02 24.3185 1061.82 23.6052 1059.5C22.891 1057.18 22.1587 1054.74 21.4071 1052.17C20.6555 1049.61 19.934 1047.03 19.243 1044.44C18.5511 1041.85 17.8899 1039.25 17.2577 1036.64C16.6265 1034.03 16.0817 1031.67 15.6252 1029.57C15.1669 1027.47 14.7248 1025.23 14.2995 1022.84C13.8742 1020.46 13.4688 1018.7 13.081 1017.58C12.6931 1016.47 12.2813 1014.62 11.848 1012.04C11.4147 1009.46 11.0147 1006.98 10.6464 1004.59C10.2782 1002.19 9.86984 999.466 9.42136 996.401C8.97377 993.336 8.5683 990.414 8.20542 987.635C7.84253 984.857 7.52192 982.221 7.24285 979.726C6.96556 977.231 6.72974 974.879 6.53627 972.671C6.34279 970.461 6.16525 967.914 6.00209 965.028C5.84071 962.142 5.68596 959.234 5.53974 956.305C5.39262 953.375 5.28076 950.905 5.20408 948.894C5.1274 946.884 5.07209 944.493 5.03821 941.722C5.00522 938.952 4.99403 935.801 5.00295 932.272C5.01275 928.741 5.07387 925.567 5.1871 922.75C5.29944 919.932 5.4109 917.556 5.52145 915.62C5.63201 913.684 5.76011 911.72 5.90544 909.727C6.05166 907.735 6.19722 905.793 6.34166 903.901C6.48521 902.009 6.66316 899.719 6.87715 897.03C7.09024 894.342 7.30154 891.803 7.50928 889.414C7.71792 887.027 7.94745 884.848 8.19889 882.876C8.44943 880.906 8.75719 878.746 9.12097 876.396C9.48563 874.048 9.90561 871.509 10.3826 868.781C10.8587 866.054 11.3919 863.137 11.9812 860.031C12.5697 856.925 13.1369 854.018 13.6844 851.311C14.2318 848.603 14.7591 846.094 15.2647 843.784C15.7702 841.475 16.2547 839.364 16.7183 837.452C17.1829 835.541 17.7314 833.451 18.3653 831.182C18.9983 828.913 19.6804 826.379 20.4106 823.579C21.1417 820.78 21.7389 818.417 22.2025 816.487C22.6652 814.558 23.1398 812.777 23.6248 811.147C24.1098 809.518 24.6829 807.716 25.3436 805.742C26.0052 803.77 26.7537 801.625 27.59 799.308C28.4272 796.99 29.3525 794.502 30.3654 791.842C31.3792 789.182 32.3406 786.684 33.2492 784.35C34.1595 782.017 35.0178 779.847 35.8247 777.84C36.6316 775.832 37.386 773.988 38.0895 772.307C38.7929 770.626 39.5956 768.77 40.4952 766.738C41.3949 764.707 42.2914 762.715 43.1857 760.761C44.08 758.807 44.9683 756.93 45.8501 755.131C46.7337 753.332 47.5263 751.636 48.2297 750.044C48.9341 748.452 49.775 746.701 50.7504 744.79C51.7267 742.879 52.6437 741.101 53.5023 739.456C54.3609 737.81 55.3237 735.979 56.39 733.962C57.4573 731.944 58.526 729.967 59.5977 728.031C60.6676 726.095 61.7398 724.199 62.8132 722.343C63.8876 720.486 64.9639 718.67 66.0418 716.895C67.1207 715.12 68.2011 713.385 69.2835 711.69C70.365 709.996 71.3789 708.412 72.324 706.938C73.27 705.465 74.3496 703.79 75.563 701.913C76.7765 700.035 77.9189 698.287 78.9915 696.669C80.0632 695.051 81.3162 693.184 82.749 691.07C84.1836 688.957 85.4836 687.046 86.6489 685.337C87.816 683.628 89.0869 681.769 90.4626 679.76C91.8384 677.75 93.3234 675.675 94.9176 673.535C96.5118 671.395 98.2152 669.191 100.027 666.921C101.839 664.649 103.76 662.312 105.791 659.91C107.82 657.509 109.959 655.042 112.207 652.509C114.455 649.976 116.565 647.615 118.536 645.427C120.508 643.239 122.341 641.223 124.035 639.379C125.73 637.535 127.286 635.864 128.704 634.365C130.121 632.866 131.686 631.252 133.397 629.52C135.108 627.788 136.797 626.095 138.463 624.443C140.131 622.79 141.753 621.216 143.329 619.722C144.907 618.227 146.428 616.759 147.893 615.319C149.359 613.878 151.054 612.284 152.98 610.535C154.906 608.788 157.306 606.646 160.18 604.111C163.054 601.574 165.662 599.308 168.002 597.313C170.343 595.316 172.416 593.59 174.223 592.134C176.029 590.677 177.705 589.333 179.249 588.103C180.794 586.873 182.528 585.504 184.452 583.996C186.376 582.488 188.329 581.005 190.311 579.548C192.292 578.09 193.968 576.846 195.34 575.816C196.712 574.787 198.156 573.728 199.67 572.637C201.185 571.547 203.001 570.255 205.117 568.761C207.232 567.268 209.548 565.675 212.069 563.984C214.589 562.292 217.311 560.503 220.236 558.613C223.16 556.724 225.665 555.12 227.748 553.801C229.832 552.482 231.806 551.262 233.67 550.14C235.534 549.017 237.605 547.788 239.882 546.452C242.16 545.117 243.988 544.056 245.37 543.269C246.751 542.481 247.641 541.977 248.039 541.758C248.439 541.538 248.747 541.355 248.964 541.209C249.181 541.064 250.747 540.199 253.663 538.614C256.581 537.028 259.242 535.601 261.647 534.334C264.052 533.066 265.97 532.067 267.403 531.337C268.836 530.607 269.75 530.143 270.143 529.945C270.538 529.747 270.949 529.539 271.376 529.322C271.804 529.106 272.342 528.838 272.99 528.516C273.639 528.194 274.389 527.824 275.239 527.406C276.089 526.989 276.93 526.577 277.763 526.173C278.595 525.769 279.701 525.238 281.077 524.579C280.943 524.643 279.901 525.144 277.952 526.081" stroke="#333333" stroke-width="10" stroke-linecap="round" stroke-linejoin="round"/>
<path d="M781.074 527.44C780.854 527.322 780.603 527.188 780.32 527.039L780.328 527.043C780.259 527.006 780.089 526.917 779.817 526.775L779.832 526.781C779.862 526.795 779.093 526.397 777.524 525.59L777.566 525.611C777.241 525.445 777.058 525.352 777.016 525.332L777.062 525.356C776.878 525.263 776.692 525.17 776.505 525.076L776.559 525.102C776.247 524.946 775.913 524.78 775.557 524.603L775.621 524.634L775.34 524.495L775.407 524.527C775.42 524.528 774.538 524.1 772.761 523.241L772.861 523.288C772.371 523.055 771.634 522.709 770.651 522.249L770.775 522.308C770.588 522.151 767.581 520.853 761.751 518.415L761.986 518.508C761.746 518.413 761.505 518.318 761.263 518.222L761.505 518.317C761.435 518.292 761.183 518.19 760.747 518.012C760.31 517.834 758.678 517.236 755.854 516.216L756.23 516.346C755.757 516.182 754.186 515.666 751.515 514.8L751.854 514.904C751.659 514.664 747.993 513.792 740.854 512.287L740.898 512.292C740.654 512.256 740.441 512.225 740.259 512.199L740.306 512.205C740.033 512.167 739.617 512.114 739.058 512.046L739.421 512.089C739.082 512.05 738.678 512.006 738.21 511.958L738.268 511.964C738.186 511.955 737.894 511.931 737.391 511.891L737.454 511.895C737.117 511.869 736.649 511.844 736.052 511.82L736.122 511.822C735.363 511.766 734.487 511.784 733.495 511.876C732.504 511.967 731.789 512.056 731.351 512.141C730.912 512.228 730.19 512.451 729.186 512.812C728.183 513.174 727.33 513.672 726.629 514.305C725.927 514.938 725.564 516.635 725.537 519.395L725.515 519.253C725.504 519.609 725.843 520.735 726.53 522.631L726.466 522.485C726.56 522.702 726.659 522.921 726.758 523.14L726.688 522.991C726.849 523.352 727.115 523.879 727.482 524.571L727.402 524.423C727.475 524.555 727.576 524.736 727.704 524.967L727.62 524.82C727.696 524.954 727.803 525.139 727.939 525.374L727.853 525.225C727.963 525.415 728.075 525.604 728.191 525.791L728.101 525.643C728.206 525.817 728.327 526.015 728.466 526.235C728.605 526.455 728.809 526.767 729.079 527.172L728.981 527.026C729.151 527.276 729.289 527.477 729.394 527.63L729.294 527.483C729.401 527.639 729.602 527.922 729.894 528.333L729.79 528.19C729.965 528.433 730.081 528.593 730.14 528.671L730.034 528.528C730.224 528.784 730.474 529.114 730.782 529.519L730.673 529.377C730.774 529.509 730.974 529.766 731.275 530.148L731.163 530.007C731.303 530.181 731.515 530.445 731.801 530.799L731.688 530.661C731.836 530.841 732.175 531.249 732.708 531.884L732.595 531.75C732.732 531.917 733.032 532.262 733.495 532.784C733.958 533.306 734.508 533.906 735.143 534.585L735.039 534.476C735.311 534.765 735.739 535.211 736.323 535.812L736.224 535.713C736.498 535.997 737.082 536.582 737.974 537.468C738.865 538.352 740.651 539.983 743.331 542.361L743.279 542.317C743.405 542.427 743.647 542.634 744.005 542.939C744.363 543.245 744.815 543.627 745.362 544.086L745.327 544.055C745.558 544.247 745.913 544.541 746.393 544.937L746.366 544.914C746.59 545.098 746.946 545.387 747.432 545.781L747.414 545.766C747.689 546.048 749.082 547.131 751.592 549.017C754.101 550.903 756.081 552.346 757.531 553.346C758.98 554.344 760.091 555.103 760.864 555.623C761.639 556.142 762.437 556.672 763.259 557.21C764.081 557.75 764.89 558.27 765.688 558.772C766.485 559.274 767.133 559.679 767.629 559.987C768.126 560.294 778.901 566.744 779.817 567.302C779.852 567.337 769.027 560.856 767.48 559.891C765.933 558.927 764.707 558.151 763.8 557.563C762.892 556.976 762.045 556.417 761.258 555.886C760.472 555.357 759.909 554.979 759.573 554.753C759.237 554.529 758.742 554.188 758.087 553.73C757.433 553.272 756.877 552.881 756.42 552.557C755.964 552.235 755.475 551.886 754.954 551.51C754.432 551.134 753.644 550.557 752.59 549.78C751.535 549.002 749.788 547.646 747.35 545.714L747.366 545.727C747.032 545.496 745.294 544.03 742.15 541.33L742.207 541.378C741.895 541.101 741.466 540.717 740.921 540.227L740.985 540.284L740.631 539.963L740.697 540.023L740.345 539.701L740.411 539.761C740.223 539.587 740.01 539.391 739.775 539.173L739.847 539.238L739.493 538.911L739.567 538.979C739.332 538.758 739.122 538.56 738.938 538.387L739.015 538.457C738.875 538.327 738.487 537.954 737.851 537.338L737.932 537.418C737.687 537.177 737.368 536.862 736.975 536.472L737.061 536.558C736.867 536.367 736.303 535.789 735.365 534.822L735.458 534.92C735.221 534.668 734.916 534.344 734.545 533.946L734.643 534.052C734.25 533.702 732.991 532.228 730.866 529.629L730.967 529.759C730.648 529.367 729.543 527.739 727.651 524.872L727.734 525.022C727.545 524.812 726.932 523.443 725.895 520.913L725.941 521.064C725.926 520.995 725.839 520.633 725.681 519.981C725.523 519.328 725.43 518.632 725.401 517.893C725.374 517.154 725.534 516.454 725.881 515.792C726.229 515.131 726.541 514.624 726.819 514.274C727.097 513.923 727.606 513.546 728.348 513.143C729.09 512.739 730.112 512.399 731.416 512.122C732.719 511.846 734.279 511.745 736.096 511.821C737.911 511.897 739.582 512.064 741.108 512.323C742.636 512.582 743.913 512.828 744.94 513.06C745.968 513.291 747.158 513.578 748.508 513.921C749.859 514.264 752.573 515.122 756.65 516.496C756.525 516.45 756.355 516.39 756.141 516.315C755.911 516.207 757.565 516.822 761.103 518.16L760.911 518.084C761.016 518.123 761.634 518.369 762.763 518.822C763.893 519.275 765.102 519.781 766.39 520.342C767.678 520.903 768.551 521.288 769.01 521.498C769.469 521.708 769.957 521.932 770.474 522.168C770.992 522.404 772.085 522.92 773.753 523.717L773.679 523.683L773.923 523.8L773.851 523.766C774.016 523.845 774.178 523.924 774.34 524.002L774.272 523.97L774.516 524.09L774.449 524.057C774.554 524.108 774.716 524.188 774.937 524.295L774.874 524.265C775.142 524.397 775.303 524.476 775.355 524.502L775.298 524.473L775.539 524.593L775.482 524.566C775.613 524.63 775.834 524.74 776.147 524.896L776.099 524.872L776.337 524.991L776.288 524.967C776.547 525.095 776.836 525.24 777.153 525.402L777.114 525.381L777.35 525.502L777.314 525.483L777.55 525.605C777.32 525.483 776.788 525.221 775.954 524.816C775.119 524.41 774.054 523.888 772.761 523.249C771.467 522.611 769.267 521.601 766.159 520.219C763.051 518.837 758.468 517.123 752.411 515.077L752.749 515.184C752.716 515.173 752.667 515.157 752.603 515.137L752.927 515.241C752.896 515.23 752.864 515.22 752.831 515.21L753.145 515.311L753.095 515.293L753.402 515.393L753.351 515.376C753.473 515.416 753.652 515.474 753.889 515.551L753.837 515.534C753.741 515.474 754.663 515.788 756.606 516.479C758.549 517.17 760.448 517.89 762.303 518.638C764.158 519.385 765.901 520.119 767.531 520.84L767.235 520.708L767.385 520.776C767.521 520.815 766.906 520.548 765.539 519.976C764.172 519.402 762.997 518.921 762.018 518.532C761.038 518.143 760.084 517.769 759.158 517.412C759.428 517.547 760.277 517.871 761.704 518.384C763.131 518.896 765.296 519.813 768.199 521.135C771.102 522.458 773.227 523.449 774.572 524.112C775.918 524.775 777.047 525.343 777.964 525.815C778.881 526.287 779.621 526.67 780.183 526.966C780.744 527.263 792.882 534.317 793.383 534.585" stroke="#333333" stroke-width="10" stroke-linecap="round" stroke-linejoin="round"/>
<path d="M276.068 526.398C276.282 526.285 276.525 526.158 276.798 526.016L276.79 526.017C276.857 525.983 277.022 525.897 277.285 525.761L277.27 525.767C277.241 525.78 277.987 525.398 279.508 524.622L279.469 524.642C279.781 524.483 279.959 524.395 280.001 524.375L279.957 524.398C280.134 524.309 280.314 524.219 280.495 524.129L280.444 524.153C280.746 524.004 281.069 523.845 281.416 523.674L281.353 523.705L281.625 523.57L281.561 523.602C281.548 523.604 282.403 523.192 284.125 522.368L284.028 522.413C284.502 522.188 285.216 521.856 286.17 521.415L286.05 521.47C286.232 521.32 289.148 520.073 294.798 517.732L294.569 517.822C294.802 517.73 295.036 517.638 295.271 517.548L295.035 517.637C295.104 517.614 295.349 517.517 295.772 517.346C296.196 517.175 297.776 516.599 300.513 515.62L300.149 515.745C300.606 515.588 302.129 515.093 304.719 514.26L304.39 514.36C304.579 514.129 308.134 513.291 315.054 511.846L315.01 511.852C315.248 511.818 315.454 511.787 315.629 511.76L315.584 511.768C315.849 511.732 316.253 511.681 316.793 511.616L316.442 511.656C316.77 511.618 317.161 511.576 317.615 511.532L317.56 511.536C317.638 511.528 317.921 511.505 318.409 511.467L318.35 511.47C318.675 511.445 319.127 511.422 319.707 511.399L319.639 511.401C320.376 511.347 321.225 511.364 322.186 511.451C323.146 511.539 323.839 511.624 324.265 511.707C324.69 511.79 325.39 512.005 326.363 512.351C327.335 512.698 328.16 513.176 328.84 513.784C329.521 514.392 329.873 516.021 329.898 518.672L329.919 518.536C329.931 518.877 329.603 519.959 328.937 521.782L328.998 521.639C328.907 521.847 328.812 522.057 328.715 522.268L328.784 522.125C328.626 522.472 328.369 522.978 328.014 523.642L328.092 523.5C328.022 523.627 327.924 523.801 327.799 524.023L327.88 523.881C327.807 524.011 327.704 524.188 327.571 524.412L327.654 524.271C327.549 524.453 327.44 524.635 327.327 524.814L327.414 524.672C327.312 524.839 327.194 525.028 327.06 525.24C326.925 525.452 326.727 525.751 326.465 526.14L326.559 526C326.395 526.24 326.263 526.433 326.16 526.58L326.258 526.44C326.154 526.589 325.959 526.861 325.674 527.256L325.778 527.116C325.606 527.35 325.493 527.505 325.438 527.581L325.54 527.443C325.356 527.688 325.114 528.005 324.814 528.394L324.921 528.259C324.824 528.385 324.629 528.632 324.337 528.998L324.447 528.863C324.31 529.03 324.104 529.283 323.828 529.623L323.937 529.49C323.794 529.663 323.464 530.055 322.949 530.665L323.057 530.536C322.924 530.696 322.634 531.027 322.186 531.529C321.737 532.03 321.204 532.607 320.589 533.259L320.688 533.154C320.423 533.432 320.009 533.86 319.445 534.438L319.541 534.342C319.274 534.615 318.709 535.177 317.845 536.026C316.98 536.876 315.249 538.443 312.65 540.726L312.7 540.683C312.581 540.789 312.346 540.989 311.999 541.283C311.651 541.576 311.212 541.943 310.682 542.383L310.716 542.354C310.492 542.537 310.148 542.82 309.684 543.201L309.708 543.179C309.491 543.355 309.147 543.632 308.676 544.011L308.693 543.996C308.426 544.266 307.076 545.307 304.643 547.117C302.211 548.929 300.292 550.315 298.887 551.274C297.483 552.233 296.405 552.963 295.655 553.462C294.906 553.961 294.132 554.469 293.335 554.987C292.537 555.504 291.752 556.003 290.979 556.486C290.206 556.967 289.579 557.356 289.098 557.652C288.617 557.947 276.614 565.171 275.726 565.708C275.693 565.741 287.744 558.487 289.242 557.561C290.741 556.635 291.93 555.89 292.81 555.325C293.69 554.761 294.511 554.224 295.273 553.715C296.037 553.207 296.582 552.844 296.907 552.628C297.233 552.411 297.713 552.083 298.348 551.644C298.982 551.204 299.52 550.829 299.962 550.518C300.404 550.208 300.877 549.873 301.383 549.511C301.889 549.151 302.653 548.597 303.675 547.85C304.698 547.103 306.391 545.801 308.754 543.945L308.74 543.959C309.064 543.737 310.749 542.329 313.796 539.736L313.741 539.783C314.044 539.517 314.46 539.147 314.986 538.676L314.924 538.731L315.268 538.424L315.205 538.482L315.546 538.17L315.482 538.229C315.664 538.062 315.869 537.874 316.097 537.665L316.028 537.728L316.371 537.412L316.3 537.477C316.528 537.266 316.731 537.077 316.909 536.909L316.835 536.977C316.971 536.852 317.346 536.494 317.962 535.902L317.884 535.979C318.122 535.748 318.431 535.446 318.812 535.072L318.729 535.155C318.916 534.971 319.464 534.414 320.373 533.485L320.282 533.58C320.513 533.338 320.809 533.027 321.17 532.646L321.072 532.747C321.453 532.411 322.672 530.995 324.733 528.5L324.636 528.624C324.944 528.248 326.014 526.684 327.849 523.931L327.771 524.075C327.953 523.874 328.546 522.559 329.551 520.13L329.508 520.276C329.522 520.209 329.606 519.862 329.76 519.235C329.913 518.607 330.003 517.939 330.03 517.23C330.059 516.52 329.904 515.848 329.567 515.212C329.229 514.577 328.927 514.091 328.657 513.755C328.388 513.418 327.894 513.056 327.175 512.669C326.455 512.281 325.463 511.954 324.2 511.689C322.937 511.423 321.426 511.326 319.665 511.399C317.906 511.472 316.285 511.633 314.805 511.882C313.325 512.131 312.087 512.366 311.09 512.588C310.094 512.811 308.941 513.087 307.632 513.416C306.324 513.746 303.693 514.57 299.74 515.889C299.862 515.845 300.027 515.787 300.235 515.715C300.459 515.611 298.856 516.201 295.425 517.486L295.611 517.415C295.509 517.452 294.911 517.687 293.816 518.122C292.721 518.556 291.549 519.044 290.3 519.583C289.052 520.122 288.206 520.492 287.761 520.693C287.316 520.895 286.842 521.109 286.34 521.335C285.839 521.562 284.78 522.059 283.163 522.825L283.234 522.79L282.999 522.904L283.068 522.872C282.909 522.947 282.751 523.022 282.595 523.098L282.661 523.068L282.423 523.181L282.488 523.151C282.386 523.199 282.23 523.275 282.017 523.378L282.078 523.349C281.818 523.477 281.663 523.553 281.612 523.578L281.667 523.55L281.433 523.664L281.486 523.638C281.361 523.7 281.147 523.807 280.843 523.956L280.89 523.932L280.658 524.047L280.705 524.024C280.455 524.148 280.176 524.287 279.868 524.442L279.906 524.422L279.677 524.538L279.711 524.521L279.483 524.636C279.706 524.52 280.222 524.267 281.031 523.877C281.839 523.489 282.871 522.988 284.125 522.374C285.379 521.761 287.513 520.791 290.524 519.464C293.536 518.137 297.978 516.491 303.85 514.526L303.521 514.628C303.554 514.618 303.601 514.603 303.665 514.583L303.35 514.683C303.381 514.673 303.412 514.664 303.444 514.655L303.138 514.751L303.187 514.735L302.889 514.83L302.938 514.814C302.82 514.851 302.647 514.908 302.417 514.982L302.47 514.966C302.562 514.907 301.667 515.21 299.783 515.873C297.9 516.537 296.06 517.228 294.262 517.946C292.465 518.664 290.775 519.368 289.193 520.059L289.482 519.935L289.336 519.999C289.205 520.036 289.802 519.78 291.126 519.23C292.45 518.68 293.589 518.219 294.539 517.846C295.49 517.472 296.413 517.113 297.311 516.769C297.049 516.899 296.226 517.21 294.842 517.701C293.459 518.193 291.361 519.074 288.547 520.344C285.733 521.613 283.674 522.567 282.369 523.205C281.066 523.84 279.97 524.384 279.081 524.837C278.192 525.291 277.476 525.66 276.931 525.944C276.388 526.229 266.657 532.002 266.17 532.26" stroke="#333333" stroke-width="10" stroke-linecap="round" stroke-linejoin="round"/>
<path d="M704.772 1505.14L703.205 1503.84C701.554 1502.3 700.069 1500.94 698.752 1499.75C697.435 1498.56 696.594 1497.79 696.229 1497.44C695.864 1497.09 695.441 1496.7 694.961 1496.26C694.481 1495.83 693.955 1495.33 693.382 1494.76C692.81 1494.18 692.134 1493.48 691.355 1492.64C690.576 1491.8 689.517 1490.57 688.176 1488.96C686.835 1487.35 685.962 1486.28 685.556 1485.73C685.151 1485.18 684.794 1484.7 684.485 1484.3C684.176 1483.89 683.697 1483.2 683.051 1482.23C682.404 1481.25 681.986 1480.6 681.797 1480.27C681.608 1479.94 681.259 1479.31 680.751 1478.36C680.243 1477.42 679.709 1476.31 679.151 1475.05C678.593 1473.79 678.16 1472.73 677.853 1471.89C677.546 1471.04 677.343 1470.46 677.244 1470.13C677.144 1469.8 677.052 1469.51 676.967 1469.26C676.883 1469.01 676.517 1467.32 675.869 1464.2C675.752 1463.64 675.637 1462.38 675.525 1460.41C675.413 1458.44 675.381 1456.89 675.426 1455.76C675.473 1454.63 675.563 1453.48 675.698 1452.33C675.832 1451.17 676.011 1450.03 676.236 1448.91C676.46 1447.8 676.693 1446.78 676.935 1445.85C677.177 1444.93 677.954 1442.75 679.266 1439.32C680.577 1435.89 681.249 1434.14 681.285 1434.07C681.321 1434 681.788 1433.12 682.688 1431.43C683.587 1429.74 684.619 1427.97 685.783 1426.12C686.947 1424.28 687.996 1422.71 688.928 1421.41C689.861 1420.12 690.72 1418.98 691.506 1417.99C692.292 1417.01 693.205 1415.92 694.246 1414.73C695.287 1413.54 696.46 1412.27 697.765 1410.92C699.069 1409.57 700.045 1408.58 700.693 1407.95C701.341 1407.32 702.147 1406.56 703.109 1405.67C704.072 1404.79 705.149 1403.82 706.341 1402.78C707.532 1401.73 708.843 1400.63 710.275 1399.48C711.706 1398.32 713.534 1396.91 715.761 1395.23C717.988 1393.56 719.516 1392.43 720.343 1391.84C721.171 1391.25 722.056 1390.62 722.999 1389.96C723.942 1389.3 725.494 1388.27 727.653 1386.85C729.812 1385.43 731.731 1384.21 733.413 1383.17C735.094 1382.13 736.603 1381.2 737.94 1380.38C739.276 1379.57 740.302 1378.94 741.015 1378.5C741.729 1378.07 742.519 1377.59 743.386 1377.08C744.253 1376.57 745.005 1376.13 745.64 1375.76C746.277 1375.38 747.543 1374.66 749.439 1373.59C751.336 1372.52 753.116 1371.53 754.78 1370.63C756.444 1369.72 757.749 1369.01 758.698 1368.5C759.647 1367.98 761.021 1367.24 762.82 1366.26C764.62 1365.29 766.376 1364.35 768.09 1363.44C769.803 1362.54 771.525 1361.62 773.256 1360.69C774.985 1359.76 776.885 1358.74 778.955 1357.63C781.024 1356.51 782.221 1355.87 782.544 1355.68C782.867 1355.5 783.863 1354.95 785.533 1354.02C787.203 1353.1 788.647 1352.31 789.862 1351.64C791.077 1350.96 792.007 1350.45 792.651 1350.1C793.294 1349.75 794.168 1349.27 795.273 1348.65C796.376 1348.04 798.02 1347.1 800.205 1345.83C802.958 1344.19 805.851 1342.41 808.884 1340.5C811.915 1338.58 814.411 1336.96 816.374 1335.63C818.337 1334.3 819.765 1333.32 820.658 1332.68C821.549 1332.05 822.777 1331.16 824.34 1330.02C825.903 1328.87 827.491 1327.69 829.105 1326.47C830.72 1325.24 832.068 1324.2 833.146 1323.33C834.225 1322.47 835.217 1321.67 836.122 1320.92C837.025 1320.16 838.614 1318.8 840.887 1316.84L841.979 1315.91L843.644 1314.39L845.153 1313.07C846.433 1311.93 864.985 1296.63 866.64 1295.19L884.16 1280.85" stroke="#333333" stroke-width="10" stroke-linecap="round" stroke-linejoin="round"/>
<path d="M348.301 1504.44L349.868 1503.13C351.518 1501.59 353.003 1500.23 354.32 1499.04C355.637 1497.85 356.478 1497.08 356.844 1496.73C357.209 1496.38 357.632 1495.99 358.112 1495.56C358.592 1495.13 359.119 1494.62 359.691 1494.05C360.263 1493.48 360.939 1492.77 361.718 1491.93C362.496 1491.09 363.556 1489.87 364.897 1488.26C366.238 1486.65 367.111 1485.57 367.517 1485.02C367.922 1484.47 368.279 1483.99 368.588 1483.59C368.896 1483.19 369.375 1482.5 370.022 1481.52C370.669 1480.55 371.087 1479.89 371.276 1479.57C371.464 1479.24 371.813 1478.6 372.322 1477.66C372.83 1476.71 373.364 1475.61 373.922 1474.34C374.48 1473.08 374.913 1472.03 375.22 1471.18C375.527 1470.34 375.73 1469.75 375.829 1469.42C375.928 1469.09 376.02 1468.8 376.106 1468.55C376.19 1468.3 376.557 1466.62 377.204 1463.49C377.322 1462.94 377.436 1461.67 377.548 1459.71C377.66 1457.74 377.693 1456.19 377.647 1455.05C377.6 1453.92 377.51 1452.78 377.375 1451.62C377.241 1450.46 377.062 1449.33 376.837 1448.21C376.613 1447.09 376.381 1446.07 376.138 1445.15C375.897 1444.23 375.12 1442.05 373.808 1438.61C372.497 1435.18 371.823 1433.43 371.788 1433.36C371.752 1433.3 371.284 1432.42 370.385 1430.73C369.485 1429.03 368.454 1427.26 367.29 1425.42C366.125 1423.57 365.076 1422 364.145 1420.71C363.212 1419.41 362.353 1418.27 361.567 1417.29C360.781 1416.3 359.868 1415.22 358.826 1414.03C357.786 1412.84 356.613 1411.57 355.308 1410.21C354.003 1408.86 353.027 1407.87 352.38 1407.24C351.731 1406.62 350.926 1405.86 349.963 1404.97C349.001 1404.08 347.923 1403.11 346.732 1402.07C345.541 1401.03 344.229 1399.93 342.798 1398.77C341.366 1397.62 339.538 1396.2 337.312 1394.53C335.085 1392.86 333.558 1391.72 332.73 1391.13C331.903 1390.54 331.017 1389.92 330.073 1389.26C329.13 1388.6 327.579 1387.56 325.42 1386.14C323.262 1384.73 321.342 1383.5 319.66 1382.46C317.979 1381.43 316.47 1380.5 315.133 1379.68C313.797 1378.86 312.772 1378.23 312.058 1377.8C311.343 1377.36 310.553 1376.89 309.687 1376.38C308.82 1375.86 308.069 1375.42 307.433 1375.05C306.796 1374.68 305.53 1373.96 303.633 1372.88C301.737 1371.81 299.957 1370.83 298.293 1369.92C296.63 1369.02 295.323 1368.31 294.375 1367.79C293.426 1367.28 292.052 1366.53 290.253 1365.55C288.453 1364.58 286.655 1363.71 284.982 1362.74C241 1337 217.503 1317.84 184.952 1288.82C178.05 1282.66 167.432 1272.89 167.432 1272.89" stroke="#333333" stroke-width="10" stroke-linecap="round" stroke-linejoin="round"/>
<path d="M349.031 1504.3L704.671 1505.39" stroke="#333333" stroke-width="10" stroke-linecap="round" stroke-linejoin="round"/>
<path d="M843.205 618.242L852.706 627.854" stroke="#333333" stroke-width="2"/>
<path d="M787.016 531.313C786.765 531.192 786.492 531.06 786.195 530.916C786.323 530.979 786.562 531.094 786.91 531.262L786.814 531.214L787.016 531.313Z" stroke="#333333" stroke-width="2" stroke-linecap="round" stroke-linejoin="round"/>
<path d="M441.38 247.16L438.194 282.201L404.747 261.495L387.227 221.676L384.041 185.043L420.674 208.934L433.416 223.269L441.38 247.16Z" fill="#333333"/>
<path d="M485.977 188.228L478.013 228.047L455.715 220.083L428.638 188.228V127.704L474.828 156.374L485.977 188.228Z" fill="#333333"/>
<path d="M626.139 199.378L583.134 231.233L567.207 196.192L583.134 159.559L630.917 130.89V156.374L626.139 199.378Z" fill="#333333"/>
<path d="M657.994 258.309L621.36 286.979L613.397 251.938L630.917 215.305L670.736 185.043L672.328 212.12L657.994 258.309Z" fill="#333333"/>
<path d="M299.634 492.443L240.702 422.362L239.109 420.769L498.727 415.991L473.243 363.43L438.203 329.982L401.57 307.684L379.271 310.869H347.416L310.783 291.757L277.335 259.902L251.851 210.526H286.892L318.747 221.676L356.973 240.789L379.271 264.68L401.57 296.535L419.09 302.906L463.687 329.982L517.84 385.729L521.026 180.264C518.902 178.141 514.018 173.575 511.469 172.3C508.284 170.708 490.763 121.333 489.171 114.962C487.578 108.591 495.542 79.9212 495.542 71.9574C495.542 65.5865 518.902 26.8296 530.582 8.24756C530.582 10.3712 531.538 14.6185 535.36 14.6185C540.139 14.6185 564.03 81.5139 567.215 86.2922C570.401 91.0704 564.03 140.446 564.03 145.224C564.03 149.046 544.917 172.3 535.36 183.45L538.546 388.914L602.256 325.204C603.53 323.93 637.827 305.56 654.816 296.535C660.657 289.633 672.655 274.873 673.929 271.051C675.522 266.273 724.897 229.639 728.083 226.454C730.631 223.906 781.174 214.774 806.127 210.526C805.596 212.119 804.216 217.535 802.942 226.454C801.349 237.603 764.716 277.422 753.567 291.757C742.418 306.091 716.934 307.684 705.784 310.869C691.45 314.965 670.744 315.117 659.595 310.869C659.064 311.931 655.772 315.011 646.853 318.833C635.703 323.611 595.885 353.874 581.55 366.616C570.082 376.809 564.03 408.027 562.437 422.362H815.684L756.752 487.664L299.634 492.443Z" fill="#333333"/>
<path d="M559.4 419.756L559.766 418.306C561.267 413.167 562.42 409.342 563.225 406.833C564.03 404.324 564.701 402.291 565.24 400.732C565.777 399.174 566.424 397.401 567.181 395.415C567.938 393.428 568.747 391.447 569.607 389.47C570.469 387.493 571.146 385.974 571.64 384.912C572.134 383.85 573.18 381.851 574.781 378.915C576.381 375.98 577.633 373.796 578.533 372.362C579.434 370.928 580.332 369.543 581.229 368.207C582.125 366.87 582.979 365.665 583.793 364.593C584.438 363.715 585.164 362.767 585.97 361.749C586.777 360.73 587.349 360.009 587.686 359.585C588.024 359.162 588.719 358.361 589.773 357.182C590.826 356.003 592.405 354.378 594.511 352.309C596.617 350.239 598.843 348.22 601.188 346.25C603.533 344.28 607.297 341.379 612.479 337.55C618.799 333.265 622.489 330.794 623.548 330.138C624.609 329.482 625.529 328.903 626.309 328.4C627.089 327.898 629.134 326.684 632.443 324.759C635.753 322.835 638.648 321.194 641.129 319.837C643.609 318.478 645.427 317.489 646.582 316.871C647.735 316.253 650.343 314.962 654.405 312.997L658.973 310.799M538.683 391.68C539.685 390.447 541.205 388.666 543.244 386.338C545.283 384.011 547.471 381.518 549.807 378.857C552.144 376.196 553.934 374.16 555.176 372.749C556.419 371.34 558.065 369.499 560.114 367.229C562.163 364.958 565.231 361.739 569.317 357.575C573.403 353.41 576.701 350.14 579.209 347.764C581.719 345.387 583.822 343.434 585.519 341.905C587.215 340.376 588.166 339.517 588.37 339.33C588.573 339.143 589.733 338.155 591.849 336.366C593.964 334.578 595.534 333.277 596.561 332.462C597.588 331.648 599.047 330.526 600.939 329.096C602.831 327.666 604.59 326.372 606.216 325.215C607.84 324.058 609.183 323.121 610.244 322.405C611.306 321.689 612.83 320.678 614.817 319.37C616.807 318.063 618.555 316.933 620.063 315.981C621.57 315.028 622.886 314.209 624.01 313.523C625.134 312.838 626.3 312.143 627.508 311.438C628.718 310.734 630.994 309.465 634.338 307.632C637.683 305.798 640.774 304.138 643.608 302.653C646.443 301.167 650.227 299.203 654.962 296.761M656.299 296.093L658.978 292.656C660.732 290.358 662.039 288.662 662.895 287.566C663.751 286.469 665.07 284.767 666.853 282.458C668.637 280.15 670.278 278.08 671.777 276.25C673.278 274.42 674.982 272.4 676.89 270.188C679.14 267.675 681.431 265.159 683.764 262.64C686.097 260.119 687.865 258.264 689.07 257.076C690.272 255.886 691.642 254.575 693.177 253.141C694.712 251.707 696.726 249.907 699.218 247.739C705.816 242.639 710.932 238.921 714.561 236.584C718.191 234.246 721.128 232.473 723.372 231.263C725.616 230.054 727.679 229.007 729.56 228.122C731.441 227.237 733.801 226.206 736.639 225.029C739.476 223.852 742.427 222.745 745.49 221.707C748.555 220.669 751.76 219.707 755.108 218.823C758.455 217.939 760.47 217.426 761.151 217.281C761.833 217.137 762.717 216.942 763.805 216.698C764.894 216.453 767.411 215.969 771.357 215.246C775.303 214.523 777.658 214.096 778.42 213.967C779.182 213.839 779.873 213.729 780.494 213.639C781.114 213.55 782.016 213.424 783.2 213.261C784.386 213.099 785.575 212.938 786.766 212.778C787.956 212.617 789.327 212.436 790.88 212.234C792.432 212.032 793.54 211.897 794.202 211.83C794.865 211.764 795.911 211.65 797.341 211.489C797.946 211.383 799.673 211.163 802.522 210.831L804.655 210.533M657.634 311.466C658.596 311.48 659.477 311.517 660.274 311.578C661.072 311.64 662.558 311.757 664.732 311.928C666.906 312.098 668.817 312.229 670.465 312.321C672.113 312.413 673.948 312.487 675.97 312.543C677.992 312.598 679.517 312.622 680.547 312.615C681.575 312.608 682.476 312.595 683.25 312.576C684.023 312.558 684.954 312.529 686.043 312.487C687.13 312.444 689.242 312.284 692.376 312.006C695.511 311.728 697.863 311.479 699.435 311.257C701.005 311.035 703.302 310.598 706.323 309.946C709.344 309.294 711.773 308.715 713.608 308.209C715.446 307.705 717.983 306.881 721.22 305.736C724.458 304.59 727.815 303.191 731.29 301.54C734.764 299.889 738.182 298.039 741.545 295.991C744.907 293.942 747.543 292.237 749.452 290.875C751.362 289.515 752.694 288.54 753.449 287.952C754.205 287.364 755.655 286.132 757.8 284.253C759.946 282.374 761.732 280.728 763.159 279.315C764.587 277.901 765.968 276.491 767.301 275.084C768.633 273.678 769.404 272.856 769.612 272.617C769.821 272.378 770.533 271.551 771.75 270.135C772.967 268.719 774.364 267.013 775.942 265.017C777.519 263.021 778.82 261.31 779.847 259.884C780.871 258.457 781.656 257.344 782.198 256.544C782.74 255.744 783.833 254.052 785.481 251.466C787.129 248.88 788.521 246.606 789.659 244.644C790.796 242.683 792.23 240.156 793.96 237.064C795.69 233.971 797.263 231.092 798.683 228.429C800.102 225.766 801.139 223.805 801.791 222.546C802.442 221.286 804.289 217.728 807.329 211.87M537.348 391.68L536.01 184.462M536.411 182.944C537.599 181.504 539.337 179.527 541.627 177.016C543.871 174.433 545.736 172.159 547.219 170.196C548.703 168.233 550.402 165.863 552.318 163.088C552.596 162.674 553.859 160.53 556.107 156.657C556.23 156.454 557.158 154.432 558.889 150.592C560.621 146.752 561.891 143.684 562.698 141.388C563.506 139.092 564.242 136.632 564.907 134.008C565.574 131.385 565.972 129.706 566.103 128.97C566.234 128.234 566.394 127.306 566.584 126.187C566.775 125.068 567.21 121.401 567.887 115.185C568.015 109.259 567.87 104.189 567.452 99.9742C567.034 95.7604 566.621 92.5666 566.214 90.3929C565.806 88.2201 565.387 86.3015 564.957 84.6377C564.526 82.974 564.103 81.4465 563.689 80.0548C563.274 78.6621 562.649 76.732 561.81 74.265C560.971 71.7988 560.173 69.5914 559.414 67.6432C558.656 65.6951 557.89 63.8252 557.118 62.033C556.346 60.2409 555.815 59.0141 555.525 58.3526C555.235 57.691 554.226 55.5597 552.497 51.9594C550.77 48.3591 549.108 45.0403 547.513 42.0026C545.917 38.9658 544.349 36.0363 542.806 33.2134C541.265 30.3906 540.178 28.43 539.546 27.3316C538.914 26.2331 538.269 25.1078 537.611 23.9567C536.951 22.8057 536.281 21.6346 535.602 20.4434C534.921 19.2522 534.226 18.0205 533.518 16.7472C532.81 15.4731 531.715 13.4712 530.234 10.742L528.173 7.00532M579.448 229.916C578.61 228.249 577.767 226.396 576.919 224.357C576.07 222.318 575.418 220.653 574.962 219.363C574.508 218.072 574.033 216.594 573.539 214.929C573.043 213.265 572.67 211.931 572.419 210.925C572.169 209.919 571.797 208.151 571.304 205.619C570.811 203.088 570.49 200.994 570.34 199.338C570.19 197.68 570.141 195.558 570.192 192.971C570.243 190.385 570.391 188.277 570.635 186.647C570.879 185.016 571.183 183.489 571.545 182.065C571.907 180.641 572.202 179.582 572.431 178.889C572.659 178.196 573.135 176.922 573.857 175.065C574.579 173.208 575.894 170.742 577.799 167.669C579.705 164.596 581.353 162.214 582.745 160.524C584.136 158.833 585.648 157.172 587.28 155.54C588.911 153.91 590.659 152.304 592.523 150.724C594.389 149.145 595.875 147.957 596.982 147.159C598.091 146.362 599.23 145.581 600.402 144.818C601.573 144.054 602.417 143.525 602.93 143.232C603.445 142.938 604.49 142.328 606.067 141.402C607.645 140.474 610.302 138.954 614.037 136.841C617.504 135.087 620.053 133.792 621.683 132.955C623.313 132.119 625.051 131.241 626.895 130.32M582.122 231.922C582.717 231.541 583.607 231.063 584.792 230.49C585.976 229.916 586.911 229.455 587.598 229.107C588.285 228.758 589.514 228.122 591.284 227.197C593.055 226.272 594.486 225.5 595.577 224.881C596.668 224.261 597.584 223.736 598.324 223.307C599.064 222.876 599.906 222.356 600.851 221.747C601.795 221.138 603.211 220.137 605.1 218.745C606.988 217.351 608.424 216.213 609.406 215.331C610.388 214.448 612.388 212.324 615.408 208.959C618.426 205.595 620.298 203.378 621.022 202.308C621.746 201.239 622.657 199.69 623.754 197.665C624.851 195.64 625.521 194.358 625.765 193.82C626.009 193.282 626.436 192.21 627.045 190.603C627.655 188.997 628.993 183.659 631.06 174.588C631.34 173.219 631.569 170.769 631.743 167.239C631.919 163.709 631.914 159.725 631.73 155.286C631.547 150.847 631.36 147.798 631.17 146.14C630.98 144.481 630.84 143.133 630.749 142.098C630.659 141.064 630.606 140.4 630.59 140.108C630.575 139.815 630.498 138.973 630.36 137.58C630.222 136.188 630.111 134.961 630.026 133.899C629.941 132.838 629.789 131.644 629.569 130.32M618.876 286.735L618.375 284.942L617.809 281.656L617.37 279.581C617.026 277.384 616.702 275.345 616.399 273.465C616.096 271.584 615.882 270.122 615.755 269.077C615.631 268.032 615.532 267.052 615.46 266.137C615.389 265.222 615.303 264.154 615.202 262.932C615.101 261.71 615.031 260.514 614.993 259.343C614.953 258.173 614.941 257.312 614.956 256.763C614.97 256.214 615.031 254.836 615.138 252.63C615.246 250.422 615.391 248.656 615.575 247.333C615.761 246.009 615.953 244.88 616.151 243.947C616.35 243.012 616.714 241.62 617.246 239.77C617.93 237.533 618.475 235.91 618.88 234.9C619.283 233.891 619.765 232.759 620.324 231.505C620.883 230.251 621.68 228.707 622.714 226.872C623.75 225.036 625.213 222.877 627.105 220.395C628.997 217.912 630.498 216.069 631.608 214.867C632.719 213.666 633.633 212.722 634.351 212.034C635.067 211.346 636.215 210.32 637.794 208.956C638.203 208.52 639.535 207.43 641.789 205.686L645.054 203.303C647.401 201.65 649.386 200.243 651.007 199.082C651.423 198.843 652.254 198.333 653.501 197.551C654.746 196.768 656.351 195.765 658.317 194.54L659.873 193.576L662.078 192.296L663.876 191.303C664.772 190.825 665.453 190.449 665.919 190.178C666.386 189.907 666.815 189.626 667.205 189.333L670.025 187.619L670.665 187.324C671.29 187.058 672.293 186.55 673.674 185.799M621.549 288.74L622.575 287.865L624.715 286.495L625.344 286.043C626.816 285.068 627.871 284.376 628.507 283.967C629.145 283.559 630.135 282.87 631.477 281.901C632.821 280.932 635.356 279.051 639.084 276.256C644.838 270.924 648.364 267.545 649.662 266.121C650.959 264.696 651.871 263.666 652.398 263.03C652.924 262.394 653.475 261.705 654.051 260.964C654.627 260.224 655.531 259.008 656.762 257.316C657.117 256.841 657.879 255.658 659.046 253.767C660.223 251.798 660.969 250.531 661.284 249.966C661.601 249.403 662.553 247.447 664.141 244.098L665.376 241.158C665.778 240.088 666.148 239.119 666.488 238.254C666.828 237.387 667.256 236.19 667.77 234.664C668.431 232.266 668.945 230.382 669.311 229.015C669.679 227.648 669.908 226.785 670.001 226.425C670.093 226.066 670.29 225.093 670.593 223.507C670.895 221.922 671.31 219.306 671.837 215.658C672.364 212.011 672.835 207.961 673.251 203.507C673.261 203.153 673.361 201.605 673.547 198.863C673.624 197.636 673.661 196.881 673.658 196.597C673.655 196.315 673.765 194.455 673.989 191.019L674.342 185.799M498.089 417.75L497.723 416.3C496.224 411.161 495.071 407.337 494.265 404.829C493.46 402.32 492.787 400.286 492.249 398.727C491.712 397.169 491.066 395.396 490.309 393.408C489.553 391.422 488.743 389.441 487.882 387.465C487.021 385.488 486.344 383.969 485.85 382.906C485.357 381.844 484.309 379.845 482.709 376.91C481.108 373.974 479.858 371.789 478.956 370.356C478.056 368.922 477.157 367.537 476.261 366.201C475.365 364.864 474.51 363.659 473.697 362.587C473.051 361.709 472.326 360.762 471.52 359.743C470.712 358.725 470.141 358.004 469.803 357.58C469.466 357.157 468.77 356.356 467.716 355.176C466.663 353.996 465.083 352.372 462.978 350.302C460.872 348.234 458.646 346.215 456.301 344.244C453.956 342.275 450.193 339.374 445.01 335.544C438.691 331.259 435.001 328.788 433.942 328.132C432.881 327.476 431.961 326.897 431.181 326.395C430.4 325.893 428.356 324.679 425.046 322.754C421.736 320.83 418.842 319.189 416.361 317.83C413.88 316.473 412.062 315.484 410.908 314.866C409.754 314.248 407.146 312.957 403.085 310.991L398.516 308.793M518.805 389.674C517.802 388.441 516.282 386.661 514.243 384.333C512.204 382.006 510.017 379.512 507.681 376.851C505.344 374.19 503.555 372.154 502.312 370.745C501.069 369.335 499.422 367.495 497.373 365.224C495.325 362.953 492.257 359.734 488.171 355.569C484.085 351.405 480.788 348.135 478.279 345.758C475.77 343.381 473.666 341.428 471.969 339.9C470.272 338.371 469.321 337.512 469.118 337.325C468.914 337.137 467.754 336.149 465.639 334.36C463.524 332.572 461.953 331.27 460.926 330.456C459.899 329.642 458.44 328.521 456.548 327.091C454.656 325.661 452.898 324.367 451.273 323.209C449.649 322.052 448.306 321.115 447.244 320.4C446.183 319.684 444.659 318.673 442.67 317.366C440.682 316.059 438.934 314.928 437.425 313.975C435.917 313.023 434.602 312.204 433.478 311.518C432.355 310.833 431.188 310.138 429.979 309.433C428.771 308.729 426.494 307.46 423.15 305.626C419.805 303.793 416.715 302.134 413.879 300.648C411.045 299.163 407.26 297.198 402.526 294.755M401.189 294.086L398.51 290.649C396.755 288.353 395.449 286.656 394.593 285.559C393.737 284.463 392.418 282.761 390.635 280.452C388.851 278.143 387.21 276.074 385.711 274.245C384.211 272.414 382.506 270.394 380.598 268.183C378.349 265.67 376.057 263.153 373.724 260.633C371.39 258.113 369.622 256.258 368.419 255.069C367.215 253.88 365.847 252.569 364.312 251.136C362.777 249.701 360.762 247.901 358.27 245.734C351.672 240.634 346.557 236.915 342.927 234.578C339.298 232.241 336.361 230.467 334.116 229.257C331.873 228.047 329.81 227 327.928 226.116C326.047 225.231 323.687 224.2 320.849 223.023C318.013 221.846 315.062 220.738 311.998 219.7C308.934 218.662 305.728 217.701 302.38 216.818C299.032 215.934 297.018 215.42 296.337 215.276C295.656 215.131 294.77 214.936 293.682 214.691C292.593 214.447 290.077 213.964 286.131 213.24C282.186 212.516 279.831 212.09 279.068 211.962C278.307 211.832 277.616 211.723 276.994 211.633C276.374 211.543 275.472 211.418 274.288 211.256C273.103 211.094 271.915 210.932 270.724 210.771C269.532 210.612 268.161 210.431 266.608 210.229C265.056 210.026 263.949 209.891 263.286 209.824C262.623 209.758 261.576 209.644 260.147 209.482C259.541 209.377 257.814 209.157 254.966 208.824L252.833 208.527M399.854 309.461C398.892 309.475 398.012 309.512 397.214 309.574C396.417 309.635 394.931 309.751 392.757 309.922C390.583 310.092 388.672 310.223 387.023 310.316C385.375 310.408 383.539 310.482 381.518 310.537C379.496 310.593 377.971 310.617 376.942 310.609C375.914 310.602 375.013 310.589 374.238 310.572C373.465 310.553 372.534 310.523 371.446 310.481C370.359 310.439 368.248 310.279 365.113 310.001C361.978 309.723 359.624 309.473 358.053 309.252C356.482 309.03 354.187 308.592 351.165 307.94C348.145 307.288 345.717 306.709 343.88 306.205C342.043 305.7 339.506 304.875 336.268 303.73C333.03 302.584 329.674 301.185 326.198 299.534C322.725 297.883 319.306 296.033 315.943 293.985C312.581 291.937 309.945 290.232 308.036 288.871C306.127 287.509 304.795 286.535 304.04 285.947C303.284 285.359 301.833 284.127 299.688 282.248C297.544 280.37 295.758 278.723 294.329 277.309C292.902 275.895 291.521 274.485 290.188 273.08C288.856 271.674 288.085 270.851 287.876 270.613C287.668 270.373 286.956 269.545 285.739 268.13C284.521 266.714 283.123 265.007 281.547 263.011C279.969 261.015 278.667 259.305 277.642 257.879C276.616 256.452 275.833 255.338 275.291 254.538C274.75 253.739 273.655 252.047 272.007 249.461C270.359 246.875 268.966 244.601 267.829 242.639C266.691 240.678 265.258 238.151 263.528 235.058C261.799 231.965 260.225 229.086 258.806 226.423C257.385 223.761 256.349 221.8 255.697 220.541C255.045 219.281 253.2 215.722 250.159 209.864M520.141 389.673L521.478 182.457M521.078 180.938C519.889 179.498 518.15 177.522 515.861 175.01C513.616 172.427 511.752 170.154 510.269 168.191C508.785 166.227 507.085 163.858 505.17 161.082C504.892 160.669 503.629 158.525 501.381 154.652C501.257 154.449 500.33 152.427 498.599 148.587C496.867 144.747 495.597 141.678 494.791 139.382C493.983 137.086 493.246 134.626 492.581 132.003C491.915 129.38 491.517 127.7 491.386 126.963C491.255 126.228 491.094 125.301 490.904 124.182C490.713 123.063 490.279 119.395 489.602 113.178C489.474 107.252 489.619 102.183 490.036 97.9689C490.455 93.7551 490.867 90.5613 491.275 88.3876C491.682 86.2138 492.1 84.2948 492.531 82.6311C492.962 80.9683 493.385 79.4408 493.799 78.0481C494.214 76.6563 494.841 74.7267 495.679 72.2597C496.518 69.7926 497.316 67.5848 498.074 65.6366C498.833 63.6884 499.598 61.8185 500.37 60.0264C501.141 58.2352 501.673 57.0088 501.963 56.3472C502.254 55.6857 503.263 53.5544 504.991 49.954C506.718 46.3529 508.379 43.0337 509.975 39.996C511.571 36.9592 513.14 34.0296 514.682 31.2068C516.224 28.3849 517.311 26.4247 517.942 25.3263C518.574 24.2278 519.219 23.1025 519.877 21.9514C520.536 20.8003 521.206 19.6293 521.886 18.4381C522.566 17.2469 523.262 16.0147 523.971 14.7406C524.679 13.4665 525.773 11.465 527.254 8.73665L529.315 5M478.041 227.911C478.878 226.243 479.722 224.39 480.571 222.352C481.419 220.313 482.071 218.648 482.527 217.357C482.982 216.066 483.456 214.589 483.951 212.925C484.446 211.261 484.819 209.926 485.07 208.919C485.321 207.913 485.693 206.145 486.185 203.613C486.678 201.083 486.999 198.989 487.149 197.332C487.299 195.674 487.348 193.552 487.297 190.965C487.246 188.379 487.099 186.271 486.854 184.641C486.61 183.011 486.306 181.484 485.944 180.059C485.583 178.635 485.287 177.577 485.058 176.884C484.83 176.191 484.355 174.916 483.632 173.059C482.911 171.203 481.597 168.737 479.69 165.663C477.784 162.59 476.135 160.208 474.744 158.517C473.352 156.827 471.841 155.166 470.21 153.536C468.578 151.904 466.83 150.298 464.966 148.719C463.101 147.139 461.614 145.951 460.507 145.154C459.399 144.357 458.258 143.576 457.088 142.812C455.915 142.049 455.073 141.52 454.559 141.226C454.045 140.933 453 140.323 451.422 139.395C449.845 138.468 447.188 136.948 443.452 134.835C439.986 133.081 437.436 131.785 435.807 130.949C434.175 130.114 432.438 129.235 430.594 128.313M475.368 229.916C474.773 229.535 473.882 229.058 472.697 228.484C471.513 227.911 470.578 227.449 469.891 227.101C469.204 226.753 467.975 226.117 466.205 225.191C464.436 224.267 463.005 223.495 461.912 222.875C460.821 222.256 459.906 221.731 459.166 221.301C458.426 220.871 457.583 220.351 456.639 219.742C455.693 219.134 454.277 218.132 452.389 216.739C450.501 215.346 449.066 214.208 448.084 213.326C447.102 212.442 445.101 210.318 442.081 206.954C439.062 203.589 437.191 201.372 436.468 200.302C435.743 199.232 434.832 197.685 433.735 195.66C432.638 193.634 431.968 192.353 431.724 191.815C431.48 191.277 431.053 190.205 430.444 188.598C429.833 186.991 428.495 181.653 426.429 172.582C426.148 171.214 425.921 168.765 425.746 165.234C425.571 161.703 425.576 157.719 425.759 153.28C425.943 148.842 426.13 145.793 426.32 144.134C426.51 142.475 426.65 141.129 426.74 140.093C426.831 139.058 426.884 138.394 426.899 138.102C426.916 137.809 426.992 136.967 427.129 135.575C427.268 134.182 427.38 132.955 427.464 131.893C427.548 130.831 427.701 129.638 427.921 128.313M438.613 284.729L439.114 282.938L439.68 279.651L440.119 277.577C440.463 275.379 440.787 273.34 441.09 271.46C441.393 269.58 441.608 268.118 441.734 267.073C441.859 266.027 441.957 265.046 442.029 264.131C442.099 263.217 442.186 262.148 442.287 260.927C442.389 259.705 442.459 258.51 442.496 257.339C442.536 256.169 442.547 255.308 442.533 254.759C442.519 254.209 442.458 252.831 442.351 250.624C442.244 248.417 442.098 246.651 441.914 245.327C441.728 244.004 441.537 242.876 441.338 241.943C441.14 241.008 440.775 239.616 440.243 237.766C439.559 235.529 439.014 233.905 438.609 232.895C438.206 231.886 437.724 230.754 437.165 229.5C436.606 228.247 435.809 226.702 434.775 224.867C433.74 223.032 432.276 220.873 430.384 218.39C428.492 215.907 426.991 214.064 425.881 212.863C424.77 211.661 423.856 210.717 423.138 210.03C422.421 209.341 421.273 208.315 419.695 206.951C419.286 206.515 417.955 205.425 415.7 203.681L412.435 201.297C410.087 199.644 408.103 198.238 406.482 197.078C406.065 196.839 405.235 196.328 403.99 195.545C402.743 194.764 401.136 193.76 399.17 192.535L397.616 191.572L395.411 190.29L393.613 189.297C392.717 188.819 392.037 188.444 391.57 188.173C391.104 187.902 390.675 187.621 390.284 187.328L387.464 185.615L386.824 185.32C386.198 185.054 385.195 184.546 383.815 183.795M435.94 286.735L434.913 285.858L432.774 284.489L432.144 284.038C430.673 283.063 429.619 282.37 428.981 281.961C428.344 281.553 427.354 280.864 426.011 279.895C424.667 278.927 422.131 277.045 418.405 274.25C412.65 268.918 409.124 265.54 407.827 264.116C406.529 262.692 405.617 261.661 405.091 261.024C404.564 260.388 404.014 259.699 403.437 258.959C402.862 258.218 401.958 257.002 400.727 255.311C400.372 254.837 399.611 253.653 398.443 251.761C397.267 249.792 396.521 248.526 396.204 247.962C395.888 247.398 394.937 245.442 393.348 242.093L392.112 239.154C391.71 238.083 391.34 237.114 391.001 236.248C390.66 235.381 390.233 234.185 389.718 232.659C389.057 230.26 388.543 228.377 388.177 227.01C387.81 225.643 387.579 224.78 387.487 224.421C387.395 224.061 387.198 223.088 386.896 221.502C386.594 219.916 386.178 217.3 385.651 213.653C385.124 210.006 384.653 205.955 384.238 201.5C384.226 201.147 384.128 199.599 383.941 196.857C383.865 195.631 383.828 194.876 383.83 194.593C383.834 194.309 383.724 192.449 383.5 189.013L383.146 183.793M817.351 419.086L755.203 488.604L298.106 490.609L239.967 420.424L817.351 419.086Z" stroke="#333333" stroke-width="10" stroke-linecap="round" stroke-linejoin="round"/>
<path fill-rule="evenodd" clip-rule="evenodd" d="M110.943 1056.51H688.548V1048.93L680.751 1047.34C673.242 1045.68 666.094 1042.36 659.957 1037.74C652.52 1032.03 642.052 1020.77 628.622 1003.87L553.966 910.374L626.6 824.31C637.069 811.964 645.806 804.022 652.809 800.484C658.44 797.668 665.733 795.936 674.614 795.43H682.411V786.188H104.806V794.636L114.914 795.43C123.722 796.152 132.17 799.329 139.245 804.6C147.621 810.881 157.945 821.711 170.147 837.162L240.832 926.33L163.649 1017.3C153.83 1029 145.166 1037.09 137.657 1041.63C133.108 1044.31 128.126 1046.25 123 1047.27L110.437 1048.49V1056.51M582.991 1004.02C590.139 1012.97 593.749 1021.42 593.749 1029.43C593.749 1038.89 590.066 1047.19 580.536 1047.19H476.567C471.297 1047.19 461.766 1040.05 461.766 1032.47C461.766 1025.24 466.17 1016.44 474.979 1005.97L531.511 938.965L582.991 1004.02ZM612.81 808.715C612.81 815.43 608.55 823.805 600.102 833.697L545.229 897.161L489.635 826.188C484.654 819.906 482.127 814.275 482.127 809.221C482.127 800.99 486.964 795.43 498.733 795.43H594.688C607.395 795.43 612.81 800.773 612.81 808.715ZM210.652 826.188C205.671 819.906 203.144 814.275 203.144 809.221C203.144 800.99 208.702 795.43 219.749 795.43H315.704C327.834 795.43 333.826 800.845 333.826 808.715C333.826 815.43 329.566 823.805 321.119 833.697L266.246 897.161L210.652 826.188ZM182.782 1032.47C182.782 1025.24 187.187 1016.44 195.995 1005.97L252.528 938.965L304.08 1004.02C311.227 1012.97 314.837 1021.42 314.837 1029.43C314.837 1038.89 310.866 1047.19 301.624 1047.19H197.655C187.042 1047.19 182.782 1039.97 182.782 1032.47Z" fill="#333333"/>
<path d="M688.549 1056.51V1048.93H948.126V1056.51H688.549Z" fill="#333333"/>
<mask id="mask0_155_813" style="mask-type:luminance" maskUnits="userSpaceOnUse" x="274" y="795" width="246" height="253">
<path d="M519.023 926.33L441.84 1017.23C432.02 1028.93 423.357 1037.01 415.848 1041.56C411.372 1044.23 406.39 1046.18 401.263 1047.19H401.119C393.61 1045.53 386.534 1042.21 380.326 1037.59C372.888 1031.89 362.491 1020.62 348.99 1003.73L274.407 910.374L347.041 824.311C357.51 811.964 366.246 804.022 373.25 800.484C378.665 797.741 385.596 796.08 393.971 795.502C402.491 796.297 410.649 799.473 417.437 804.6C425.812 810.881 436.137 821.711 448.266 837.162L519.023 926.33Z" fill="white"/>
</mask>
<g mask="url(#mask0_155_813)">
<path fill-rule="evenodd" clip-rule="evenodd" d="M430.557 790.731H370.858L261.192 913.374L382.538 1050.29H420.824L527.893 925.704L430.557 790.731Z" fill="#FAFAFA"/>
<path d="M281.841 920.915C303.429 892.468 369.853 787.777 420.25 823.95C408.265 822.433 396.857 817.74 378.445 828.426C338.158 851.819 329.421 899.183 298.231 931.818C296.57 933.477 293.755 932.395 292.383 933.55C281.841 920.915 292.383 933.55 281.841 920.915Z" fill="#333333"/>
<path fill-rule="evenodd" clip-rule="evenodd" d="M350.143 984.235C347.76 984.308 344.654 986.113 343.283 985.029C337.218 980.264 340.178 970.661 338.012 966.473C323.861 939.037 391.08 883.948 408.335 879.905C423.21 876.44 433.895 879.905 447.468 880.049C451.006 880.194 454.617 886.547 452.884 890.085C441.404 915.861 432.018 922.937 406.025 941.998C402.054 944.885 400.755 940.842 397.722 943.225C393.896 945.969 397.505 949.001 394.618 951.095C385.737 957.954 371.08 967.773 364.077 972.466C359.239 975.715 354.475 980.841 350.143 984.235Z" fill="#333333"/>
<path fill-rule="evenodd" clip-rule="evenodd" d="M379.241 953.261C369.349 959.397 364.006 960.408 358.88 950.156C360.541 948.496 362.346 946.907 364.223 945.463C364.873 945.031 364.006 945.031 365.523 944.164C370.288 944.741 376.931 948.712 379.241 953.261Z" fill="#FAFAFA"/>
<path fill-rule="evenodd" clip-rule="evenodd" d="M411.874 929.146C406.531 925.897 404.076 921.06 404.149 913.19C409.059 907.847 413.606 906.692 418.228 903.371C423.281 906.186 425.087 909.797 427.109 913.118C421.838 920.915 420.827 921.782 411.874 929.146Z" fill="#FAFAFA"/>
</g>
<path d="M948.121 787.416V794.544C938.874 796.214 931.875 799.167 927.123 803.405C920.316 809.699 914.279 819.331 909.014 832.302L817.893 1054.61H810.766L712.903 829.413C707.893 817.854 704.362 810.79 702.307 808.222C699.097 804.24 695.115 801.158 690.362 798.975C685.74 796.663 679.446 795.186 671.484 794.544V787.416H778.209V794.544C766.137 795.7 758.302 797.755 754.707 800.708C751.11 803.662 749.312 807.451 749.312 812.074C749.312 818.496 752.266 828.514 758.173 842.127L824.636 995.279L886.282 844.053C892.318 829.156 895.337 818.817 895.337 813.038C895.337 809.313 893.474 805.782 889.749 802.442C886.025 798.975 879.732 796.535 870.87 795.122C870.229 794.993 869.136 794.801 867.596 794.544V787.416H948.121Z" fill="#333333"/>
<path d="M778.209 787.416V794.544H867.596V787.416H778.209Z" fill="#333333"/>
</svg>
