<svg width="221" height="394" viewBox="0 0 221 394" fill="none" xmlns="http://www.w3.org/2000/svg">
<path d="M163.045 95.5788C163.003 95.1657 162.835 94.5154 162.728 93.6284C162.622 92.7414 162.521 91.7884 162.427 90.77C162.332 89.7511 162.261 88.7861 162.215 87.8735C162.169 86.9604 162.147 85.5849 162.149 83.7476C162.151 81.9098 162.217 80.2619 162.348 78.8044C162.478 77.3463 162.769 75.6471 163.222 73.7069C163.674 71.7662 164.075 70.2925 164.425 69.2852C164.774 68.2784 165.167 67.3058 165.603 66.3681C166.039 65.4304 166.742 64.1509 167.713 62.5296C168.684 60.9073 169.79 59.3322 171.031 57.8036C172.273 56.2755 173.536 54.8712 174.821 53.5914C176.106 52.3112 177.104 51.3531 177.814 50.7168C178.524 50.0805 179.501 49.2621 180.746 48.2611C181.99 47.261 182.864 46.5787 183.367 46.2144C183.87 45.8507 184.777 45.2161 186.089 44.3108L186.806 43.7736L187.128 46.0722C187.193 46.4993 187.278 47.0106 187.383 47.6058C187.489 48.201 187.589 48.7539 187.682 49.2646C187.775 49.7762 187.907 50.4712 188.078 51.3495C188.248 52.2278 188.421 53.3116 188.597 54.6006C188.772 55.8891 188.859 57.9162 188.856 60.6825C188.854 63.4493 188.557 66.5224 187.966 69.9023C187.044 72.5595 186.416 74.2314 186.081 74.9184C185.746 75.6054 185.306 76.4259 184.763 77.3791C184.22 78.3323 183.692 79.1656 183.18 79.8787C182.668 80.5922 182.051 81.3606 181.328 82.1843C180.605 83.008 179.642 83.9804 178.439 85.1007C177.235 86.2211 176.248 87.0981 175.478 87.7319C174.707 88.3658 174.067 88.8762 173.558 89.2626C173.049 89.6491 172.519 90.0396 171.967 90.4353C171.415 90.8305 170.809 91.2469 170.149 91.6837C169.49 92.1204 168.885 92.4996 168.336 92.8223C167.786 93.1451 167.149 93.5164 166.425 93.9363C165.701 94.3561 163.381 95.3228 163.045 95.5788ZM163.045 95.5788C162.905 95.3725 162.5 93.4452 162.031 92.6674C161.562 91.8901 161.168 91.2161 160.846 90.6456C160.525 90.075 160.091 89.2897 159.544 88.2896C158.996 87.2891 158.555 86.4576 158.219 85.7957C157.884 85.1329 157.437 84.1962 156.88 82.9855C156.322 81.7743 155.861 80.6914 155.495 79.7358C154.006 75.8377 153.456 71.1845 153.069 67.0163C152.96 65.8588 152.903 64.8786 152.897 64.0766C152.891 63.2737 152.94 62.3442 153.044 61.2876C153.148 60.2305 153.306 59.1232 153.519 57.9657C153.649 57.2585 153.795 56.5658 153.957 55.8875M163.045 95.5788L162.009 93.6944M163.045 95.5788C162.889 95.4638 162.995 95.001 162.286 94.3792C161.576 93.757 160.591 92.8811 159.328 91.7516C158.066 90.6221 157.022 89.6723 156.194 88.9017C155.367 88.1311 154.659 87.4367 154.07 86.8183C153.482 86.2004 152.971 85.6419 152.538 85.1439C152.104 84.6448 151.603 84.036 151.033 83.3166C150.463 82.5968 149.745 81.6233 148.881 80.3967C148.016 79.1695 147.344 78.1668 146.865 77.389C146.385 76.6111 145.866 75.6747 145.307 74.5794C144.748 73.4842 144.203 72.2598 143.674 70.9051C143.145 69.5504 142.794 68.6067 142.621 68.0743C142.449 67.5424 142.214 66.6424 141.918 65.3738C141.622 64.1046 141.358 62.626 141.127 60.938C140.895 59.2499 140.742 57.8587 140.666 56.7654C140.59 55.6716 140.523 53.0951 140.465 49.036L140.487 48.4797L140.584 46.3243C144.766 47.541 146.966 48.4797 148.881 50.0293C150.949 51.704 152.768 54.7258 153.957 55.8875M163.045 95.5788C162.562 96.4977 161.982 97.9099 161.303 99.3786C160.623 100.848 159.951 102.271 159.288 103.65C158.624 105.029 157.878 106.575 157.049 108.287C156.22 109.999 155.53 111.425 154.98 112.565C154.431 113.704 154.046 114.504 153.825 114.965C153.604 115.425 153.143 116.378 152.442 117.825C151.74 119.271 151.138 120.531 150.636 121.605C150.133 122.68 149.375 124.278 148.36 126.4C147.345 128.523 146.416 130.532 145.574 132.427C144.732 134.322 143.91 136.253 143.11 138.219C142.309 140.186 141.692 141.721 141.26 142.827C140.828 143.933 140.319 145.345 139.732 147.064C139.145 148.782 138.653 150.276 138.256 151.545C137.86 152.813 137.461 154.144 137.06 155.536C136.658 156.927 136.311 158.144 136.021 159.184C135.729 160.224 135.448 161.261 135.177 162.294C134.906 163.327 134.624 164.494 134.329 165.795C134.036 167.096 133.752 168.457 133.477 169.878C133.203 171.298 132.948 172.706 132.714 174.102C132.48 175.498 132.27 176.847 132.083 178.15C131.897 179.452 131.748 180.608 131.635 181.617C131.522 182.628 131.423 183.726 131.338 184.914C131.252 186.101 131.196 187.192 131.171 188.186C131.146 189.18 131.125 190.33 131.109 191.635C131.093 192.941 131.11 194.447 131.161 196.153C131.212 197.859 131.275 199.424 131.349 200.85C131.423 202.275 131.477 203.345 131.513 204.06C131.547 204.775 131.594 205.67 131.652 206.743C131.71 207.815 131.765 209.052 131.817 210.454C131.869 211.855 131.924 213.594 131.984 215.672C132.044 217.75 132.094 220.034 132.135 222.523C132.177 225.013 132.029 232.22 132.051 235.121M163.045 95.5788C167.071 95.2869 166.201 95.1709 167.892 95.0311C168.727 94.9624 169.458 94.9052 170.087 94.8598C170.715 94.8144 171.07 94.791 171.151 94.789C171.231 94.7876 172.152 94.6992 173.914 94.5243C175.676 94.3495 177.173 94.166 178.407 93.9738C179.64 93.782 180.787 93.5884 181.847 93.3942C182.908 93.1995 183.761 93.0321 184.408 92.891C185.054 92.7499 186.304 92.3928 188.157 91.8203C190.01 91.2473 191.556 90.6914 192.795 90.1522C194.035 89.6135 195.087 89.1137 195.953 88.6533C196.819 88.1929 197.696 87.678 198.583 87.1084C199.47 86.5388 200.487 85.827 201.633 84.9733C202.781 84.1187 203.922 83.1761 205.056 82.1447C206.191 81.1132 207.072 80.2617 207.701 79.5906C208.33 78.9196 208.965 78.1857 209.605 77.389C210.245 76.5918 210.954 75.6357 211.733 74.5207C212.512 73.4057 213.02 72.658 213.256 72.2773C213.492 71.8962 213.808 71.3581 214.203 70.6624C214.598 69.9677 214.907 69.4079 215.13 68.9837C215.353 68.56 215.708 67.8385 216.196 66.8196C216.683 65.7997 217.109 64.834 217.472 63.9223C217.836 63.0107 218.415 61.5244 219.208 59.4624L220.006 57.5885C216.706 57.2955 213.256 57.4544 210.626 57.8333C208.156 58.1891 204.063 60.0668 203.237 60.6825M170.066 58.8277C169.671 57.962 168.986 56.0663 168.937 55.8875C168.888 55.7093 168.638 55.072 168.185 53.9754C167.733 52.8792 167.317 51.9215 166.938 51.1021C166.558 50.2828 166.164 49.4312 165.754 48.5481C165.344 47.6649 164.874 46.6602 164.343 45.534C163.813 44.4083 163.267 43.306 162.705 42.2262C162.143 41.1465 161.702 40.1967 161.381 39.3778L160.226 41.6314C159.587 42.8233 158.97 43.9459 158.374 44.9986C157.776 46.0523 157.197 47.179 156.634 48.3786C156.072 49.5782 155.615 50.646 155.265 51.5823C154.914 52.5191 154.589 53.5274 154.288 54.6077C154.171 55.0285 154.061 55.4551 153.957 55.8875M188.843 58.8277C189.565 58.2977 191.273 57.4551 192.176 56.8295C193.077 56.2038 193.976 55.5738 194.872 54.9385C195.768 54.3037 196.665 53.6698 197.562 53.037C198.459 52.405 199.312 51.8047 200.12 51.2366C200.927 50.6684 201.362 50.3669 201.424 50.3322C201.486 50.2969 201.635 50.1959 201.872 50.0293C202.108 49.8631 202.57 49.5426 203.257 49.0682C203.944 48.5933 204.738 48.0845 205.639 47.541C205.583 47.8034 205.552 48.6421 205.49 49.375C205.428 50.1089 205.364 50.7587 205.298 51.3254C205.232 51.8926 205.159 52.4685 205.078 53.0536C204.997 53.6386 204.898 54.2682 204.78 54.9417C204.662 55.6157 204.456 56.5796 204.161 57.8333C203.795 59.3931 203.432 60.1175 203.237 60.6825M168.915 94.0091C169.395 93.8 169.737 93.6526 169.942 93.5676C170.147 93.483 170.482 93.3309 170.945 93.1111C171.408 92.8913 171.963 92.6256 172.608 92.3135C173.253 92.0024 174.265 91.4886 175.643 90.7722C177.022 90.0557 178.275 89.395 179.403 88.7906C180.53 88.1858 181.721 87.508 182.976 86.7567C184.231 86.0064 185.176 85.4151 185.811 84.9832C186.445 84.5518 187.082 84.0962 187.722 83.616C188.362 83.1358 189.169 82.4764 190.143 81.6387C191.118 80.801 191.784 80.2088 192.142 79.8624C192.5 79.5155 192.906 79.1104 193.358 78.6466C193.81 78.1833 194.349 77.5872 194.973 76.8582C195.597 76.1292 196.251 75.2754 196.934 74.2971C197.618 73.3193 198.197 72.4461 198.672 71.6779C199.147 70.9098 199.657 69.9918 200.204 68.9236C200.751 67.8554 201.313 66.5703 201.89 65.0688C202.25 64.1309 202.977 61.4374 203.237 60.6825M46.9067 62.4043L47.5942 62.7058C48.9426 61.9531 50.8746 60.9909 52.066 60.3039C53.2579 59.6164 54.2663 59.0285 55.091 58.5396C55.9152 58.0512 57.0201 57.3423 58.4062 56.4123C59.7923 55.4828 60.8178 54.7533 61.4825 54.2248C62.1468 53.6963 62.5433 53.3829 62.6718 53.2843C62.7994 53.1857 63.1287 52.9 63.6601 52.4266C64.1911 51.9536 65.057 51.0613 66.2581 49.7501C67.4591 48.4384 68.3649 47.3884 68.9756 46.5994C69.5863 45.811 70.2904 44.778 71.0881 43.5012C71.8852 42.2248 72.5016 41.1454 72.9369 40.2628C73.3722 39.3806 73.8681 38.2183 74.4252 36.7767C74.9822 35.335 75.4741 33.7658 75.9007 32.0691C76.3268 30.3719 76.5949 29.0704 76.705 28.1641C76.8147 27.2582 76.8924 26.1809 76.9378 24.932C76.9837 23.6832 76.9544 22.4497 76.8501 21.2322C76.7462 20.0143 76.5551 18.7335 76.2769 17.3894C75.9986 16.0454 75.7806 15.1177 75.6226 14.6061C75.4641 14.0945 75.1755 13.2571 74.7571 12.0938C74.3392 10.9304 73.8503 9.70958 73.2904 8.43077C72.7305 7.15195 71.5793 4.53063 69.8135 1C68.4458 1.87348 67.5307 2.51165 67.0684 2.9136C66.606 3.31604 66.0273 3.92465 65.332 4.74015C64.6368 5.55517 64.2141 6.06422 64.0639 6.26664C63.9141 6.46859 63.6997 6.77211 63.4209 7.17744C63.1417 7.58278 62.8112 8.09519 62.4291 8.71455C62.0465 9.33391 61.791 9.78301 61.663 10.0613C61.5355 10.3396 61.3554 10.7388 61.123 11.2601C60.8902 11.7819 60.6728 12.4597 60.4709 13.2926C60.269 14.1255 60.0559 15.0043 60.0085 15.5M46.9067 62.4043C46.1801 62.0019 45.6142 61.6972 45.2093 61.49C44.804 61.2832 44.1333 60.9321 43.197 60.4369C42.2602 59.9422 41.3742 59.4442 40.5389 58.9437C39.7031 58.4427 39.0686 58.0479 38.6352 57.759C38.2019 57.4696 37.39 56.8495 36.2001 55.8978C35.0101 54.9465 33.7331 53.745 32.3683 52.2942C31.0034 50.8434 30.1686 49.9058 29.8637 49.4812C29.5594 49.057 29.2292 48.5466 28.8737 47.9504C28.5181 47.3538 27.9891 46.2296 27.2867 44.5769C26.5837 42.9246 26.105 41.6027 25.8504 40.6124C25.5958 39.6215 25.4091 38.6645 25.2903 37.7413C25.1709 36.818 25.1011 35.984 25.0808 35.2396C25.06 34.4956 25.1026 33.4973 25.2089 32.2446C25.3152 30.9914 25.4582 29.9094 25.6374 28.9977C25.8166 28.087 26.0483 27.151 26.3323 26.1896C26.6164 25.2292 26.8686 24.4477 27.0889 23.8457C27.3087 23.2438 27.6931 22.3298 28.2424 21.1041C28.7912 19.8784 29.1644 19.0603 29.362 18.6491C29.5591 18.238 29.77 17.8288 29.9947 17.422C30.2193 17.0147 30.7103 16.1055 31.4674 14.6938L32.2789 13.1518C34.5781 14.4185 36.1842 15.3169 37.0973 15.8474C38.0103 16.3774 38.7401 16.8312 39.2865 17.209C39.8334 17.5863 40.4578 18.0608 41.1598 18.6329C41.8617 19.2049 42.5154 19.7885 43.1208 20.3837C43.7261 20.9779 44.5227 21.8822 45.5106 23.0963C46.4981 24.3099 47.3687 25.5621 48.1224 26.852C48.8761 28.1424 49.5242 29.434 50.0668 30.7273C50.6098 32.0211 51.1346 33.5763 51.6414 35.3938C52.1487 37.2118 52.4684 38.5314 52.6003 39.3512C52.7322 40.1711 52.8523 41.085 52.9605 42.0943C53.0687 43.1035 53.1347 44.0675 53.1583 44.9859C53.1815 45.9043 53.1275 47.1261 52.9966 48.6503C52.8657 50.1741 52.7392 51.2246 52.6169 51.8024C52.4942 52.3807 52.3128 53.063 52.0727 53.849C51.8321 54.6351 51.5889 55.3214 51.3434 55.9084C51.098 56.4959 50.9029 56.9236 50.7575 57.1922C50.6121 57.4603 50.4878 57.678 50.3849 57.8447C50.2815 58.0109 50.1197 58.2666 49.8994 58.6125C49.6791 58.9579 49.4428 59.3126 49.1906 59.6755C48.9389 60.0383 48.7086 60.3555 48.4999 60.628L46.9067 62.4043ZM46.9067 62.4043C48.9547 60.2931 53.8386 55.2864 54.7 54.3472C55.561 53.4071 56.2328 52.6238 56.7159 51.9977C57.199 51.3711 57.6625 50.7095 58.1065 50.0119C58.55 49.3143 59.0395 48.4517 59.5743 47.4246C60.1096 46.398 60.5182 45.5665 60.8003 44.9307C61.0825 44.2944 61.4254 43.3915 61.8293 42.2209C62.2332 41.0508 62.5711 39.8946 62.8431 38.7525C63.1146 37.6109 63.329 36.4358 63.486 35.2275C63.6426 34.0192 63.7358 33.1963 63.7663 32.7591C63.7972 32.3214 63.8157 31.875 63.8215 31.4194C63.8268 30.9639 63.8143 30.4125 63.7843 29.7656C63.7544 29.1187 63.6593 28.1549 63.4984 26.8746C63.3375 25.5934 63.1121 24.3708 62.8222 23.206C62.5323 22.0407 62.0181 20.5093 61.2794 18.6116C60.5408 16.7139 59.9894 15.4027 59.6256 14.679C59.2608 13.9553 58.5207 12.6515 57.4052 10.7669C56.2892 8.8827 54.8011 7.1543 53.8745 5.61557C53.4412 6.17502 53.057 6.67842 52.7217 7.12578C52.3864 7.57267 51.9192 8.20092 51.3201 9.00966C50.7205 9.81888 50.2582 10.4627 49.933 10.941C49.6074 11.4197 49.3326 11.8393 49.1089 12.2006C48.8847 12.562 48.6239 13.0318 48.3258 13.6097C48.0278 14.187 47.7574 14.7336 47.5148 15.2501C47.2728 15.7661 46.9577 16.4396 46.5697 17.2705C46.1822 18.101 45.8483 18.9314 45.5676 19.7609C45.2869 20.5899 45.1148 21.149 45.051 21.4389L44.7555 22.1845M46.9067 62.4043C45.9849 62.2386 39.297 60.8977 38.1669 60.6238C37.0364 60.3498 36.074 60.0761 35.2803 59.8021C34.4865 59.5287 33.7043 59.2195 32.9332 58.8751C32.1612 58.5311 31.303 58.0834 30.359 57.5312C29.4145 56.9794 28.7162 56.5389 28.2635 56.2099C27.8113 55.8804 27.5407 55.679 27.4518 55.6055C27.3629 55.5316 27.154 55.3622 26.8255 55.0974C26.4969 54.8327 26.0272 54.4153 25.4161 53.8448C24.8054 53.2742 24.0605 52.4729 23.1812 51.4415C22.3024 50.4095 21.4078 49.1731 20.4976 47.7325C19.5884 46.2913 18.8571 44.9999 18.3034 43.8578C17.7503 42.7157 17.2341 41.5115 16.7554 40.2458C16.2766 38.9805 15.953 38.0553 15.7844 37.4702C15.6158 36.8851 15.4469 36.2817 15.2773 35.6599C15.1078 35.0382 14.9218 34.2635 14.7193 33.3359C14.5164 32.4088 14.3693 31.6573 14.2784 31.0805C14.1881 30.5041 14.0971 29.8576 14.0053 29.1421C13.9135 28.4256 13.8339 27.7226 13.7668 27.0317C13.6991 26.3414 13.6448 25.5847 13.6033 24.7629C13.5613 23.9401 13.5405 23.0201 13.541 22.0022C13.5439 18.9642 14.4358 16.7079 15.1567 13.8244C18.1634 15.9721 20.2135 17.1266 22.3578 20.1601C23.5864 21.8969 24.4444 23.1668 24.9324 23.9703C25.4208 24.7732 25.6767 25.2011 25.6999 25.2533C25.7226 25.306 25.941 25.6401 26.3555 26.2561M46.9067 62.4043C44.6515 62.8821 42.3475 63.1106 41.8142 63.1985C41.2808 63.286 40.6134 63.3818 39.8114 63.4851C39.0094 63.5885 38.1482 63.6651 37.2283 63.7159C36.309 63.7666 34.9592 63.7592 33.1789 63.6925C31.3986 63.6263 29.9056 63.5049 28.6992 63.328C27.4924 63.1512 26.5394 62.9721 25.8408 62.7909C25.1423 62.6097 24.3984 62.3941 23.6095 62.1448C22.821 61.8945 22.0531 61.6262 21.3052 61.3387C20.5569 61.0517 19.7914 60.7284 19.0088 60.3685C18.2261 60.0095 17.5491 59.6728 16.9781 59.3593C16.4065 59.0453 15.7125 58.6406 14.896 58.1449C14.0796 57.6487 13.0447 56.9186 11.791 55.9553C10.5369 54.992 9.85589 54.4582 9.74864 54.3538C9.6409 54.249 9.49253 54.1077 9.30314 53.9299C9.11376 53.7516 8.75367 53.3798 8.22321 52.8146C7.69274 52.2493 7.21976 51.7094 6.80428 51.1939C6.3888 50.6789 5.80429 49.8267 5.05062 48.6378C4.29696 47.4483 3.66502 46.252 3.15436 45.0491C2.6437 43.8461 2.2737 42.8679 2.0447 42.1143C1.8157 41.3606 1.63543 40.663 1.50402 40.0209C1.37261 39.3784 1.26987 38.7113 1.19547 38.021C1.12059 37.3306 1.06459 36.6958 1.02739 36.1166C0.990192 35.5368 0.990865 34.5758 1.02951 33.2327C1.06865 31.8901 1.22864 30.3371 1.50933 28.5733C1.7905 26.8094 2.02946 25.5158 2.22658 24.693C2.42369 23.8703 2.60216 23.1632 2.76159 22.5713C2.92102 21.98 3.14015 21.2328 3.41939 20.3294C3.86772 18.8621 3.94085 18.3889 4.01477 18.1725C4.54088 18.3793 5.69904 18.7968 6.65658 19.2485C7.61461 19.7007 8.36508 20.0597 8.90811 20.3264C9.45113 20.5926 10.0983 20.909 10.85 21.2747C11.6022 21.6404 12.2048 21.9358 12.6575 22.1614C13.1101 22.387 13.4031 22.5128 13.5364 22.5379M46.9067 62.4043L50.9981 67.7244C55.6442 73.716 59.3206 78.5308 62.0275 82.1677C64.7344 85.8051 67.2035 89.2707 69.4345 92.5651C71.6651 95.8595 73.5498 98.7431 75.089 101.217C76.6282 103.689 78.4943 106.711 80.6872 110.279C82.8801 113.849 84.3629 116.274 85.1354 117.554C85.9074 118.835 86.9462 120.617 88.2521 122.9C89.5584 125.185 91.2588 128.182 93.3531 131.895C95.4474 135.607 97.2356 138.811 98.7178 141.506C100.199 144.2 101.593 146.804 102.899 149.319C104.205 151.834 105.797 155.095 107.676 159.1C109.555 163.106 111.162 166.708 112.498 169.907C113.835 173.104 114.983 176.038 115.943 178.706C116.904 181.375 117.754 183.776 118.491 185.912C119.229 188.047 120.016 190.361 120.851 192.853C121.686 195.344 122.466 197.724 123.191 199.991C123.915 202.258 124.738 204.922 125.659 207.985C126.579 211.047 127.431 214.171 128.214 217.355C128.998 220.539 129.709 223.611 130.349 226.572C130.989 229.533 131.556 232.383 132.051 235.121M13.5364 22.5379C13.1929 22.3688 13.6698 22.5635 13.5364 22.5379ZM132.051 235.121C132.547 237.86 133.043 240.896 133.537 244.23C134.032 247.564 134.526 251.197 135.021 255.127C135.515 259.057 135.929 262.653 136.263 265.914C136.596 269.175 136.851 272.101 137.024 274.693C137.199 277.286 137.312 279.999 137.363 282.834C137.414 285.669 137.444 288.18 137.453 290.367C137.461 292.554 137.456 294.89 137.438 297.373C137.42 299.857 137.401 302.08 137.381 304.043C137.362 306.006 137.336 308.068 137.303 310.229C137.271 312.391 137.218 314.069 137.142 315.265C137.067 316.46 136.942 318.397 136.766 321.074C136.591 323.751 136.341 326.944 136.018 330.653C135.696 334.363 135.38 337.567 135.069 340.267C134.758 342.967 134.445 345.437 134.128 347.679C133.81 349.921 133.438 352.384 133.01 355.068C132.582 357.752 132.133 360.415 131.662 363.057C131.192 365.699 130.7 368.32 130.186 370.92C129.672 373.52 129.06 376.636 128.349 380.268C127.639 383.9 126.831 388.048 125.924 392.713M133.31 351.153C133.187 350.502 132.726 348.643 132.505 347.621C127.988 326.743 121.448 320.204 98.9859 313.43C102.865 333.896 102.955 347.112 127.739 350.79C128.114 350.845 128.539 350.898 129.014 350.951C129.489 351.003 129.886 351.038 130.206 351.057C130.526 351.076 131.08 351.108 131.87 351.153H133.619M134.67 252.39C133.703 252.625 133.184 252.824 132.887 252.892C132.589 252.96 132.228 253.039 131.801 253.129C114.172 256.902 106.516 240.4 100.191 227.492C115.934 230.842 124.09 236.369 132.78 249.207C133.645 250.484 134.226 251.374 134.618 251.988M133.5 210.5L134.453 207.811C134.535 207.563 134.912 206.677 135.585 205.152C136.257 203.629 136.964 202.192 137.707 200.843C138.448 199.493 139.168 198.321 139.866 197.329C140.564 196.337 141.05 195.674 141.324 195.342C141.598 195.009 142.337 194.279 143.539 193.153C144.741 192.026 146.133 190.961 147.714 189.96C149.297 188.959 150.748 188.21 152.068 187.713C153.387 187.216 154.963 186.724 156.794 186.236C158.625 185.748 160.807 185.237 163.34 184.701C165.872 184.165 167.595 183.793 168.508 183.585C169.421 183.377 170.695 183.051 172.33 182.608C173.965 182.165 175.429 181.738 178.1 180.953L177.979 181.443C177.68 182.853 177.433 184.008 177.238 184.905C177.044 185.803 176.853 186.606 176.667 187.315C176.481 188.024 176.163 188.963 175.714 190.132C175.265 191.302 174.714 192.497 174.063 193.715C173.41 194.933 172.861 195.859 172.415 196.494C171.968 197.129 171.54 197.713 171.128 198.245C170.717 198.777 170.283 199.306 169.828 199.832C169.373 200.358 168.759 201.032 167.985 201.857C167.211 202.681 166.437 203.456 165.664 204.183C164.89 204.908 164.063 205.632 163.182 206.353C162.301 207.073 161.156 207.895 159.745 208.817C158.333 209.74 157.208 210.407 156.367 210.821C155.527 211.235 154.791 211.561 154.16 211.8C153.529 212.039 152.783 212.272 151.922 212.5C151.061 212.727 149.956 212.915 148.609 213.063C147.261 213.211 145.646 213.21 143.763 213.06C141.88 212.91 140.438 212.708 139.436 212.454C138.434 212.199 137.515 211.933 136.678 211.656C135.841 211.379 134.846 211.025 133.692 210.596C132.538 210.166 131.99 210.071 131.8 210M112.874 170.81L111.446 171.182C110.294 171.365 109.594 171.475 109.345 171.512C109.095 171.548 108.544 171.627 107.691 171.748C106.839 171.868 105.739 171.979 104.393 172.079C103.046 172.179 101.292 172.11 99.1294 171.872C96.9669 171.634 95.2249 171.309 93.9031 170.896C92.5817 170.482 91.0941 169.85 89.4403 169.001C87.7871 168.151 86.4245 167.346 85.352 166.583C84.2795 165.821 83.2917 165.033 82.3893 164.219C81.4868 163.405 80.6933 162.619 80.0082 161.86C79.3232 161.102 78.6924 160.336 78.1166 159.561C77.5407 158.786 77.0617 158.105 76.6796 157.519C76.2979 156.933 75.8309 156.124 75.2787 155.093C74.727 154.063 74.2419 153.045 73.823 152.039C73.4041 151.033 73.1262 150.322 72.989 149.904C72.8518 149.486 72.6074 148.699 72.2562 147.543C71.9049 146.387 71.4681 144.808 70.9459 142.806C72.7305 143.178 74.6556 143.418 76.3349 143.732C78.0147 144.046 79.1295 144.274 79.6788 144.417C80.2281 144.56 80.9724 144.782 81.9116 145.083C82.8503 145.384 83.8771 145.76 84.9921 146.21C86.1072 146.66 87.2951 147.212 88.5561 147.868C89.8165 148.523 90.828 149.085 91.5903 149.555C92.3527 150.025 93.2528 150.635 94.2905 151.385C95.3283 152.136 96.4684 153.037 97.7115 154.09C98.955 155.142 100.01 156.063 100.877 156.852C101.744 157.64 102.744 158.61 103.878 159.762C105.012 160.915 105.95 161.909 106.692 162.745C107.434 163.58 108.03 164.289 108.481 164.872C108.931 165.455 109.276 165.921 109.514 166.27C109.752 166.62 109.918 166.869 110.012 167.016C110.105 167.163 110.201 167.319 110.301 167.486C110.401 167.653 110.54 167.879 110.717 168.163C111.297 169.095 111.923 170.027 112.624 170.875M88.837 123.925C88.7239 123.563 89.2846 123.634 89.2005 123.325C89.116 123.016 88.9647 121.192 88.684 119.874C88.4028 118.555 88.1981 117.501 88.0701 116.712C87.9425 115.923 87.7865 114.713 87.6019 113.084C87.4178 111.454 87.3098 110.049 87.2774 108.867C87.2451 107.685 87.2451 106.764 87.2774 106.104C87.3098 105.444 87.4405 104.235 87.6695 102.478C87.8985 100.72 88.1467 99.2497 88.4143 98.0665C88.682 96.8834 88.9364 95.9065 89.1779 95.136C89.419 94.3649 89.6698 93.6407 89.9302 92.9633C90.1906 92.2855 90.6217 91.2774 91.2232 89.9387C91.8247 88.6 92.5676 87.1686 93.4517 85.6444C94.3358 84.1206 95.0193 82.9994 95.5029 82.2814C95.9865 81.5635 96.3962 80.9637 96.7315 80.4811C97.0668 79.998 97.4475 79.477 97.8741 78.9185C98.3007 78.36 98.6647 77.8922 98.9657 77.5158C99.2667 77.14 99.6773 76.6467 100.198 76.0361C100.719 75.4249 101.05 75.0344 101.19 74.8634C101.331 74.6929 101.82 74.0665 103.44 72.0137C103.703 73.1969 103.987 74.5104 104.292 75.9534C104.597 77.3975 104.895 78.9081 105.186 80.4855C105.477 82.0639 105.753 84.2063 106.014 86.9128C106.275 89.6192 106.391 91.7479 106.362 93.2997C106.333 94.8515 106.154 96.7571 105.825 99.0157C105.496 101.275 104.95 103.514 104.186 105.735C103.423 107.955 102.892 109.356 102.593 109.938C102.293 110.519 101.837 111.287 101.224 112.241C100.611 113.196 100.023 114.013 99.4591 114.695C98.8953 115.376 98.1646 116.165 97.267 117.062C96.3699 117.959 95.4133 118.814 94.3973 119.628C93.3813 120.442 92.328 121.22 91.2371 121.963C90.1453 122.705 89.1164 123.388 88.684 123.656M138.721 298.266L139.06 296.586C139.261 295.367 139.4 294.529 139.479 294.072C139.558 293.615 139.662 293.067 139.793 292.425C139.923 291.783 140.09 291.047 140.296 290.216C140.501 289.386 140.724 288.578 140.965 287.794C141.205 287.01 141.411 286.383 141.582 285.914C141.753 285.443 142.424 284.085 143.594 281.839C144.763 279.592 145.571 278.171 146.018 277.576C146.466 276.98 147.04 276.294 147.74 275.517C148.44 274.74 149.119 274.057 149.777 273.469C150.435 272.881 151.144 272.317 151.905 271.777C152.666 271.238 153.375 270.774 154.033 270.383C154.691 269.993 155.686 269.51 157.019 268.935C158.352 268.36 159.597 267.884 160.754 267.506C161.912 267.129 162.937 266.815 163.83 266.566C164.723 266.316 165.73 266.048 166.848 265.762C167.966 265.475 168.819 265.261 169.407 265.119C169.995 264.977 170.632 264.829 171.317 264.675C172.003 264.521 172.666 264.38 173.306 264.25C173.947 264.121 174.988 263.908 176.432 263.611L178.477 263.293L178.379 263.755C177.941 265.948 177.591 267.669 177.329 268.919C177.068 270.17 176.823 271.224 176.594 272.081C176.365 272.938 176.037 274.043 175.61 275.395C175.183 276.748 174.771 277.918 174.374 278.906C173.976 279.895 173.58 280.778 173.186 281.553C172.791 282.33 172.506 282.873 172.33 283.183C172.155 283.494 171.913 283.908 171.603 284.425C171.293 284.943 170.823 285.651 170.191 286.551C169.56 287.45 169.093 288.083 168.792 288.449C168.491 288.814 168.111 289.245 167.651 289.743C167.192 290.24 166.633 290.796 165.972 291.411C165.312 292.025 164.532 292.685 163.633 293.39C162.734 294.095 161.928 294.67 161.215 295.114C160.502 295.558 159.735 295.979 158.913 296.377C158.092 296.775 157.382 297.089 156.784 297.317C156.185 297.546 155.485 297.776 154.684 298.007C153.882 298.238 153.204 298.408 152.651 298.515C152.096 298.622 151.293 298.739 150.24 298.866C149.187 298.993 148.149 299.07 147.127 299.097C146.104 299.124 145.316 299.124 144.764 299.097C144.211 299.07 143.693 299.037 143.21 298.999C142.727 298.962 142.217 298.916 141.679 298.864C141.14 298.811 138.023 298.096 137.433 298.007M135.455 161.246L135.054 160.754C134.761 160.391 134.361 159.867 133.856 159.182C133.35 158.497 132.712 157.618 131.941 156.545C131.171 155.472 130.424 154.406 129.701 153.345C128.978 152.285 128.129 150.991 127.153 149.466C126.177 147.939 125.188 146.103 124.187 143.954C123.187 141.806 122.51 140.161 122.155 139.019C121.801 137.877 121.524 136.676 121.325 135.414C121.126 134.153 121.005 133.195 120.962 132.541C120.919 131.888 120.923 130.986 120.973 129.839C121.023 128.69 121.183 127.242 121.452 125.495C121.721 123.748 122.067 122.069 122.492 120.457C122.915 118.846 123.288 117.552 123.61 116.576C123.932 115.6 124.178 114.858 124.346 114.353C124.515 113.846 124.84 112.846 125.321 111.352C126.662 112.968 128.368 114.25 129.694 115.875C130.016 116.269 130.337 116.687 130.658 117.131C130.98 117.574 131.313 118.082 131.658 118.654C132.002 119.226 132.414 119.999 132.894 120.97C133.374 121.942 133.919 123.296 134.529 125.034C135.14 126.771 135.552 128.072 135.765 128.937C135.978 129.801 136.155 130.655 136.297 131.498C136.438 132.341 136.572 133.402 136.696 134.679C136.82 135.957 136.896 137.077 136.924 138.038C136.951 139 136.946 140.205 136.909 141.652C136.871 143.1 136.799 144.574 136.693 146.075C136.587 147.577 136.466 149.211 136.333 150.978C136.198 152.746 136.116 153.895 136.086 154.426C136.057 154.958 136.033 155.322 136.015 155.519C135.997 155.716 135.915 156.831 135.77 158.862L135.455 161.246Z" stroke="#333333" stroke-width="2" stroke-linecap="round" stroke-linejoin="round"/>
</svg>
