<svg width="30" height="30" viewBox="0 0 30 30" fill="none" xmlns="http://www.w3.org/2000/svg">
<g clip-path="url(#clip0_181_172)">
<path d="M15 0C19.1425 0 22.8921 1.67845 25.6062 4.39379C28.3203 7.10786 30 10.8588 30 15C30 19.1412 28.3215 22.8921 25.6062 25.6062C22.8921 28.3203 19.1412 30 15 30C10.8575 30 7.10786 28.3215 4.39379 25.6062C1.67845 22.8921 0 19.1412 0 15C0 10.8588 1.67845 7.10786 4.39379 4.39379C7.10786 1.67845 10.8575 0 15 0ZM13.7737 7.60293C13.7737 7.14953 14.1412 6.78202 14.5946 6.78202C15.048 6.78202 15.4155 7.14953 15.4155 7.60293V15.1806L21.1164 18.5602C21.5054 18.7901 21.6355 19.2928 21.4057 19.683C21.1758 20.072 20.6732 20.2021 20.2829 19.9722L14.222 16.3791C13.9555 16.2427 13.7737 15.9662 13.7737 15.6479V7.60293ZM24.4456 5.55443C22.0283 3.13716 18.6891 1.64183 15 1.64183C11.3109 1.64183 7.97171 3.13716 5.55443 5.55443C3.13716 7.97171 1.64183 11.3109 1.64183 15C1.64183 18.6891 3.13716 22.0283 5.55443 24.4456C7.97171 26.8628 11.3109 28.3582 15 28.3582C18.6891 28.3582 22.0283 26.8628 24.4456 24.4456C26.8628 22.0283 28.3582 18.6891 28.3582 15C28.3582 11.3109 26.8628 7.97171 24.4456 5.55443Z" fill="#333333"/>
</g>
<defs>
<clipPath id="clip0_181_172">
<rect width="30" height="30" fill="white"/>
</clipPath>
</defs>
</svg>
