<svg width="23" height="30" viewBox="0 0 23 30" fill="none" xmlns="http://www.w3.org/2000/svg">
<g clip-path="url(#clip0_181_175)">
<path fill-rule="evenodd" clip-rule="evenodd" d="M16.726 25.9471C15.3612 27.4437 13.7719 28.784 11.9872 29.868C11.7675 30.0291 11.4696 30.0486 11.2255 29.8924C8.58875 28.2151 6.3744 26.201 4.63367 24.011C2.23133 20.9983 0.720099 17.6585 0.202521 14.4407C-0.324823 11.179 0.168341 8.03935 1.79188 5.48808C2.43152 4.47978 3.2494 3.56181 4.24549 2.76836C6.53553 0.944627 9.15028 -0.0197286 11.7577 -0.000197372C14.2675 0.0193339 16.7455 0.954392 18.8866 2.90996C19.6386 3.59355 20.2709 4.37724 20.7885 5.22685C22.5341 8.10283 22.91 11.7698 22.1434 15.4856C21.3866 19.1575 19.5067 22.888 16.726 25.9397V25.9471ZM11.2597 5.80058C14.3554 5.80058 16.8627 8.31035 16.8627 11.4036C16.8627 14.4993 14.3529 17.0066 11.2597 17.0066C8.16395 17.0066 5.65662 14.4993 5.65662 11.4036C5.65418 8.30791 8.16395 5.80058 11.2597 5.80058Z" fill="#333333"/>
</g>
<defs>
<clipPath id="clip0_181_175">
<rect width="22.522" height="30" fill="white"/>
</clipPath>
</defs>
</svg>
