<svg width="30" height="30" viewBox="0 0 30 30" fill="none" xmlns="http://www.w3.org/2000/svg">
<g clip-path="url(#clip0_181_178)">
<path d="M19.9243 1.15479C19.9243 0.517578 20.5542 0 21.333 0C22.1118 0 22.7417 0.517578 22.7417 1.15479V6.21338C22.7417 6.85059 22.1118 7.36816 21.333 7.36816C20.5542 7.36816 19.9243 6.85059 19.9243 6.21338V1.15479ZM7.229 1.15479C7.229 0.517578 7.85889 0 8.6377 0C9.4165 0 10.0464 0.517578 10.0464 1.15479V6.21338C10.0464 6.85059 9.4165 7.36816 8.6377 7.36816C7.85889 7.36816 7.229 6.85059 7.229 6.21338V1.15479ZM1.5625 11.0645H28.4375V5.2417C28.4375 5.04639 28.3569 4.86816 28.2275 4.73633C28.0981 4.60693 27.9199 4.52637 27.7222 4.52637H25.1465C24.7144 4.52637 24.3652 4.17725 24.3652 3.74512C24.3652 3.31299 24.7144 2.96387 25.1465 2.96387H27.7222C28.3496 2.96387 28.9185 3.22021 29.3311 3.63281C29.7437 4.04541 30 4.61426 30 5.2417V11.8481V27.7246C30 28.3521 29.7437 28.9209 29.3311 29.3335C28.9185 29.7461 28.3496 30.0024 27.7222 30.0024H2.27783C1.65039 30.0024 1.08154 29.7461 0.668945 29.3335C0.256348 28.9185 0 28.3496 0 27.7222V11.8481V5.2417C0 4.61426 0.256348 4.04541 0.668945 3.63281C1.08154 3.22021 1.65039 2.96387 2.27783 2.96387H5.0293C5.46143 2.96387 5.81055 3.31299 5.81055 3.74512C5.81055 4.17725 5.46143 4.52637 5.0293 4.52637H2.27783C2.08252 4.52637 1.9043 4.60693 1.77246 4.73633C1.64307 4.86572 1.5625 5.04395 1.5625 5.2417V11.0645ZM28.4375 12.6294H1.5625V27.7222C1.5625 27.9175 1.64307 28.0957 1.77246 28.2275C1.90186 28.3569 2.08008 28.4375 2.27783 28.4375H27.7222C27.9175 28.4375 28.0957 28.3569 28.2275 28.2275C28.3569 28.0981 28.4375 27.9199 28.4375 27.7222V12.6294ZM12.312 4.52637C11.8799 4.52637 11.5308 4.17725 11.5308 3.74512C11.5308 3.31299 11.8799 2.96387 12.312 2.96387H17.5586C17.9907 2.96387 18.3398 3.31299 18.3398 3.74512C18.3398 4.17725 17.9907 4.52637 17.5586 4.52637H12.312Z" fill="#333333"/>
</g>
<defs>
<clipPath id="clip0_181_178">
<rect width="30" height="30" fill="white"/>
</clipPath>
</defs>
</svg>
