<svg width="1920" height="1005" viewBox="0 0 1920 1005" fill="none" xmlns="http://www.w3.org/2000/svg">
<rect width="1920" height="1005" fill="#F2F3F8"/>
<path d="M85 412V76H1179.06" stroke="black" stroke-width="5"/>
<path d="M1835 412V76H1165.37" stroke="black" stroke-width="5"/>
<path d="M85 598V916H755" stroke="black" stroke-width="5"/>
<path d="M1835 598V916H1165" stroke="black" stroke-width="5"/>
<path d="M945.907 626.37C923.121 623.332 892.74 614.218 887.17 609.154L842.105 636.497L804.635 700.298L1049.71 668.398L1068.44 636.497L1029.46 603.078C1024.73 607.298 1014.26 616.243 1010.21 618.269C1005.15 620.8 968.693 629.408 945.907 626.37Z" fill="#355E3B"/>
<path d="M888.022 683.081C864.896 676.498 843.047 664.917 825.36 650.269L805.652 693.628L908.741 806.124L1002.73 761.594L1057.82 660.816L1013.35 650.269C991.111 644.996 970.392 659.644 954.222 669.019C938.051 678.394 900.29 686.573 888.022 683.081Z" fill="#98BDD9"/>
<path d="M1008.19 731.186C996.545 736.756 907.933 803.088 902.363 851.191L955.024 879.547L1084.65 811.19L1112.5 710.932C1099.17 682.745 1070.37 627.991 1061.86 634.473C1051.23 642.574 1046.17 661.816 1041.61 673.968C1037.05 686.121 1019.84 725.616 1008.19 731.186Z" fill="#D998D9"/>
<path d="M897.296 721.565C887.169 708.906 841.091 698.779 813.748 708.906L823.875 797.011L897.296 859.292L1012.74 851.697C1012.24 842.414 1009.61 821.316 1003.12 811.189C995.022 798.53 942.361 785.871 928.69 778.276C915.018 770.681 907.423 734.224 897.296 721.565Z" fill="#B498D9"/>
<path d="M907.929 909.419L902.866 914.989L1015.78 916.002L1010.21 912.964L1005.66 900.305L1012.24 886.633L1041.1 867.392L1077.05 842.074L1098.82 816.757L1114.52 791.439L1126.17 752.956L1124.65 711.942L1110.98 671.434L1087.68 640.04L1059.83 616.748L1032.49 601.557L1022.87 600.038V604.089L1030.47 612.191L1058.82 632.951L1079.58 659.281L1091.73 686.118L1097.81 711.942L1096.29 747.893L1085.66 781.818L1060.85 814.731L1039.58 830.935L1010.21 847.138L982.363 853.72L940.336 855.239L905.397 845.619L876.535 829.922L852.23 809.161L834.508 784.857L823.368 757.514L818.811 725.613L823.368 691.688L835.015 663.838L854.762 637.002L871.978 622.318L888.181 612.191L895.777 602.57V600.038L881.599 604.089L855.775 618.773L832.989 638.014L814.254 662.319L799.064 692.7L794 719.031V749.918L801.089 779.793L811.722 803.592L825.9 824.352L830.034 830.347L835.439 835.593L855.269 852.201L869.953 864.354L897.296 879.544L907.929 889.671L911.474 900.305L907.929 909.419Z" fill="#333333"/>
<path d="M1031.99 612.697C1032.61 613.075 1035.12 614.78 1035.03 614.723C1035.03 614.627 1035.95 615.776 1038.63 617.583C1041.31 619.389 1043.39 620.855 1044.87 621.981C1046.35 623.107 1047.49 623.96 1048.28 624.543C1049.06 625.125 1050.44 626.264 1052.4 627.959C1054.36 629.653 1055.88 631.013 1056.95 632.038C1058.02 633.064 1058.82 633.838 1059.35 634.36C1059.88 634.883 1060.24 635.235 1060.41 635.414C1060.58 635.594 1060.67 635.681 1060.66 635.675C1060.66 635.669 1060.77 635.786 1061.01 636.027C1061.25 636.268 1061.52 636.552 1061.83 636.878C1062.14 637.204 1062.5 637.583 1062.92 638.014C1063.34 638.445 1064.14 639.327 1065.34 640.66C1066.54 641.992 1067.63 643.254 1068.59 644.443C1069.55 645.633 1070.29 646.555 1070.81 647.209C1071.32 647.864 1072.14 648.939 1073.25 650.436C1073.1 650.237 1072.98 650.073 1072.89 649.944C1073.23 649.839 1074.78 652.048 1077.53 656.571C1080.28 661.094 1082.3 664.588 1083.59 667.053C1084.88 669.518 1085.82 671.431 1086.41 672.792C1086.99 674.153 1087.51 675.321 1087.97 676.298C1088.42 677.274 1089.14 679.114 1090.14 681.816C1091.13 684.519 1091.95 686.943 1092.59 689.089C1093.23 691.235 1093.8 693.301 1094.29 695.288C1094.78 697.274 1095.21 699.194 1095.56 701.047C1095.92 702.901 1096.2 704.54 1096.42 705.963C1096.63 707.386 1096.77 708.435 1096.86 709.109C1096.94 709.783 1097.06 710.843 1097.22 712.289C1097.38 713.736 1097.51 715.496 1097.61 717.571C1097.71 719.645 1097.78 721.65 1097.84 723.585C1097.89 725.52 1097.82 728.221 1097.62 731.687C1097.42 735.153 1097.19 737.822 1096.95 739.694C1096.7 741.567 1096.45 743.4 1096.19 745.196C1095.93 746.991 1095.56 748.991 1095.1 751.197C1094.63 753.403 1094.26 755.052 1093.99 756.146C1093.72 757.239 1093.49 758.164 1093.28 758.919C1093.08 759.675 1092.88 760.326 1092.7 760.872C1092.52 761.418 1092.41 761.846 1092.38 762.156C1092.34 762.466 1091.79 764.134 1090.73 767.16C1089.67 770.187 1088.74 772.608 1087.95 774.425C1087.16 776.241 1086.4 777.869 1085.68 779.308C1084.96 780.748 1084.35 781.952 1083.85 782.92C1083.35 783.888 1082.54 785.317 1081.42 787.207C1080.3 789.096 1079.42 790.498 1078.79 791.413C1078.16 792.327 1077.72 792.99 1077.48 793.399C1077.24 793.809 1076.22 795.291 1074.41 797.844C1072.61 800.397 1070.49 803.085 1068.06 805.91C1065.62 808.734 1063.56 811.01 1061.85 812.736C1060.14 814.463 1058.79 815.796 1057.79 816.734C1056.79 817.672 1055.75 818.636 1054.66 819.628C1053.58 820.619 1052.13 821.864 1050.32 823.364C1048.51 824.863 1046.77 826.225 1045.09 827.449C1043.41 828.673 1042.19 829.55 1041.42 830.079C1040.65 830.609 1040.03 831.026 1039.58 831.33C1039.13 831.634 1038.78 831.848 1038.54 831.973C1038.29 832.098 1037.93 832.353 1037.44 832.738C1036.96 833.124 1035.06 834.277 1031.75 836.199C1028.43 838.119 1025.54 839.672 1023.07 840.855C1020.6 842.039 1018.56 842.973 1016.95 843.658C1015.34 844.344 1013.98 844.909 1012.87 845.355C1011.77 845.8 1010.37 846.327 1008.68 846.936C1006.99 847.544 1005.43 848.06 1003.99 848.482C1002.55 848.904 1001.25 849.332 1000.09 849.768C998.934 850.203 996.106 850.921 991.608 851.92C987.111 852.92 983.652 853.591 981.233 853.933C978.813 854.276 976.743 854.533 975.023 854.704C973.302 854.874 971.72 855.038 970.276 855.193C968.831 855.349 966.39 855.468 962.95 855.549C959.51 855.63 956.886 855.633 955.076 855.558C953.267 855.482 951.547 855.416 949.919 855.357C948.29 855.299 945.865 855.085 942.643 854.716C939.421 854.347 937.092 854.021 935.657 853.739C934.221 853.457 932.98 853.259 931.936 853.147C930.891 853.035 928.238 852.466 923.977 851.44C919.716 850.415 915.9 849.32 912.529 848.156C909.158 846.992 906.044 845.838 903.187 844.693L903.576 844.852C903.118 844.604 902.041 844.152 900.347 843.498C898.652 842.842 896.246 841.709 893.129 840.097C890.012 838.484 887.578 837.174 885.827 836.165C884.076 835.157 882.147 833.971 880.041 832.608C877.934 831.245 876.16 830.038 874.721 828.987C873.281 827.936 871.863 826.898 870.466 825.874C869.07 824.849 867.252 823.37 865.013 821.437C862.774 819.503 861.022 817.918 859.758 816.681C858.492 815.444 857.544 814.507 856.912 813.871C856.281 813.235 855.727 812.666 855.251 812.164C854.775 811.662 854.408 811.274 854.151 810.999C853.894 810.723 853.682 810.495 853.516 810.313C853.349 810.131 853.129 809.869 852.856 809.528C852.583 809.186 852.441 809.041 852.43 809.092C852.419 809.144 851.305 807.86 849.089 805.241C846.874 802.621 844.769 799.876 842.776 797.006C840.783 794.135 839.27 791.839 838.236 790.116C837.202 788.394 836.156 786.595 835.096 784.721C834.037 782.847 832.936 780.715 831.793 778.324C830.649 775.934 829.733 773.876 829.043 772.15C828.354 770.424 827.82 769.068 827.441 768.083C827.062 767.098 826.62 765.827 826.117 764.268C825.614 762.71 825.23 761.622 824.967 761.005C824.704 760.388 824.226 758.635 823.533 755.747C822.839 752.859 822.314 750.605 821.955 748.983C821.596 747.361 821.281 745.576 821.01 743.628C820.739 741.679 820.54 740.237 820.415 739.301C820.289 738.364 820.149 736.922 819.995 734.976C819.842 733.031 819.712 731.166 819.607 729.384C819.501 727.601 819.482 725.188 819.549 722.143C819.616 719.098 819.728 716.716 819.884 714.996C820.04 713.277 820.178 711.988 820.3 711.132C820.421 710.275 820.501 709.517 820.541 708.859C820.58 708.201 820.895 706.149 821.484 702.703C822.073 699.258 822.829 695.864 823.751 692.522C824.673 689.18 825.466 686.564 826.129 684.674C826.792 682.783 827.278 681.443 827.586 680.653C827.895 679.863 828.229 679.019 828.587 678.121C828.944 677.223 829.512 675.865 830.29 674.049C831.067 672.232 832.092 670.096 833.362 667.639C834.633 665.183 835.734 663.172 836.665 661.608C837.596 660.043 838.406 658.716 839.095 657.626C839.784 656.536 840.583 655.325 841.493 653.993C842.402 652.66 843.585 651.018 845.042 649.065C846.498 647.112 848.201 644.955 850.15 642.594C852.1 640.234 854.394 637.757 857.032 635.164C859.67 632.57 861.596 630.742 862.809 629.677C864.023 628.613 865.556 627.314 867.411 625.78C869.265 624.247 870.932 622.938 872.412 621.853C873.891 620.768 875.246 619.805 876.476 618.963C877.707 618.121 878.621 617.506 879.219 617.12C879.817 616.733 880.33 616.404 880.756 616.132C881.183 615.861 881.521 615.648 881.77 615.493C882.018 615.338 882.775 614.877 884.039 614.111" stroke="#333333" stroke-width="3" stroke-linecap="round" stroke-linejoin="round"/>
<path d="M1038.08 604.421C1038.04 604.4 1037.86 604.314 1037.54 604.163C1037.63 604.212 1037.89 604.341 1038.32 604.548C1038.75 604.754 1039.35 605.04 1040.12 605.404C1040.89 605.768 1041.7 606.172 1042.56 606.615C1043.41 607.058 1044.31 607.54 1045.26 608.062C1046.2 608.583 1047.02 609.037 1047.71 609.424C1048.4 609.811 1049.08 610.195 1049.73 610.574C1050.39 610.953 1050.93 611.269 1051.37 611.523C1051.8 611.776 1052.29 612.066 1052.82 612.393C1053.36 612.721 1054.02 613.127 1054.8 613.612C1055.58 614.098 1056.31 614.564 1057 615.011C1057.69 615.457 1058.33 615.885 1058.93 616.292C1059.52 616.7 1060.07 617.068 1060.56 617.397C1061.05 617.726 1061.48 618.015 1061.87 618.265C1062.26 618.515 1062.72 618.838 1063.26 619.232C1063.79 619.627 1064.28 619.99 1064.73 620.322C1065.17 620.654 1065.65 621.02 1066.18 621.421C1066.71 621.822 1067.2 622.202 1067.67 622.56C1068.14 622.918 1068.68 623.334 1069.29 623.807C1069.91 624.281 1070.51 624.747 1071.09 625.207C1071.68 625.667 1072.3 626.176 1072.96 626.732C1073.62 627.288 1074.2 627.787 1074.71 628.229C1075.22 628.671 1075.77 629.147 1076.35 629.659C1076.93 630.171 1077.49 630.666 1078.02 631.144C1078.55 631.623 1079.06 632.084 1079.54 632.529C1080.02 632.974 1080.48 633.401 1080.91 633.812C1081.34 634.223 1081.84 634.711 1082.41 635.277C1082.99 635.843 1083.55 636.403 1084.1 636.958C1084.65 637.513 1085.19 638.057 1085.7 638.591C1086.21 639.125 1086.73 639.674 1087.26 640.237C1087.78 640.801 1088.18 641.258 1088.44 641.607C1088.71 641.957 1088.91 642.126 1089.04 642.115C1089.17 642.103 1089.51 642.42 1090.05 643.064C1090.6 643.709 1091.13 644.355 1091.66 645.001C1092.18 645.648 1092.78 646.403 1093.46 647.267C1094.15 648.13 1094.79 648.944 1095.38 649.709C1095.98 650.473 1096.53 651.188 1097.04 651.854C1097.55 652.52 1098.02 653.136 1098.45 653.703C1098.87 654.27 1099.34 654.905 1099.84 655.607C1100.35 656.309 1100.88 657.061 1101.44 657.863C1101.99 658.665 1102.48 659.4 1102.91 660.068C1103.35 660.735 1103.72 661.31 1104.03 661.793C1104.33 662.275 1104.63 662.739 1104.91 663.185C1105.19 663.631 1105.55 664.227 1105.98 664.975C1106.41 665.724 1106.76 666.307 1107.04 666.725C1107.31 667.142 1107.61 667.649 1107.94 668.243C1108.27 668.838 1108.58 669.397 1108.86 669.922C1109.15 670.447 1109.46 671.037 1109.81 671.69C1110.16 672.344 1110.49 672.976 1110.81 673.588C1111.13 674.199 1111.43 674.789 1111.71 675.358C1112 675.927 1112.27 676.475 1112.52 677.002C1112.77 677.529 1113.07 678.156 1113.4 678.883C1113.73 679.611 1114.08 680.4 1114.45 681.251C1114.82 682.103 1115.16 682.895 1115.46 683.629C1115.75 684.362 1116.04 685.068 1116.32 685.745C1116.59 686.422 1116.85 687.071 1117.11 687.691C1117.36 688.312 1117.62 689.016 1117.9 689.803C1118.18 690.59 1118.42 691.299 1118.64 691.931C1118.85 692.563 1119.08 693.248 1119.32 693.987C1119.57 694.726 1119.79 695.442 1120.01 696.134C1120.23 696.827 1120.43 697.496 1120.62 698.142C1120.81 698.788 1120.98 699.411 1121.14 700.011C1121.31 700.61 1121.49 701.325 1121.69 702.155C1121.89 702.984 1122.08 703.745 1122.26 704.438C1122.43 705.13 1122.56 705.616 1122.64 705.895C1122.72 706.174 1122.83 706.633 1122.96 707.271C1123.09 707.909 1123.21 708.512 1123.31 709.081C1123.42 709.649 1123.54 710.289 1123.68 711C1123.81 711.712 1123.93 712.379 1124.04 713.003C1124.15 713.628 1124.27 714.342 1124.4 715.148C1124.53 715.953 1124.65 716.717 1124.74 717.441C1124.83 718.165 1124.92 718.913 1125.01 719.683C1125.1 720.453 1125.2 721.246 1125.29 722.063C1125.39 722.879 1125.47 723.746 1125.55 724.665C1125.62 725.583 1125.69 726.553 1125.74 727.573C1125.8 728.594 1125.84 729.514 1125.88 730.332C1125.91 731.15 1125.94 732.021 1125.95 732.945C1125.97 733.868 1125.97 734.637 1125.94 735.251C1125.91 735.865 1125.92 736.242 1125.97 736.38C1126.01 736.519 1126.02 736.942 1126 737.651C1125.97 738.359 1125.95 739.056 1125.92 739.742C1125.89 740.427 1125.85 741.219 1125.8 742.118C1125.76 743.017 1125.71 743.877 1125.66 744.697C1125.6 745.519 1125.55 746.301 1125.48 747.044C1125.42 747.788 1125.36 748.492 1125.29 749.158C1125.22 749.824 1125.13 750.598 1125.01 751.48C1124.9 752.363 1124.79 753.176 1124.69 753.92C1124.59 754.663 1124.52 755.19 1124.47 755.5C1124.43 755.811 1124.36 756.263 1124.26 756.855C1124.16 757.448 1124.05 758.181 1123.9 759.056C1123.76 759.93 1123.58 760.889 1123.36 761.933C1123.15 762.977 1122.9 764.106 1122.61 765.32C1122.32 766.533 1122.06 767.597 1121.83 768.513C1121.6 769.428 1121.4 770.194 1121.23 770.81C1121.06 771.426 1120.91 771.95 1120.79 772.381C1120.66 772.813 1120.55 773.213 1120.44 773.582C1120.33 773.951 1120.19 774.389 1120.04 774.895C1119.88 775.401 1119.73 775.898 1119.57 776.387C1119.42 776.876 1119.23 777.442 1119.03 778.083C1118.82 778.724 1118.59 779.402 1118.34 780.117C1118.08 780.832 1117.81 781.584 1117.5 782.373C1117.2 783.162 1116.92 783.883 1116.67 784.536C1116.41 785.19 1116.13 785.906 1115.81 786.684C1115.5 787.461 1115.12 788.334 1114.67 789.301C1114.22 790.269 1113.88 791.035 1113.66 791.6C1113.44 792.164 1113.16 792.802 1112.81 793.514C1112.46 794.225 1112.13 794.889 1111.83 795.507C1111.52 796.124 1111.17 796.813 1110.78 797.573C1110.39 798.333 1110.01 799.065 1109.64 799.768C1109.27 800.471 1108.9 801.145 1108.54 801.79C1108.19 802.435 1107.84 803.052 1107.5 803.64C1107.15 804.227 1106.74 804.919 1106.25 805.714C1105.76 806.51 1105.27 807.299 1104.77 808.082C1104.28 808.865 1103.77 809.635 1103.26 810.393C1102.76 811.151 1102.36 811.758 1102.07 812.215C1101.79 812.671 1101.44 813.189 1101.03 813.77C1100.62 814.35 1100.23 814.892 1099.87 815.397C1099.51 815.901 1099.1 816.464 1098.65 817.086C1098.2 817.708 1097.74 818.323 1097.28 818.933C1096.82 819.543 1096.35 820.146 1095.88 820.744C1095.41 821.342 1094.94 821.933 1094.46 822.519C1093.98 823.104 1093.5 823.684 1093.01 824.257C1092.52 824.831 1092.06 825.376 1091.61 825.894C1091.16 826.411 1090.64 827.016 1090.03 827.709C1089.43 828.401 1088.8 829.097 1088.17 829.796C1087.53 830.496 1086.85 831.211 1086.15 831.943C1085.44 832.675 1084.71 833.423 1083.93 834.187C1083.16 834.952 1082.5 835.606 1081.95 836.151C1081.39 836.695 1080.94 837.13 1080.61 837.455C1080.27 837.779 1079.82 838.195 1079.26 838.701C1078.71 839.208 1078.04 839.805 1077.27 840.494C1076.49 841.182 1075.77 841.814 1075.1 842.39C1074.44 842.966 1073.82 843.486 1073.26 843.95C1072.7 844.414 1072.17 844.85 1071.67 845.259C1071.17 845.667 1070.59 846.137 1069.93 846.667C1069.27 847.198 1068.14 848.078 1066.54 849.308L1066.78 849.139C1066.9 849.059 1066.84 849.115 1066.6 849.307C1066.35 849.499 1065.92 849.833 1065.32 850.31C1064.71 850.786 1064.11 851.27 1063.51 851.76C1062.9 852.25 1062.3 852.747 1061.71 853.252C1061.11 853.756 1060.65 854.15 1060.33 854.433C1060 854.716 1059.81 854.883 1059.74 854.936" stroke="#333333" stroke-width="3" stroke-linecap="round" stroke-linejoin="round"/>
<path d="M855.097 851.385C854.21 850.624 853.372 849.91 852.583 849.244C851.794 848.577 851.052 847.957 850.357 847.386C849.662 846.815 849.021 846.289 848.434 845.808C847.847 845.327 847.202 844.79 846.499 844.198C845.795 843.605 845.094 843.01 844.395 842.414C843.696 841.818 843.006 841.216 842.324 840.609C841.642 840.001 840.984 839.407 840.35 838.824C839.716 838.243 839.23 837.794 838.891 837.478C838.552 837.163 838.134 836.766 837.639 836.287C837.144 835.808 836.727 835.402 836.387 835.067C836.047 834.733 835.731 834.42 835.44 834.13C835.149 833.839 834.922 833.611 834.76 833.447C834.597 833.283 834.377 833.058 834.098 832.773C833.82 832.488 833.709 832.376 833.766 832.435C833.823 832.495 833.677 832.345 833.328 831.984C832.979 831.623 832.496 831.115 831.878 830.462C831.259 829.808 830.597 829.082 829.89 828.285C829.182 827.488 828.735 826.979 828.548 826.76C828.362 826.541 828.099 826.239 827.76 825.852C827.422 825.466 826.976 824.959 826.423 824.332C825.869 823.705 825.318 823.048 824.768 822.36C824.217 821.672 823.736 821.062 823.324 820.531C822.912 820 822.478 819.433 822.021 818.829C821.564 818.225 821.132 817.65 820.725 817.102C820.318 816.555 819.847 815.913 819.311 815.177C818.776 814.44 818.251 813.694 817.736 812.937C817.222 812.181 816.779 811.525 816.407 810.969C816.035 810.413 815.677 809.868 815.334 809.335C814.99 808.802 814.719 808.379 814.521 808.066C814.323 807.753 814.07 807.345 813.762 806.844C813.453 806.342 813.137 805.828 812.814 805.3C812.492 804.772 812.193 804.268 811.918 803.788C811.644 803.307 811.339 802.762 811.004 802.153C810.669 801.544 810.373 801.015 810.115 800.563C809.857 800.112 809.636 799.74 809.455 799.446C809.273 799.153 809.033 798.713 808.736 798.129C808.438 797.544 808.163 796.995 807.912 796.484C807.659 795.972 807.38 795.4 807.075 794.767C806.769 794.134 806.483 793.539 806.218 792.983C805.954 792.426 805.654 791.788 805.318 791.068C804.983 790.348 804.674 789.661 804.391 789.007C804.107 788.353 803.825 787.688 803.542 787.012C803.26 786.335 802.977 785.647 802.696 784.948C802.414 784.249 802.134 783.536 801.858 782.809C801.581 782.081 801.308 781.34 801.037 780.584C800.766 779.828 800.509 779.096 800.265 778.388C800.022 777.68 799.793 776.996 799.578 776.334C799.363 775.673 799.142 774.974 798.915 774.236C798.688 773.497 798.455 772.721 798.216 771.906C797.977 771.09 797.748 770.271 797.528 769.448C797.308 768.625 797.098 767.799 796.897 766.968C796.696 766.138 796.523 765.389 796.378 764.721C796.232 764.053 796.092 763.34 795.956 762.581C795.821 761.823 795.692 761.266 795.569 760.91C795.446 760.554 795.315 759.966 795.177 759.147C795.039 758.327 794.912 757.538 794.795 756.777C794.678 756.017 794.548 755.15 794.406 754.175C794.263 753.201 794.134 752.272 794.019 751.388C793.904 750.505 793.802 749.667 793.713 748.874C793.625 748.081 793.55 747.333 793.488 746.631C793.427 745.929 793.37 745.119 793.319 744.201C793.267 743.284 793.218 742.36 793.172 741.428C793.125 740.497 793.089 739.712 793.065 739.072C793.041 738.433 793.023 737.673 793.012 736.792C793.002 735.912 792.998 734.91 793.001 733.788C793.004 732.665 793.023 731.656 793.059 730.761C793.095 729.865 793.131 729.109 793.166 728.494C793.201 727.879 793.242 727.254 793.288 726.621C793.334 725.987 793.381 725.37 793.427 724.769C793.472 724.167 793.529 723.439 793.597 722.584C793.665 721.73 793.732 720.922 793.798 720.163C793.864 719.404 793.937 718.711 794.017 718.085C794.097 717.458 794.194 716.771 794.31 716.024C794.426 715.278 794.56 714.471 794.711 713.604C794.863 712.736 795.032 711.809 795.219 710.822C795.406 709.834 795.587 708.91 795.761 708.049C795.935 707.189 796.103 706.391 796.263 705.657C796.424 704.922 796.578 704.251 796.725 703.644C796.873 703.036 797.047 702.372 797.249 701.65C797.45 700.929 797.667 700.123 797.899 699.233C798.132 698.344 798.321 697.592 798.469 696.979C798.616 696.365 798.767 695.799 798.921 695.281C799.075 694.763 799.257 694.19 799.467 693.563C799.678 692.936 799.916 692.254 800.182 691.517C800.448 690.78 800.742 689.989 801.064 689.144C801.386 688.298 801.692 687.504 801.981 686.762C802.27 686.02 802.543 685.33 802.8 684.692C803.056 684.054 803.296 683.468 803.52 682.933C803.743 682.399 803.998 681.809 804.284 681.163C804.57 680.517 804.855 679.884 805.14 679.263C805.424 678.641 805.706 678.045 805.987 677.473C806.268 676.901 806.52 676.362 806.743 675.856C806.967 675.35 807.234 674.793 807.545 674.185C807.855 673.578 808.146 673.013 808.419 672.49C808.692 671.966 808.998 671.384 809.337 670.743C809.677 670.102 810.017 669.473 810.357 668.857C810.697 668.242 811.038 667.639 811.379 667.049C811.721 666.459 812.063 665.882 812.406 665.317C812.749 664.753 813.092 664.202 813.436 663.663C813.78 663.124 814.103 662.62 814.403 662.152C814.704 661.684 815.047 661.151 815.433 660.554C815.819 659.957 816.182 659.402 816.523 658.887C816.863 658.373 817.262 657.779 817.717 657.107C818.173 656.436 818.587 655.828 818.957 655.285C819.328 654.741 819.732 654.15 820.17 653.512C820.607 652.873 821.079 652.213 821.586 651.533C822.093 650.852 822.634 650.151 823.21 649.43C823.786 648.708 824.397 647.965 825.042 647.201C825.688 646.438 826.368 645.653 827.082 644.848C827.797 644.043 828.468 643.292 829.095 642.597C829.721 641.901 830.304 641.26 830.843 640.674C831.381 640.088 831.876 639.557 832.327 639.08C832.777 638.604 833.275 638.09 833.819 637.54C834.363 636.989 834.9 636.451 835.429 635.926C835.96 635.4 836.475 634.9 836.976 634.425C837.478 633.95 837.962 633.483 838.427 633.025C838.893 632.567 839.432 632.06 840.044 631.504C840.657 630.949 841.42 630.268 842.334 629.462C843.247 628.655 844.076 627.935 844.82 627.301C845.564 626.666 846.223 626.117 846.798 625.654C847.372 625.191 847.905 624.764 848.396 624.373C848.887 623.982 849.438 623.547 850.05 623.067C850.662 622.588 851.282 622.116 851.912 621.653C852.542 621.19 853.075 620.794 853.511 620.467C853.947 620.14 854.406 619.803 854.888 619.456C855.369 619.109 855.947 618.699 856.619 618.224C857.292 617.749 858.028 617.243 858.83 616.705C859.631 616.167 860.496 615.598 861.426 614.998C862.356 614.397 863.152 613.887 863.814 613.468C864.477 613.049 865.104 612.661 865.697 612.304C866.289 611.947 866.948 611.556 867.671 611.131C868.396 610.707 868.977 610.37 869.416 610.12C869.855 609.869 870.138 609.709 870.265 609.639C870.392 609.569 870.49 609.511 870.559 609.465C870.628 609.419 871.126 609.144 872.053 608.64C872.981 608.136 873.826 607.682 874.591 607.279C875.355 606.876 875.965 606.558 876.421 606.326C876.876 606.094 877.167 605.947 877.292 605.884C877.417 605.821 877.548 605.755 877.684 605.686C877.82 605.617 877.991 605.532 878.197 605.429C878.403 605.327 878.642 605.21 878.912 605.077C879.182 604.944 879.45 604.813 879.714 604.685C879.979 604.556 880.33 604.387 880.768 604.178C880.725 604.198 880.394 604.357 879.774 604.655" stroke="#333333" stroke-width="3" stroke-linecap="round" stroke-linejoin="round"/>
<path d="M1039.72 605.089C1039.65 605.052 1039.57 605.009 1039.48 604.962L1039.49 604.963C1039.46 604.951 1039.41 604.923 1039.32 604.878L1039.33 604.88C1039.34 604.884 1039.09 604.758 1038.59 604.501L1038.61 604.508C1038.5 604.455 1038.45 604.426 1038.43 604.419L1038.45 604.427C1038.39 604.397 1038.33 604.368 1038.27 604.338L1038.29 604.346C1038.19 604.296 1038.08 604.244 1037.97 604.187L1037.99 604.197L1037.9 604.153L1037.92 604.163C1037.93 604.164 1037.65 604.028 1037.08 603.755L1037.11 603.77C1036.96 603.695 1036.72 603.585 1036.41 603.439L1036.45 603.458C1036.39 603.408 1035.43 602.995 1033.58 602.22L1033.65 602.25C1033.58 602.22 1033.5 602.189 1033.43 602.159L1033.5 602.189C1033.48 602.181 1033.4 602.149 1033.26 602.092C1033.12 602.036 1032.6 601.845 1031.71 601.521L1031.83 601.563C1031.67 601.51 1031.18 601.346 1030.33 601.071L1030.43 601.104C1030.37 601.028 1029.21 600.75 1026.94 600.272L1026.95 600.274C1026.87 600.262 1026.81 600.253 1026.75 600.244L1026.76 600.246C1026.68 600.234 1026.54 600.217 1026.37 600.195L1026.48 600.209C1026.37 600.197 1026.25 600.183 1026.1 600.167L1026.11 600.169C1026.09 600.167 1026 600.159 1025.84 600.146L1025.86 600.147C1025.75 600.139 1025.6 600.131 1025.41 600.124L1025.43 600.124C1025.19 600.107 1024.91 600.112 1024.6 600.141C1024.28 600.17 1024.06 600.199 1023.92 600.226C1023.78 600.253 1023.55 600.324 1023.23 600.439C1022.91 600.554 1022.64 600.712 1022.41 600.914C1022.19 601.115 1022.08 601.654 1022.07 602.532L1022.06 602.487C1022.06 602.6 1022.16 602.958 1022.38 603.561L1022.36 603.514C1022.39 603.583 1022.42 603.653 1022.46 603.722L1022.43 603.675C1022.48 603.79 1022.57 603.957 1022.69 604.177L1022.66 604.13C1022.68 604.172 1022.72 604.23 1022.76 604.303L1022.73 604.256C1022.75 604.299 1022.79 604.358 1022.83 604.432L1022.8 604.385C1022.84 604.445 1022.87 604.506 1022.91 604.565L1022.88 604.518C1022.92 604.573 1022.95 604.636 1023 604.706C1023.04 604.776 1023.11 604.876 1023.19 605.004L1023.16 604.958C1023.22 605.037 1023.26 605.101 1023.29 605.15L1023.26 605.103C1023.3 605.153 1023.36 605.243 1023.45 605.373L1023.42 605.328C1023.48 605.405 1023.51 605.456 1023.53 605.481L1023.5 605.435C1023.56 605.517 1023.64 605.622 1023.74 605.75L1023.7 605.705C1023.73 605.747 1023.8 605.829 1023.89 605.95L1023.86 605.906C1023.9 605.961 1023.97 606.045 1024.06 606.157L1024.02 606.113C1024.07 606.171 1024.18 606.3 1024.35 606.502L1024.31 606.46C1024.35 606.513 1024.45 606.622 1024.6 606.788C1024.74 606.954 1024.92 607.145 1025.12 607.361L1025.09 607.326C1025.17 607.418 1025.31 607.56 1025.5 607.751L1025.46 607.719C1025.55 607.81 1025.74 607.996 1026.02 608.277C1026.3 608.558 1026.87 609.077 1027.72 609.833L1027.71 609.819C1027.75 609.854 1027.82 609.92 1027.94 610.017C1028.05 610.114 1028.2 610.235 1028.37 610.381L1028.36 610.372C1028.43 610.433 1028.55 610.526 1028.7 610.652L1028.69 610.645C1028.76 610.703 1028.87 610.795 1029.03 610.92L1029.02 610.916C1029.11 611.005 1029.55 611.35 1030.35 611.949C1031.15 612.549 1031.78 613.007 1032.24 613.325C1032.7 613.643 1033.05 613.884 1033.3 614.049C1033.54 614.214 1033.8 614.382 1034.06 614.554C1034.32 614.725 1034.58 614.891 1034.83 615.05C1035.09 615.21 1035.29 615.339 1035.45 615.436C1035.61 615.534 1039.03 617.584 1039.32 617.762C1039.33 617.773 1035.89 615.713 1035.4 615.406C1034.91 615.099 1034.52 614.853 1034.23 614.666C1033.94 614.479 1033.67 614.301 1033.42 614.133C1033.17 613.964 1032.99 613.844 1032.89 613.773C1032.78 613.701 1032.62 613.593 1032.42 613.447C1032.21 613.302 1032.03 613.177 1031.89 613.074C1031.74 612.972 1031.59 612.861 1031.42 612.742C1031.25 612.622 1031 612.439 1030.67 612.192C1030.33 611.944 1029.78 611.513 1029 610.899L1029.01 610.903C1028.9 610.83 1028.35 610.364 1027.35 609.505L1027.37 609.52C1027.27 609.432 1027.13 609.31 1026.96 609.154L1026.98 609.173L1026.87 609.071L1026.89 609.09L1026.78 608.987L1026.8 609.006C1026.74 608.951 1026.67 608.889 1026.59 608.819L1026.62 608.84L1026.5 608.736L1026.53 608.758C1026.45 608.687 1026.39 608.625 1026.33 608.569L1026.35 608.592C1026.31 608.55 1026.18 608.432 1025.98 608.236L1026.01 608.262C1025.93 608.185 1025.83 608.085 1025.7 607.961L1025.73 607.988C1025.67 607.927 1025.49 607.744 1025.19 607.436L1025.22 607.467C1025.15 607.387 1025.05 607.284 1024.93 607.158L1024.96 607.191C1024.84 607.08 1024.44 606.611 1023.76 605.785L1023.79 605.827C1023.69 605.702 1023.34 605.184 1022.74 604.273L1022.77 604.321C1022.71 604.254 1022.51 603.819 1022.18 603.015L1022.2 603.062C1022.19 603.04 1022.16 602.926 1022.11 602.718C1022.06 602.511 1022.03 602.289 1022.02 602.054C1022.02 601.819 1022.07 601.597 1022.18 601.386C1022.29 601.176 1022.39 601.015 1022.47 600.904C1022.56 600.792 1022.73 600.672 1022.96 600.544C1023.2 600.416 1023.52 600.308 1023.94 600.22C1024.35 600.132 1024.85 600.1 1025.42 600.124C1026 600.148 1026.53 600.201 1027.02 600.283C1027.5 600.366 1027.91 600.444 1028.24 600.518C1028.56 600.591 1028.94 600.683 1029.37 600.792C1029.8 600.901 1030.66 601.173 1031.96 601.61C1031.92 601.596 1031.86 601.577 1031.8 601.553C1031.72 601.518 1032.25 601.714 1033.37 602.139L1033.31 602.115C1033.35 602.127 1033.54 602.206 1033.9 602.35C1034.26 602.494 1034.65 602.655 1035.06 602.833C1035.46 603.011 1035.74 603.134 1035.89 603.2C1036.03 603.267 1036.19 603.338 1036.35 603.413C1036.52 603.488 1036.87 603.653 1037.4 603.906L1037.37 603.895L1037.45 603.932L1037.43 603.921C1037.48 603.947 1037.53 603.972 1037.58 603.996L1037.56 603.986L1037.64 604.024L1037.62 604.014C1037.65 604.03 1037.7 604.055 1037.77 604.09L1037.75 604.08C1037.84 604.122 1037.89 604.147 1037.91 604.156L1037.89 604.146L1037.96 604.184L1037.95 604.176C1037.99 604.196 1038.06 604.231 1038.16 604.281L1038.14 604.273L1038.22 604.311L1038.2 604.303C1038.28 604.344 1038.38 604.39 1038.48 604.441L1038.46 604.435L1038.54 604.473L1038.53 604.467L1038.6 604.506C1038.53 604.467 1038.36 604.384 1038.1 604.255C1037.83 604.126 1037.49 603.96 1037.08 603.757C1036.67 603.554 1035.97 603.233 1034.98 602.794C1033.99 602.354 1032.54 601.809 1030.61 601.159L1030.72 601.193C1030.71 601.19 1030.69 601.185 1030.67 601.178L1030.78 601.211C1030.77 601.208 1030.75 601.205 1030.74 601.201L1030.84 601.233L1030.83 601.228L1030.93 601.26L1030.91 601.254C1030.95 601.267 1031.01 601.285 1031.08 601.31L1031.06 601.304C1031.03 601.285 1031.33 601.385 1031.94 601.605C1032.56 601.825 1033.17 602.053 1033.76 602.291C1034.35 602.529 1034.9 602.762 1035.42 602.991L1035.32 602.949L1035.37 602.971C1035.41 602.983 1035.22 602.898 1034.78 602.716C1034.35 602.534 1033.98 602.381 1033.67 602.258C1033.35 602.134 1033.05 602.015 1032.76 601.901C1032.84 601.944 1033.11 602.047 1033.57 602.21C1034.02 602.373 1034.71 602.665 1035.63 603.085C1036.55 603.505 1037.23 603.821 1037.66 604.031C1038.08 604.242 1038.44 604.423 1038.73 604.573C1039.03 604.723 1039.26 604.845 1039.44 604.939C1039.62 605.033 1043.48 607.276 1043.64 607.361" stroke="#333333" stroke-width="3" stroke-linecap="round" stroke-linejoin="round"/>
<path d="M879.176 604.759C879.244 604.723 879.321 604.683 879.408 604.638L879.405 604.638C879.427 604.627 879.479 604.6 879.563 604.556L879.558 604.558C879.549 604.562 879.786 604.441 880.27 604.195L880.257 604.201C880.357 604.15 880.413 604.122 880.426 604.116L880.412 604.123C880.469 604.095 880.526 604.066 880.583 604.038L880.567 604.045C880.663 603.998 880.766 603.947 880.876 603.893L880.856 603.903L880.943 603.86L880.922 603.87C880.918 603.871 881.19 603.74 881.737 603.478L881.707 603.492C881.857 603.421 882.084 603.315 882.388 603.175L882.349 603.192C882.407 603.145 883.334 602.748 885.13 602.004L885.058 602.033C885.132 602.003 885.206 601.974 885.281 601.945L885.206 601.974C885.228 601.966 885.306 601.936 885.44 601.881C885.575 601.827 886.077 601.644 886.947 601.333L886.832 601.372C886.977 601.322 887.461 601.165 888.284 600.9L888.18 600.932C888.24 600.859 889.37 600.592 891.57 600.133L891.556 600.135C891.632 600.124 891.697 600.114 891.753 600.106L891.739 600.108C891.823 600.096 891.951 600.08 892.123 600.06L892.011 600.072C892.116 600.06 892.24 600.047 892.384 600.033L892.367 600.034C892.392 600.032 892.482 600.024 892.637 600.012L892.618 600.013C892.721 600.005 892.865 599.998 893.049 599.991L893.028 599.991C893.262 599.974 893.532 599.98 893.837 600.007C894.143 600.035 894.363 600.062 894.498 600.088C894.634 600.115 894.856 600.183 895.165 600.293C895.474 600.404 895.737 600.556 895.953 600.749C896.169 600.942 896.281 601.46 896.289 602.303L896.296 602.259C896.3 602.368 896.195 602.712 895.984 603.291L896.003 603.246C895.974 603.312 895.944 603.379 895.913 603.446L895.935 603.401C895.885 603.511 895.803 603.672 895.69 603.883L895.715 603.838C895.693 603.878 895.662 603.933 895.622 604.004L895.648 603.959C895.624 604 895.592 604.056 895.549 604.128L895.576 604.083C895.542 604.141 895.508 604.198 895.472 604.255L895.5 604.21C895.467 604.263 895.43 604.323 895.387 604.391C895.344 604.458 895.281 604.553 895.198 604.677L895.228 604.632C895.176 604.709 895.133 604.77 895.101 604.817L895.132 604.772C895.099 604.82 895.037 604.906 894.946 605.032L894.979 604.987C894.925 605.062 894.889 605.111 894.871 605.135L894.904 605.091C894.845 605.169 894.768 605.27 894.673 605.393L894.707 605.35C894.676 605.391 894.614 605.469 894.521 605.586L894.556 605.543C894.513 605.596 894.447 605.676 894.359 605.784L894.394 605.742C894.349 605.797 894.244 605.922 894.08 606.115L894.114 606.075C894.072 606.125 893.98 606.231 893.837 606.39C893.695 606.549 893.525 606.733 893.33 606.94L893.361 606.907C893.277 606.995 893.145 607.131 892.966 607.315L892.997 607.284C892.912 607.371 892.732 607.55 892.457 607.82C892.182 608.09 891.632 608.588 890.806 609.314L890.822 609.3C890.784 609.334 890.709 609.398 890.599 609.491C890.488 609.584 890.349 609.701 890.18 609.841L890.191 609.831C890.12 609.89 890.01 609.98 889.863 610.101L889.87 610.094C889.802 610.15 889.692 610.238 889.542 610.358L889.548 610.354C889.463 610.439 889.034 610.77 888.26 611.346C887.487 611.922 886.877 612.362 886.43 612.667C885.984 612.972 885.641 613.204 885.403 613.363C885.165 613.521 884.919 613.683 884.665 613.848C884.412 614.012 884.162 614.171 883.916 614.324C883.671 614.477 883.471 614.601 883.318 614.695C883.165 614.789 879.35 617.085 879.067 617.256C879.057 617.266 882.888 614.96 883.364 614.666C883.841 614.372 884.219 614.135 884.498 613.955C884.778 613.776 885.039 613.605 885.282 613.443C885.524 613.282 885.698 613.167 885.801 613.098C885.904 613.029 886.057 612.925 886.259 612.785C886.46 612.645 886.632 612.526 886.772 612.427C886.913 612.328 887.063 612.222 887.224 612.107C887.385 611.992 887.628 611.816 887.953 611.579C888.278 611.341 888.816 610.928 889.567 610.337L889.563 610.342C889.666 610.271 890.202 609.824 891.17 608.999L891.153 609.014C891.249 608.93 891.381 608.812 891.548 608.662L891.529 608.68L891.638 608.582L891.618 608.601L891.726 608.502L891.706 608.52C891.764 608.467 891.829 608.407 891.902 608.341L891.88 608.361L891.989 608.26L891.966 608.281C892.039 608.214 892.103 608.154 892.16 608.101L892.136 608.122C892.179 608.083 892.299 607.969 892.495 607.78L892.47 607.805C892.545 607.732 892.644 607.635 892.765 607.516L892.738 607.543C892.798 607.484 892.972 607.308 893.261 607.012L893.232 607.042C893.305 606.965 893.4 606.866 893.514 606.745L893.483 606.777C893.604 606.67 893.992 606.22 894.647 605.427L894.616 605.467C894.714 605.347 895.054 604.85 895.638 603.975L895.613 604.021C895.671 603.956 895.859 603.539 896.179 602.766L896.165 602.813C896.17 602.791 896.196 602.681 896.245 602.482C896.294 602.282 896.323 602.07 896.331 601.844C896.34 601.619 896.291 601.405 896.184 601.203C896.077 601.001 895.98 600.846 895.895 600.74C895.809 600.632 895.652 600.517 895.424 600.394C895.194 600.271 894.879 600.167 894.478 600.083C894.076 599.998 893.596 599.967 893.036 599.991C892.477 600.014 891.962 600.065 891.491 600.144C891.021 600.223 890.627 600.298 890.31 600.369C889.993 600.44 889.627 600.527 889.211 600.632C888.795 600.737 887.958 600.999 886.702 601.418C886.74 601.404 886.793 601.386 886.859 601.363C886.93 601.33 886.42 601.517 885.33 601.926L885.389 601.903C885.356 601.915 885.166 601.99 884.818 602.128C884.47 602.266 884.098 602.421 883.7 602.592C883.304 602.764 883.035 602.881 882.893 602.945C882.752 603.009 882.601 603.077 882.442 603.149C882.282 603.222 881.946 603.379 881.432 603.623L881.454 603.612L881.379 603.648L881.401 603.638C881.351 603.662 881.301 603.686 881.251 603.71L881.272 603.7L881.196 603.736L881.217 603.727C881.185 603.742 881.135 603.766 881.067 603.799L881.087 603.79C881.004 603.83 880.955 603.854 880.938 603.862L880.956 603.853L880.882 603.89L880.899 603.881C880.859 603.901 880.791 603.935 880.694 603.983L880.709 603.975L880.635 604.012L880.65 604.004C880.571 604.044 880.482 604.088 880.384 604.137L880.396 604.131L880.324 604.168L880.334 604.162L880.262 604.199C880.332 604.162 880.497 604.082 880.754 603.958C881.011 603.834 881.339 603.675 881.737 603.48C882.136 603.285 882.814 602.976 883.772 602.555C884.729 602.133 886.141 601.609 888.008 600.985L887.904 601.017C887.914 601.014 887.929 601.009 887.949 601.003L887.849 601.035C887.859 601.031 887.869 601.028 887.879 601.026L887.782 601.056L887.797 601.051L887.703 601.081L887.718 601.076C887.681 601.088 887.626 601.106 887.553 601.13L887.569 601.125C887.599 601.106 887.314 601.202 886.715 601.413C886.117 601.624 885.532 601.844 884.96 602.072C884.389 602.3 883.852 602.524 883.349 602.744L883.441 602.704L883.394 602.725C883.352 602.737 883.542 602.655 883.963 602.48C884.384 602.305 884.746 602.159 885.048 602.04C885.35 601.921 885.644 601.807 885.929 601.698C885.846 601.739 885.584 601.838 885.145 601.994C884.705 602.151 884.038 602.431 883.143 602.834C882.249 603.238 881.594 603.541 881.179 603.744C880.765 603.946 880.416 604.119 880.134 604.263C879.851 604.407 879.624 604.524 879.45 604.615C879.278 604.705 876.184 606.54 876.029 606.623" stroke="#333333" stroke-width="3" stroke-linecap="round" stroke-linejoin="round"/>
<path d="M1015.47 915.915L1014.97 915.499C1014.44 915.011 1013.97 914.577 1013.55 914.199C1013.13 913.821 1012.87 913.576 1012.75 913.465C1012.63 913.354 1012.5 913.23 1012.35 913.092C1012.2 912.954 1012.03 912.794 1011.85 912.612C1011.66 912.43 1011.45 912.206 1011.2 911.939C1010.95 911.672 1010.62 911.282 1010.19 910.771C1009.76 910.259 1009.49 909.916 1009.36 909.742C1009.23 909.567 1009.12 909.416 1009.02 909.288C1008.92 909.159 1008.77 908.94 1008.56 908.63C1008.36 908.319 1008.22 908.112 1008.16 908.008C1008.1 907.903 1007.99 907.701 1007.83 907.401C1007.67 907.1 1007.5 906.749 1007.32 906.348C1007.14 905.946 1007.01 905.611 1006.91 905.343C1006.81 905.074 1006.75 904.888 1006.72 904.783C1006.68 904.678 1006.65 904.586 1006.63 904.507C1006.6 904.427 1006.48 903.891 1006.28 902.898C1006.24 902.721 1006.2 902.32 1006.17 901.694C1006.13 901.068 1006.12 900.575 1006.14 900.215C1006.15 899.855 1006.18 899.491 1006.22 899.124C1006.27 898.756 1006.32 898.394 1006.39 898.039C1006.47 897.684 1006.54 897.359 1006.62 897.066C1006.69 896.773 1006.94 896.08 1007.36 894.989C1007.77 893.897 1007.99 893.341 1008 893.32C1008.01 893.299 1008.16 893.019 1008.45 892.481C1008.73 891.942 1009.06 891.38 1009.43 890.793C1009.8 890.206 1010.13 889.707 1010.43 889.295C1010.73 888.884 1011 888.522 1011.25 888.209C1011.5 887.896 1011.79 887.55 1012.12 887.172C1012.45 886.794 1012.82 886.39 1013.24 885.96C1013.65 885.53 1013.96 885.216 1014.17 885.016C1014.38 884.817 1014.63 884.575 1014.94 884.293C1015.24 884.01 1015.59 883.702 1015.97 883.371C1016.34 883.039 1016.76 882.69 1017.22 882.322C1017.67 881.955 1018.25 881.506 1018.96 880.974C1019.67 880.442 1020.15 880.082 1020.42 879.894C1020.68 879.706 1020.96 879.508 1021.26 879.298C1021.56 879.088 1022.05 878.758 1022.74 878.308C1023.43 877.857 1024.04 877.467 1024.57 877.137C1025.11 876.808 1025.59 876.513 1026.01 876.252C1026.44 875.992 1026.76 875.793 1026.99 875.655C1027.22 875.516 1027.47 875.365 1027.74 875.203C1028.02 875.039 1028.26 874.899 1028.46 874.781C1028.66 874.663 1029.06 874.433 1029.67 874.092C1030.27 873.752 1030.84 873.438 1031.36 873.15C1031.89 872.863 1032.31 872.638 1032.61 872.474C1032.91 872.31 1033.35 872.073 1033.92 871.763C1034.49 871.452 1035.05 871.154 1035.6 870.866C1036.14 870.579 1036.69 870.287 1037.24 869.992C1037.79 869.696 1038.39 869.372 1039.05 869.018C1039.71 868.664 1040.09 868.458 1040.19 868.4C1040.29 868.341 1040.61 868.166 1041.14 867.872C1041.67 867.579 1042.13 867.326 1042.52 867.113C1042.9 866.9 1043.2 866.737 1043.4 866.626C1043.61 866.515 1043.89 866.361 1044.24 866.165C1044.59 865.968 1045.11 865.67 1045.81 865.268C1046.68 864.745 1047.6 864.18 1048.56 863.572C1049.53 862.964 1050.32 862.448 1050.95 862.025C1051.57 861.602 1052.02 861.29 1052.31 861.088C1052.59 860.886 1052.98 860.604 1053.48 860.24C1053.98 859.877 1054.48 859.5 1054.99 859.111C1055.51 858.722 1055.94 858.39 1056.28 858.116C1056.62 857.842 1056.94 857.586 1057.22 857.347C1057.51 857.107 1058.02 856.675 1058.74 856.051L1059.09 855.756L1059.62 855.273L1060.1 854.853C1060.5 854.491 1066.4 849.625 1066.93 849.168L1072.5 844.61" stroke="#333333" stroke-width="3" stroke-linecap="round" stroke-linejoin="round"/>
<path d="M902.137 915.69L902.635 915.274C903.16 914.786 903.632 914.353 904.051 913.974C904.469 913.596 904.737 913.351 904.853 913.24C904.969 913.129 905.104 913.005 905.256 912.867C905.409 912.73 905.576 912.57 905.758 912.388C905.94 912.206 906.155 911.981 906.403 911.714C906.65 911.447 906.987 911.058 907.413 910.546C907.839 910.035 908.117 909.692 908.246 909.517C908.375 909.342 908.488 909.191 908.587 909.062C908.685 908.934 908.837 908.715 909.042 908.405C909.248 908.095 909.381 907.887 909.441 907.783C909.501 907.678 909.612 907.476 909.774 907.176C909.935 906.875 910.105 906.524 910.282 906.123C910.46 905.721 910.597 905.386 910.695 905.118C910.792 904.849 910.857 904.663 910.888 904.558C910.92 904.453 910.949 904.361 910.977 904.282C911.003 904.202 911.12 903.666 911.326 902.673C911.363 902.496 911.399 902.095 911.435 901.469C911.471 900.843 911.481 900.35 911.466 899.99C911.452 899.63 911.423 899.266 911.38 898.899C911.338 898.531 911.28 898.17 911.209 897.814C911.138 897.459 911.064 897.135 910.987 896.841C910.91 896.548 910.663 895.855 910.246 894.764C909.829 893.672 909.615 893.116 909.604 893.095C909.592 893.074 909.444 892.794 909.158 892.256C908.872 891.718 908.544 891.155 908.174 890.568C907.804 889.981 907.47 889.482 907.174 889.07C906.877 888.659 906.604 888.297 906.354 887.984C906.105 887.671 905.814 887.326 905.483 886.948C905.152 886.569 904.78 886.165 904.365 885.736C903.95 885.306 903.64 884.991 903.434 884.791C903.228 884.592 902.972 884.351 902.666 884.068C902.359 883.785 902.017 883.477 901.638 883.146C901.26 882.814 900.843 882.465 900.388 882.098C899.933 881.731 899.351 881.281 898.643 880.749C897.936 880.217 897.45 879.857 897.187 879.669C896.924 879.482 896.642 879.283 896.342 879.073C896.042 878.863 895.549 878.533 894.863 878.083C894.177 877.633 893.566 877.243 893.032 876.913C892.497 876.583 892.018 876.288 891.593 876.028C891.168 875.768 890.842 875.569 890.615 875.43C890.388 875.291 890.137 875.141 889.861 874.978C889.585 874.815 889.347 874.674 889.145 874.556C888.942 874.438 888.54 874.209 887.937 873.868C887.334 873.527 886.768 873.213 886.239 872.926C885.71 872.638 885.295 872.413 884.993 872.249C884.692 872.085 884.255 871.848 883.683 871.538C883.111 871.227 882.539 870.953 882.007 870.641C868.025 862.46 860.555 856.367 850.207 847.142C848.012 845.185 844.637 842.078 844.637 842.078" stroke="#333333" stroke-width="3" stroke-linecap="round" stroke-linejoin="round"/>
<path d="M902.373 915.647L1015.43 915.993" stroke="#333333" stroke-width="3" stroke-linecap="round" stroke-linejoin="round"/>
<path d="M1059.47 633.956L1062.49 637.012" stroke="#333333" stroke-width="2"/>
<path d="M1041.61 606.322C1041.53 606.283 1041.44 606.24 1041.35 606.194C1041.39 606.215 1041.47 606.251 1041.58 606.305L1041.55 606.29L1041.61 606.322Z" stroke="#333333" stroke-width="2" stroke-linecap="round" stroke-linejoin="round"/>
<path d="M931.731 515.986L930.718 527.126L920.085 520.543L914.515 507.885L913.502 496.238L925.148 503.834L929.199 508.391L931.731 515.986Z" fill="#333333"/>
<path d="M945.908 497.251L943.377 509.91L936.288 507.378L927.68 497.251V478.01L942.364 487.124L945.908 497.251Z" fill="#333333"/>
<path d="M990.467 500.796L976.796 510.923L971.732 499.783L976.796 488.137L991.987 479.022V487.124L990.467 500.796Z" fill="#333333"/>
<path d="M1000.59 519.531L988.948 528.645L986.417 517.505L991.987 505.859L1004.65 496.238L1005.15 504.846L1000.59 519.531Z" fill="#333333"/>
<path d="M886.667 593.963L867.932 571.684L867.426 571.177L949.961 569.658L941.86 552.949L930.72 542.315L919.074 535.226L911.985 536.239H901.858L890.212 530.163L879.578 520.036L871.477 504.339H882.616L892.743 507.883L904.896 513.96L911.985 521.555L919.074 531.682L924.644 533.707L938.821 542.315L956.037 560.038L957.05 494.718C956.375 494.043 954.822 492.592 954.012 492.186C952.999 491.68 947.429 475.983 946.923 473.958C946.417 471.932 948.948 462.818 948.948 460.286C948.948 458.261 956.375 445.94 960.088 440.032C960.088 440.707 960.392 442.058 961.607 442.058C963.126 442.058 970.722 463.324 971.734 464.843C972.747 466.363 970.722 482.059 970.722 483.578C970.722 484.794 964.645 492.186 961.607 495.731L962.62 561.05L982.874 540.796C983.279 540.391 994.183 534.551 999.584 531.682C1001.44 529.488 1005.25 524.796 1005.66 523.58C1006.17 522.061 1021.86 510.415 1022.88 509.402C1023.69 508.592 1039.75 505.689 1047.69 504.339C1047.52 504.845 1047.08 506.567 1046.67 509.402C1046.17 512.947 1034.52 525.606 1030.98 530.163C1027.43 534.72 1019.33 535.226 1015.79 536.239C1011.23 537.541 1004.65 537.589 1001.1 536.239C1000.93 536.577 999.887 537.556 997.052 538.771C993.507 540.29 980.849 549.911 976.291 553.961C972.646 557.202 970.722 567.127 970.215 571.684H1050.73L1031.99 592.444L886.667 593.963Z" fill="#333333"/>
<path d="M969.249 570.855L969.365 570.394C969.842 568.761 970.209 567.545 970.465 566.747C970.72 565.95 970.934 565.303 971.105 564.808C971.276 564.312 971.482 563.749 971.722 563.117C971.963 562.486 972.22 561.856 972.494 561.227C972.767 560.599 972.983 560.116 973.14 559.778C973.297 559.441 973.63 558.805 974.138 557.872C974.647 556.939 975.045 556.244 975.331 555.788C975.618 555.333 975.903 554.892 976.188 554.467C976.473 554.042 976.745 553.659 977.003 553.318C977.209 553.039 977.439 552.738 977.695 552.415C977.952 552.091 978.134 551.861 978.241 551.727C978.348 551.592 978.569 551.337 978.905 550.963C979.239 550.588 979.741 550.071 980.411 549.413C981.08 548.755 981.788 548.113 982.533 547.487C983.279 546.861 984.476 545.939 986.123 544.721C988.132 543.359 989.305 542.574 989.642 542.365C989.979 542.156 990.272 541.972 990.52 541.812C990.768 541.653 991.418 541.267 992.47 540.655C993.522 540.043 994.443 539.522 995.231 539.09C996.02 538.658 996.598 538.344 996.965 538.147C997.331 537.951 998.16 537.54 999.452 536.916L1000.9 536.217M962.662 561.93C962.981 561.538 963.464 560.972 964.112 560.232C964.761 559.492 965.456 558.699 966.199 557.853C966.942 557.007 967.511 556.36 967.906 555.912C968.301 555.463 968.824 554.878 969.476 554.156C970.127 553.435 971.102 552.411 972.401 551.087C973.7 549.763 974.749 548.724 975.546 547.968C976.344 547.213 977.013 546.592 977.552 546.106C978.091 545.62 978.394 545.347 978.458 545.287C978.523 545.228 978.892 544.914 979.565 544.345C980.237 543.776 980.736 543.363 981.063 543.104C981.389 542.845 981.853 542.488 982.454 542.034C983.056 541.579 983.615 541.168 984.132 540.8C984.648 540.432 985.075 540.134 985.412 539.907C985.75 539.679 986.235 539.357 986.866 538.942C987.499 538.526 988.055 538.167 988.534 537.864C989.013 537.561 989.432 537.301 989.789 537.083C990.146 536.865 990.517 536.644 990.901 536.42C991.285 536.196 992.009 535.793 993.072 535.21C994.136 534.627 995.118 534.099 996.019 533.627C996.92 533.155 998.123 532.53 999.629 531.754M1000.05 531.542L1000.91 530.449C1001.46 529.719 1001.88 529.179 1002.15 528.831C1002.42 528.482 1002.84 527.941 1003.41 527.207C1003.98 526.473 1004.5 525.815 1004.97 525.233C1005.45 524.652 1005.99 524.009 1006.6 523.306C1007.32 522.507 1008.04 521.707 1008.79 520.906C1009.53 520.105 1010.09 519.515 1010.47 519.138C1010.85 518.76 1011.29 518.343 1011.78 517.887C1012.27 517.431 1012.91 516.859 1013.7 516.169C1015.8 514.548 1017.42 513.366 1018.58 512.623C1019.73 511.88 1020.66 511.316 1021.38 510.931C1022.09 510.547 1022.75 510.214 1023.34 509.933C1023.94 509.652 1024.69 509.324 1025.59 508.95C1026.5 508.575 1027.43 508.223 1028.41 507.893C1029.38 507.564 1030.4 507.258 1031.47 506.977C1032.53 506.696 1033.17 506.532 1033.39 506.487C1033.6 506.441 1033.89 506.379 1034.23 506.301C1034.58 506.223 1035.38 506.069 1036.63 505.839C1037.89 505.61 1038.64 505.474 1038.88 505.433C1039.12 505.392 1039.34 505.357 1039.54 505.329C1039.73 505.3 1040.02 505.26 1040.4 505.209C1040.77 505.157 1041.15 505.106 1041.53 505.055C1041.91 505.004 1042.34 504.946 1042.84 504.882C1043.33 504.818 1043.68 504.775 1043.89 504.753C1044.11 504.732 1044.44 504.696 1044.89 504.645C1045.09 504.611 1045.63 504.542 1046.54 504.436L1047.22 504.341M1000.48 536.429C1000.78 536.433 1001.06 536.445 1001.32 536.465C1001.57 536.484 1002.04 536.521 1002.73 536.576C1003.43 536.63 1004.03 536.672 1004.56 536.701C1005.08 536.73 1005.66 536.753 1006.31 536.771C1006.95 536.789 1007.44 536.796 1007.76 536.794C1008.09 536.792 1008.38 536.788 1008.62 536.782C1008.87 536.776 1009.16 536.767 1009.51 536.753C1009.86 536.74 1010.53 536.689 1011.52 536.6C1012.52 536.512 1013.27 536.433 1013.77 536.362C1014.27 536.292 1015 536.153 1015.96 535.946C1016.92 535.738 1017.69 535.554 1018.27 535.394C1018.86 535.233 1019.66 534.971 1020.69 534.607C1021.72 534.243 1022.79 533.798 1023.89 533.273C1025 532.748 1026.09 532.16 1027.15 531.509C1028.22 530.858 1029.06 530.316 1029.67 529.883C1030.28 529.45 1030.7 529.141 1030.94 528.953C1031.18 528.767 1031.64 528.375 1032.32 527.778C1033 527.18 1033.57 526.657 1034.03 526.208C1034.48 525.758 1034.92 525.31 1035.34 524.863C1035.77 524.416 1036.01 524.154 1036.08 524.078C1036.14 524.003 1036.37 523.74 1036.76 523.289C1037.14 522.839 1037.59 522.297 1038.09 521.662C1038.59 521.028 1039 520.484 1039.33 520.03C1039.66 519.577 1039.91 519.223 1040.08 518.969C1040.25 518.714 1040.6 518.176 1041.12 517.354C1041.65 516.532 1042.09 515.809 1042.45 515.185C1042.81 514.562 1043.27 513.759 1043.82 512.776C1044.37 511.792 1044.87 510.877 1045.32 510.031C1045.77 509.184 1046.1 508.561 1046.31 508.16C1046.51 507.76 1047.1 506.628 1048.07 504.766M962.238 561.93L961.813 496.053M961.94 495.571C962.318 495.112 962.87 494.484 963.598 493.686C964.312 492.864 964.905 492.142 965.376 491.518C965.848 490.893 966.388 490.14 966.997 489.258C967.085 489.126 967.487 488.445 968.202 487.214C968.241 487.149 968.536 486.506 969.086 485.285C969.637 484.064 970.04 483.089 970.297 482.359C970.554 481.629 970.788 480.847 971 480.013C971.211 479.179 971.338 478.645 971.379 478.411C971.421 478.177 971.472 477.882 971.533 477.527C971.593 477.171 971.731 476.005 971.947 474.029C971.987 472.145 971.941 470.533 971.808 469.193C971.675 467.854 971.544 466.838 971.415 466.147C971.285 465.457 971.152 464.847 971.015 464.318C970.878 463.789 970.744 463.303 970.612 462.861C970.48 462.418 970.281 461.804 970.015 461.02C969.748 460.236 969.494 459.534 969.253 458.915C969.012 458.296 968.769 457.701 968.523 457.131C968.278 456.562 968.109 456.172 968.017 455.961C967.925 455.751 967.604 455.073 967.054 453.929C966.505 452.784 965.977 451.729 965.47 450.764C964.962 449.798 964.464 448.867 963.973 447.969C963.483 447.072 963.138 446.449 962.937 446.099C962.736 445.75 962.531 445.392 962.322 445.027C962.112 444.661 961.899 444.288 961.683 443.91C961.466 443.531 961.246 443.139 961.02 442.735C960.795 442.33 960.447 441.693 959.976 440.825L959.321 439.638M975.622 510.503C975.356 509.973 975.088 509.384 974.818 508.736C974.548 508.088 974.341 507.559 974.196 507.148C974.052 506.738 973.901 506.268 973.743 505.739C973.586 505.21 973.467 504.786 973.388 504.466C973.308 504.146 973.19 503.584 973.033 502.779C972.876 501.974 972.774 501.309 972.727 500.782C972.679 500.255 972.663 499.58 972.68 498.758C972.696 497.936 972.743 497.266 972.82 496.748C972.898 496.229 972.994 495.744 973.11 495.291C973.225 494.838 973.318 494.502 973.391 494.281C973.464 494.061 973.615 493.656 973.845 493.066C974.074 492.475 974.492 491.691 975.098 490.714C975.704 489.737 976.228 488.98 976.67 488.443C977.112 487.905 977.593 487.377 978.112 486.858C978.631 486.34 979.186 485.83 979.779 485.327C980.372 484.825 980.844 484.447 981.196 484.194C981.549 483.94 981.911 483.692 982.283 483.45C982.656 483.207 982.924 483.039 983.087 482.945C983.251 482.852 983.583 482.658 984.085 482.364C984.586 482.069 985.431 481.585 986.618 480.914C987.721 480.356 988.531 479.944 989.049 479.678C989.567 479.412 990.12 479.133 990.706 478.84M976.472 511.141C976.661 511.02 976.944 510.868 977.321 510.686C977.697 510.503 977.995 510.357 978.213 510.246C978.431 510.135 978.822 509.933 979.385 509.639C979.948 509.345 980.403 509.099 980.75 508.903C981.097 508.706 981.388 508.539 981.623 508.402C981.858 508.265 982.126 508.1 982.426 507.906C982.727 507.713 983.177 507.395 983.777 506.952C984.377 506.509 984.834 506.147 985.146 505.866C985.458 505.586 986.094 504.911 987.054 503.841C988.014 502.771 988.609 502.067 988.839 501.727C989.069 501.386 989.359 500.894 989.708 500.25C990.056 499.607 990.269 499.199 990.347 499.028C990.424 498.857 990.56 498.516 990.754 498.005C990.948 497.495 991.373 495.798 992.03 492.914C992.119 492.479 992.192 491.7 992.247 490.577C992.303 489.455 992.302 488.189 992.243 486.778C992.185 485.366 992.125 484.397 992.065 483.87C992.005 483.342 991.96 482.914 991.931 482.585C991.903 482.256 991.886 482.045 991.881 481.952C991.876 481.859 991.852 481.591 991.808 481.149C991.764 480.706 991.728 480.316 991.701 479.979C991.674 479.641 991.626 479.262 991.556 478.84M988.157 528.567L987.998 527.997L987.817 526.952L987.678 526.292C987.569 525.594 987.466 524.946 987.369 524.348C987.273 523.75 987.205 523.285 987.165 522.953C987.125 522.621 987.093 522.309 987.071 522.018C987.048 521.727 987.021 521.388 986.989 521C986.957 520.611 986.934 520.231 986.922 519.859C986.91 519.486 986.906 519.213 986.911 519.038C986.915 518.864 986.934 518.426 986.968 517.724C987.003 517.022 987.049 516.461 987.107 516.04C987.166 515.619 987.228 515.261 987.29 514.964C987.354 514.667 987.469 514.224 987.638 513.636C987.856 512.925 988.029 512.409 988.158 512.088C988.286 511.767 988.439 511.407 988.617 511.008C988.795 510.61 989.048 510.119 989.377 509.536C989.706 508.952 990.171 508.266 990.773 507.477C991.374 506.687 991.852 506.101 992.204 505.719C992.558 505.337 992.848 505.037 993.076 504.818C993.304 504.6 993.669 504.274 994.171 503.84C994.301 503.701 994.725 503.355 995.441 502.8L996.479 502.043C997.225 501.517 997.856 501.07 998.372 500.701C998.504 500.625 998.768 500.463 999.164 500.214C999.56 499.965 1000.07 499.646 1000.7 499.257L1001.19 498.95L1001.89 498.543L1002.46 498.228C1002.75 498.076 1002.96 497.956 1003.11 497.87C1003.26 497.784 1003.4 497.695 1003.52 497.601L1004.42 497.057L1004.62 496.963C1004.82 496.878 1005.14 496.717 1005.58 496.478M989.006 529.204L989.333 528.926L990.013 528.49L990.213 528.347C990.681 528.037 991.016 527.817 991.219 527.687C991.421 527.557 991.736 527.338 992.163 527.03C992.59 526.722 993.396 526.124 994.581 525.235C996.41 523.54 997.531 522.466 997.944 522.013C998.356 521.56 998.646 521.233 998.814 521.031C998.981 520.828 999.156 520.609 999.339 520.374C999.522 520.139 999.81 519.752 1000.2 519.214C1000.31 519.063 1000.56 518.687 1000.93 518.086C1001.3 517.46 1001.54 517.057 1001.64 516.878C1001.74 516.698 1002.04 516.076 1002.55 515.012L1002.94 514.077C1003.07 513.737 1003.19 513.429 1003.29 513.154C1003.4 512.878 1003.54 512.498 1003.7 512.013C1003.91 511.25 1004.07 510.652 1004.19 510.217C1004.31 509.782 1004.38 509.508 1004.41 509.394C1004.44 509.279 1004.5 508.97 1004.6 508.466C1004.69 507.962 1004.83 507.13 1004.99 505.971C1005.16 504.811 1005.31 503.524 1005.44 502.107C1005.45 501.995 1005.48 501.503 1005.54 500.631C1005.56 500.241 1005.57 500.001 1005.57 499.911C1005.57 499.821 1005.61 499.23 1005.68 498.137L1005.79 496.478M949.757 570.218L949.641 569.757C949.164 568.123 948.798 566.907 948.541 566.11C948.285 565.312 948.072 564.666 947.901 564.17C947.73 563.675 947.524 563.111 947.284 562.479C947.043 561.848 946.786 561.218 946.512 560.59C946.238 559.961 946.023 559.478 945.866 559.14C945.709 558.803 945.376 558.167 944.868 557.234C944.359 556.301 943.961 555.606 943.675 555.151C943.388 554.695 943.103 554.255 942.818 553.83C942.533 553.405 942.261 553.022 942.003 552.681C941.797 552.402 941.567 552.101 941.31 551.777C941.054 551.453 940.872 551.224 940.765 551.089C940.658 550.955 940.436 550.7 940.101 550.325C939.766 549.95 939.264 549.433 938.595 548.775C937.925 548.118 937.218 547.476 936.472 546.85C935.727 546.223 934.531 545.301 932.883 544.084C930.874 542.721 929.701 541.936 929.364 541.727C929.027 541.519 928.734 541.335 928.486 541.175C928.238 541.015 927.588 540.63 926.536 540.018C925.484 539.406 924.564 538.884 923.775 538.452C922.986 538.021 922.408 537.706 922.041 537.51C921.675 537.313 920.845 536.903 919.554 536.278L918.102 535.579M956.343 561.292C956.024 560.9 955.541 560.334 954.893 559.594C954.245 558.854 953.549 558.062 952.807 557.216C952.064 556.369 951.495 555.722 951.1 555.274C950.704 554.826 950.181 554.241 949.53 553.519C948.878 552.797 947.903 551.774 946.604 550.45C945.305 549.126 944.257 548.086 943.459 547.331C942.662 546.575 941.993 545.954 941.453 545.468C940.914 544.982 940.612 544.709 940.547 544.65C940.482 544.59 940.113 544.276 939.441 543.707C938.769 543.139 938.269 542.725 937.943 542.466C937.616 542.207 937.152 541.851 936.551 541.396C935.95 540.942 935.39 540.53 934.874 540.162C934.358 539.794 933.931 539.497 933.593 539.269C933.256 539.042 932.771 538.72 932.139 538.304C931.507 537.889 930.951 537.53 930.471 537.227C929.992 536.924 929.574 536.664 929.217 536.446C928.86 536.228 928.489 536.007 928.104 535.783C927.72 535.559 926.996 535.155 925.933 534.572C924.87 533.99 923.887 533.462 922.986 532.99C922.085 532.518 920.882 531.893 919.377 531.116M918.952 530.904L918.1 529.811C917.542 529.081 917.127 528.541 916.855 528.193C916.583 527.844 916.163 527.303 915.596 526.569C915.029 525.835 914.508 525.177 914.031 524.596C913.554 524.014 913.012 523.372 912.405 522.669C911.69 521.87 910.962 521.07 910.22 520.269C909.478 519.467 908.916 518.878 908.533 518.5C908.151 518.122 907.716 517.705 907.228 517.249C906.74 516.793 906.1 516.221 905.307 515.532C903.209 513.911 901.584 512.728 900.429 511.985C899.276 511.242 898.342 510.679 897.628 510.294C896.915 509.909 896.259 509.576 895.661 509.295C895.063 509.014 894.313 508.686 893.411 508.312C892.509 507.938 891.571 507.586 890.597 507.256C889.623 506.926 888.603 506.62 887.539 506.339C886.475 506.058 885.834 505.895 885.618 505.849C885.401 505.803 885.12 505.741 884.774 505.663C884.428 505.586 883.628 505.432 882.373 505.202C881.119 504.972 880.371 504.836 880.128 504.795C879.886 504.754 879.666 504.719 879.469 504.691C879.272 504.662 878.985 504.623 878.608 504.571C878.232 504.519 877.854 504.468 877.475 504.417C877.097 504.366 876.66 504.309 876.167 504.244C875.673 504.18 875.321 504.137 875.111 504.116C874.9 504.095 874.567 504.058 874.113 504.007C873.92 503.974 873.371 503.904 872.466 503.798L871.788 503.704M918.527 535.792C918.221 535.796 917.942 535.808 917.688 535.827C917.435 535.847 916.962 535.884 916.271 535.938C915.58 535.992 914.972 536.034 914.448 536.063C913.924 536.093 913.341 536.116 912.698 536.134C912.055 536.151 911.57 536.159 911.243 536.156C910.916 536.154 910.63 536.15 910.384 536.145C910.138 536.139 909.842 536.129 909.496 536.116C909.15 536.102 908.479 536.052 907.483 535.963C906.486 535.875 905.738 535.795 905.238 535.725C904.739 535.654 904.009 535.515 903.048 535.308C902.088 535.101 901.316 534.917 900.732 534.756C900.149 534.596 899.342 534.334 898.313 533.969C897.283 533.605 896.216 533.161 895.111 532.636C894.007 532.111 892.92 531.523 891.851 530.872C890.782 530.22 889.944 529.678 889.337 529.246C888.73 528.813 888.307 528.503 888.067 528.316C887.826 528.129 887.365 527.737 886.683 527.14C886.002 526.543 885.434 526.019 884.98 525.57C884.526 525.12 884.087 524.672 883.663 524.226C883.24 523.779 882.995 523.517 882.928 523.441C882.862 523.365 882.636 523.102 882.249 522.652C881.862 522.202 881.417 521.659 880.916 521.024C880.414 520.39 880 519.846 879.675 519.393C879.349 518.939 879.099 518.585 878.927 518.331C878.755 518.077 878.407 517.539 877.883 516.717C877.359 515.895 876.916 515.172 876.555 514.548C876.193 513.925 875.738 513.121 875.188 512.138C874.638 511.155 874.138 510.24 873.686 509.393C873.235 508.546 872.905 507.923 872.698 507.523C872.491 507.122 871.904 505.991 870.938 504.128M956.768 561.292L957.193 495.415M957.066 494.933C956.688 494.475 956.135 493.847 955.407 493.048C954.693 492.227 954.101 491.504 953.629 490.88C953.158 490.256 952.617 489.503 952.008 488.62C951.92 488.489 951.518 487.807 950.804 486.576C950.764 486.511 950.469 485.869 949.919 484.648C949.369 483.427 948.965 482.452 948.709 481.721C948.452 480.991 948.217 480.21 948.006 479.376C947.794 478.542 947.668 478.008 947.626 477.774C947.585 477.54 947.534 477.245 947.473 476.889C947.412 476.534 947.274 475.367 947.059 473.391C947.018 471.507 947.065 469.895 947.197 468.556C947.33 467.216 947.461 466.201 947.591 465.51C947.72 464.819 947.853 464.209 947.99 463.68C948.127 463.151 948.262 462.666 948.393 462.223C948.525 461.78 948.724 461.167 948.991 460.383C949.258 459.598 949.511 458.896 949.752 458.277C949.994 457.658 950.237 457.063 950.482 456.494C950.728 455.924 950.896 455.534 950.989 455.324C951.081 455.114 951.402 454.436 951.951 453.291C952.5 452.147 953.028 451.091 953.536 450.126C954.043 449.16 954.542 448.229 955.032 447.331C955.523 446.434 955.868 445.811 956.069 445.462C956.27 445.113 956.475 444.755 956.684 444.389C956.893 444.023 957.106 443.651 957.323 443.272C957.539 442.893 957.76 442.502 957.985 442.097C958.21 441.692 958.558 441.055 959.029 440.188L959.684 439M943.384 509.866C943.65 509.336 943.918 508.747 944.188 508.099C944.458 507.45 944.665 506.921 944.81 506.511C944.954 506.1 945.105 505.631 945.262 505.102C945.42 504.573 945.539 504.148 945.618 503.828C945.698 503.508 945.816 502.946 945.973 502.141C946.13 501.337 946.232 500.671 946.279 500.144C946.327 499.617 946.342 498.943 946.326 498.12C946.31 497.298 946.263 496.628 946.185 496.11C946.108 495.592 946.011 495.106 945.896 494.653C945.781 494.201 945.687 493.864 945.615 493.644C945.542 493.424 945.391 493.018 945.161 492.428C944.932 491.838 944.514 491.054 943.908 490.077C943.302 489.099 942.778 488.342 942.336 487.805C941.893 487.267 941.413 486.74 940.894 486.221C940.375 485.702 939.82 485.192 939.227 484.69C938.634 484.188 938.161 483.81 937.809 483.556C937.457 483.303 937.095 483.055 936.722 482.812C936.35 482.569 936.082 482.401 935.919 482.308C935.755 482.214 935.423 482.021 934.921 481.726C934.42 481.431 933.575 480.948 932.388 480.276C931.285 479.718 930.475 479.306 929.957 479.041C929.438 478.775 928.886 478.496 928.3 478.203M942.534 510.503C942.345 510.382 942.062 510.231 941.685 510.048C941.308 509.866 941.011 509.719 940.793 509.608C940.574 509.498 940.184 509.295 939.621 509.001C939.058 508.707 938.603 508.462 938.256 508.265C937.909 508.068 937.618 507.901 937.383 507.764C937.148 507.628 936.88 507.463 936.58 507.269C936.279 507.075 935.829 506.757 935.229 506.314C934.628 505.871 934.172 505.51 933.86 505.229C933.548 504.948 932.912 504.273 931.952 503.203C930.992 502.134 930.397 501.429 930.167 501.089C929.937 500.749 929.647 500.257 929.298 499.613C928.95 498.969 928.736 498.561 928.659 498.391C928.581 498.22 928.446 497.879 928.252 497.368C928.058 496.857 927.633 495.16 926.976 492.276C926.886 491.841 926.814 491.063 926.759 489.94C926.703 488.818 926.704 487.551 926.763 486.14C926.821 484.729 926.881 483.76 926.941 483.232C927.001 482.705 927.046 482.277 927.075 481.948C927.103 481.619 927.12 481.407 927.125 481.315C927.13 481.222 927.155 480.954 927.198 480.511C927.243 480.069 927.278 479.678 927.305 479.341C927.332 479.003 927.38 478.624 927.45 478.203M930.849 527.929L931.008 527.36L931.188 526.314L931.328 525.655C931.437 524.956 931.54 524.308 931.636 523.711C931.733 523.113 931.801 522.648 931.841 522.316C931.881 521.983 931.912 521.672 931.935 521.381C931.957 521.09 931.985 520.75 932.017 520.362C932.05 519.974 932.072 519.594 932.084 519.221C932.096 518.849 932.1 518.576 932.095 518.401C932.091 518.226 932.072 517.788 932.038 517.087C932.004 516.385 931.957 515.824 931.898 515.403C931.84 514.982 931.779 514.623 931.715 514.327C931.652 514.03 931.536 513.587 931.367 512.999C931.15 512.288 930.977 511.771 930.848 511.45C930.72 511.129 930.566 510.77 930.389 510.371C930.211 509.973 929.958 509.482 929.629 508.898C929.3 508.315 928.834 507.628 928.233 506.839C927.631 506.05 927.154 505.464 926.801 505.082C926.448 504.7 926.158 504.4 925.929 504.181C925.701 503.962 925.337 503.636 924.835 503.202C924.705 503.064 924.282 502.717 923.565 502.163L922.527 501.405C921.78 500.88 921.149 500.433 920.634 500.064C920.502 499.988 920.238 499.825 919.842 499.576C919.446 499.328 918.935 499.009 918.31 498.619L917.816 498.313L917.115 497.906L916.543 497.59C916.258 497.438 916.042 497.319 915.894 497.233C915.745 497.147 915.609 497.057 915.485 496.964L914.588 496.419L914.385 496.326C914.186 496.241 913.867 496.08 913.428 495.841M929.999 528.567L929.673 528.288L928.993 527.853L928.793 527.709C928.325 527.399 927.99 527.179 927.787 527.049C927.584 526.919 927.27 526.7 926.843 526.392C926.416 526.084 925.609 525.486 924.425 524.598C922.595 522.903 921.474 521.829 921.062 521.376C920.649 520.923 920.359 520.595 920.192 520.393C920.025 520.191 919.85 519.972 919.666 519.736C919.483 519.501 919.196 519.114 918.805 518.577C918.692 518.426 918.45 518.05 918.079 517.448C917.705 516.822 917.467 516.42 917.367 516.24C917.266 516.061 916.964 515.439 916.459 514.374L916.066 513.44C915.938 513.1 915.82 512.792 915.713 512.516C915.604 512.241 915.468 511.86 915.305 511.375C915.095 510.613 914.931 510.014 914.815 509.579C914.698 509.145 914.625 508.87 914.596 508.756C914.566 508.642 914.504 508.333 914.408 507.828C914.312 507.324 914.179 506.493 914.012 505.333C913.844 504.174 913.695 502.886 913.563 501.47C913.559 501.357 913.528 500.865 913.468 499.993C913.444 499.604 913.432 499.364 913.433 499.274C913.434 499.183 913.399 498.592 913.328 497.5L913.216 495.84M1051.25 570.643L1031.5 592.743L886.18 593.381L867.697 571.068L1051.25 570.643Z" stroke="#333333" stroke-width="3" stroke-linecap="round" stroke-linejoin="round"/>
<path fill-rule="evenodd" clip-rule="evenodd" d="M825.41 774.558H917.224H1009.04V771.735L1006.56 771.427C1004.17 770.899 1001.9 770.059 999.948 768.59C997.583 766.777 994.255 763.196 989.986 757.825L966.252 728.1L989.343 700.74C992.671 696.814 995.449 694.29 997.675 693.165C999.466 692.27 1001.78 691.719 1004.61 691.558H1007.09V688.62H823.459V691.306L826.672 691.558C829.473 691.788 832.158 692.798 834.408 694.473C837.07 696.47 840.353 699.913 844.232 704.825L866.703 733.173L842.166 762.094C839.044 765.812 836.29 768.383 833.903 769.829C832.457 770.678 830.873 771.298 829.243 771.62L825.249 772.01V774.558M975.479 757.87C977.752 760.717 978.9 763.402 978.9 765.95C978.9 768.957 977.729 771.597 974.699 771.597H941.646C939.971 771.597 936.94 769.324 936.94 766.914C936.94 764.619 938.341 761.818 941.141 758.49L959.113 737.189L975.479 757.87ZM984.959 695.782C984.959 697.916 983.605 700.579 980.919 703.723L963.475 723.899L945.8 701.336C944.217 699.339 943.414 697.549 943.414 695.942C943.414 693.326 944.951 691.558 948.693 691.558H979.198C983.238 691.558 984.959 693.257 984.959 695.782ZM857.109 701.336C855.525 699.339 854.722 697.549 854.722 695.942C854.722 693.326 856.489 691.558 860.001 691.558H890.506C894.362 691.558 896.267 693.28 896.267 695.782C896.267 697.916 894.913 700.579 892.227 703.723L874.783 723.899L857.109 701.336ZM848.249 766.914C848.249 764.619 849.649 761.818 852.449 758.49L870.422 737.189L886.81 757.87C889.083 760.717 890.23 763.402 890.23 765.95C890.23 768.957 888.968 771.597 886.03 771.597H852.977C849.603 771.597 848.249 769.301 848.249 766.914Z" fill="#333333"/>
<path d="M996.334 774.559V771.597L1091.64 771.597V774.559H996.334Z" fill="#333333"/>
<mask id="mask0_528_242" style="mask-type:luminance" maskUnits="userSpaceOnUse" x="877" y="691" width="79" height="81">
<path d="M955.141 733.173L930.604 762.071C927.482 765.79 924.728 768.36 922.341 769.806C920.918 770.656 919.334 771.275 917.704 771.597H917.658C915.271 771.069 913.021 770.013 911.048 768.544C908.683 766.731 905.378 763.15 901.086 757.779L877.375 728.1L900.466 700.739C903.794 696.814 906.571 694.29 908.798 693.165C910.52 692.293 912.723 691.765 915.386 691.581C918.094 691.834 920.688 692.843 922.846 694.473C925.508 696.47 928.791 699.913 932.647 704.825L955.141 733.173Z" fill="white"/>
</mask>
<g mask="url(#mask0_528_242)">
<path fill-rule="evenodd" clip-rule="evenodd" d="M927.017 690.064H908.038L873.174 729.054L911.751 772.582H923.922L957.961 732.974L927.017 690.064Z" fill="#FAFAFA"/>
<path d="M879.738 731.451C886.601 722.407 907.718 689.125 923.74 700.624C919.93 700.142 916.303 698.651 910.45 702.048C897.642 709.484 894.865 724.542 884.949 734.917C884.421 735.445 883.526 735.101 883.09 735.468C879.738 731.451 883.09 735.468 879.738 731.451Z" fill="#333333"/>
<path fill-rule="evenodd" clip-rule="evenodd" d="M901.453 751.581C900.695 751.604 899.708 752.178 899.272 751.834C897.344 750.319 898.285 747.266 897.596 745.935C893.097 737.213 914.467 719.699 919.953 718.414C924.681 717.312 928.078 718.414 932.394 718.46C933.518 718.506 934.666 720.525 934.115 721.65C930.466 729.844 927.482 732.094 919.218 738.154C917.956 739.072 917.543 737.786 916.579 738.544C915.362 739.416 916.51 740.38 915.592 741.046C912.768 743.226 908.109 746.348 905.883 747.84C904.344 748.873 902.83 750.502 901.453 751.581Z" fill="#333333"/>
<path fill-rule="evenodd" clip-rule="evenodd" d="M910.704 741.734C907.559 743.685 905.86 744.006 904.23 740.747C904.759 740.219 905.332 739.714 905.929 739.255C906.136 739.117 905.86 739.117 906.343 738.842C907.857 739.025 909.969 740.288 910.704 741.734Z" fill="#FAFAFA"/>
<path fill-rule="evenodd" clip-rule="evenodd" d="M921.077 734.067C919.379 733.034 918.598 731.497 918.622 728.995C920.182 727.296 921.628 726.929 923.097 725.873C924.704 726.768 925.278 727.916 925.921 728.972C924.245 731.45 923.924 731.726 921.077 734.067Z" fill="#FAFAFA"/>
</g>
<path d="M1091.56 689.011V691.277C1088.62 691.808 1086.39 692.747 1084.88 694.094C1082.72 696.095 1080.8 699.157 1079.12 703.281L1050.16 773.956H1047.89L1016.78 702.362C1015.19 698.687 1014.06 696.442 1013.41 695.625C1012.39 694.359 1011.12 693.379 1009.61 692.685C1008.14 691.95 1006.14 691.481 1003.61 691.277V689.011H1037.54V691.277C1033.7 691.644 1031.21 692.298 1030.07 693.237C1028.93 694.176 1028.35 695.38 1028.35 696.85C1028.35 698.891 1029.29 702.076 1031.17 706.404L1052.3 755.093L1071.9 707.016C1073.82 702.28 1074.78 698.993 1074.78 697.156C1074.78 695.972 1074.18 694.849 1073 693.788C1071.82 692.685 1069.82 691.91 1067 691.46C1066.79 691.42 1066.45 691.358 1065.96 691.277V689.011H1091.56Z" fill="#333333"/>
<path d="M1007.09 688.62V691.276H1091.56V688.62H1007.09Z" fill="#333333"/>
<path d="M734.706 186V214H730.866V186H734.706ZM768.123 186V214H764.083L754.803 195.04L753.483 191.36L753.283 191.48L753.963 195.6V214H750.123V186H754.203L763.443 205.44L764.803 209.24L765.003 209.12L764.283 204.4V186H768.123ZM783.522 186H798.362L797.882 189.4H787.362V198.36H796.402L795.922 201.72H787.362V214H783.522V186ZM824.112 191.04C823.632 190.427 822.966 189.933 822.112 189.56C821.259 189.16 820.219 188.96 818.992 188.96C817.792 188.96 816.766 189.267 815.912 189.88C815.086 190.467 814.472 191.333 814.072 192.48C813.406 194.427 813.072 197.04 813.072 200.32C813.072 204.587 813.672 207.467 814.872 208.96C815.966 210.347 817.646 211.04 819.912 211.04C820.979 211.04 821.886 210.827 822.632 210.4C823.406 209.947 823.992 209.4 824.392 208.76C824.819 208.093 825.152 207.227 825.392 206.16C825.766 204.507 825.952 202.68 825.952 200.68C825.952 198.68 825.912 197.213 825.832 196.28C825.752 195.32 825.566 194.36 825.272 193.4C825.006 192.413 824.619 191.627 824.112 191.04ZM819.952 185.52C826.672 185.52 830.032 190.147 830.032 199.4C830.032 204.173 829.112 207.88 827.272 210.52C825.432 213.16 822.699 214.48 819.072 214.48C812.352 214.48 808.992 209.853 808.992 200.6C808.992 195.827 809.912 192.12 811.752 189.48C813.592 186.84 816.326 185.52 819.952 185.52ZM859.754 186.28L852.434 199.72L860.514 213.72L856.394 214.2L850.234 203.08L844.314 214.2L840.714 213.72L848.074 199.72L840.554 186.28L844.674 185.8L850.314 196.48L856.114 185.8L859.754 186.28ZM887.997 186.28L880.677 199.72L888.757 213.72L884.637 214.2L878.477 203.08L872.557 214.2L868.957 213.72L876.317 199.72L868.797 186.28L872.917 185.8L878.557 196.48L884.357 185.8L887.997 186.28ZM917.279 186.28L909.399 214H904.439L896.799 186.28L900.559 185.8L906.319 207.08L906.999 210.28H907.159L907.879 207.08L913.599 185.8L917.279 186.28ZM936.83 202.4V205.4H927.23V202.4H936.83ZM948.316 193.04C948.316 190.907 949.116 189.12 950.716 187.68C952.316 186.24 954.356 185.52 956.836 185.52C959.316 185.52 961.196 186.133 962.476 187.36C963.756 188.587 964.489 190.267 964.676 192.4L960.596 192.8C960.516 191.573 960.103 190.627 959.356 189.96C958.636 189.293 957.636 188.96 956.356 188.96C955.103 188.96 954.116 189.267 953.396 189.88C952.676 190.493 952.316 191.28 952.316 192.24C952.316 193.52 952.729 194.56 953.556 195.36C954.383 196.16 955.796 197.067 957.796 198.08C959.556 198.987 960.756 199.653 961.396 200.08C962.063 200.48 962.729 200.987 963.396 201.6C964.676 202.747 965.316 204.413 965.316 206.6C965.316 208.787 964.489 210.653 962.836 212.2C961.183 213.72 958.956 214.48 956.156 214.48C953.356 214.48 950.703 213.613 948.196 211.88L949.836 208.92C952.316 210.333 954.649 211.04 956.836 211.04C958.143 211.04 959.209 210.72 960.036 210.08C960.863 209.413 961.276 208.467 961.276 207.24C961.276 205.987 960.849 205 959.996 204.28C959.169 203.56 958.116 202.907 956.836 202.32C955.583 201.733 954.809 201.373 954.516 201.24C954.223 201.08 953.729 200.813 953.036 200.44C952.343 200.04 951.836 199.707 951.516 199.44C951.196 199.173 950.783 198.8 950.276 198.32C949.796 197.813 949.449 197.333 949.236 196.88C948.623 195.627 948.316 194.347 948.316 193.04ZM978.092 186H993.252L992.772 189.44H981.932V198.04H991.492L991.012 201.4H981.932V210.56H993.452L992.972 214H978.092V186ZM1028.26 186L1029.74 214H1025.98L1025.02 194.24L1025.3 189.44H1025.06L1019.66 212.4L1015.06 212.8L1008.86 189.44H1008.58L1009.06 194.16L1008.38 214H1005.1L1006.18 186H1011.78L1016.58 204.8L1017.42 209.2H1017.62L1018.34 204.92L1022.66 186H1028.26ZM1047.64 186V214H1043.8V186H1047.64ZM1081.05 186V214H1077.01L1067.73 195.04L1066.41 191.36L1066.21 191.48L1066.89 195.6V214H1063.05V186H1067.13L1076.37 205.44L1077.73 209.24L1077.93 209.12L1077.21 204.4V186H1081.05ZM1105.97 185.8L1113.73 214H1109.69L1107.81 206.6H1098.93L1096.97 214H1093.25L1101.05 186.28L1105.97 185.8ZM1103.33 189.4L1099.85 203.32H1107.01L1103.61 189.4H1103.33ZM1135.54 185.8L1143.3 214H1139.26L1137.38 206.6H1128.5L1126.54 214H1122.82L1130.62 186.28L1135.54 185.8ZM1132.9 189.4L1129.42 203.32H1136.58L1133.18 189.4H1132.9ZM1155.59 186H1164.63C1167.49 186 1169.45 186.773 1170.51 188.32C1171.47 189.733 1171.95 191.453 1171.95 193.48C1171.95 195.507 1171.42 197.24 1170.35 198.68C1169.29 200.093 1167.85 201.107 1166.03 201.72L1173.67 214H1169.15L1162.27 202.36H1159.43V214H1155.59V186ZM1159.43 188.96V199.16H1162.51C1164.27 199.16 1165.62 198.707 1166.55 197.8C1167.49 196.867 1167.95 195.587 1167.95 193.96C1167.95 192.307 1167.55 191.067 1166.75 190.24C1165.98 189.387 1164.69 188.96 1162.87 188.96H1159.43ZM1189.12 186V214H1185.28V186H1189.12Z" fill="black"/>
<path d="M428.998 284.2V329H422.534L407.686 298.664L405.574 292.776L405.254 292.968L406.342 299.56V329H400.198V284.2H406.726L421.51 315.304L423.686 321.384L424.006 321.192L422.854 313.64V284.2H428.998ZM468.867 283.88L481.283 329H474.819L471.811 317.16H457.603L454.467 329H448.515L460.995 284.648L468.867 283.88ZM464.643 289.64L459.075 311.912H470.531L465.091 289.64H464.643ZM528.083 284.648L515.476 329H507.54L495.316 284.648L501.332 283.88L510.548 317.928L511.635 323.048H511.892L513.044 317.928L522.196 283.88L528.083 284.648ZM553.029 284.2V329H546.885V284.2H553.029ZM592.866 283.432C597.602 283.432 600.93 284.52 602.85 286.696C604.77 288.872 605.729 292.115 605.729 296.424L599.202 297.064C599.202 294.035 598.626 291.923 597.474 290.728C596.364 289.533 594.764 288.936 592.674 288.936C590.626 288.936 588.962 289.256 587.682 289.896C586.444 290.493 585.463 291.304 584.738 292.328C584.012 293.352 583.436 294.696 583.01 296.36C582.327 299.091 581.986 303.123 581.986 308.456C581.986 313.747 582.903 317.715 584.738 320.36C586.615 322.963 589.623 324.264 593.762 324.264C596.108 324.264 598.284 323.88 600.29 323.112V312.936H591.65L592.29 307.56H606.05V326.76C601.698 328.765 597.26 329.768 592.738 329.768C586.21 329.768 581.666 327.784 579.106 323.816C577.015 320.531 575.82 316.243 575.522 310.952C575.479 309.629 575.458 308.072 575.458 306.28C575.458 299.453 576.951 293.949 579.938 289.768C582.967 285.544 587.276 283.432 592.866 283.432ZM644.555 283.88L656.971 329H650.507L647.499 317.16H633.291L630.155 329H624.203L636.683 284.648L644.555 283.88ZM640.331 289.64L634.763 311.912H646.219L640.779 289.64H640.331ZM688.539 289.576V329H682.395V289.576H670.875L671.451 284.2H699.675L699.099 289.576H688.539ZM724.467 284.2V329H718.323V284.2H724.467ZM777.935 284.2V329H771.471L756.623 298.664L754.511 292.776L754.191 292.968L755.279 299.56V329H749.135V284.2H755.663L770.447 315.304L772.623 321.384L772.943 321.192L771.791 313.64V284.2H777.935ZM817.741 283.432C822.477 283.432 825.805 284.52 827.725 286.696C829.645 288.872 830.604 292.115 830.604 296.424L824.077 297.064C824.077 294.035 823.501 291.923 822.349 290.728C821.239 289.533 819.639 288.936 817.549 288.936C815.501 288.936 813.837 289.256 812.557 289.896C811.319 290.493 810.338 291.304 809.613 292.328C808.887 293.352 808.311 294.696 807.885 296.36C807.202 299.091 806.861 303.123 806.861 308.456C806.861 313.747 807.778 317.715 809.613 320.36C811.49 322.963 814.498 324.264 818.637 324.264C820.983 324.264 823.159 323.88 825.165 323.112V312.936H816.525L817.165 307.56H830.925V326.76C826.573 328.765 822.135 329.768 817.613 329.768C811.085 329.768 806.541 327.784 803.981 323.816C801.89 320.531 800.695 316.243 800.397 310.952C800.354 309.629 800.333 308.072 800.333 306.28C800.333 299.453 801.826 293.949 804.812 289.768C807.842 285.544 812.151 283.432 817.741 283.432ZM877.056 295.464C877.056 292.051 878.336 289.192 880.896 286.888C883.456 284.584 886.72 283.432 890.688 283.432C894.656 283.432 897.664 284.413 899.712 286.376C901.76 288.339 902.933 291.027 903.232 294.44L896.704 295.08C896.576 293.117 895.914 291.603 894.72 290.536C893.568 289.469 891.968 288.936 889.92 288.936C887.914 288.936 886.336 289.427 885.184 290.408C884.032 291.389 883.456 292.648 883.456 294.184C883.456 296.232 884.117 297.896 885.44 299.176C886.762 300.456 889.024 301.907 892.224 303.528C895.04 304.979 896.96 306.045 897.984 306.728C899.05 307.368 900.117 308.179 901.184 309.16C903.232 310.995 904.256 313.661 904.256 317.16C904.256 320.659 902.933 323.645 900.288 326.12C897.642 328.552 894.08 329.768 889.6 329.768C885.12 329.768 880.874 328.381 876.864 325.608L879.488 320.872C883.456 323.133 887.189 324.264 890.688 324.264C892.778 324.264 894.485 323.752 895.808 322.728C897.13 321.661 897.792 320.147 897.792 318.184C897.792 316.179 897.109 314.6 895.744 313.448C894.421 312.296 892.736 311.251 890.688 310.312C888.682 309.373 887.445 308.797 886.976 308.584C886.506 308.328 885.717 307.901 884.608 307.304C883.498 306.664 882.688 306.131 882.176 305.704C881.664 305.277 881.002 304.68 880.192 303.912C879.424 303.101 878.869 302.333 878.528 301.608C877.546 299.603 877.056 297.555 877.056 295.464ZM952.986 284.2V319.208L953.498 328.616L948.506 329.32L947.866 325.608H947.61C944.836 328.381 941.487 329.768 937.562 329.768C933.636 329.768 930.458 328.765 928.026 326.76C925.594 324.755 924.378 321.725 924.378 317.672V284.2H930.522V316.584C930.522 319.272 931.332 321.235 932.954 322.472C934.618 323.667 936.644 324.264 939.034 324.264C942.532 324.264 945.135 322.941 946.842 320.296V284.2H952.986ZM974.243 295.464C974.243 292.051 975.523 289.192 978.083 286.888C980.643 284.584 983.907 283.432 987.875 283.432C991.843 283.432 994.851 284.413 996.899 286.376C998.947 288.339 1000.12 291.027 1000.42 294.44L993.891 295.08C993.763 293.117 993.102 291.603 991.907 290.536C990.755 289.469 989.155 288.936 987.107 288.936C985.102 288.936 983.523 289.427 982.371 290.408C981.219 291.389 980.643 292.648 980.643 294.184C980.643 296.232 981.304 297.896 982.627 299.176C983.95 300.456 986.211 301.907 989.411 303.528C992.227 304.979 994.147 306.045 995.171 306.728C996.238 307.368 997.304 308.179 998.371 309.16C1000.42 310.995 1001.44 313.661 1001.44 317.16C1001.44 320.659 1000.12 323.645 997.475 326.12C994.83 328.552 991.267 329.768 986.787 329.768C982.307 329.768 978.062 328.381 974.051 325.608L976.675 320.872C980.643 323.133 984.376 324.264 987.875 324.264C989.966 324.264 991.672 323.752 992.995 322.728C994.318 321.661 994.979 320.147 994.979 318.184C994.979 316.179 994.296 314.6 992.931 313.448C991.608 312.296 989.923 311.251 987.875 310.312C985.87 309.373 984.632 308.797 984.163 308.584C983.694 308.328 982.904 307.901 981.795 307.304C980.686 306.664 979.875 306.131 979.363 305.704C978.851 305.277 978.19 304.68 977.379 303.912C976.611 303.101 976.056 302.333 975.715 301.608C974.734 299.603 974.243 297.555 974.243 295.464ZM1033.79 289.576V329H1027.65V289.576H1016.12L1016.7 284.2H1044.93L1044.35 289.576H1033.79ZM1078.8 283.88L1091.22 329H1084.76L1081.75 317.16H1067.54L1064.4 329H1058.45L1070.93 284.648L1078.8 283.88ZM1074.58 289.64L1069.01 311.912H1080.47L1075.03 289.64H1074.58ZM1117.03 284.2V329H1110.89V284.2H1117.03ZM1170.5 284.2V329H1164.03L1149.19 298.664L1147.07 292.776L1146.75 292.968L1147.84 299.56V329H1141.7V284.2H1148.23L1163.01 315.304L1165.19 321.384L1165.51 321.192L1164.35 313.64V284.2H1170.5ZM1210.37 283.88L1222.78 329H1216.32L1213.31 317.16H1199.1L1195.97 329H1190.02L1202.5 284.648L1210.37 283.88ZM1206.14 289.64L1200.58 311.912H1212.03L1206.59 289.64H1206.14ZM1242.45 284.2H1257.81C1261.48 284.2 1264.19 285.16 1265.94 287.08C1267.73 289 1268.62 291.368 1268.62 294.184C1268.62 296.957 1267.92 299.261 1266.51 301.096C1265.15 302.931 1263.27 304.125 1260.88 304.68V304.936C1267.62 305.576 1270.99 309.373 1270.99 316.328C1270.99 319.784 1269.63 322.771 1266.9 325.288C1264.21 327.763 1260.73 329 1256.46 329H1242.45V284.2ZM1248.59 308.008V324.008H1255.38C1258.92 324.008 1261.31 323.304 1262.54 321.896C1263.82 320.488 1264.46 318.547 1264.46 316.072C1264.46 313.555 1263.63 311.592 1261.97 310.184C1260.35 308.733 1257.79 308.008 1254.29 308.008H1248.59ZM1248.59 288.872V302.888H1254.35C1256.87 302.888 1258.79 302.269 1260.11 301.032C1261.43 299.795 1262.1 298.024 1262.1 295.72C1262.1 293.416 1261.54 291.709 1260.43 290.6C1259.36 289.448 1257.47 288.872 1254.74 288.872H1248.59ZM1297.78 284.2V323.56H1314.23L1313.46 329H1291.64V284.2H1297.78ZM1334.07 284.2H1358.33L1357.56 289.704H1340.22V303.464H1355.51L1354.74 308.84H1340.22V323.496H1358.65L1357.88 329H1334.07V284.2ZM1420.62 283.88L1433.03 329H1426.57L1423.56 317.16H1409.35L1406.22 329H1400.27L1412.75 284.648L1420.62 283.88ZM1416.39 289.64L1410.83 311.912H1422.28L1416.84 289.64H1416.39ZM1481.5 284.2V329H1475.03L1460.19 298.664L1458.07 292.776L1457.75 292.968L1458.84 299.56V329H1452.7V284.2H1459.23L1474.01 315.304L1476.19 321.384L1476.51 321.192L1475.35 313.64V284.2H1481.5ZM1506.14 284.2H1519.19C1522.01 284.2 1524.46 284.669 1526.55 285.608C1528.68 286.504 1530.35 287.656 1531.54 289.064C1532.78 290.472 1533.78 292.221 1534.55 294.312C1535.75 297.725 1536.34 301.949 1536.34 306.984C1536.34 312.957 1535.11 318.013 1532.63 322.152C1531.35 324.285 1529.58 325.971 1527.32 327.208C1525.06 328.403 1522.41 329 1519.38 329H1506.14V284.2ZM1512.28 289.576V323.624H1518.68C1523.42 323.624 1526.51 321.853 1527.96 318.312C1528.68 316.563 1529.18 314.771 1529.43 312.936C1529.69 311.101 1529.82 308.904 1529.82 306.344C1529.82 303.784 1529.62 301.565 1529.24 299.688C1528.9 297.768 1528.32 296.019 1527.51 294.44C1525.76 291.197 1522.65 289.576 1518.17 289.576H1512.28ZM598.929 362.2L601.297 407H595.281L593.745 375.384L594.193 367.704H593.809L585.169 404.44L577.809 405.08L567.889 367.704H567.441L568.209 375.256L567.121 407H561.873L563.601 362.2H572.561L580.241 392.28L581.585 399.32H581.905L583.057 392.472L589.969 362.2H598.929ZM623.791 362.2H648.047L647.279 367.704H629.935V381.464H645.231L644.463 386.84H629.935V401.496H648.367L647.599 407H623.791V362.2ZM684.086 361.88L696.502 407H690.038L687.03 395.16H672.822L669.686 407H663.734L676.214 362.648L684.086 361.88ZM679.862 367.64L674.294 389.912H685.75L680.31 367.64H679.862ZM744.966 362.2V407H738.502L723.654 376.664L721.542 370.776L721.222 370.968L722.31 377.56V407H716.166V362.2H722.694L737.478 393.304L739.654 399.384L739.974 399.192L738.822 391.64V362.2H744.966ZM775.748 362.2V407H769.604V362.2H775.748ZM829.216 362.2V407H822.752L807.904 376.664L805.792 370.776L805.472 370.968L806.56 377.56V407H800.416V362.2H806.944L821.728 393.304L823.904 399.384L824.224 399.192L823.072 391.64V362.2H829.216ZM869.022 361.432C873.758 361.432 877.086 362.52 879.006 364.696C880.926 366.872 881.886 370.115 881.886 374.424L875.358 375.064C875.358 372.035 874.782 369.923 873.63 368.728C872.52 367.533 870.92 366.936 868.83 366.936C866.782 366.936 865.118 367.256 863.838 367.896C862.6 368.493 861.619 369.304 860.894 370.328C860.168 371.352 859.592 372.696 859.166 374.36C858.483 377.091 858.142 381.123 858.142 386.456C858.142 391.747 859.059 395.715 860.894 398.36C862.771 400.963 865.779 402.264 869.918 402.264C872.264 402.264 874.44 401.88 876.446 401.112V390.936H867.806L868.446 385.56H882.206V404.76C877.854 406.765 873.416 407.768 868.894 407.768C862.366 407.768 857.822 405.784 855.262 401.816C853.171 398.531 851.976 394.243 851.678 388.952C851.635 387.629 851.614 386.072 851.614 384.28C851.614 377.453 853.107 371.949 856.094 367.768C859.123 363.544 863.432 361.432 869.022 361.432ZM905.479 362.2H929.223L928.455 367.64H911.623V381.976H926.087L925.319 387.352H911.623V407H905.479V362.2ZM977.079 362.2V397.208L977.591 406.616L972.599 407.32L971.959 403.608H971.703C968.93 406.381 965.581 407.768 961.655 407.768C957.73 407.768 954.551 406.765 952.119 404.76C949.687 402.755 948.471 399.725 948.471 395.672V362.2H954.615V394.584C954.615 397.272 955.426 399.235 957.047 400.472C958.711 401.667 960.738 402.264 963.127 402.264C966.626 402.264 969.229 400.941 970.935 398.296V362.2H977.079ZM1007.87 362.2V401.56H1024.32L1023.55 407H1001.73V362.2H1007.87ZM1085.39 361.432C1089.83 361.432 1092.99 362.52 1094.86 364.696C1096.74 366.872 1097.68 370.136 1097.68 374.488L1091.15 375.128C1091.15 372.013 1090.6 369.88 1089.49 368.728C1088.38 367.533 1086.78 366.936 1084.69 366.936C1082.64 366.936 1081 367.277 1079.76 367.96C1078.57 368.6 1077.61 369.453 1076.88 370.52C1076.2 371.587 1075.66 373.016 1075.28 374.808C1074.68 377.581 1074.38 381.549 1074.38 386.712C1074.38 391.875 1075.37 395.757 1077.33 398.36C1079.29 400.963 1082.32 402.264 1086.42 402.264C1088.34 402.264 1091.02 401.667 1094.48 400.472C1095.29 400.173 1095.76 400.003 1095.89 399.96L1097.68 404.568C1093.71 406.701 1089.57 407.768 1085.26 407.768C1082.36 407.768 1079.85 407.32 1077.71 406.424C1075.58 405.528 1073.89 404.397 1072.66 403.032C1071.42 401.624 1070.42 399.875 1069.65 397.784C1068.45 394.371 1067.86 390.573 1067.86 386.392C1067.86 382.168 1068.18 378.712 1068.82 376.024C1069.46 373.293 1070.44 370.819 1071.76 368.6C1073.13 366.339 1074.96 364.589 1077.26 363.352C1079.61 362.072 1082.32 361.432 1085.39 361.432ZM1133.46 361.88L1145.88 407H1139.41L1136.4 395.16H1122.2L1119.06 407H1113.11L1125.59 362.648L1133.46 361.88ZM1129.24 367.64L1123.67 389.912H1135.12L1129.68 367.64H1129.24ZM1165.54 362.2H1180.01C1184.57 362.2 1187.71 363.437 1189.41 365.912C1190.95 368.173 1191.72 370.925 1191.72 374.168C1191.72 377.411 1190.86 380.184 1189.16 382.488C1187.45 384.749 1185.15 386.371 1182.25 387.352L1194.47 407H1187.24L1176.23 388.376H1171.69V407H1165.54V362.2ZM1171.69 366.936V383.256H1176.61C1179.43 383.256 1181.58 382.531 1183.08 381.08C1184.57 379.587 1185.32 377.539 1185.32 374.936C1185.32 372.291 1184.68 370.307 1183.4 368.984C1182.16 367.619 1180.09 366.936 1177.19 366.936H1171.69ZM1213.04 362.2H1237.3L1236.53 367.704H1219.19V381.464H1234.48L1233.71 386.84H1219.19V401.496H1237.62L1236.85 407H1213.04V362.2ZM1258.1 362.2H1282.36L1281.59 367.704H1264.25V381.464H1279.54L1278.78 386.84H1264.25V401.496H1282.68L1281.91 407H1258.1V362.2ZM1303.17 362.2H1317.63C1322.2 362.2 1325.33 363.437 1327.04 365.912C1328.57 368.173 1329.34 370.925 1329.34 374.168C1329.34 377.411 1328.49 380.184 1326.78 382.488C1325.08 384.749 1322.77 386.371 1319.87 387.352L1332.09 407H1324.86L1313.85 388.376H1309.31V407H1303.17V362.2ZM1309.31 366.936V383.256H1314.24C1317.05 383.256 1319.21 382.531 1320.7 381.08C1322.2 379.587 1322.94 377.539 1322.94 374.936C1322.94 372.291 1322.3 370.307 1321.02 368.984C1319.78 367.619 1317.72 366.936 1314.81 366.936H1309.31ZM1347.27 373.464C1347.27 370.051 1348.55 367.192 1351.11 364.888C1353.67 362.584 1356.94 361.432 1360.91 361.432C1364.87 361.432 1367.88 362.413 1369.93 364.376C1371.98 366.339 1373.15 369.027 1373.45 372.44L1366.92 373.08C1366.79 371.117 1366.13 369.603 1364.94 368.536C1363.79 367.469 1362.19 366.936 1360.14 366.936C1358.13 366.936 1356.55 367.427 1355.4 368.408C1354.25 369.389 1353.67 370.648 1353.67 372.184C1353.67 374.232 1354.34 375.896 1355.66 377.176C1356.98 378.456 1359.24 379.907 1362.44 381.528C1365.26 382.979 1367.18 384.045 1368.2 384.728C1369.27 385.368 1370.34 386.179 1371.4 387.16C1373.45 388.995 1374.47 391.661 1374.47 395.16C1374.47 398.659 1373.15 401.645 1370.51 404.12C1367.86 406.552 1364.3 407.768 1359.82 407.768C1355.34 407.768 1351.09 406.381 1347.08 403.608L1349.71 398.872C1353.67 401.133 1357.41 402.264 1360.91 402.264C1363 402.264 1364.7 401.752 1366.03 400.728C1367.35 399.661 1368.01 398.147 1368.01 396.184C1368.01 394.179 1367.33 392.6 1365.96 391.448C1364.64 390.296 1362.95 389.251 1360.91 388.312C1358.9 387.373 1357.66 386.797 1357.19 386.584C1356.72 386.328 1355.94 385.901 1354.83 385.304C1353.72 384.664 1352.91 384.131 1352.39 383.704C1351.88 383.277 1351.22 382.68 1350.41 381.912C1349.64 381.101 1349.09 380.333 1348.75 379.608C1347.76 377.603 1347.27 375.555 1347.27 373.464Z" fill="black"/>
<path d="M117.527 505.517C117.527 484.837 102.858 473 84.7634 473C66.6687 473 52 484.837 52 505.517C52 526.197 66.6687 537.049 84.7634 537.049C102.858 537.049 117.527 526.197 117.527 505.517Z" fill="#CCB8E5"/>
<path d="M72.0567 517.343C72.0567 517.343 78.2332 517.343 78.2332 510.755C78.2332 507.763 76.5863 506.225 72.0567 506.225C66.2921 506.225 60.5273 509.107 60.5273 517.343C60.5273 522.696 64.3565 528.049 72.0567 528.049C81.5275 528.049 88.5272 523.519 88.5273 510.755C88.5274 508.182 88.5273 504.166 88.5273 504.166" stroke="black" stroke-width="2"/>
<path d="M72.0567 492.225C72.0567 492.225 78.2332 492.225 78.2332 498.814C78.2332 501.805 76.5863 503.343 72.0567 503.343C66.2921 503.343 60.5273 500.461 60.5273 492.225C60.5273 486.873 64.3565 481.52 72.0567 481.52C81.5275 481.519 88.5272 486.049 88.5273 498.814C88.5274 501.387 88.5273 505.402 88.5273 505.402" stroke="black" stroke-width="2"/>
<path d="M105.527 519.049C105.527 519.049 105.273 511.177 102.027 508.049C98.3051 504.461 89.0273 505.549 89.0273 505.549" stroke="black" stroke-width="2"/>
<path d="M105.527 491.394C105.527 491.394 105.273 499.265 102.027 502.394C98.3051 505.981 89.0273 504.894 89.0273 504.894" stroke="black" stroke-width="2"/>
<path d="M1802 505.517C1802 484.837 1816.67 473 1834.76 473C1852.86 473 1867.53 484.837 1867.53 505.517C1867.53 526.197 1852.86 537.049 1834.76 537.049C1816.67 537.049 1802 526.197 1802 505.517Z" fill="#CCB8E5"/>
<path d="M1847.47 517.343C1847.47 517.343 1841.29 517.343 1841.29 510.755C1841.29 507.763 1842.94 506.225 1847.47 506.225C1853.24 506.225 1859 509.107 1859 517.343C1859 522.696 1855.17 528.049 1847.47 528.049C1838 528.049 1831 523.519 1831 510.755C1831 508.182 1831 504.166 1831 504.166" stroke="black" stroke-width="2"/>
<path d="M1847.47 492.225C1847.47 492.225 1841.29 492.225 1841.29 498.814C1841.29 501.805 1842.94 503.343 1847.47 503.343C1853.24 503.343 1859 500.461 1859 492.225C1859 486.873 1855.17 481.52 1847.47 481.52C1838 481.519 1831 486.049 1831 498.814C1831 501.387 1831 505.402 1831 505.402" stroke="black" stroke-width="2"/>
<path d="M1814 519.049C1814 519.049 1814.25 511.177 1817.5 508.049C1821.22 504.461 1830.5 505.549 1830.5 505.549" stroke="black" stroke-width="2"/>
<path d="M1814 491.394C1814 491.394 1814.25 499.265 1817.5 502.394C1821.22 505.981 1830.5 504.894 1830.5 504.894" stroke="black" stroke-width="2"/>
<path d="M686.897 474H695.057C696.817 474 698.35 474.293 699.657 474.88C700.99 475.44 702.03 476.16 702.777 477.04C703.55 477.92 704.177 479.013 704.657 480.32C705.404 482.453 705.777 485.093 705.777 488.24C705.777 491.973 705.004 495.133 703.457 497.72C702.657 499.053 701.55 500.107 700.137 500.88C698.724 501.627 697.07 502 695.177 502H686.897V474ZM690.737 477.36V498.64H694.737C697.697 498.64 699.63 497.533 700.537 495.32C700.99 494.227 701.297 493.107 701.457 491.96C701.617 490.813 701.697 489.44 701.697 487.84C701.697 486.24 701.577 484.853 701.337 483.68C701.124 482.48 700.764 481.387 700.257 480.4C699.164 478.373 697.217 477.36 694.417 477.36H690.737ZM715.229 474V502H711.389V474H715.229ZM722.444 474H731.644C734.577 474 736.604 474.733 737.724 476.2C738.87 477.64 739.444 479.573 739.444 482C739.444 484.373 738.804 486.453 737.524 488.24C736.83 489.227 735.777 490.013 734.364 490.6C732.95 491.16 731.244 491.44 729.244 491.44H726.284V502H722.444V474ZM726.284 476.92V488.24H730.284C733.67 488.24 735.364 486.427 735.364 482.8C735.364 480.827 735.004 479.36 734.284 478.4C733.59 477.413 732.137 476.92 729.924 476.92H726.284ZM757.409 479.04C756.929 478.427 756.262 477.933 755.409 477.56C754.556 477.16 753.516 476.96 752.289 476.96C751.089 476.96 750.062 477.267 749.209 477.88C748.382 478.467 747.769 479.333 747.369 480.48C746.702 482.427 746.369 485.04 746.369 488.32C746.369 492.587 746.969 495.467 748.169 496.96C749.262 498.347 750.942 499.04 753.209 499.04C754.276 499.04 755.182 498.827 755.929 498.4C756.702 497.947 757.289 497.4 757.689 496.76C758.116 496.093 758.449 495.227 758.689 494.16C759.062 492.507 759.249 490.68 759.249 488.68C759.249 486.68 759.209 485.213 759.129 484.28C759.049 483.32 758.862 482.36 758.569 481.4C758.302 480.413 757.916 479.627 757.409 479.04ZM753.249 473.52C759.969 473.52 763.329 478.147 763.329 487.4C763.329 492.173 762.409 495.88 760.569 498.52C758.729 501.16 755.996 502.48 752.369 502.48C745.649 502.48 742.289 497.853 742.289 488.6C742.289 483.827 743.209 480.12 745.049 477.48C746.889 474.84 749.622 473.52 753.249 473.52ZM772.768 474V498.6H783.048L782.568 502H768.928V474H772.768ZM791.088 474V502H787.248V474H791.088Z" fill="black"/>
<path d="M1110.25 502H1097.69V499.4L1102.41 499V488.6L1102.73 485.36L1102.61 485.32L1101.01 486.48L1098.01 488L1096.81 485.72L1101.69 482.32L1103.45 480.8L1106.33 481.12L1106.01 486.64V499L1110.25 499.4V502ZM1121.18 490.68C1123.76 490.68 1125.76 491.347 1127.18 492.68C1128.62 493.987 1129.34 496.053 1129.34 498.88C1129.34 501.707 1128.46 503.907 1126.7 505.48C1124.94 507.08 1122.87 507.88 1120.5 507.88C1117.43 507.88 1114.95 507.213 1113.06 505.88L1114.18 503.16C1116.47 504.173 1118.46 504.68 1120.14 504.68C1123.71 504.68 1125.5 502.76 1125.5 498.92C1125.5 497.187 1125 495.907 1124.02 495.08C1123.03 494.227 1121.84 493.8 1120.46 493.8C1119.1 493.8 1117.74 494.16 1116.38 494.88L1114.58 493.68L1115.86 481H1128.3L1127.82 484.32H1119.14L1118.46 490.08L1118.26 491.16C1119.14 490.84 1120.11 490.68 1121.18 490.68ZM1135.87 502.48C1134.24 502.48 1133.43 501.573 1133.43 499.76C1133.43 499.093 1133.64 498.52 1134.07 498.04C1134.52 497.56 1135.21 497.32 1136.15 497.32C1137.77 497.32 1138.59 498.227 1138.59 500.04C1138.59 500.707 1138.36 501.28 1137.91 501.76C1137.48 502.24 1136.8 502.48 1135.87 502.48ZM1154.07 499.6C1154.07 498.053 1153.61 496.933 1152.71 496.24C1151.8 495.547 1150.36 495.2 1148.39 495.2H1146.31V492.16C1146.47 492.16 1146.63 492.16 1146.79 492.16C1149.11 492.16 1150.85 491.413 1152.03 489.92C1152.69 489.093 1153.03 488.28 1153.03 487.48C1153.03 486.68 1152.73 485.853 1152.15 485C1151.56 484.147 1150.33 483.72 1148.47 483.72C1147.35 483.72 1145.83 484.053 1143.91 484.72L1142.79 482.2C1144.95 481.08 1147.21 480.52 1149.59 480.52C1151.99 480.52 1153.79 481.08 1154.99 482.2C1156.19 483.32 1156.79 484.773 1156.79 486.56C1156.79 489.68 1155.48 491.88 1152.87 493.16C1154.39 493.56 1155.6 494.32 1156.51 495.44C1157.41 496.533 1157.87 497.947 1157.87 499.68C1157.87 502.267 1157.08 504.28 1155.51 505.72C1153.93 507.16 1151.75 507.88 1148.95 507.88C1146.15 507.88 1143.75 507.173 1141.75 505.76L1142.91 503.04C1145.33 504.107 1147.55 504.64 1149.55 504.64C1152.56 504.64 1154.07 502.96 1154.07 499.6ZM1164.62 502.48C1162.99 502.48 1162.18 501.573 1162.18 499.76C1162.18 499.093 1162.39 498.52 1162.82 498.04C1163.27 497.56 1163.96 497.32 1164.9 497.32C1166.52 497.32 1167.34 498.227 1167.34 500.04C1167.34 500.707 1167.11 501.28 1166.66 501.76C1166.23 502.24 1165.55 502.48 1164.62 502.48ZM1171.86 482.36C1174.15 481.133 1176.48 480.52 1178.86 480.52C1181.23 480.52 1183.06 481.147 1184.34 482.4C1185.64 483.627 1186.3 485.28 1186.3 487.36C1186.3 490.4 1184.34 493.24 1180.42 495.88C1179.7 496.36 1178.87 496.933 1177.94 497.6C1177 498.267 1176.35 498.72 1175.98 498.96L1176.1 499.12L1178.5 498.88H1186.86L1186.02 502H1171.54V498.16C1174.02 496.347 1175.8 495.013 1176.9 494.16C1178.02 493.307 1179.07 492.427 1180.06 491.52C1181.04 490.613 1181.67 489.88 1181.94 489.32C1182.23 488.733 1182.38 488.093 1182.38 487.4C1182.38 486.173 1181.98 485.253 1181.18 484.64C1180.38 484.027 1179.38 483.72 1178.18 483.72C1177 483.72 1175.34 484.107 1173.18 484.88L1171.86 482.36ZM1199.94 480.76C1201.46 480.76 1202.81 481.013 1203.98 481.52C1205.15 482 1206.07 482.613 1206.74 483.36C1207.41 484.08 1207.95 484.933 1208.38 485.92C1209.1 487.547 1209.46 489.253 1209.46 491.04C1209.46 494.453 1208.53 497.173 1206.66 499.2C1204.79 501.227 1202.29 502.24 1199.14 502.24C1197.7 502.24 1196.39 502 1195.22 501.52C1194.07 501.013 1193.15 500.387 1192.46 499.64C1191.79 498.893 1191.23 498.04 1190.78 497.08C1189.98 495.373 1189.58 493.667 1189.58 491.96C1189.58 488.573 1190.54 485.867 1192.46 483.84C1194.38 481.787 1196.87 480.76 1199.94 480.76ZM1205.74 491.24C1205.74 489.08 1205.23 487.333 1204.22 486C1203.21 484.64 1201.63 483.96 1199.5 483.96C1197.37 483.96 1195.82 484.707 1194.86 486.2C1193.9 487.667 1193.42 489.493 1193.42 491.68C1193.42 493.84 1193.95 495.613 1195.02 497C1196.09 498.36 1197.63 499.04 1199.66 499.04C1203.71 499.04 1205.74 496.44 1205.74 491.24ZM1213.15 482.36C1215.44 481.133 1217.77 480.52 1220.15 480.52C1222.52 480.52 1224.35 481.147 1225.63 482.4C1226.93 483.627 1227.59 485.28 1227.59 487.36C1227.59 490.4 1225.63 493.24 1221.71 495.88C1220.99 496.36 1220.16 496.933 1219.23 497.6C1218.29 498.267 1217.64 498.72 1217.27 498.96L1217.39 499.12L1219.79 498.88H1228.15L1227.31 502H1212.83V498.16C1215.31 496.347 1217.09 495.013 1218.19 494.16C1219.31 493.307 1220.36 492.427 1221.35 491.52C1222.33 490.613 1222.96 489.88 1223.23 489.32C1223.52 488.733 1223.67 488.093 1223.67 487.4C1223.67 486.173 1223.27 485.253 1222.47 484.64C1221.67 484.027 1220.67 483.72 1219.47 483.72C1218.29 483.72 1216.63 484.107 1214.47 484.88L1213.15 482.36ZM1246.03 498.92H1250.47L1249.63 502H1246.03V507.52L1242.43 507.92V502H1231.47V498.56L1240.43 480.4L1243.11 482.4L1235.23 498.92H1242.43V495.6L1242.91 490L1246.03 489.6V498.92Z" fill="black"/>
</svg>
