<svg width="732" height="262" viewBox="0 0 732 262" fill="none" xmlns="http://www.w3.org/2000/svg">
<path fill-rule="evenodd" clip-rule="evenodd" d="M47.7288 238.288H492.789V232.447L486.781 231.223C480.995 229.943 475.487 227.384 470.759 223.824C465.028 219.429 456.962 210.75 446.614 197.732L389.09 125.688L445.056 59.374C453.123 49.8608 459.855 43.7412 465.251 41.0152C469.59 38.8456 475.209 37.5104 482.052 37.121H488.06V30H43V36.509L50.7886 37.121C57.5757 37.6773 64.0847 40.1251 69.5367 44.1863C75.9901 49.0263 83.9455 57.3712 93.3474 69.2766L147.812 137.983L88.3405 208.08C80.7745 217.092 74.0986 223.323 68.3128 226.828C64.808 228.886 60.9693 230.388 57.0194 231.167L47.3393 232.113V238.288M411.454 197.843C416.962 204.742 419.744 211.251 419.744 217.426C419.744 224.714 416.906 231.112 409.563 231.112H329.452C325.391 231.112 318.047 225.604 318.047 219.763C318.047 214.199 321.441 207.412 328.228 199.345L371.788 147.718L411.454 197.843ZM434.431 47.3574C434.431 52.5312 431.148 58.9845 424.639 66.6062L382.358 115.507L339.521 60.8204C335.683 55.9804 333.736 51.6411 333.736 47.7468C333.736 41.4047 337.463 37.121 346.531 37.121H420.467C430.258 37.121 434.431 41.2378 434.431 47.3574ZM124.557 60.8204C120.719 55.9804 118.772 51.6411 118.772 47.7468C118.772 41.4047 123.055 37.121 131.567 37.121H205.503C214.849 37.121 219.466 41.2934 219.466 47.3574C219.466 52.5312 216.184 58.9845 209.675 66.6062L167.394 115.507L124.557 60.8204ZM103.083 219.763C103.083 214.199 106.477 207.412 113.264 199.345L156.824 147.718L196.546 197.843C202.053 204.742 204.835 211.251 204.835 217.426C204.835 224.714 201.775 231.112 194.654 231.112H114.543C106.365 231.112 103.083 225.548 103.083 219.763Z" fill="#333333"/>
<path d="M490.789 238.288V232.447H692.8V238.288H490.789Z" fill="#333333"/>
<mask id="mask0_154_743" style="mask-type:luminance" maskUnits="userSpaceOnUse" x="173" y="37" width="190" height="195">
<path d="M362.165 137.983L302.693 208.024C295.127 217.037 288.452 223.267 282.666 226.772C279.217 228.831 275.378 230.333 271.428 231.112H271.317C265.531 229.832 260.079 227.273 255.295 223.713C249.564 219.318 241.553 210.639 231.15 197.621L173.682 125.688L229.648 59.3742C237.715 49.8611 244.446 43.7415 249.843 41.0155C254.015 38.9014 259.356 37.6219 265.809 37.1768C272.374 37.7888 278.66 40.2366 283.89 44.1865C290.343 49.0266 298.299 57.3714 307.645 69.2768L362.165 137.983Z" fill="white"/>
</mask>
<g mask="url(#mask0_154_743)">
<path fill-rule="evenodd" clip-rule="evenodd" d="M294 33.5H248L163.5 128L257 233.5H286.5L369 137.5L294 33.5Z" fill="#FAFAFA"/>
<path d="M179.41 133.81C196.044 111.891 247.226 31.224 286.058 59.0959C276.823 57.9276 268.033 54.3115 253.846 62.5451C222.804 80.57 216.072 117.065 192.039 142.211C190.759 143.49 188.59 142.656 187.533 143.546C179.41 133.81 187.533 143.546 179.41 133.81Z" fill="#333333"/>
<path fill-rule="evenodd" clip-rule="evenodd" d="M232.039 182.6C230.203 182.656 227.81 184.047 226.753 183.212C222.08 179.54 224.361 172.141 222.692 168.914C211.788 147.774 263.582 105.326 276.878 102.211C288.339 99.5409 296.572 102.211 307.031 102.322C309.757 102.434 312.539 107.329 311.204 110.055C302.358 129.916 295.126 135.368 275.098 150.055C272.038 152.28 271.037 149.165 268.7 151.001C265.752 153.115 268.533 155.451 266.308 157.065C259.465 162.35 248.172 169.916 242.776 173.532C239.048 176.035 235.377 179.985 232.039 182.6Z" fill="#333333"/>
<path fill-rule="evenodd" clip-rule="evenodd" d="M254.46 158.734C246.838 163.462 242.721 164.241 238.771 156.341C240.051 155.062 241.442 153.838 242.888 152.725C243.389 152.392 242.721 152.392 243.89 151.724C247.561 152.169 252.68 155.229 254.46 158.734Z" fill="#FAFAFA"/>
<path fill-rule="evenodd" clip-rule="evenodd" d="M279.604 140.152C275.487 137.649 273.596 133.922 273.652 127.858C277.435 123.741 280.939 122.851 284.5 120.292C288.394 122.461 289.785 125.243 291.343 127.802C287.282 133.81 286.503 134.478 279.604 140.152Z" fill="#FAFAFA"/>
</g>
<path d="M692.797 30.9458V36.438C685.672 37.7245 680.279 40.0005 676.617 43.2661C671.372 48.1151 666.721 55.537 662.664 65.5317L592.453 236.829H586.961L511.555 63.3052C507.695 54.3989 504.974 48.9562 503.391 46.9771C500.917 43.9094 497.849 41.5344 494.187 39.8521C490.625 38.0708 485.776 36.9328 479.641 36.438V30.9458H561.875V36.438C552.573 37.3286 546.536 38.912 543.766 41.188C540.995 43.464 539.609 46.3833 539.609 49.9458C539.609 54.8937 541.885 62.6125 546.437 73.1021L597.648 191.11L645.148 74.5864C649.799 63.1073 652.125 55.1411 652.125 50.688C652.125 47.8182 650.69 45.0969 647.82 42.5239C644.95 39.8521 640.101 37.9719 633.273 36.8833C632.779 36.7844 631.937 36.6359 630.75 36.438V30.9458H692.797Z" fill="#333333"/>
<path d="M561.875 30.9458V36.438H630.75V30.9458H561.875Z" fill="#333333"/>
</svg>
